<svg width="440" height="238" viewBox="0 0 440 238" fill="none" xmlns="http://www.w3.org/2000/svg">
<g clip-path="url(#clip0_8621_310)">
<path d="M4.2459 69.7945L-56.5 67.0803V193.837H485.5V109.733L425.272 138.62L365.044 120.978L304.833 41.2888L245.135 54.4804L184.913 13.5708L124.69 102.366L64.4681 139.977L4.2459 69.7945Z" fill="url(#paint0_linear_8621_310)" fill-opacity="0.4"/>
<path d="M-56.5 67.0803L4.24589 69.7945L64.4681 139.977L124.69 102.366L184.913 13.5708L245.135 54.4805L304.833 41.2888L365.044 120.978L425.272 138.62L485.5 109.733" stroke="#7843FF" stroke-width="2.39953" stroke-linejoin="round"/>
<rect x="-1.5" width="443" height="238" fill="url(#paint1_linear_8621_310)"/>
<g opacity="0.4" filter="url(#filter0_f_8621_310)">
<rect x="120.5" y="4" width="200" height="200" fill="#7843FF"/>
</g>
<g clip-path="url(#clip1_8621_310)">
<path opacity="0.05" d="M488.199 59.22L445.241 81.509M445.241 81.509L384.744 112.898M445.241 81.509L506.908 112.963M445.241 81.509L384.674 50.6163M384.744 112.898L323.47 144.691M384.744 112.898L446.411 144.352M384.744 112.898L324.177 82.0054M323.47 144.691L262.973 176.08M323.47 144.691L385.137 176.144M323.47 144.691L262.903 113.798M262.973 176.08L200.821 208.327M262.973 176.08L324.64 207.534M262.973 176.08L202.406 145.187M200.821 208.327L140.325 239.716M200.821 208.327L262.489 239.781M200.821 208.327L140.255 177.435M140.325 239.716L116.075 252.299M140.325 239.716L201.992 271.17M140.325 239.716L79.7578 208.824M555.462 87.7705L506.908 112.963M506.908 112.963L446.411 144.352M506.908 112.963L562.524 141.33M446.411 144.352L385.137 176.144M446.411 144.352L542.103 193.161M385.137 176.144L324.64 207.534M385.137 176.144L422.191 195.044M324.64 207.534L262.489 239.781M324.64 207.534L401.771 246.875M262.489 239.781L201.992 271.17M262.489 239.781L312.344 265.21M201.992 271.17L183.338 280.849M201.992 271.17L291.924 317.041M429.646 27.2822L384.674 50.6163M384.674 50.6163L324.177 82.0054M384.674 50.6163L320.131 17.6958M324.177 82.0054L262.903 113.798M324.177 82.0054L259.166 48.846M262.903 113.798L202.406 145.187M262.903 113.798L197.418 80.3963M202.406 145.187L140.255 177.435M202.406 145.187L136.452 111.546M140.255 177.435L79.7578 208.824M140.255 177.435L73.8192 143.549M79.7578 208.824L57.5221 220.361M79.7578 208.824L12.854 174.699M432.066 -39.4969L384.861 -15.3776M384.861 -15.3776L320.131 17.6958M384.861 -15.3776L600.172 94.444M384.861 -15.3776L323.873 -46.4848M320.131 17.6958L259.166 48.846M320.131 17.6958L259.144 -13.4113M259.166 48.846L197.418 80.3963M259.166 48.846L198.179 17.7389M197.418 80.3963L136.452 111.546M197.418 80.3963L136.43 49.2892M136.452 111.546L73.8192 143.549M136.452 111.546L75.465 80.4393M73.8192 143.549L12.854 174.699M73.8192 143.549L12.832 112.442M12.854 174.699L-98.2958 231.491M12.854 174.699L-48.1333 143.592M402.063 -86.4359L384.839 -77.6349M384.839 -77.6349L323.873 -46.4848M384.839 -77.6349L620.592 42.6134M384.839 -77.6349L262.283 -140.146M323.873 -46.4848L259.144 -13.4113M323.873 -46.4848L262.305 -77.8884M259.144 -13.4113L198.179 17.7389M259.144 -13.4113L197.576 -44.8149M198.179 17.7389L136.43 49.2892M198.179 17.7389L136.61 -13.6647M136.43 49.2892L75.465 80.4393M136.43 49.2892L74.8618 17.8856M75.465 80.4393L12.832 112.442M75.465 80.4393L13.8965 49.0357M12.832 112.442L-48.1333 143.592M12.832 112.442L-48.7365 81.038M-48.1333 143.592L-128.298 184.552M-48.1333 143.592L-109.702 112.188M317.864 -106.276L262.305 -77.8884M262.305 -77.8884L197.576 -44.8149M262.305 -77.8884L201.318 -108.996M197.576 -44.8149L136.61 -13.6647M197.576 -44.8149L136.588 -75.9221M136.61 -13.6647L74.8618 17.8856M136.61 -13.6647L75.6229 -44.7719M74.8618 17.8856L13.8965 49.0357M74.8618 17.8856L13.8745 -13.2216M13.8965 49.0357L-48.7365 81.038M13.8965 49.0357L-47.0908 17.9286M-48.7365 81.038L-109.702 112.188M-48.7365 81.038L-109.724 49.9308M-109.702 112.188L-212.498 164.712M-109.702 112.188L-170.689 81.081M287.861 -153.215L262.283 -140.146M262.283 -140.146L201.318 -108.996M262.283 -140.146L90.0396 -228M201.318 -108.996L136.588 -75.9221M201.318 -108.996L69.6196 -176.169M136.588 -75.9221L75.6229 -44.7719M136.588 -75.9221L31.9711 -129.283M75.6229 -44.7719L13.8745 -13.2216M75.6229 -44.7719L11.5509 -77.4524M13.8745 -13.2216L-47.0908 17.9286M13.8745 -13.2216L-108.362 -75.5695M-47.0908 17.9286L-109.724 49.9308M-47.0908 17.9286L-128.782 -23.7388M-109.724 49.9308L-170.689 81.081M-109.724 49.9308L-218.209 -5.40301M-170.689 81.081L-242.5 117.773M-170.689 81.081L-238.629 46.4276M551.107 59.4834L508.149 81.7725M508.149 81.7725L447.652 113.162M508.149 81.7725L569.816 113.226M508.149 81.7725L447.582 50.8797M447.652 113.162L386.378 144.954M447.652 113.162L509.319 144.616M447.652 113.162L387.085 82.2689M386.378 144.954L325.881 176.343M386.378 144.954L448.045 176.408M386.378 144.954L325.811 114.061M325.881 176.343L263.729 208.591M325.881 176.343L387.548 207.797M325.881 176.343L265.314 145.45M263.729 208.591L203.233 239.98M263.729 208.591L325.396 240.045M263.729 208.591L203.162 177.698M203.233 239.98L178.983 252.562M203.233 239.98L264.9 271.434M203.233 239.98L142.666 209.087M618.37 88.0339L569.816 113.226M569.816 113.226L509.319 144.616M569.816 113.226L625.431 141.594M509.319 144.616L448.045 176.408M509.319 144.616L605.011 193.424M448.045 176.408L387.548 207.797M448.045 176.408L485.098 195.307M387.548 207.797L325.396 240.045M387.548 207.797L464.678 247.138M325.396 240.045L264.9 271.434M325.396 240.045L375.252 265.474M264.9 271.434L246.246 281.113M264.9 271.434L354.832 317.304M492.554 27.5456L447.582 50.8797M447.582 50.8797L387.085 82.2689M447.582 50.8797L383.039 17.9592M387.085 82.2689L325.811 114.061M387.085 82.2689L322.074 49.1094M325.811 114.061L265.314 145.45M325.811 114.061L260.325 80.6597M265.314 145.45L203.162 177.698M265.314 145.45L199.36 111.81M203.162 177.698L142.666 209.087M203.162 177.698L136.727 143.812M142.666 209.087L120.43 220.624M142.666 209.087L75.7618 174.962M494.974 -39.2335L447.769 -15.1142M447.769 -15.1142L383.039 17.9592M447.769 -15.1142L663.08 94.7074M447.769 -15.1142L386.781 -46.2213M383.039 17.9592L322.074 49.1094M383.039 17.9592L322.052 -13.1479M322.074 49.1094L260.325 80.6597M322.074 49.1094L261.087 18.0023M260.325 80.6597L199.36 111.81M260.325 80.6597L199.338 49.5526M199.36 111.81L136.727 143.812M199.36 111.81L138.373 80.7027M136.727 143.812L75.7618 174.962M136.727 143.812L75.7398 112.705M75.7618 174.962L-35.388 231.754M75.7618 174.962L14.7746 143.855M464.971 -86.1724L447.747 -77.3715M447.747 -77.3715L386.781 -46.2213M447.747 -77.3715L683.5 42.8768M447.747 -77.3715L325.191 -139.882M386.781 -46.2213L322.052 -13.1479M386.781 -46.2213L325.213 -77.6249M322.052 -13.1479L261.087 18.0023M322.052 -13.1479L260.483 -44.5515M261.087 18.0023L199.338 49.5526M261.087 18.0023L199.518 -13.4013M199.338 49.5526L138.373 80.7027M199.338 49.5526L137.77 18.149M138.373 80.7027L75.7398 112.705M138.373 80.7027L76.8043 49.2991M75.7398 112.705L14.7746 143.855M75.7398 112.705L14.1713 81.3014M14.7746 143.855L-65.3902 184.815M14.7746 143.855L-46.7939 112.452M380.772 -106.013L325.213 -77.6249M325.213 -77.6249L260.483 -44.5515M325.213 -77.6249L264.226 -108.732M260.483 -44.5515L199.518 -13.4013M260.483 -44.5515L199.496 -75.6586M199.518 -13.4013L137.77 18.149M199.518 -13.4013L138.531 -44.5085M137.77 18.149L76.8043 49.2991M137.77 18.149L76.7823 -12.9582M76.8043 49.2991L14.1713 81.3014M76.8043 49.2991L15.817 18.192M14.1713 81.3014L-46.7939 112.452M14.1713 81.3014L-46.816 50.1942M-46.7939 112.452L-149.59 164.975M-46.7939 112.452L-107.781 81.3444M350.769 -152.952L325.191 -139.882M325.191 -139.882L264.226 -108.732M325.191 -139.882L152.947 -227.737M264.226 -108.732L199.496 -75.6586M264.226 -108.732L132.527 -175.906M199.496 -75.6586L138.531 -44.5085M199.496 -75.6586L94.8789 -129.02M138.531 -44.5085L76.7823 -12.9582M138.531 -44.5085L74.4587 -77.189M76.7823 -12.9582L15.817 18.192M76.7823 -12.9582L-45.4542 -75.306M15.817 18.192L-46.816 50.1942M15.817 18.192L-65.8742 -23.4754M-46.816 50.1942L-107.781 81.3444M-46.816 50.1942L-155.301 -5.13958M-107.781 81.3444L-179.592 118.036M-107.781 81.3444L-175.721 46.691" stroke="white"/>
</g>
<rect x="45.5" y="73" width="169" height="103" rx="16" fill="#1B1A20"/>
<rect x="45.5" y="73" width="169" height="103" rx="12" fill="#7843FF"/>
<rect x="46" y="73.5" width="168" height="102" rx="11.5" stroke="url(#paint2_linear_8621_310)" stroke-opacity="0.06"/>
<rect x="99.5" y="91" width="61" height="15" rx="7.5" fill="white" fill-opacity="0.1"/>
<rect x="99.801" y="91.301" width="60.3981" height="14.3981" rx="7.19903" stroke="white" stroke-opacity="0.1" stroke-width="0.601948"/>
<rect x="72.5" y="118" width="115" height="9" rx="4.5" fill="white" fill-opacity="0.1"/>
<rect x="72.801" y="118.301" width="114.398" height="8.39805" rx="4.19903" stroke="white" stroke-opacity="0.1" stroke-width="0.601948"/>
<rect x="82.5" y="134" width="96" height="9" rx="4.5" fill="white" fill-opacity="0.1"/>
<rect x="82.801" y="134.301" width="95.398" height="8.39805" rx="4.19903" stroke="white" stroke-opacity="0.1" stroke-width="0.601948"/>
<rect x="63.5" y="149" width="132" height="9" rx="4.5" fill="white" fill-opacity="0.1"/>
<rect x="63.801" y="149.301" width="131.398" height="8.39805" rx="4.19903" stroke="white" stroke-opacity="0.1" stroke-width="0.601948"/>
<rect x="226.5" y="73" width="169" height="103" rx="16" fill="#1B1A20"/>
<rect x="226.5" y="73" width="169" height="103" rx="12" fill="#F95341"/>
<rect x="227" y="73.5" width="168" height="102" rx="11.5" stroke="url(#paint3_linear_8621_310)" stroke-opacity="0.06"/>
<rect x="280.5" y="91" width="61" height="15" rx="7.5" fill="white" fill-opacity="0.1"/>
<rect x="280.801" y="91.301" width="60.3981" height="14.3981" rx="7.19903" stroke="white" stroke-opacity="0.1" stroke-width="0.601948"/>
<rect x="253.5" y="118" width="115" height="9" rx="4.5" fill="white" fill-opacity="0.1"/>
<rect x="253.801" y="118.301" width="114.398" height="8.39805" rx="4.19903" stroke="white" stroke-opacity="0.1" stroke-width="0.601948"/>
<rect x="263.5" y="134" width="96" height="9" rx="4.5" fill="white" fill-opacity="0.1"/>
<rect x="263.801" y="134.301" width="95.398" height="8.39805" rx="4.19903" stroke="white" stroke-opacity="0.1" stroke-width="0.601948"/>
<rect x="244.5" y="149" width="132" height="9" rx="4.5" fill="white" fill-opacity="0.1"/>
<rect x="244.801" y="149.301" width="131.398" height="8.39805" rx="4.19903" stroke="white" stroke-opacity="0.1" stroke-width="0.601948"/>
<g filter="url(#filter1_d_8621_310)">
<ellipse cx="184.5" cy="14" rx="4" ry="3.99999" fill="url(#paint4_radial_8621_310)"/>
</g>
<g filter="url(#filter2_d_8621_310)">
<ellipse cx="306.5" cy="41" rx="4" ry="3.99999" fill="url(#paint5_radial_8621_310)"/>
</g>
<g filter="url(#filter3_d_8621_310)">
<ellipse cx="422.5" cy="138" rx="4" ry="3.99999" fill="url(#paint6_radial_8621_310)"/>
</g>
<g filter="url(#filter4_d_8621_310)">
<ellipse cx="5.5" cy="71" rx="4" ry="3.99999" fill="url(#paint7_radial_8621_310)"/>
</g>
</g>
<defs>
<filter id="filter0_f_8621_310" x="20.5" y="-96" width="400" height="400" filterUnits="userSpaceOnUse" color-interpolation-filters="sRGB">
<feFlood flood-opacity="0" result="BackgroundImageFix"/>
<feBlend mode="normal" in="SourceGraphic" in2="BackgroundImageFix" result="shape"/>
<feGaussianBlur stdDeviation="50" result="effect1_foregroundBlur_8621_310"/>
</filter>
<filter id="filter1_d_8621_310" x="169.827" y="-0.672659" width="29.3453" height="29.3453" filterUnits="userSpaceOnUse" color-interpolation-filters="sRGB">
<feFlood flood-opacity="0" result="BackgroundImageFix"/>
<feColorMatrix in="SourceAlpha" type="matrix" values="0 0 0 0 0 0 0 0 0 0 0 0 0 0 0 0 0 0 127 0" result="hardAlpha"/>
<feOffset/>
<feGaussianBlur stdDeviation="5.33633"/>
<feComposite in2="hardAlpha" operator="out"/>
<feColorMatrix type="matrix" values="0 0 0 0 1 0 0 0 0 1 0 0 0 0 1 0 0 0 0.38 0"/>
<feBlend mode="normal" in2="BackgroundImageFix" result="effect1_dropShadow_8621_310"/>
<feBlend mode="normal" in="SourceGraphic" in2="effect1_dropShadow_8621_310" result="shape"/>
</filter>
<filter id="filter2_d_8621_310" x="291.827" y="26.3273" width="29.3453" height="29.3453" filterUnits="userSpaceOnUse" color-interpolation-filters="sRGB">
<feFlood flood-opacity="0" result="BackgroundImageFix"/>
<feColorMatrix in="SourceAlpha" type="matrix" values="0 0 0 0 0 0 0 0 0 0 0 0 0 0 0 0 0 0 127 0" result="hardAlpha"/>
<feOffset/>
<feGaussianBlur stdDeviation="5.33633"/>
<feComposite in2="hardAlpha" operator="out"/>
<feColorMatrix type="matrix" values="0 0 0 0 1 0 0 0 0 1 0 0 0 0 1 0 0 0 0.38 0"/>
<feBlend mode="normal" in2="BackgroundImageFix" result="effect1_dropShadow_8621_310"/>
<feBlend mode="normal" in="SourceGraphic" in2="effect1_dropShadow_8621_310" result="shape"/>
</filter>
<filter id="filter3_d_8621_310" x="407.827" y="123.327" width="29.3453" height="29.3453" filterUnits="userSpaceOnUse" color-interpolation-filters="sRGB">
<feFlood flood-opacity="0" result="BackgroundImageFix"/>
<feColorMatrix in="SourceAlpha" type="matrix" values="0 0 0 0 0 0 0 0 0 0 0 0 0 0 0 0 0 0 127 0" result="hardAlpha"/>
<feOffset/>
<feGaussianBlur stdDeviation="5.33633"/>
<feComposite in2="hardAlpha" operator="out"/>
<feColorMatrix type="matrix" values="0 0 0 0 1 0 0 0 0 1 0 0 0 0 1 0 0 0 0.38 0"/>
<feBlend mode="normal" in2="BackgroundImageFix" result="effect1_dropShadow_8621_310"/>
<feBlend mode="normal" in="SourceGraphic" in2="effect1_dropShadow_8621_310" result="shape"/>
</filter>
<filter id="filter4_d_8621_310" x="-9.17266" y="56.3273" width="29.3453" height="29.3453" filterUnits="userSpaceOnUse" color-interpolation-filters="sRGB">
<feFlood flood-opacity="0" result="BackgroundImageFix"/>
<feColorMatrix in="SourceAlpha" type="matrix" values="0 0 0 0 0 0 0 0 0 0 0 0 0 0 0 0 0 0 127 0" result="hardAlpha"/>
<feOffset/>
<feGaussianBlur stdDeviation="5.33633"/>
<feComposite in2="hardAlpha" operator="out"/>
<feColorMatrix type="matrix" values="0 0 0 0 1 0 0 0 0 1 0 0 0 0 1 0 0 0 0.38 0"/>
<feBlend mode="normal" in2="BackgroundImageFix" result="effect1_dropShadow_8621_310"/>
<feBlend mode="normal" in="SourceGraphic" in2="effect1_dropShadow_8621_310" result="shape"/>
</filter>
<linearGradient id="paint0_linear_8621_310" x1="255.5" y1="-7.15356" x2="260.5" y2="213.346" gradientUnits="userSpaceOnUse">
<stop stop-color="#7843FF"/>
<stop offset="1" stop-color="#482899" stop-opacity="0.09"/>
</linearGradient>
<linearGradient id="paint1_linear_8621_310" x1="220" y1="0" x2="220" y2="238" gradientUnits="userSpaceOnUse">
<stop stop-color="#1B1A20"/>
<stop offset="0.2422" stop-color="#1B1A20" stop-opacity="0"/>
<stop offset="0.7385" stop-color="#1B1A20" stop-opacity="0"/>
<stop offset="1" stop-color="#1B1A20"/>
</linearGradient>
<linearGradient id="paint2_linear_8621_310" x1="130" y1="73" x2="130" y2="176" gradientUnits="userSpaceOnUse">
<stop stop-color="white"/>
<stop offset="1" stop-color="white" stop-opacity="0"/>
</linearGradient>
<linearGradient id="paint3_linear_8621_310" x1="311" y1="73" x2="311" y2="176" gradientUnits="userSpaceOnUse">
<stop stop-color="white"/>
<stop offset="1" stop-color="white" stop-opacity="0"/>
</linearGradient>
<radialGradient id="paint4_radial_8621_310" cx="0" cy="0" r="1" gradientUnits="userSpaceOnUse" gradientTransform="translate(184.5 14) rotate(90) scale(3.99999 4)">
<stop stop-color="#D6BDFF"/>
<stop offset="1" stop-color="#7843FF"/>
</radialGradient>
<radialGradient id="paint5_radial_8621_310" cx="0" cy="0" r="1" gradientUnits="userSpaceOnUse" gradientTransform="translate(306.5 41) rotate(90) scale(3.99999 4)">
<stop stop-color="#D6BDFF"/>
<stop offset="1" stop-color="#7843FF"/>
</radialGradient>
<radialGradient id="paint6_radial_8621_310" cx="0" cy="0" r="1" gradientUnits="userSpaceOnUse" gradientTransform="translate(422.5 138) rotate(90) scale(3.99999 4)">
<stop stop-color="#D6BDFF"/>
<stop offset="1" stop-color="#7843FF"/>
</radialGradient>
<radialGradient id="paint7_radial_8621_310" cx="0" cy="0" r="1" gradientUnits="userSpaceOnUse" gradientTransform="translate(5.5 71) rotate(90) scale(3.99999 4)">
<stop stop-color="#D6BDFF"/>
<stop offset="1" stop-color="#7843FF"/>
</radialGradient>
<clipPath id="clip0_8621_310">
<rect width="443" height="238" fill="white" transform="translate(-1.5)"/>
</clipPath>
<clipPath id="clip1_8621_310">
<rect width="443" height="238" fill="white" transform="translate(-1.5)"/>
</clipPath>
</defs>
</svg>
