<svg width="440" height="238" viewBox="0 0 440 238" fill="none" xmlns="http://www.w3.org/2000/svg">
<g clip-path="url(#clip0_8621_347)">
<rect width="443" height="238" transform="translate(-1.5)" fill="#1B1A20"/>
<path d="M45.1316 106.198L-5.5 103.935V246.234H446.256V130.324L396.056 154.402L345.856 139.697L295.671 91.5999L245.912 111.757L195.717 132.629L145.522 142.507L95.3267 146.371L45.1316 106.198Z" fill="url(#paint0_linear_8621_347)" fill-opacity="0.4"/>
<path d="M-5.5 103.935L45.1316 106.198L95.3267 146.371L145.522 142.507L195.717 132.629L245.912 111.757L295.671 91.5999L345.856 139.697L396.056 154.402L446.256 130.324" stroke="#7843FF" stroke-width="2" stroke-linejoin="round"/>
<rect x="-1.5" width="443" height="238" fill="url(#paint1_linear_8621_347)"/>
<g filter="url(#filter0_d_8621_347)">
<ellipse cx="46.5" cy="108" rx="4" ry="3.99999" fill="url(#paint2_radial_8621_347)"/>
</g>
<g filter="url(#filter1_d_8621_347)">
<ellipse cx="395.5" cy="154" rx="4" ry="3.99999" fill="url(#paint3_radial_8621_347)"/>
</g>
<g opacity="0.4" filter="url(#filter2_f_8621_347)">
<rect x="120.5" y="4" width="200" height="200" fill="#7843FF"/>
</g>
<g clip-path="url(#clip1_8621_347)">
<path opacity="0.05" d="M488.199 59.22L445.241 81.509M445.241 81.509L384.744 112.898M445.241 81.509L506.908 112.963M445.241 81.509L384.674 50.6163M384.744 112.898L323.47 144.691M384.744 112.898L446.411 144.352M384.744 112.898L324.177 82.0054M323.47 144.691L262.973 176.08M323.47 144.691L385.137 176.144M323.47 144.691L262.903 113.798M262.973 176.08L200.821 208.327M262.973 176.08L324.64 207.534M262.973 176.08L202.406 145.187M200.821 208.327L140.325 239.716M200.821 208.327L262.489 239.781M200.821 208.327L140.255 177.435M140.325 239.716L116.075 252.299M140.325 239.716L201.992 271.17M140.325 239.716L79.7578 208.824M555.462 87.7705L506.908 112.963M506.908 112.963L446.411 144.352M506.908 112.963L562.524 141.33M446.411 144.352L385.137 176.144M446.411 144.352L542.103 193.161M385.137 176.144L324.64 207.534M385.137 176.144L422.191 195.044M324.64 207.534L262.489 239.781M324.64 207.534L401.771 246.875M262.489 239.781L201.992 271.17M262.489 239.781L312.344 265.21M201.992 271.17L183.338 280.849M201.992 271.17L291.924 317.041M429.646 27.2822L384.674 50.6163M384.674 50.6163L324.177 82.0054M384.674 50.6163L320.131 17.6958M324.177 82.0054L262.903 113.798M324.177 82.0054L259.166 48.846M262.903 113.798L202.406 145.187M262.903 113.798L197.418 80.3963M202.406 145.187L140.255 177.435M202.406 145.187L136.452 111.546M140.255 177.435L79.7578 208.824M140.255 177.435L73.8192 143.549M79.7578 208.824L57.5221 220.361M79.7578 208.824L12.854 174.699M432.066 -39.4969L384.861 -15.3776M384.861 -15.3776L320.131 17.6958M384.861 -15.3776L600.172 94.444M384.861 -15.3776L323.873 -46.4848M320.131 17.6958L259.166 48.846M320.131 17.6958L259.144 -13.4113M259.166 48.846L197.418 80.3963M259.166 48.846L198.179 17.7389M197.418 80.3963L136.452 111.546M197.418 80.3963L136.43 49.2892M136.452 111.546L73.8192 143.549M136.452 111.546L75.465 80.4393M73.8192 143.549L12.854 174.699M73.8192 143.549L12.832 112.442M12.854 174.699L-98.2958 231.491M12.854 174.699L-48.1333 143.592M402.063 -86.4359L384.839 -77.6349M384.839 -77.6349L323.873 -46.4848M384.839 -77.6349L620.592 42.6134M384.839 -77.6349L262.283 -140.146M323.873 -46.4848L259.144 -13.4113M323.873 -46.4848L262.305 -77.8884M259.144 -13.4113L198.179 17.7389M259.144 -13.4113L197.576 -44.8149M198.179 17.7389L136.43 49.2892M198.179 17.7389L136.61 -13.6647M136.43 49.2892L75.465 80.4393M136.43 49.2892L74.8618 17.8856M75.465 80.4393L12.832 112.442M75.465 80.4393L13.8965 49.0357M12.832 112.442L-48.1333 143.592M12.832 112.442L-48.7365 81.038M-48.1333 143.592L-128.298 184.552M-48.1333 143.592L-109.702 112.188M317.864 -106.276L262.305 -77.8884M262.305 -77.8884L197.576 -44.8149M262.305 -77.8884L201.318 -108.996M197.576 -44.8149L136.61 -13.6647M197.576 -44.8149L136.588 -75.9221M136.61 -13.6647L74.8618 17.8856M136.61 -13.6647L75.6229 -44.7719M74.8618 17.8856L13.8965 49.0357M74.8618 17.8856L13.8745 -13.2216M13.8965 49.0357L-48.7365 81.038M13.8965 49.0357L-47.0908 17.9286M-48.7365 81.038L-109.702 112.188M-48.7365 81.038L-109.724 49.9308M-109.702 112.188L-212.498 164.712M-109.702 112.188L-170.689 81.081M287.861 -153.215L262.283 -140.146M262.283 -140.146L201.318 -108.996M262.283 -140.146L90.0396 -228M201.318 -108.996L136.588 -75.9221M201.318 -108.996L69.6196 -176.169M136.588 -75.9221L75.6229 -44.7719M136.588 -75.9221L31.9711 -129.283M75.6229 -44.7719L13.8745 -13.2216M75.6229 -44.7719L11.5509 -77.4524M13.8745 -13.2216L-47.0908 17.9286M13.8745 -13.2216L-108.362 -75.5695M-47.0908 17.9286L-109.724 49.9308M-47.0908 17.9286L-128.782 -23.7388M-109.724 49.9308L-170.689 81.081M-109.724 49.9308L-218.209 -5.40301M-170.689 81.081L-242.5 117.773M-170.689 81.081L-238.629 46.4276M551.107 59.4834L508.149 81.7725M508.149 81.7725L447.652 113.162M508.149 81.7725L569.816 113.226M508.149 81.7725L447.582 50.8797M447.652 113.162L386.378 144.954M447.652 113.162L509.319 144.616M447.652 113.162L387.085 82.2689M386.378 144.954L325.881 176.343M386.378 144.954L448.045 176.408M386.378 144.954L325.811 114.061M325.881 176.343L263.729 208.591M325.881 176.343L387.548 207.797M325.881 176.343L265.314 145.45M263.729 208.591L203.233 239.98M263.729 208.591L325.396 240.045M263.729 208.591L203.162 177.698M203.233 239.98L178.983 252.562M203.233 239.98L264.9 271.434M203.233 239.98L142.666 209.087M618.37 88.0339L569.816 113.226M569.816 113.226L509.319 144.616M569.816 113.226L625.431 141.594M509.319 144.616L448.045 176.408M509.319 144.616L605.011 193.424M448.045 176.408L387.548 207.797M448.045 176.408L485.098 195.307M387.548 207.797L325.396 240.045M387.548 207.797L464.678 247.138M325.396 240.045L264.9 271.434M325.396 240.045L375.252 265.474M264.9 271.434L246.246 281.113M264.9 271.434L354.832 317.304M492.554 27.5456L447.582 50.8797M447.582 50.8797L387.085 82.2689M447.582 50.8797L383.039 17.9592M387.085 82.2689L325.811 114.061M387.085 82.2689L322.074 49.1094M325.811 114.061L265.314 145.45M325.811 114.061L260.325 80.6597M265.314 145.45L203.162 177.698M265.314 145.45L199.36 111.81M203.162 177.698L142.666 209.087M203.162 177.698L136.727 143.812M142.666 209.087L120.43 220.624M142.666 209.087L75.7618 174.962M494.974 -39.2335L447.769 -15.1142M447.769 -15.1142L383.039 17.9592M447.769 -15.1142L663.08 94.7074M447.769 -15.1142L386.781 -46.2213M383.039 17.9592L322.074 49.1094M383.039 17.9592L322.052 -13.1479M322.074 49.1094L260.325 80.6597M322.074 49.1094L261.087 18.0023M260.325 80.6597L199.36 111.81M260.325 80.6597L199.338 49.5526M199.36 111.81L136.727 143.812M199.36 111.81L138.373 80.7027M136.727 143.812L75.7618 174.962M136.727 143.812L75.7398 112.705M75.7618 174.962L-35.388 231.754M75.7618 174.962L14.7746 143.855M464.971 -86.1724L447.747 -77.3715M447.747 -77.3715L386.781 -46.2213M447.747 -77.3715L683.5 42.8768M447.747 -77.3715L325.191 -139.882M386.781 -46.2213L322.052 -13.1479M386.781 -46.2213L325.213 -77.6249M322.052 -13.1479L261.087 18.0023M322.052 -13.1479L260.483 -44.5515M261.087 18.0023L199.338 49.5526M261.087 18.0023L199.518 -13.4013M199.338 49.5526L138.373 80.7027M199.338 49.5526L137.77 18.149M138.373 80.7027L75.7398 112.705M138.373 80.7027L76.8043 49.2991M75.7398 112.705L14.7746 143.855M75.7398 112.705L14.1713 81.3014M14.7746 143.855L-65.3902 184.815M14.7746 143.855L-46.7939 112.452M380.772 -106.013L325.213 -77.6249M325.213 -77.6249L260.483 -44.5515M325.213 -77.6249L264.226 -108.732M260.483 -44.5515L199.518 -13.4013M260.483 -44.5515L199.496 -75.6586M199.518 -13.4013L137.77 18.149M199.518 -13.4013L138.531 -44.5085M137.77 18.149L76.8043 49.2991M137.77 18.149L76.7823 -12.9582M76.8043 49.2991L14.1713 81.3014M76.8043 49.2991L15.817 18.192M14.1713 81.3014L-46.7939 112.452M14.1713 81.3014L-46.816 50.1942M-46.7939 112.452L-149.59 164.975M-46.7939 112.452L-107.781 81.3444M350.769 -152.952L325.191 -139.882M325.191 -139.882L264.226 -108.732M325.191 -139.882L152.947 -227.737M264.226 -108.732L199.496 -75.6586M264.226 -108.732L132.527 -175.906M199.496 -75.6586L138.531 -44.5085M199.496 -75.6586L94.8789 -129.02M138.531 -44.5085L76.7823 -12.9582M138.531 -44.5085L74.4587 -77.189M76.7823 -12.9582L15.817 18.192M76.7823 -12.9582L-45.4542 -75.306M15.817 18.192L-46.816 50.1942M15.817 18.192L-65.8742 -23.4754M-46.816 50.1942L-107.781 81.3444M-46.816 50.1942L-155.301 -5.13958M-107.781 81.3444L-179.592 118.036M-107.781 81.3444L-175.721 46.691" stroke="white"/>
</g>
<g clip-path="url(#clip2_8621_347)">
<rect x="76.5" y="55" width="288" height="272.552" rx="13.2414" fill="#7843FF"/>
<path d="M86.231 222.819H87.4014V218.614L85.9999 219.289V218.566L87.3939 217.902H88.1469V222.819H89.3023V223.448H86.231V222.819ZM90.8305 222.819H92.0009V218.614L90.5995 219.289V218.566L91.9935 217.902H92.7464V222.819H93.9019V223.448H90.8305V222.819Z" fill="white"/>
<path d="M86.231 209.732H87.4014V205.528L85.9999 206.202V205.479L87.3939 204.816H88.1469V209.732H89.3023V210.362H86.231V209.732ZM92.1202 204.715C92.7141 204.715 93.1626 204.957 93.4658 205.442C93.7714 205.927 93.9243 206.643 93.9243 207.593C93.9243 208.542 93.7714 209.259 93.4658 209.743C93.1626 210.228 92.7141 210.47 92.1202 210.47C91.5263 210.47 91.0778 210.228 90.7746 209.743C90.4715 209.259 90.3199 208.542 90.3199 207.593C90.3199 206.643 90.4715 205.927 90.7746 205.442C91.0778 204.957 91.5263 204.715 92.1202 204.715ZM92.1202 209.874C92.4731 209.874 92.7352 209.686 92.9067 209.311C93.0806 208.936 93.1676 208.363 93.1676 207.593C93.1676 207.183 93.1428 206.812 93.0931 206.482L91.3188 209.259C91.5052 209.669 91.7723 209.874 92.1202 209.874ZM92.1202 205.311C91.7698 205.311 91.5077 205.499 91.3337 205.874C91.1623 206.25 91.0766 206.822 91.0766 207.593C91.0766 207.943 91.1002 208.271 91.1474 208.577L92.8843 205.807C92.6955 205.477 92.4408 205.311 92.1202 205.311Z" fill="white"/>
<path d="M86.231 235.905H87.4014V231.7L85.9999 232.375V231.652L87.3939 230.988H88.1469V235.905H89.3023V236.534H86.231V235.905ZM91.2145 235.901H93.7714V236.534H90.3907V235.901C90.8554 235.411 91.2617 234.979 91.6096 234.604C91.9575 234.228 92.1972 233.964 92.3289 233.81C92.5774 233.507 92.7452 233.262 92.8321 233.075C92.9191 232.887 92.9626 232.694 92.9626 232.498C92.9626 232.187 92.8707 231.944 92.6868 231.767C92.5054 231.591 92.2556 231.502 91.9376 231.502C91.7114 231.502 91.4741 231.543 91.2256 231.625C90.9772 231.708 90.7138 231.832 90.4354 231.998V231.238C90.6914 231.116 90.9424 231.024 91.1884 230.962C91.4369 230.9 91.6816 230.869 91.9227 230.869C92.4669 230.869 92.9042 231.014 93.2347 231.305C93.5677 231.593 93.7342 231.972 93.7342 232.442C93.7342 232.68 93.6782 232.919 93.5664 233.157C93.4571 233.396 93.2782 233.659 93.0297 233.948C92.8905 234.109 92.688 234.333 92.4221 234.619C92.1587 234.904 91.7562 235.332 91.2145 235.901Z" fill="white"/>
<path d="M91.5867 194.809C91.9073 194.809 92.1583 194.693 92.3397 194.462C92.5235 194.231 92.6155 193.912 92.6155 193.504C92.6155 193.097 92.5235 192.777 92.3397 192.546C92.1583 192.315 91.9073 192.199 91.5867 192.199C91.2538 192.199 91.0028 192.31 90.8338 192.531C90.6648 192.75 90.5804 193.074 90.5804 193.504C90.5804 193.936 90.6636 194.262 90.8301 194.481C90.9991 194.699 91.2513 194.809 91.5867 194.809ZM90.2449 197.161V196.467C90.4014 196.559 90.5679 196.63 90.7444 196.68C90.9208 196.727 91.1047 196.751 91.296 196.751C91.7731 196.751 92.1334 196.572 92.3769 196.214C92.6229 195.854 92.7459 195.324 92.7459 194.626C92.6292 194.874 92.4652 195.066 92.2539 195.2C92.0427 195.332 91.8004 195.398 91.5271 195.398C90.9904 195.398 90.5741 195.232 90.2784 194.902C89.9852 194.571 89.8386 194.103 89.8386 193.497C89.8386 192.898 89.9889 192.434 90.2896 192.106C90.5928 191.776 91.0202 191.611 91.5718 191.611C92.2179 191.611 92.6913 191.843 92.9919 192.308C93.2926 192.772 93.443 193.503 93.443 194.499C93.443 195.436 93.2616 196.152 92.8988 196.646C92.5385 197.138 92.0141 197.384 91.3258 197.384C91.1444 197.384 90.9618 197.364 90.7779 197.325C90.594 197.287 90.4163 197.233 90.2449 197.161Z" fill="white"/>
<path d="M91.6613 181.547C91.3258 181.547 91.0662 181.641 90.8823 181.83C90.7009 182.017 90.6102 182.281 90.6102 182.624C90.6102 182.967 90.7021 183.234 90.886 183.426C91.0724 183.614 91.3308 183.709 91.6613 183.709C91.9992 183.709 92.2589 183.616 92.4403 183.429C92.6242 183.24 92.7161 182.972 92.7161 182.624C92.7161 182.284 92.6229 182.019 92.4366 181.83C92.2527 181.641 91.9943 181.547 91.6613 181.547ZM91.0053 181.234C90.6847 181.152 90.4337 180.999 90.2523 180.775C90.0734 180.552 89.984 180.282 89.984 179.967C89.984 179.524 90.1343 179.174 90.435 178.915C90.7357 178.655 91.1444 178.524 91.6613 178.524C92.1806 178.524 92.5906 178.655 92.8913 178.915C93.192 179.174 93.3423 179.524 93.3423 179.967C93.3423 180.282 93.2516 180.552 93.0702 180.775C92.8913 180.999 92.6416 181.152 92.321 181.234C92.6938 181.316 92.9783 181.481 93.1746 181.73C93.3734 181.978 93.4728 182.3 93.4728 182.695C93.4728 183.197 93.3125 183.59 92.9919 183.873C92.6714 184.156 92.2278 184.298 91.6613 184.298C91.0947 184.298 90.6512 184.157 90.3306 183.877C90.0126 183.593 89.8535 183.202 89.8535 182.702C89.8535 182.305 89.9517 181.982 90.148 181.733C90.3468 181.482 90.6325 181.316 91.0053 181.234ZM90.7332 180.037C90.7332 180.336 90.8127 180.563 90.9717 180.72C91.1308 180.876 91.3606 180.954 91.6613 180.954C91.9644 180.954 92.1955 180.876 92.3546 180.72C92.5136 180.563 92.5931 180.336 92.5931 180.037C92.5931 179.734 92.5136 179.503 92.3546 179.344C92.198 179.185 91.9669 179.106 91.6613 179.106C91.3606 179.106 91.1308 179.186 90.9717 179.348C90.8127 179.507 90.7332 179.737 90.7332 180.037Z" fill="white"/>
<path d="M89.8833 165.539H93.387V165.859L91.3966 171.104H90.6102L92.5484 166.172H89.8833V165.539Z" fill="white"/>
<path d="M93.059 152.575V153.268C92.9025 153.176 92.736 153.107 92.5596 153.06C92.3831 153.01 92.1993 152.985 92.0079 152.985C91.5308 152.985 91.1693 153.165 90.9233 153.526C90.6773 153.883 90.5543 154.411 90.5543 155.11C90.6735 154.861 90.8388 154.671 91.05 154.539C91.2612 154.405 91.5035 154.338 91.7768 154.338C92.3136 154.338 92.7286 154.503 93.0218 154.834C93.3175 155.162 93.4653 155.628 93.4653 156.232C93.4653 156.833 93.3137 157.299 93.0106 157.629C92.7074 157.96 92.2813 158.125 91.7321 158.125C91.086 158.125 90.6127 157.894 90.312 157.432C90.0113 156.967 89.861 156.237 89.861 155.24C89.861 154.301 90.0411 153.585 90.4014 153.093C90.7642 152.599 91.2885 152.352 91.9744 152.352C92.1583 152.352 92.3421 152.371 92.526 152.411C92.7099 152.448 92.8876 152.503 93.059 152.575ZM91.7172 154.927C91.3966 154.927 91.1444 155.043 90.9605 155.274C90.7767 155.505 90.6847 155.824 90.6847 156.232C90.6847 156.639 90.7767 156.959 90.9605 157.19C91.1444 157.421 91.3966 157.536 91.7172 157.536C92.0502 157.536 92.3011 157.427 92.4701 157.208C92.6391 156.987 92.7236 156.662 92.7236 156.232C92.7236 155.799 92.6391 155.474 92.4701 155.255C92.3011 155.036 92.0502 154.927 91.7172 154.927Z" fill="white"/>
<path d="M90.1368 139.366H92.9547V140H90.8226V141.368C90.9295 141.328 91.0363 141.299 91.1432 141.282C91.2525 141.262 91.3619 141.252 91.4712 141.252C92.0477 141.252 92.5049 141.422 92.8429 141.763C93.1808 142.103 93.3498 142.564 93.3498 143.146C93.3498 143.732 93.1721 144.194 92.8168 144.532C92.4639 144.87 91.9806 145.039 91.3668 145.039C91.0711 145.039 90.8003 145.019 90.5543 144.979C90.3107 144.94 90.0921 144.88 89.8982 144.8V144.036C90.1269 144.161 90.3567 144.254 90.5878 144.316C90.8189 144.376 91.055 144.405 91.296 144.405C91.711 144.405 92.0303 144.296 92.2539 144.077C92.4801 143.859 92.5931 143.548 92.5931 143.146C92.5931 142.748 92.4763 142.439 92.2428 142.217C92.0117 141.996 91.6886 141.886 91.2736 141.886C91.0724 141.886 90.8761 141.909 90.6847 141.956C90.4934 142.001 90.3107 142.07 90.1368 142.161V139.366Z" fill="white"/>
<path d="M92.2577 115.781C92.6229 115.878 92.9025 116.05 93.0963 116.299C93.2901 116.545 93.387 116.853 93.387 117.223C93.387 117.735 93.2143 118.138 92.8689 118.431C92.526 118.722 92.0502 118.867 91.4414 118.867C91.1854 118.867 90.9245 118.843 90.6586 118.796C90.3927 118.749 90.1318 118.681 89.8759 118.591V117.842C90.1293 117.974 90.3791 118.072 90.6251 118.136C90.8711 118.201 91.1158 118.233 91.3594 118.233C91.7719 118.233 92.0887 118.14 92.3098 117.954C92.531 117.767 92.6416 117.499 92.6416 117.149C92.6416 116.826 92.531 116.57 92.3098 116.381C92.0887 116.189 91.7893 116.094 91.4116 116.094H90.8375V115.475H91.4116C91.757 115.475 92.0266 115.399 92.2204 115.248C92.4142 115.096 92.5111 114.885 92.5111 114.614C92.5111 114.328 92.4204 114.11 92.239 113.958C92.0601 113.804 91.8042 113.727 91.4712 113.727C91.25 113.727 91.0214 113.752 90.7854 113.801C90.5493 113.851 90.302 113.926 90.0436 114.025V113.332C90.3443 113.252 90.6114 113.193 90.845 113.153C91.0811 113.113 91.2898 113.093 91.4712 113.093C92.0129 113.093 92.4453 113.23 92.7683 113.503C93.0938 113.774 93.2566 114.134 93.2566 114.584C93.2566 114.89 93.1709 115.144 92.9994 115.348C92.8304 115.552 92.5832 115.696 92.2577 115.781Z" fill="white"/>
<path d="M92.1029 126.966L90.3473 129.907H92.1029V126.966ZM91.9799 126.28H92.8521V129.907H93.5938V130.518H92.8521V131.845H92.1029V130.518H89.7435V129.806L91.9799 126.28Z" fill="white"/>
<path d="M90.7536 105.039H93.3105V105.673H89.9298V105.039C90.3945 104.549 90.8008 104.117 91.1487 103.742C91.4966 103.367 91.7364 103.102 91.8681 102.948C92.1166 102.645 92.2843 102.4 92.3713 102.214C92.4582 102.025 92.5017 101.832 92.5017 101.636C92.5017 101.325 92.4098 101.082 92.2259 100.905C92.0445 100.729 91.7948 100.641 91.4767 100.641C91.2506 100.641 91.0133 100.682 90.7648 100.764C90.5163 100.846 90.2529 100.97 89.9746 101.136V100.376C90.2305 100.254 90.4815 100.162 90.7275 100.1C90.976 100.038 91.2207 100.007 91.4618 100.007C92.006 100.007 92.4433 100.152 92.7738 100.443C93.1068 100.731 93.2733 101.11 93.2733 101.58C93.2733 101.819 93.2174 102.057 93.1055 102.296C92.9962 102.534 92.8173 102.798 92.5688 103.086C92.4297 103.247 92.2271 103.471 91.9612 103.757C91.6978 104.043 91.2953 104.47 90.7536 105.039Z" fill="white"/>
<path d="M90.3716 91.9563H91.542V87.7518L90.1405 88.4265V87.7033L91.5346 87.0399H92.2875V91.9563H93.443V92.5862H90.3716V91.9563Z" fill="white"/>
<path d="M91.5 68.5C91.5 69.3284 90.8284 70 90 70C89.1716 70 88.5 69.3284 88.5 68.5C88.5 67.6716 89.1716 67 90 67C90.8284 67 91.5 67.6716 91.5 68.5Z" fill="#F95341" stroke="#F95341" stroke-width="0.551724"/>
<path d="M96.707 68.5C96.707 69.3284 96.0355 70 95.207 70C94.3786 70 93.707 69.3284 93.707 68.5C93.707 67.6716 94.3786 67 95.207 67C96.0355 67 96.707 67.6716 96.707 68.5Z" fill="white" stroke="white" stroke-width="0.551724"/>
<path d="M101.914 68.5C101.914 69.3284 101.242 70 100.414 70C99.5851 70 98.9136 69.3284 98.9136 68.5C98.9136 67.6716 99.5851 67 100.414 67C101.242 67 101.914 67.6716 101.914 68.5Z" fill="#0AC655" stroke="#0AC655" stroke-width="0.551724"/>
<rect x="111.5" y="84" width="158.55" height="12.4083" rx="6.20414" fill="white" fill-opacity="0.1"/>
<rect x="112" y="84.5" width="157.55" height="11.4083" rx="5.70414" stroke="white" stroke-opacity="0.1"/>
<rect x="111.5" y="104.408" width="132.355" height="12.4083" rx="6.20414" fill="white" fill-opacity="0.1"/>
<rect x="112" y="104.908" width="131.355" height="11.4083" rx="5.70414" stroke="white" stroke-opacity="0.1"/>
<rect x="111.5" y="124.817" width="181.988" height="12.4083" rx="6.20414" fill="white" fill-opacity="0.1"/>
<rect x="112" y="125.317" width="180.988" height="11.4083" rx="5.70414" stroke="white" stroke-opacity="0.1"/>
<rect x="111.5" y="145.225" width="87" height="13" rx="6.5" fill="white" fill-opacity="0.1"/>
<rect x="112" y="145.725" width="86" height="12" rx="6" stroke="white" stroke-opacity="0.1"/>
<rect x="111.5" y="166.225" width="181.988" height="12.4083" rx="6.20414" fill="white" fill-opacity="0.1"/>
<rect x="112" y="166.725" width="180.988" height="11.4083" rx="5.70414" stroke="white" stroke-opacity="0.1"/>
<rect x="111.5" y="186.633" width="132.355" height="12.4083" rx="6.20414" fill="white" fill-opacity="0.1"/>
<rect x="112" y="187.133" width="131.355" height="11.4083" rx="5.70414" stroke="white" stroke-opacity="0.1"/>
<rect x="111.5" y="207.042" width="48" height="12" rx="6" fill="white" fill-opacity="0.1"/>
<rect x="112" y="207.542" width="47" height="11" rx="5.5" stroke="white" stroke-opacity="0.1"/>
</g>
</g>
<defs>
<filter id="filter0_d_8621_347" x="31.8273" y="93.3273" width="29.3453" height="29.3453" filterUnits="userSpaceOnUse" color-interpolation-filters="sRGB">
<feFlood flood-opacity="0" result="BackgroundImageFix"/>
<feColorMatrix in="SourceAlpha" type="matrix" values="0 0 0 0 0 0 0 0 0 0 0 0 0 0 0 0 0 0 127 0" result="hardAlpha"/>
<feOffset/>
<feGaussianBlur stdDeviation="5.33633"/>
<feComposite in2="hardAlpha" operator="out"/>
<feColorMatrix type="matrix" values="0 0 0 0 1 0 0 0 0 1 0 0 0 0 1 0 0 0 0.38 0"/>
<feBlend mode="normal" in2="BackgroundImageFix" result="effect1_dropShadow_8621_347"/>
<feBlend mode="normal" in="SourceGraphic" in2="effect1_dropShadow_8621_347" result="shape"/>
</filter>
<filter id="filter1_d_8621_347" x="380.827" y="139.327" width="29.3453" height="29.3453" filterUnits="userSpaceOnUse" color-interpolation-filters="sRGB">
<feFlood flood-opacity="0" result="BackgroundImageFix"/>
<feColorMatrix in="SourceAlpha" type="matrix" values="0 0 0 0 0 0 0 0 0 0 0 0 0 0 0 0 0 0 127 0" result="hardAlpha"/>
<feOffset/>
<feGaussianBlur stdDeviation="5.33633"/>
<feComposite in2="hardAlpha" operator="out"/>
<feColorMatrix type="matrix" values="0 0 0 0 1 0 0 0 0 1 0 0 0 0 1 0 0 0 0.38 0"/>
<feBlend mode="normal" in2="BackgroundImageFix" result="effect1_dropShadow_8621_347"/>
<feBlend mode="normal" in="SourceGraphic" in2="effect1_dropShadow_8621_347" result="shape"/>
</filter>
<filter id="filter2_f_8621_347" x="20.5" y="-96" width="400" height="400" filterUnits="userSpaceOnUse" color-interpolation-filters="sRGB">
<feFlood flood-opacity="0" result="BackgroundImageFix"/>
<feBlend mode="normal" in="SourceGraphic" in2="BackgroundImageFix" result="shape"/>
<feGaussianBlur stdDeviation="50" result="effect1_foregroundBlur_8621_347"/>
</filter>
<linearGradient id="paint0_linear_8621_347" x1="229" y1="116" x2="230.5" y2="297" gradientUnits="userSpaceOnUse">
<stop stop-color="#7843FF"/>
<stop offset="1" stop-color="#482899" stop-opacity="0"/>
</linearGradient>
<linearGradient id="paint1_linear_8621_347" x1="220" y1="0" x2="220" y2="238" gradientUnits="userSpaceOnUse">
<stop stop-color="#1B1A20"/>
<stop offset="0.2422" stop-color="#1B1A20" stop-opacity="0"/>
<stop offset="0.7385" stop-color="#1B1A20" stop-opacity="0"/>
<stop offset="1" stop-color="#1B1A20"/>
</linearGradient>
<radialGradient id="paint2_radial_8621_347" cx="0" cy="0" r="1" gradientUnits="userSpaceOnUse" gradientTransform="translate(46.5 108) rotate(90) scale(3.99999 4)">
<stop stop-color="#D6BDFF"/>
<stop offset="1" stop-color="#7843FF"/>
</radialGradient>
<radialGradient id="paint3_radial_8621_347" cx="0" cy="0" r="1" gradientUnits="userSpaceOnUse" gradientTransform="translate(395.5 154) rotate(90) scale(3.99999 4)">
<stop stop-color="#D6BDFF"/>
<stop offset="1" stop-color="#7843FF"/>
</radialGradient>
<clipPath id="clip0_8621_347">
<rect width="443" height="238" fill="white" transform="translate(-1.5)"/>
</clipPath>
<clipPath id="clip1_8621_347">
<rect width="443" height="238" fill="white" transform="translate(-1.5)"/>
</clipPath>
<clipPath id="clip2_8621_347">
<rect x="76.5" y="55" width="288" height="272.552" rx="13.2414" fill="white"/>
</clipPath>
</defs>
</svg>
