<svg width="69" height="20" viewBox="0 0 69 20" fill="none" xmlns="http://www.w3.org/2000/svg">
<path fill-rule="evenodd" clip-rule="evenodd" d="M28.152 17.1372C28.152 15.5561 26.8702 14.2744 25.2891 14.2744C23.708 14.2744 22.4263 15.5561 22.4263 17.1372C22.4263 18.7183 23.708 20.0001 25.2891 20.0001C26.8702 20.0001 28.152 18.7183 28.152 17.1372Z" fill="#D71E42"/>
<path d="M20.2202 2.31067C19.0153 2.31067 18.4128 2.96651 18.4128 4.27818V5.01027H21.7759V7.29807H18.4815V17.1356H15.6217V4.23242C15.6217 2.936 16.003 1.9065 16.7656 1.1439C17.5282 0.381299 18.6111 0 20.0143 0C21.0972 0 21.9513 0.221153 22.5766 0.66346L21.7759 2.81399C21.3183 2.47845 20.7998 2.31067 20.2202 2.31067Z" fill="white"/>
<path fill-rule="evenodd" clip-rule="evenodd" d="M13.1384 17.1356H10.4159V15.557C9.94309 16.1366 9.35589 16.5713 8.6543 16.8611C7.96796 17.1508 7.20536 17.2957 6.3665 17.2957C5.17685 17.2957 4.10921 17.0365 3.16359 16.5179C2.23322 15.9993 1.50112 15.2672 0.967304 14.3216C0.448737 13.376 0.189453 12.2778 0.189453 11.0272C0.189453 9.77652 0.448737 8.686 0.967304 7.75563C1.50112 6.81001 2.23322 6.07791 3.16359 5.55934C4.10921 5.04078 5.17685 4.78149 6.3665 4.78149C7.15961 4.78149 7.88407 4.91876 8.53991 5.1933C9.21099 5.46783 9.79057 5.87201 10.2786 6.40583V4.91876H13.1384V17.1356ZM6.68679 14.8478C7.73918 14.8478 8.60854 14.497 9.29488 13.7954C9.98122 13.0938 10.3244 12.1711 10.3244 11.0272C10.3244 9.88328 9.98122 8.96053 9.29488 8.25894C8.60854 7.55735 7.73918 7.20656 6.68679 7.20656C5.63441 7.20656 4.76505 7.55735 4.07871 8.25894C3.40762 8.96053 3.07208 9.88328 3.07208 11.0272C3.07208 12.1711 3.40762 13.0938 4.07871 13.7954C4.76505 14.497 5.63441 14.8478 6.68679 14.8478Z" fill="white"/>
<path d="M25.2199 4.27818C25.2199 2.96651 25.8224 2.31067 27.0273 2.31067C27.6068 2.31067 28.1254 2.47845 28.583 2.81399L29.3837 0.66346C28.7584 0.221153 27.9043 0 26.8214 0C25.4182 0 24.3353 0.381299 23.5727 1.1439C22.8101 1.9065 22.4288 2.936 22.4288 4.23242V13.6825C23.205 13.0391 24.2016 12.6524 25.2885 12.6522V7.29807H28.583V5.01027H25.2199V4.27818Z" fill="white"/>
<path fill-rule="evenodd" clip-rule="evenodd" d="M40.9994 17.1356H38.277V15.557C37.8042 16.1366 37.2169 16.5713 36.5154 16.8611C35.829 17.1508 35.0664 17.2957 34.2276 17.2957C33.0379 17.2957 31.9703 17.0365 31.0246 16.5179C30.0943 15.9993 29.3622 15.2672 28.8284 14.3216C28.3098 13.376 28.0505 12.2778 28.0505 11.0272C28.0505 9.77652 28.3098 8.686 28.8284 7.75563C29.3622 6.81001 30.0943 6.07791 31.0246 5.55934C31.9703 5.04078 33.0379 4.78149 34.2276 4.78149C35.0207 4.78149 35.7451 4.91876 36.401 5.1933C37.0721 5.46783 37.6516 5.87201 38.1397 6.40583V4.91876H40.9994V17.1356ZM34.5479 14.8478C35.6002 14.8478 36.4696 14.497 37.1559 13.7954C37.8423 13.0938 38.1855 12.1711 38.1855 11.0272C38.1855 9.88328 37.8423 8.96053 37.1559 8.25894C36.4696 7.55735 35.6002 7.20656 34.5479 7.20656C33.4955 7.20656 32.6261 7.55735 31.9398 8.25894C31.2687 8.96053 30.9331 9.88328 30.9331 11.0272C30.9331 12.1711 31.2687 13.0938 31.9398 13.7954C32.6261 14.497 33.4955 14.8478 34.5479 14.8478Z" fill="white"/>
<path d="M50.5521 4.78149C48.4778 4.78149 47.0289 5.42208 46.2052 6.70324V4.91876H43.4828V17.1356H46.3425V11.2102C46.3425 9.99004 46.6552 9.05967 47.2805 8.41909C47.9058 7.76325 48.7752 7.43534 49.8886 7.43534C50.0869 7.43534 50.308 7.45821 50.5521 7.50397V4.78149Z" fill="white"/>
<path d="M58.5831 16.4721C58.2476 16.7467 57.8358 16.9526 57.3477 17.0898C56.8749 17.2271 56.3716 17.2957 55.8378 17.2957C54.4956 17.2957 53.4585 16.9449 52.7264 16.2434C51.9943 15.5418 51.6282 14.5199 51.6282 13.1777V2.21916H54.488V5.01027H57.7595V7.29807H54.488V13.1091C54.488 13.7039 54.6329 14.1615 54.9226 14.4817C55.2277 14.7868 55.6471 14.9393 56.1809 14.9393C56.8215 14.9393 57.3553 14.7715 57.7824 14.436L58.3347 15.8405L59.3912 13.7497C59.9402 14.1157 60.5961 14.4131 61.3587 14.6419C62.1365 14.8554 62.8991 14.9622 63.6465 14.9622C65.3547 14.9622 66.2088 14.5123 66.2088 13.6124C66.2088 13.1853 65.9876 12.8879 65.5453 12.7201C65.1183 12.5524 64.4243 12.3922 63.4634 12.2397C62.4568 12.0872 61.6332 11.9118 60.9926 11.7135C60.3673 11.5152 59.8182 11.1721 59.3454 10.684C58.8879 10.1807 58.6591 9.48673 58.6591 8.60211C58.6591 7.44296 59.1395 6.52022 60.1004 5.83388C61.0765 5.13229 62.3882 4.78149 64.0354 4.78149C64.8743 4.78149 65.7131 4.88063 66.552 5.07891C67.3908 5.26193 68.0772 5.51359 68.611 5.83388L67.5128 8.00729C66.4757 7.39721 65.3089 7.09217 64.0125 7.09217C63.1737 7.09217 62.5331 7.22181 62.0908 7.48109C61.6637 7.72512 61.4502 8.05304 61.4502 8.46485C61.4502 8.9224 61.679 9.25032 62.1365 9.4486C62.6093 9.63162 63.3338 9.80702 64.3099 9.97479C65.2861 10.1273 66.0868 10.3027 66.7121 10.501C67.3374 10.6993 67.8713 11.0348 68.3136 11.5076C68.7711 11.9804 68.9999 12.6515 68.9999 13.5209C68.9999 14.6648 68.5042 15.5799 67.5128 16.2662C66.5215 16.9526 65.1717 17.2957 63.4634 17.2957C62.4721 17.2957 61.5036 17.1661 60.5579 16.9068C59.6678 16.6627 58.9466 16.3579 58.3944 15.9922L58.5831 16.4721Z" fill="white"/>
</svg>
