<svg width="112" height="41" viewBox="0 0 112 41" fill="none" xmlns="http://www.w3.org/2000/svg">
<path d="M72.1403 20.189H60.792L59.0689 22.8933L57.3458 25.5976H66.0861C65.5636 27.3628 64.5735 28.8865 63.2168 29.9658C61.864 31.0491 60.1488 31.6882 58.1839 31.6882C55.7163 31.6882 53.502 30.6556 51.9036 29.0033C50.3052 27.3511 49.3228 25.0754 49.3228 22.5893C49.3228 20.1032 50.3169 17.8977 51.927 16.265C53.5409 14.6322 55.7747 13.6074 58.2619 13.6074C59.3457 13.6074 60.3476 13.7788 61.2676 14.0906C62.1916 14.4023 63.0336 14.8504 63.7937 15.4116L65.318 12.9878L66.8423 10.564C65.6806 9.74184 64.3668 9.10277 62.9322 8.66634C61.4976 8.22991 59.9461 8 58.3009 8C56.1139 8 54.1296 8.40136 52.3636 9.12615C50.5976 9.85094 49.0538 10.9031 47.7518 12.2085C44.6447 15.3142 43.7715 18.451 43.1516 21.3385C42.5317 24.2259 42.1575 26.8601 40.0524 28.9644C39.1713 29.845 38.1968 30.5192 37.1363 30.9673C36.0721 31.4193 34.922 31.6492 33.6785 31.6492C31.1328 31.6492 28.8366 30.6088 27.1759 28.9527C25.5151 27.3005 24.4938 25.0364 24.4938 22.5893C24.4938 20.1422 25.5151 17.9406 27.1759 16.2922C28.8366 14.6439 31.1289 13.5918 33.6785 13.5723C34.7428 13.5918 35.7329 13.7516 36.6452 14.0477C37.5574 14.3439 38.3877 14.7725 39.1324 15.3336L40.6761 12.9099L42.2199 10.4861C41.0582 9.6639 39.7444 9.04432 38.3098 8.62738C36.8752 8.21042 35.3236 8 33.6785 8C31.1523 8 28.7976 8.61178 26.7393 9.67949C24.6848 10.7472 22.9305 12.2708 21.605 14.0945C21.0826 12.489 20.0106 11.1174 18.5409 10.1471C17.0712 9.17292 15.2078 8.60399 13.1026 8.60399H0V36.6643H14.4749C16.2993 36.6643 17.9249 36.2357 19.2777 35.4875C20.6305 34.7393 21.7142 33.6794 22.4549 32.4169C23.7999 33.9015 25.4411 35.1134 27.3085 35.9551C29.1719 36.7968 31.2575 37.2683 33.4835 37.2683C36.1111 37.2683 38.5047 36.6565 40.5826 35.5654C42.6566 34.4744 44.4108 32.9001 45.7558 30.975C47.0384 32.8806 48.7926 34.4509 50.8822 35.5498C52.9718 36.6487 55.3966 37.2683 58.0241 37.2683C62.0551 37.2683 65.6338 35.6239 68.2029 32.9741C70.7759 30.3243 72.3391 26.6653 72.3391 22.6361C72.3391 22.2153 72.3196 21.8061 72.2845 21.3969C72.2495 20.9917 72.1988 20.5903 72.1403 20.189ZM6.09713 16.8806V13.8139H13.0363C13.9174 13.8139 14.7009 14.1334 15.2623 14.6751C15.8237 15.2167 16.1628 15.9766 16.1628 16.8611C16.1628 17.7457 15.8237 18.5133 15.2623 19.0667C14.7009 19.62 13.9174 19.9473 13.0363 19.9473H6.09713V16.8806ZM16.7554 30.5231C16.1551 31.0998 15.3208 31.4505 14.4008 31.4505H6.09713V25.0793H14.3969C15.3208 25.0793 16.1511 25.4184 16.7515 25.9873C17.3519 26.5523 17.7222 27.3472 17.7222 28.2474C17.7222 29.1475 17.3519 29.9502 16.7515 30.5269L16.7554 30.5231Z" fill="#09110A"/>
<path d="M83.2341 8.41308H77.3047L85.5495 21.3619C86.0443 22.1412 86.0443 23.131 85.5495 23.9104L77.3047 36.8592H83.2341C84.349 36.8592 85.3899 36.2903 85.9902 35.3472L94.0835 22.6361L85.9902 9.92111C85.3899 8.9781 84.3526 8.40918 83.2341 8.40918V8.41308Z" fill="#09110A"/>
<path d="M102.617 21.3619L110.863 8.41309H104.933C103.818 8.41309 102.777 8.98201 102.181 9.92501L94.0879 22.6361L102.181 35.3472C102.781 36.2902 103.818 36.8591 104.933 36.8591H110.863L102.617 23.9103C102.123 23.131 102.123 22.1412 102.617 21.3619Z" fill="#09110A"/>
</svg>
