<svg width="620" height="333" viewBox="0 0 620 333" fill="none" xmlns="http://www.w3.org/2000/svg">
<g clip-path="url(#clip0_4778_29763)">
<mask id="path-1-inside-1_4778_29763" fill="white">
<path d="M0 16C0 7.16343 7.16344 0 16 0H604C612.837 0 620 7.16344 620 16V333H0V16Z"/>
</mask>
<path d="M0 16C0 7.16343 7.16344 0 16 0H604C612.837 0 620 7.16344 620 16V333H0V16Z" fill="#1B1A20"/>
<path opacity="0.05" d="M685.358 82.8811L625.236 114.076M625.236 114.076L540.567 158.006M625.236 114.076L711.542 158.097M625.236 114.076L540.469 70.8399M540.567 158.006L454.811 202.501M540.567 158.006L626.873 202.028M540.567 158.006L455.801 114.77M454.811 202.501L370.143 246.432M454.811 202.501L541.118 246.523M454.811 202.501L370.045 159.265M370.143 246.432L283.159 291.564M370.143 246.432L456.449 290.453M370.143 246.432L285.377 203.196M283.159 291.564L198.491 335.495M283.159 291.564L369.465 335.585M283.159 291.564L198.393 248.328M198.491 335.495L164.552 353.104M198.491 335.495L284.797 379.516M198.491 335.495L113.724 292.259M779.495 122.839L711.542 158.097M711.542 158.097L626.873 202.028M711.542 158.097L789.379 197.798M626.873 202.028L541.118 246.523M626.873 202.028L760.8 270.338M541.118 246.523L456.449 290.453M541.118 246.523L592.976 272.973M456.449 290.453L369.465 335.585M456.449 290.453L564.397 345.513M369.465 335.585L284.797 379.516M369.465 335.585L439.24 371.175M284.797 379.516L258.689 393.062M284.797 379.516L410.661 443.714M603.41 38.1826L540.469 70.8399M540.469 70.8399L455.801 114.77M540.469 70.8399L450.139 24.766M455.801 114.77L370.045 159.265M455.801 114.77L364.815 68.3622M370.045 159.265L285.377 203.196M370.045 159.265L278.395 112.518M285.377 203.196L198.393 248.328M285.377 203.196L193.071 156.115M198.393 248.328L113.724 292.259M198.393 248.328L105.413 200.903M113.724 292.259L82.6045 308.406M113.724 292.259L20.0893 244.499M606.796 -55.278L540.731 -21.5218M540.731 -21.5218L450.139 24.766M540.731 -21.5218L842.07 132.179M540.731 -21.5218L455.376 -65.0578M450.139 24.766L364.815 68.3622M450.139 24.766L364.784 -18.7699M364.815 68.3622L278.395 112.518M364.815 68.3622L279.46 24.8263M278.395 112.518L193.071 156.115M278.395 112.518L193.04 68.9824M193.071 156.115L105.413 200.903M193.071 156.115L107.716 112.579M105.413 200.903L20.0893 244.499M105.413 200.903L20.0585 157.367M20.0893 244.499L-135.47 323.982M20.0893 244.499L-65.2653 200.963M564.807 -120.971L540.7 -108.654M540.7 -108.654L455.376 -65.0578M540.7 -108.654L870.648 59.6394M540.7 -108.654L369.177 -196.141M455.376 -65.0578L364.784 -18.7699M455.376 -65.0578L369.208 -109.009M364.784 -18.7699L279.46 24.8263M364.784 -18.7699L278.616 -62.7208M279.46 24.8263L193.04 68.9824M279.46 24.8263L193.292 -19.1246M193.04 68.9824L107.716 112.579M193.04 68.9824L106.872 25.0316M107.716 112.579L20.0585 157.367M107.716 112.579L21.5483 68.6277M20.0585 157.367L-65.2653 200.963M20.0585 157.367L-66.1096 113.416M-65.2653 200.963L-177.46 258.289M-65.2653 200.963L-151.433 157.013M446.965 -148.739L369.208 -109.009M369.208 -109.009L278.616 -62.7208M369.208 -109.009L283.853 -152.545M278.616 -62.7208L193.292 -19.1246M278.616 -62.7208L193.261 -106.257M193.292 -19.1246L106.872 25.0316M193.292 -19.1246L107.937 -62.6605M106.872 25.0316L21.5483 68.6277M106.872 25.0316L21.5175 -18.5044M21.5483 68.6277L-66.1096 113.416M21.5483 68.6277L-63.8064 25.0918M-66.1096 113.416L-151.433 157.013M-66.1096 113.416L-151.464 69.8805M-151.433 157.013L-295.301 230.522M-151.433 157.013L-236.788 113.477M404.976 -214.432L369.177 -196.141M369.177 -196.141L283.853 -152.545M369.177 -196.141L128.114 -319.097M283.853 -152.545L193.261 -106.257M283.853 -152.545L99.5355 -246.558M193.261 -106.257L107.937 -62.6605M193.261 -106.257L46.8446 -180.938M107.937 -62.6605L21.5175 -18.5044M107.937 -62.6605L18.2655 -108.399M21.5175 -18.5044L-63.8064 25.0918M21.5175 -18.5044L-149.558 -105.763M-63.8064 25.0918L-151.464 69.8805M-63.8064 25.0918L-178.137 -33.2237M-151.464 69.8805L-236.788 113.477M-151.464 69.8805L-303.294 -7.56188M-236.788 113.477L-337.291 164.828M-236.788 113.477L-331.873 64.9776M773.4 83.2498L713.278 114.444M713.278 114.444L628.61 158.375M713.278 114.444L799.584 158.466M713.278 114.444L628.512 71.2086M628.61 158.375L542.854 202.87M628.61 158.375L714.916 202.396M628.61 158.375L543.843 115.139M542.854 202.87L458.186 246.801M542.854 202.87L629.16 246.891M542.854 202.87L458.088 159.634M458.186 246.801L371.201 291.933M458.186 246.801L544.492 290.822M458.186 246.801L373.419 203.565M371.201 291.933L286.533 335.863M371.201 291.933L457.508 335.954M371.201 291.933L286.435 248.697M286.533 335.863L252.594 353.473M286.533 335.863L372.839 379.885M286.533 335.863L201.767 292.628M867.538 123.208L799.584 158.466M799.584 158.466L714.916 202.396M799.584 158.466L877.421 198.167M714.916 202.396L629.16 246.891M714.916 202.396L848.842 270.707M629.16 246.891L544.492 290.822M629.16 246.891L681.018 273.342M544.492 290.822L457.508 335.954M544.492 290.822L652.44 345.881M457.508 335.954L372.839 379.885M457.508 335.954L527.282 371.543M372.839 379.885L346.732 393.431M372.839 379.885L498.704 444.083M691.453 38.5513L628.512 71.2086M628.512 71.2086L543.843 115.139M628.512 71.2086L538.181 25.1347M543.843 115.139L458.088 159.634M543.843 115.139L452.857 68.7309M458.088 159.634L373.419 203.565M458.088 159.634L366.438 112.887M373.419 203.565L286.435 248.697M373.419 203.565L281.114 156.483M286.435 248.697L201.767 292.628M286.435 248.697L193.456 201.272M201.767 292.628L170.647 308.774M201.767 292.628L108.132 244.868M694.839 -54.9093L628.773 -21.1532M628.773 -21.1532L538.181 25.1347M628.773 -21.1532L930.112 132.548M628.773 -21.1532L543.419 -64.6891M538.181 25.1347L452.857 68.7309M538.181 25.1347L452.827 -18.4012M452.857 68.7309L366.438 112.887M452.857 68.7309L367.503 25.195M366.438 112.887L281.114 156.483M366.438 112.887L281.083 69.3511M281.114 156.483L193.456 201.272M281.114 156.483L195.759 112.947M193.456 201.272L108.132 244.868M193.456 201.272L108.101 157.736M108.132 244.868L-47.4277 324.351M108.132 244.868L22.7772 201.332M652.849 -120.603L628.743 -108.285M628.743 -108.285L543.419 -64.6891M628.743 -108.285L958.691 60.008M628.743 -108.285L457.22 -195.772M543.419 -64.6891L452.827 -18.4012M543.419 -64.6891L457.251 -108.64M452.827 -18.4012L367.503 25.195M452.827 -18.4012L366.659 -62.3521M367.503 25.195L281.083 69.3511M367.503 25.195L281.335 -18.7559M281.083 69.3511L195.759 112.947M281.083 69.3511L194.915 25.4003M195.759 112.947L108.101 157.736M195.759 112.947L109.591 68.9964M108.101 157.736L22.7772 201.332M108.101 157.736L21.933 113.785M22.7772 201.332L-89.4172 258.658M22.7772 201.332L-63.3909 157.381M535.008 -148.37L457.251 -108.64M457.251 -108.64L366.659 -62.3521M457.251 -108.64L371.896 -152.176M366.659 -62.3521L281.335 -18.7559M366.659 -62.3521L281.304 -105.888M281.335 -18.7559L194.915 25.4003M281.335 -18.7559L195.98 -62.2919M194.915 25.4003L109.591 68.9964M194.915 25.4003L109.56 -18.1357M109.591 68.9964L21.933 113.785M109.591 68.9964L24.2362 25.4605M21.933 113.785L-63.3909 157.381M21.933 113.785L-63.4217 70.2491M-63.3909 157.381L-207.259 230.89M-63.3909 157.381L-148.746 113.845M493.018 -214.063L457.22 -195.772M457.22 -195.772L371.896 -152.176M457.22 -195.772L216.157 -318.728M371.896 -152.176L281.304 -105.888M371.896 -152.176L187.578 -246.189M281.304 -105.888L195.98 -62.2919M281.304 -105.888L134.887 -180.569M195.98 -62.2919L109.56 -18.1357M195.98 -62.2919L106.308 -108.03M109.56 -18.1357L24.2362 25.4605M109.56 -18.1357L-61.5158 -105.395M24.2362 25.4605L-63.4217 70.2491M24.2362 25.4605L-90.0946 -32.8551M-63.4217 70.2491L-148.746 113.845M-63.4217 70.2491L-215.252 -7.1932M-148.746 113.845L-249.248 165.197M-148.746 113.845L-243.831 65.3463" stroke="white"/>
<path d="M8.04221 97.6808L-76.9746 93.8821V271.285H681.581V153.576L597.289 194.006L512.997 169.314L428.729 57.7857L345.178 76.248L260.894 18.993L176.61 143.266L92.3261 195.905L8.04221 97.6808Z" fill="url(#paint0_linear_4778_29763)" fill-opacity="0.4"/>
<path d="M-76.9746 93.8821L8.04222 97.6808L92.3261 195.905L176.61 143.266L260.894 18.993L345.178 76.248L428.729 57.7857L512.997 169.314L597.289 194.006L681.581 153.576" stroke="#7843FF" stroke-width="2" stroke-linejoin="round"/>
<rect width="620" height="333.093" fill="url(#paint1_linear_4778_29763)"/>
<g opacity="0.4" filter="url(#filter0_f_4778_29763)">
<rect x="170.744" y="5.59816" width="279.91" height="279.91" fill="#7843FF"/>
</g>
<g filter="url(#filter1_d_4778_29763)">
<ellipse cx="260.317" cy="19.5883" rx="5.59819" ry="5.59662" fill="url(#paint2_radial_4778_29763)"/>
</g>
<g filter="url(#filter2_d_4778_29763)">
<ellipse cx="431.061" cy="57.3657" rx="5.59819" ry="5.59662" fill="url(#paint3_radial_4778_29763)"/>
</g>
<g filter="url(#filter3_d_4778_29763)">
<ellipse cx="593.409" cy="193.084" rx="5.59819" ry="5.59662" fill="url(#paint4_radial_4778_29763)"/>
</g>
<g filter="url(#filter4_d_4778_29763)">
<ellipse cx="9.79741" cy="99.3403" rx="5.59819" ry="5.59662" fill="url(#paint5_radial_4778_29763)"/>
</g>
<path d="M511.19 253.943C450.708 231.287 387.812 212.922 322.966 199.273C320.858 202.807 315.691 205.269 309.683 205.281C303.833 205.281 298.8 202.953 296.57 199.59C232.248 213.202 169.84 231.458 109.82 253.943C107.968 254.625 106.494 253.358 107.395 251.883C132.89 212.215 161.041 173.291 191.801 135.366C230.64 124.239 270.247 114.721 310.512 106.91C350.776 114.721 390.383 124.227 429.222 135.366C459.982 173.291 488.121 212.227 513.628 251.883C514.517 253.345 513.031 254.625 511.19 253.943Z" fill="#7843FF"/>
<path d="M500.955 245.119C441.435 223.646 379.661 206.317 316.071 193.496C312.414 192.753 308.576 192.753 304.92 193.496C241.341 206.317 179.567 223.646 120.047 245.119C119.096 245.473 118.316 244.814 118.804 244.059C142.263 207.877 167.929 172.316 195.751 137.583C233.31 126.859 271.577 117.646 310.477 110.017C349.377 117.634 387.655 126.847 425.227 137.583C453.062 172.316 478.715 207.877 502.174 244.059C502.674 244.814 501.906 245.473 500.955 245.119Z" stroke="white" stroke-width="0.9883" stroke-miterlimit="10"/>
<path d="M520.49 228.179C371.739 185.148 311.829 196.615 310.513 196.871C310.501 196.883 310.488 196.883 310.488 196.883C310.488 196.883 310.062 112.758 310.488 102.119C348.121 94.2102 398.452 117.621 427.847 127.675C455.023 146.357 489.097 187.524 507.414 210.971C515.299 221.05 520.246 227.838 520.49 228.179Z" fill="#CCB9FF"/>
<path d="M507.413 210.959C442.555 190.376 357.443 185.391 312.243 196.116C311.987 196.225 311.743 196.311 311.56 196.396C311.024 196.627 310.695 196.786 310.561 196.847C310.549 196.859 310.537 196.859 310.524 196.871C310.512 196.883 310.5 196.883 310.5 196.883C310.5 196.883 310.074 112.758 310.5 102.119C348.133 94.2101 398.464 117.621 427.858 127.675C455.035 146.357 489.097 187.524 507.413 210.959Z" fill="#7843FF"/>
<path d="M517.98 206.56C414.027 177.604 352.46 185.196 325.941 191.826C325.868 191.85 325.807 191.862 325.722 191.887C318.946 193.581 314.498 195.214 312.243 196.128C311.987 196.237 311.744 196.323 311.561 196.408C311.025 196.64 310.696 196.798 310.562 196.859C310.525 196.883 310.488 196.895 310.488 196.895C310.488 196.895 310.062 112.77 310.488 102.131C348.121 94.2223 398.403 100.303 426.64 109.602C444.031 124.409 482.138 166.356 503.234 189.937C512.13 199.881 517.98 206.56 517.98 206.56Z" fill="#CCB9FF"/>
<path d="M503.234 189.925C421.57 171.547 354.812 183.953 325.941 191.814C325.868 191.838 325.807 191.85 325.722 191.875C319.141 193.678 314.559 195.226 312.243 196.116C311.987 196.226 311.744 196.311 311.561 196.396C311.207 196.542 310.927 196.664 310.769 196.737C310.683 196.786 310.598 196.823 310.562 196.847C310.525 196.871 310.488 196.884 310.488 196.884C310.488 196.884 310.062 112.759 310.488 102.12C348.121 94.2104 398.403 100.292 426.64 109.59C444.031 124.397 482.151 166.344 503.234 189.925Z" fill="#7843FF"/>
<path d="M517.504 183.637C388.995 159.507 315.777 194.263 310.769 196.75C310.586 196.847 310.488 196.884 310.488 196.884C310.488 196.884 310.062 112.759 310.488 102.12C356.116 89.421 406.166 93.4548 434.111 102.461C452.318 117.499 489.109 154.583 507.097 172.961C513.483 179.469 517.504 183.637 517.504 183.637Z" fill="#CCB9FF"/>
<path d="M507.109 172.961C392.676 155.899 315.863 194.117 310.769 196.737C310.586 196.835 310.488 196.871 310.488 196.871C310.488 196.871 310.062 112.746 310.488 102.107C356.116 89.4085 406.166 93.4423 434.111 102.448C452.33 117.499 489.109 154.595 507.109 172.961Z" fill="#7843FF"/>
<path d="M310.502 102.12C310.063 112.771 310.502 196.884 310.502 196.884C310.502 196.884 386.596 149.66 523.002 167.636C523.002 167.636 467.954 108.042 445.189 84.9729C406.436 78.2215 350.767 79.6351 310.502 102.12Z" fill="white"/>
<path d="M100.512 228.179C249.263 185.148 309.173 196.616 310.489 196.872C310.501 196.884 310.513 196.884 310.513 196.884C310.513 196.884 310.94 112.759 310.513 102.12C272.881 94.2108 222.55 117.621 193.155 127.676C165.979 146.358 131.905 187.525 113.588 210.972C105.703 221.05 100.755 227.838 100.512 228.179Z" fill="#CCB9FF"/>
<path d="M113.586 210.96C178.444 190.376 263.556 185.392 308.756 196.116C309.012 196.226 309.256 196.311 309.439 196.396C309.975 196.628 310.304 196.786 310.438 196.847C310.45 196.86 310.463 196.86 310.475 196.872C310.487 196.884 310.499 196.884 310.499 196.884C310.499 196.884 310.926 112.759 310.499 102.12C272.867 94.2108 222.535 117.621 193.141 127.676C165.965 146.358 131.903 187.525 113.586 210.96Z" fill="#7843FF"/>
<path d="M103.02 206.56C206.972 177.605 268.54 185.197 295.058 191.826C295.131 191.851 295.192 191.863 295.277 191.887C302.053 193.581 306.501 195.214 308.756 196.128C309.012 196.238 309.256 196.323 309.438 196.409C309.975 196.64 310.304 196.799 310.438 196.86C310.474 196.884 310.511 196.896 310.511 196.896C310.511 196.896 310.937 112.771 310.511 102.132C272.878 94.2229 222.596 100.304 194.359 109.603C176.969 124.409 138.861 166.356 117.765 189.938C108.869 199.882 103.02 206.56 103.02 206.56Z" fill="#CCB9FF"/>
<path d="M117.768 189.925C199.431 171.548 266.19 183.954 295.06 191.814C295.133 191.838 295.194 191.851 295.279 191.875C301.86 193.679 306.443 195.226 308.758 196.116C309.014 196.226 309.258 196.311 309.44 196.396C309.794 196.543 310.074 196.664 310.233 196.738C310.318 196.786 310.403 196.823 310.44 196.847C310.476 196.872 310.513 196.884 310.513 196.884C310.513 196.884 310.939 112.759 310.513 102.12C272.88 94.2106 222.598 100.292 194.361 109.59C176.971 124.397 138.851 166.344 117.768 189.925Z" fill="#7843FF"/>
<path d="M103.496 183.637C232.005 159.507 305.223 194.264 310.232 196.75C310.415 196.847 310.512 196.884 310.512 196.884C310.512 196.884 310.939 112.759 310.512 102.12C264.885 89.4212 214.834 93.455 186.89 102.461C168.683 117.499 131.891 154.584 113.904 172.961C107.518 179.469 103.496 183.637 103.496 183.637Z" fill="#CCB9FF"/>
<path d="M113.891 172.962C228.324 155.9 305.137 194.118 310.231 196.738C310.414 196.835 310.511 196.872 310.511 196.872C310.511 196.872 310.938 112.747 310.511 102.108C264.884 89.4094 214.833 93.4432 186.889 102.449C168.67 117.5 131.89 154.596 113.891 172.962Z" fill="#7843FF"/>
<path d="M310.5 102.12C310.939 112.771 310.5 196.884 310.5 196.884C310.5 196.884 234.406 149.66 98 167.636C98 167.636 153.047 108.043 175.812 84.9733C220.489 73.1278 269.102 83.8765 310.5 102.12Z" fill="white"/>
<path d="M439.279 91.1268C430.724 89.7376 422.327 88.5798 414.174 88.3482C406.156 88.1167 398.222 88.3483 390.386 89.0307C374.848 90.3834 359.456 93.5154 344.235 98.5242C335.619 101.364 327.015 104.922 318.582 109.504C318.448 109.578 318.509 109.675 318.63 109.626C334.339 103.143 349.67 97.6102 365.184 94.2588C380.527 90.944 396.187 89.4207 412.127 89.7375C416.612 89.8228 421.194 90.1153 425.63 90.3103C430.212 90.5053 434.77 90.8465 439.511 91.4559C439.913 91.5046 439.669 91.2 439.279 91.1268Z" fill="#CCB9FF" fill-opacity="0.3"/>
<path d="M444.178 96.0258C435.233 94.4537 426.446 93.1619 417.94 92.8451C409.58 92.5404 401.305 92.7232 393.152 93.4057C376.98 94.7462 360.942 98.0001 345.124 103.277C336.155 106.275 327.197 110.028 318.411 114.915C318.277 114.988 318.325 115.098 318.472 115.037C334.826 108.152 350.803 102.326 366.95 98.8288C382.927 95.3799 399.245 93.8566 415.868 94.3075C420.548 94.4293 425.325 94.7828 429.956 95.0265C434.745 95.2824 439.486 95.6724 444.434 96.367C444.86 96.428 444.592 96.0989 444.178 96.0258Z" fill="#CCB9FF" fill-opacity="0.3"/>
<path d="M449.527 101.34C440.155 99.5724 430.942 98.11 422.058 97.6957C413.32 97.2935 404.692 97.4397 396.185 98.0978C379.307 99.414 362.599 102.802 346.11 108.371C336.751 111.528 327.428 115.525 318.264 120.729C318.117 120.814 318.178 120.924 318.324 120.863C335.386 113.551 352.045 107.384 368.899 103.728C385.559 100.133 402.584 98.6219 419.962 99.2312C424.849 99.4018 429.857 99.8162 434.683 100.121C439.68 100.438 444.64 100.901 449.819 101.693C450.246 101.766 449.953 101.413 449.527 101.34Z" fill="#CCB9FF" fill-opacity="0.3"/>
<path d="M455.364 107.104C445.517 105.105 435.841 103.448 426.542 102.936C417.39 102.436 408.372 102.509 399.476 103.167C381.841 104.459 364.39 107.981 347.17 113.867C337.396 117.206 327.647 121.46 318.068 127.029C317.922 127.114 317.983 127.236 318.129 127.175C335.958 119.376 353.373 112.831 370.983 109.029C388.386 105.276 406.203 103.777 424.397 104.593C429.516 104.825 434.768 105.312 439.826 105.678C445.054 106.056 450.245 106.604 455.681 107.518C456.144 107.579 455.815 107.189 455.364 107.104Z" fill="#CCB9FF" fill-opacity="0.3"/>
<path d="M461.776 113.392C451.418 111.125 441.217 109.236 431.456 108.603C421.865 107.981 412.408 107.993 403.085 108.615C384.61 109.87 366.354 113.538 348.342 119.778C338.118 123.324 327.905 127.858 317.888 133.841C317.729 133.939 317.79 134.073 317.948 134C336.619 125.664 354.85 118.705 373.301 114.72C391.52 110.784 410.19 109.322 429.286 110.358C434.661 110.65 440.181 111.223 445.483 111.674C450.967 112.137 456.414 112.783 462.13 113.819C462.617 113.916 462.252 113.502 461.776 113.392Z" fill="#CCB9FF" fill-opacity="0.3"/>
<path d="M468.845 120.29C457.901 117.718 447.128 115.561 436.867 114.781C426.776 114.014 416.844 113.94 407.058 114.538C387.669 115.732 368.511 119.571 349.634 126.2C338.898 129.978 328.198 134.829 317.681 141.263C317.522 141.361 317.583 141.519 317.741 141.434C337.326 132.489 356.471 125.067 375.836 120.887C394.957 116.768 414.565 115.33 434.661 116.646C440.328 117.012 446.141 117.694 451.71 118.242C457.475 118.803 463.202 119.559 469.223 120.753C469.747 120.875 469.357 120.412 468.845 120.29Z" fill="#CCB9FF" fill-opacity="0.3"/>
<path d="M476.669 127.882C465.08 124.945 453.673 122.483 442.851 121.521C432.212 120.582 421.744 120.399 411.458 120.972C391.058 122.093 370.913 126.103 351.073 133.171C339.788 137.205 328.54 142.409 317.474 149.367C317.303 149.477 317.377 149.635 317.547 149.562C338.155 139.922 358.3 132.001 378.676 127.614C398.784 123.3 419.44 121.911 440.645 123.556C446.617 124.019 452.771 124.823 458.645 125.469C464.726 126.139 470.771 127.041 477.132 128.406C477.656 128.528 477.206 128.016 476.669 127.882Z" fill="#CCB9FF" fill-opacity="0.3"/>
<path d="M485.393 136.291C473.085 132.927 460.947 130.1 449.503 128.93C438.255 127.785 427.202 127.492 416.331 128.004C394.797 129.028 373.556 133.22 352.667 140.788C340.773 145.102 328.903 150.72 317.241 158.264C317.058 158.386 317.131 158.568 317.314 158.471C339.055 148.051 360.309 139.545 381.806 134.938C403.023 130.405 424.837 129.089 447.273 131.124C453.598 131.697 460.118 132.647 466.333 133.427C472.768 134.244 479.154 135.292 485.905 136.876C486.466 137.01 485.954 136.449 485.393 136.291Z" fill="#CCB9FF" fill-opacity="0.3"/>
<path d="M495.154 145.663C482.016 141.775 469.074 138.521 456.924 137.108C444.993 135.718 433.269 135.267 421.777 135.718C398.988 136.62 376.528 141.007 354.458 149.124C341.869 153.755 329.329 159.836 316.996 168.062C316.801 168.184 316.886 168.391 317.069 168.293C340.065 156.984 362.562 147.82 385.327 142.957C407.775 138.192 430.893 136.974 454.718 139.472C461.433 140.179 468.367 141.3 474.96 142.25C481.785 143.225 488.561 144.481 495.739 146.321C496.348 146.467 495.763 145.846 495.154 145.663Z" fill="#CCB9FF" fill-opacity="0.3"/>
<path d="M506.172 156.167C492.096 151.658 478.228 147.88 465.285 146.162C452.574 144.468 440.12 143.834 427.896 144.2C403.681 144.931 379.856 149.526 356.47 158.276C343.113 163.272 329.805 169.877 316.717 178.883C316.51 179.017 316.595 179.249 316.802 179.151C341.212 166.819 365.11 156.899 389.289 151.78C413.114 146.759 437.707 145.675 463.104 148.746C470.27 149.611 477.679 150.951 484.699 152.097C491.962 153.279 499.189 154.766 506.854 156.911C507.488 157.081 506.83 156.375 506.172 156.167Z" fill="#CCB9FF" fill-opacity="0.3"/>
<path d="M181.723 91.1268C190.266 89.7376 198.675 88.5798 206.828 88.3482C214.847 88.1167 222.78 88.3483 230.616 89.0307C246.154 90.3834 261.546 93.5154 276.768 98.5242C285.384 101.364 293.987 104.922 302.421 109.504C302.555 109.578 302.494 109.675 302.372 109.626C286.663 103.143 271.332 97.6102 255.819 94.2588C240.475 90.944 224.816 89.4207 208.875 89.7375C204.391 89.8228 199.808 90.1153 195.372 90.3103C190.79 90.5053 186.232 90.8465 181.492 91.4559C181.09 91.5046 181.333 91.2 181.723 91.1268Z" fill="#CCB9FF" fill-opacity="0.3"/>
<path d="M176.824 96.0258C185.769 94.4537 194.555 93.1619 203.062 92.8451C211.422 92.5404 219.697 92.7232 227.849 93.4057C244.021 94.7462 260.059 98.0001 275.877 103.277C284.847 106.275 293.804 110.028 302.591 114.915C302.725 114.988 302.676 115.098 302.53 115.037C286.175 108.152 270.198 102.326 254.051 98.8288C238.074 95.3799 221.756 93.8566 205.133 94.3075C200.454 94.4293 195.677 94.7828 191.046 95.0265C186.256 95.2824 181.516 95.6724 176.568 96.367C176.141 96.428 176.409 96.0989 176.824 96.0258Z" fill="#CCB9FF" fill-opacity="0.3"/>
<path d="M171.474 101.34C180.845 99.5724 190.059 98.11 198.943 97.6957C207.681 97.2935 216.309 97.4397 224.815 98.0978C241.694 99.414 258.402 102.802 274.89 108.371C284.25 111.528 293.573 115.525 302.737 120.729C302.883 120.814 302.822 120.924 302.676 120.863C285.615 113.551 268.956 107.384 252.101 103.728C235.442 100.133 218.417 98.6219 201.039 99.2312C196.152 99.4018 191.143 99.8162 186.317 100.121C181.321 100.438 176.361 100.901 171.181 101.693C170.755 101.766 171.047 101.413 171.474 101.34Z" fill="#CCB9FF" fill-opacity="0.3"/>
<path d="M165.637 107.104C175.483 105.105 185.16 103.448 194.458 102.936C203.61 102.436 212.629 102.509 221.525 103.167C239.159 104.459 256.61 107.981 273.83 113.867C283.604 117.206 293.353 121.46 302.932 127.029C303.078 127.114 303.018 127.236 302.871 127.175C285.042 119.376 267.627 112.831 250.017 109.029C232.615 105.276 214.798 103.777 196.603 104.593C191.485 104.825 186.232 105.312 181.175 105.678C175.947 106.056 170.755 106.604 165.32 107.518C164.857 107.579 165.186 107.189 165.637 107.104Z" fill="#CCB9FF" fill-opacity="0.3"/>
<path d="M159.225 113.392C169.583 111.125 179.784 109.236 189.545 108.603C199.136 107.981 208.593 107.993 217.916 108.615C236.391 109.87 254.647 113.538 272.659 119.778C282.883 123.324 293.096 127.858 303.113 133.841C303.272 133.939 303.211 134.073 303.052 134C284.382 125.664 266.151 118.705 247.7 114.72C229.481 110.784 210.811 109.322 191.715 110.358C186.34 110.65 180.82 111.223 175.518 111.674C170.034 112.137 164.587 112.783 158.871 113.819C158.384 113.916 158.749 113.502 159.225 113.392Z" fill="#CCB9FF" fill-opacity="0.3"/>
<path d="M152.158 120.29C163.101 117.718 173.874 115.561 184.136 114.781C194.226 114.014 204.159 113.94 213.944 114.538C233.334 115.732 252.491 119.571 271.368 126.2C282.105 129.978 292.805 134.829 303.322 141.263C303.48 141.361 303.419 141.519 303.261 141.434C283.677 132.489 264.532 125.067 245.167 120.887C226.046 116.768 206.437 115.33 186.342 116.646C180.675 117.012 174.862 117.694 169.292 118.242C163.528 118.803 157.8 119.559 151.78 120.753C151.256 120.875 151.646 120.412 152.158 120.29Z" fill="#CCB9FF" fill-opacity="0.3"/>
<path d="M144.335 127.882C155.924 124.945 167.331 122.483 178.153 121.521C188.792 120.582 199.26 120.399 209.546 120.972C229.946 122.093 250.091 126.103 269.931 133.171C281.216 137.205 292.476 142.409 303.53 149.367C303.7 149.477 303.627 149.635 303.457 149.562C282.849 139.923 262.704 132.001 242.328 127.614C222.22 123.3 201.563 121.911 180.359 123.556C174.387 124.019 168.233 124.823 162.359 125.469C156.278 126.139 150.233 127.041 143.871 128.406C143.347 128.528 143.798 128.016 144.335 127.882Z" fill="#CCB9FF" fill-opacity="0.3"/>
<path d="M135.61 136.291C147.919 132.927 160.057 130.1 171.5 128.93C182.748 127.785 193.802 127.492 204.66 128.004C226.194 129.028 247.436 133.22 268.324 140.788C280.218 145.102 292.088 150.72 303.751 158.264C303.933 158.386 303.86 158.568 303.677 158.471C281.936 148.051 260.683 139.545 239.185 134.938C217.968 130.405 196.154 129.089 173.718 131.124C167.393 131.697 160.873 132.647 154.658 133.427C148.223 134.244 141.838 135.292 135.086 136.876C134.538 137.01 135.05 136.449 135.61 136.291Z" fill="#CCB9FF" fill-opacity="0.3"/>
<path d="M125.846 145.663C138.984 141.775 151.926 138.521 164.076 137.107C176.007 135.718 187.731 135.267 199.223 135.718C222.012 136.62 244.472 141.007 266.542 149.124C279.131 153.755 291.671 159.836 304.004 168.062C304.199 168.184 304.114 168.391 303.931 168.293C280.935 156.984 258.438 147.82 235.673 142.957C213.225 138.192 190.107 136.973 166.282 139.472C159.567 140.179 152.633 141.3 146.04 142.25C139.215 143.225 132.439 144.48 125.261 146.321C124.652 146.467 125.237 145.845 125.846 145.663Z" fill="#CCB9FF" fill-opacity="0.3"/>
<path d="M114.83 156.167C128.906 151.658 142.774 147.88 155.717 146.162C168.427 144.468 180.882 143.834 193.105 144.2C217.32 144.931 241.145 149.526 264.532 158.276C277.888 163.272 291.196 169.877 304.285 178.883C304.492 179.017 304.407 179.249 304.2 179.151C279.79 166.819 255.891 156.899 231.713 151.78C207.888 146.759 183.295 145.675 157.898 148.746C150.732 149.611 143.323 150.951 136.303 152.097C129.04 153.279 121.813 154.766 114.148 156.911C113.514 157.081 114.172 156.375 114.83 156.167Z" fill="#CCB9FF" fill-opacity="0.3"/>
</g>
<path d="M-1 16C-1 6.61116 6.61116 -1 16 -1H604C613.389 -1 621 6.61116 621 16H619C619 7.71573 612.284 1 604 1H16C7.71573 1 1 7.71573 1 16H-1ZM620 333H0H620ZM-1 333V16C-1 6.61116 6.61116 -1 16 -1V1C7.71573 1 1 7.71573 1 16V333H-1ZM604 -1C613.389 -1 621 6.61116 621 16V333H619V16C619 7.71573 612.284 1 604 1V-1Z" fill="white" fill-opacity="0.2" mask="url(#path-1-inside-1_4778_29763)"/>
<defs>
<filter id="filter0_f_4778_29763" x="30.7893" y="-134.357" width="559.819" height="559.819" filterUnits="userSpaceOnUse" color-interpolation-filters="sRGB">
<feFlood flood-opacity="0" result="BackgroundImageFix"/>
<feBlend mode="normal" in="SourceGraphic" in2="BackgroundImageFix" result="shape"/>
<feGaussianBlur stdDeviation="69.9774" result="effect1_foregroundBlur_4778_29763"/>
</filter>
<filter id="filter1_d_4778_29763" x="239.782" y="-0.945204" width="41.0701" height="41.067" filterUnits="userSpaceOnUse" color-interpolation-filters="sRGB">
<feFlood flood-opacity="0" result="BackgroundImageFix"/>
<feColorMatrix in="SourceAlpha" type="matrix" values="0 0 0 0 0 0 0 0 0 0 0 0 0 0 0 0 0 0 127 0" result="hardAlpha"/>
<feOffset/>
<feGaussianBlur stdDeviation="7.46845"/>
<feComposite in2="hardAlpha" operator="out"/>
<feColorMatrix type="matrix" values="0 0 0 0 1 0 0 0 0 1 0 0 0 0 1 0 0 0 0.38 0"/>
<feBlend mode="normal" in2="BackgroundImageFix" result="effect1_dropShadow_4778_29763"/>
<feBlend mode="normal" in="SourceGraphic" in2="effect1_dropShadow_4778_29763" result="shape"/>
</filter>
<filter id="filter2_d_4778_29763" x="410.526" y="36.8321" width="41.0701" height="41.067" filterUnits="userSpaceOnUse" color-interpolation-filters="sRGB">
<feFlood flood-opacity="0" result="BackgroundImageFix"/>
<feColorMatrix in="SourceAlpha" type="matrix" values="0 0 0 0 0 0 0 0 0 0 0 0 0 0 0 0 0 0 127 0" result="hardAlpha"/>
<feOffset/>
<feGaussianBlur stdDeviation="7.46845"/>
<feComposite in2="hardAlpha" operator="out"/>
<feColorMatrix type="matrix" values="0 0 0 0 1 0 0 0 0 1 0 0 0 0 1 0 0 0 0.38 0"/>
<feBlend mode="normal" in2="BackgroundImageFix" result="effect1_dropShadow_4778_29763"/>
<feBlend mode="normal" in="SourceGraphic" in2="effect1_dropShadow_4778_29763" result="shape"/>
</filter>
<filter id="filter3_d_4778_29763" x="572.874" y="172.55" width="41.0701" height="41.067" filterUnits="userSpaceOnUse" color-interpolation-filters="sRGB">
<feFlood flood-opacity="0" result="BackgroundImageFix"/>
<feColorMatrix in="SourceAlpha" type="matrix" values="0 0 0 0 0 0 0 0 0 0 0 0 0 0 0 0 0 0 127 0" result="hardAlpha"/>
<feOffset/>
<feGaussianBlur stdDeviation="7.46845"/>
<feComposite in2="hardAlpha" operator="out"/>
<feColorMatrix type="matrix" values="0 0 0 0 1 0 0 0 0 1 0 0 0 0 1 0 0 0 0.38 0"/>
<feBlend mode="normal" in2="BackgroundImageFix" result="effect1_dropShadow_4778_29763"/>
<feBlend mode="normal" in="SourceGraphic" in2="effect1_dropShadow_4778_29763" result="shape"/>
</filter>
<filter id="filter4_d_4778_29763" x="-10.7377" y="78.8067" width="41.0701" height="41.067" filterUnits="userSpaceOnUse" color-interpolation-filters="sRGB">
<feFlood flood-opacity="0" result="BackgroundImageFix"/>
<feColorMatrix in="SourceAlpha" type="matrix" values="0 0 0 0 0 0 0 0 0 0 0 0 0 0 0 0 0 0 127 0" result="hardAlpha"/>
<feOffset/>
<feGaussianBlur stdDeviation="7.46845"/>
<feComposite in2="hardAlpha" operator="out"/>
<feColorMatrix type="matrix" values="0 0 0 0 1 0 0 0 0 1 0 0 0 0 1 0 0 0 0.38 0"/>
<feBlend mode="normal" in2="BackgroundImageFix" result="effect1_dropShadow_4778_29763"/>
<feBlend mode="normal" in="SourceGraphic" in2="effect1_dropShadow_4778_29763" result="shape"/>
</filter>
<linearGradient id="paint0_linear_4778_29763" x1="359.685" y1="-10.0118" x2="365.5" y2="271" gradientUnits="userSpaceOnUse">
<stop stop-color="#7843FF"/>
<stop offset="1" stop-color="#482899" stop-opacity="0.09"/>
</linearGradient>
<linearGradient id="paint1_linear_4778_29763" x1="310" y1="0" x2="310" y2="333.093" gradientUnits="userSpaceOnUse">
<stop stop-color="#1B1A20"/>
<stop offset="0.2422" stop-color="#1B1A20" stop-opacity="0"/>
<stop offset="0.7385" stop-color="#1B1A20" stop-opacity="0"/>
<stop offset="1" stop-color="#1B1A20"/>
</linearGradient>
<radialGradient id="paint2_radial_4778_29763" cx="0" cy="0" r="1" gradientUnits="userSpaceOnUse" gradientTransform="translate(260.317 19.5883) rotate(90) scale(5.59662 5.59819)">
<stop stop-color="#D6BDFF"/>
<stop offset="1" stop-color="#7843FF"/>
</radialGradient>
<radialGradient id="paint3_radial_4778_29763" cx="0" cy="0" r="1" gradientUnits="userSpaceOnUse" gradientTransform="translate(431.061 57.3657) rotate(90) scale(5.59662 5.59819)">
<stop stop-color="#D6BDFF"/>
<stop offset="1" stop-color="#7843FF"/>
</radialGradient>
<radialGradient id="paint4_radial_4778_29763" cx="0" cy="0" r="1" gradientUnits="userSpaceOnUse" gradientTransform="translate(593.409 193.084) rotate(90) scale(5.59662 5.59819)">
<stop stop-color="#D6BDFF"/>
<stop offset="1" stop-color="#7843FF"/>
</radialGradient>
<radialGradient id="paint5_radial_4778_29763" cx="0" cy="0" r="1" gradientUnits="userSpaceOnUse" gradientTransform="translate(9.79741 99.3403) rotate(90) scale(5.59662 5.59819)">
<stop stop-color="#D6BDFF"/>
<stop offset="1" stop-color="#7843FF"/>
</radialGradient>
<clipPath id="clip0_4778_29763">
<path d="M0 16C0 7.16343 7.16344 0 16 0H604C612.837 0 620 7.16344 620 16V333H0V16Z" fill="white"/>
</clipPath>
</defs>
</svg>
