<svg width="438" height="486" viewBox="0 0 438 486" fill="none" xmlns="http://www.w3.org/2000/svg">
<g clip-path="url(#clip0_4778_41713)">
<rect width="438" height="486" rx="12" fill="#7843FF"/>
<path opacity="0.1" d="M486.699 257.22L443.741 279.509M443.741 279.509L383.244 310.898M443.741 279.509L505.408 310.963M443.741 279.509L383.174 248.616M383.244 310.898L321.97 342.691M383.244 310.898L444.911 342.352M383.244 310.898L322.677 280.005M321.97 342.691L261.473 374.08M321.97 342.691L383.637 374.144M321.97 342.691L261.403 311.798M261.473 374.08L199.321 406.327M261.473 374.08L323.14 405.534M261.473 374.08L200.906 343.187M199.321 406.327L138.825 437.716M199.321 406.327L260.989 437.781M199.321 406.327L138.755 375.435M138.825 437.716L114.575 450.299M138.825 437.716L200.492 469.17M138.825 437.716L78.2578 406.824M553.962 285.77L505.408 310.963M505.408 310.963L444.911 342.352M505.408 310.963L561.024 339.33M444.911 342.352L383.637 374.144M444.911 342.352L540.603 391.161M383.637 374.144L323.14 405.534M383.637 374.144L420.691 393.044M323.14 405.534L260.989 437.781M323.14 405.534L400.271 444.875M260.989 437.781L200.492 469.17M260.989 437.781L310.844 463.21M200.492 469.17L181.838 478.849M200.492 469.17L290.424 515.041M428.146 225.282L383.174 248.616M383.174 248.616L322.677 280.005M383.174 248.616L318.631 215.696M322.677 280.005L261.403 311.798M322.677 280.005L257.666 246.846M261.403 311.798L200.906 343.187M261.403 311.798L195.918 278.396M200.906 343.187L138.755 375.435M200.906 343.187L134.952 309.546M138.755 375.435L78.2578 406.824M138.755 375.435L72.3192 341.549M78.2578 406.824L56.0221 418.361M78.2578 406.824L11.354 372.699M430.566 158.503L383.361 182.622M383.361 182.622L318.631 215.696M383.361 182.622L598.672 292.444M383.361 182.622L322.373 151.515M318.631 215.696L257.666 246.846M318.631 215.696L257.644 184.589M257.666 246.846L195.918 278.396M257.666 246.846L196.679 215.739M195.918 278.396L134.952 309.546M195.918 278.396L134.93 247.289M134.952 309.546L72.3192 341.549M134.952 309.546L73.965 278.439M72.3192 341.549L11.354 372.699M72.3192 341.549L11.332 310.442M11.354 372.699L-99.7958 429.491M11.354 372.699L-49.6333 341.592M400.563 111.564L383.339 120.365M383.339 120.365L322.373 151.515M383.339 120.365L619.092 240.613M383.339 120.365L260.783 57.8544M322.373 151.515L257.644 184.589M322.373 151.515L260.805 120.112M257.644 184.589L196.679 215.739M257.644 184.589L196.076 153.185M196.679 215.739L134.93 247.289M196.679 215.739L135.11 184.335M134.93 247.289L73.965 278.439M134.93 247.289L73.3618 215.886M73.965 278.439L11.332 310.442M73.965 278.439L12.3965 247.036M11.332 310.442L-49.6333 341.592M11.332 310.442L-50.2365 279.038M-49.6333 341.592L-129.798 382.552M-49.6333 341.592L-111.202 310.188M316.364 91.724L260.805 120.112M260.805 120.112L196.076 153.185M260.805 120.112L199.818 89.0045M196.076 153.185L135.11 184.335M196.076 153.185L135.088 122.078M135.11 184.335L73.3618 215.886M135.11 184.335L74.1229 153.228M73.3618 215.886L12.3965 247.036M73.3618 215.886L12.3745 184.778M12.3965 247.036L-50.2365 279.038M12.3965 247.036L-48.5908 215.929M-50.2365 279.038L-111.202 310.188M-50.2365 279.038L-111.224 247.931M-111.202 310.188L-213.998 362.712M-111.202 310.188L-172.189 279.081M286.361 44.785L260.783 57.8544M260.783 57.8544L199.818 89.0045M260.783 57.8544L88.5396 -30M199.818 89.0045L135.088 122.078M199.818 89.0045L68.1196 21.8306M135.088 122.078L74.1229 153.228M135.088 122.078L30.4711 68.7169M74.1229 153.228L12.3745 184.778M74.1229 153.228L10.0509 120.548M12.3745 184.778L-48.5908 215.929M12.3745 184.778L-109.862 122.431M-48.5908 215.929L-111.224 247.931M-48.5908 215.929L-130.282 174.261M-111.224 247.931L-172.189 279.081M-111.224 247.931L-219.709 192.597M-172.189 279.081L-244 315.773M-172.189 279.081L-240.129 244.428M549.607 257.483L506.649 279.772M506.649 279.772L446.152 311.162M506.649 279.772L568.316 311.226M506.649 279.772L446.082 248.88M446.152 311.162L384.878 342.954M446.152 311.162L507.819 342.616M446.152 311.162L385.585 280.269M384.878 342.954L324.381 374.343M384.878 342.954L446.545 374.408M384.878 342.954L324.311 312.061M324.381 374.343L262.229 406.591M324.381 374.343L386.048 405.797M324.381 374.343L263.814 343.45M262.229 406.591L201.733 437.98M262.229 406.591L323.896 438.045M262.229 406.591L201.662 375.698M201.733 437.98L177.483 450.562M201.733 437.98L263.4 469.434M201.733 437.98L141.166 407.087M616.87 286.034L568.316 311.226M568.316 311.226L507.819 342.616M568.316 311.226L623.931 339.594M507.819 342.616L446.545 374.408M507.819 342.616L603.511 391.424M446.545 374.408L386.048 405.797M446.545 374.408L483.598 393.307M386.048 405.797L323.896 438.045M386.048 405.797L463.178 445.138M323.896 438.045L263.4 469.434M323.896 438.045L373.752 463.474M263.4 469.434L244.746 479.113M263.4 469.434L353.332 515.304M491.054 225.546L446.082 248.88M446.082 248.88L385.585 280.269M446.082 248.88L381.539 215.959M385.585 280.269L324.311 312.061M385.585 280.269L320.574 247.109M324.311 312.061L263.814 343.45M324.311 312.061L258.825 278.66M263.814 343.45L201.662 375.698M263.814 343.45L197.86 309.81M201.662 375.698L141.166 407.087M201.662 375.698L135.227 341.812M141.166 407.087L118.93 418.624M141.166 407.087L74.2618 372.962M493.474 158.766L446.269 182.886M446.269 182.886L381.539 215.959M446.269 182.886L661.58 292.707M446.269 182.886L385.281 151.779M381.539 215.959L320.574 247.109M381.539 215.959L320.552 184.852M320.574 247.109L258.825 278.66M320.574 247.109L259.587 216.002M258.825 278.66L197.86 309.81M258.825 278.66L197.838 247.553M197.86 309.81L135.227 341.812M197.86 309.81L136.873 278.703M135.227 341.812L74.2618 372.962M135.227 341.812L74.2398 310.705M74.2618 372.962L-36.888 429.754M74.2618 372.962L13.2746 341.855M463.471 111.828L446.247 120.629M446.247 120.629L385.281 151.779M446.247 120.629L682 240.877M446.247 120.629L323.691 58.1178M385.281 151.779L320.552 184.852M385.281 151.779L323.713 120.375M320.552 184.852L259.587 216.002M320.552 184.852L258.983 153.449M259.587 216.002L197.838 247.553M259.587 216.002L198.018 184.599M197.838 247.553L136.873 278.703M197.838 247.553L136.27 216.149M136.873 278.703L74.2398 310.705M136.873 278.703L75.3043 247.299M74.2398 310.705L13.2746 341.855M74.2398 310.705L12.6713 279.301M13.2746 341.855L-66.8902 382.815M13.2746 341.855L-48.2939 310.452M379.272 91.9874L323.713 120.375M323.713 120.375L258.983 153.449M323.713 120.375L262.726 89.2679M258.983 153.449L198.018 184.599M258.983 153.449L197.996 122.341M198.018 184.599L136.27 216.149M198.018 184.599L137.031 153.492M136.27 216.149L75.3043 247.299M136.27 216.149L75.2823 185.042M75.3043 247.299L12.6713 279.301M75.3043 247.299L14.317 216.192M12.6713 279.301L-48.2939 310.452M12.6713 279.301L-48.316 248.194M-48.2939 310.452L-151.09 362.975M-48.2939 310.452L-109.281 279.344M349.269 45.0485L323.691 58.1178M323.691 58.1178L262.726 89.2679M323.691 58.1178L151.447 -29.7366M262.726 89.2679L197.996 122.341M262.726 89.2679L131.027 22.0941M197.996 122.341L137.031 153.492M197.996 122.341L93.3789 68.9804M137.031 153.492L75.2823 185.042M137.031 153.492L72.9587 120.811M75.2823 185.042L14.317 216.192M75.2823 185.042L-46.9542 122.694M14.317 216.192L-48.316 248.194M14.317 216.192L-67.3742 174.525M-48.316 248.194L-109.281 279.344M-48.316 248.194L-156.801 192.86M-109.281 279.344L-181.092 316.036M-109.281 279.344L-177.221 244.691" stroke="white"/>
<g opacity="0.5" filter="url(#filter0_f_4778_41713)">
<path d="M219.681 457.65L456.752 250.123L219.681 42.5249L-17.4131 250.123L219.681 457.65Z" fill="white"/>
</g>
<path d="M385.05 314.591C335.42 296.001 283.81 280.931 230.6 269.731C228.87 272.631 224.63 274.651 219.7 274.661C214.9 274.661 210.77 272.751 208.94 269.991C156.16 281.161 104.95 296.141 55.6998 314.591C54.1798 315.151 52.9698 314.111 53.7098 312.901C74.6298 280.351 97.7298 248.411 122.97 217.291C154.84 208.161 187.34 200.351 220.38 193.941C253.42 200.351 285.92 208.151 317.79 217.291C343.03 248.411 366.12 280.361 387.05 312.901C387.78 314.101 386.56 315.151 385.05 314.591Z" fill="#7843FF"/>
<path d="M376.65 307.351C327.81 289.731 277.12 275.511 224.94 264.991C221.94 264.381 218.79 264.381 215.79 264.991C163.62 275.511 112.93 289.731 64.0895 307.351C63.3095 307.641 62.6695 307.101 63.0695 306.481C82.3195 276.791 103.38 247.611 126.21 219.111C157.03 210.311 188.43 202.751 220.35 196.491C252.27 202.741 283.68 210.301 314.51 219.111C337.35 247.611 358.4 276.791 377.65 306.481C378.06 307.101 377.43 307.641 376.65 307.351Z" stroke="white" stroke-width="0.9883" stroke-miterlimit="10"/>
<path d="M392.68 293.451C270.62 258.141 221.46 267.551 220.38 267.761C220.37 267.771 220.36 267.771 220.36 267.771C220.36 267.771 220.01 198.741 220.36 190.011C251.24 183.521 292.54 202.731 316.66 210.981C338.96 226.311 366.92 260.091 381.95 279.331C388.42 287.601 392.48 293.171 392.68 293.451Z" fill="#CCB9FF"/>
<path d="M381.95 279.321C328.73 262.431 258.89 258.341 221.8 267.141C221.59 267.231 221.39 267.301 221.24 267.371C220.8 267.561 220.53 267.691 220.42 267.741C220.41 267.751 220.4 267.751 220.39 267.761C220.38 267.771 220.37 267.771 220.37 267.771C220.37 267.771 220.02 198.741 220.37 190.011C251.25 183.521 292.55 202.731 316.67 210.981C338.97 226.311 366.92 260.091 381.95 279.321Z" fill="#7843FF"/>
<path d="M390.62 275.71C305.32 251.95 254.8 258.18 233.04 263.62C232.98 263.64 232.93 263.65 232.86 263.67C227.3 265.06 223.65 266.4 221.8 267.15C221.59 267.24 221.39 267.31 221.24 267.38C220.8 267.57 220.53 267.7 220.42 267.75C220.39 267.77 220.36 267.78 220.36 267.78C220.36 267.78 220.01 198.75 220.36 190.02C251.24 183.53 292.5 188.52 315.67 196.15C329.94 208.3 361.21 242.72 378.52 262.07C385.82 270.23 390.62 275.71 390.62 275.71Z" fill="#CCB9FF"/>
<path d="M378.52 262.061C311.51 246.981 256.73 257.161 233.04 263.611C232.98 263.631 232.93 263.641 232.86 263.661C227.46 265.141 223.7 266.411 221.8 267.141C221.59 267.231 221.39 267.301 221.24 267.371C220.95 267.491 220.72 267.591 220.59 267.651C220.52 267.691 220.45 267.721 220.42 267.741C220.39 267.761 220.36 267.771 220.36 267.771C220.36 267.771 220.01 198.741 220.36 190.011C251.24 183.521 292.5 188.511 315.67 196.141C329.94 208.291 361.22 242.711 378.52 262.061Z" fill="#7843FF"/>
<path d="M390.23 256.901C284.78 237.101 224.7 265.621 220.59 267.661C220.44 267.741 220.36 267.771 220.36 267.771C220.36 267.771 220.01 198.741 220.36 190.011C257.8 179.591 298.87 182.901 321.8 190.291C336.74 202.631 366.93 233.061 381.69 248.141C386.93 253.481 390.23 256.901 390.23 256.901Z" fill="#CCB9FF"/>
<path d="M381.7 248.14C287.8 234.14 224.77 265.5 220.59 267.65C220.44 267.73 220.36 267.76 220.36 267.76C220.36 267.76 220.01 198.73 220.36 190C257.8 179.58 298.87 182.89 321.8 190.28C336.75 202.63 366.93 233.07 381.7 248.14Z" fill="#7843FF"/>
<path d="M220.37 190.011C220.01 198.751 220.37 267.771 220.37 267.771C220.37 267.771 282.81 229.021 394.74 243.771C394.74 243.771 349.57 194.871 330.89 175.941C299.09 170.401 253.41 171.561 220.37 190.011Z" fill="white"/>
<path d="M48.0601 293.451C170.12 258.141 219.28 267.551 220.36 267.761C220.37 267.771 220.38 267.771 220.38 267.771C220.38 267.771 220.73 198.741 220.38 190.011C189.5 183.521 148.2 202.731 124.08 210.981C101.78 226.311 73.8201 260.091 58.7901 279.331C52.3201 287.601 48.2601 293.171 48.0601 293.451Z" fill="#CCB9FF"/>
<path d="M58.79 279.321C112.01 262.431 181.85 258.341 218.94 267.141C219.15 267.231 219.35 267.301 219.5 267.371C219.94 267.561 220.21 267.691 220.32 267.741C220.33 267.751 220.34 267.751 220.35 267.761C220.36 267.771 220.37 267.771 220.37 267.771C220.37 267.771 220.72 198.741 220.37 190.011C189.49 183.521 148.19 202.731 124.07 210.981C101.77 226.311 73.82 260.091 58.79 279.321Z" fill="#7843FF"/>
<path d="M50.1201 275.711C135.42 251.951 185.94 258.181 207.7 263.621C207.76 263.641 207.81 263.651 207.88 263.671C213.44 265.061 217.09 266.401 218.94 267.151C219.15 267.241 219.35 267.311 219.5 267.381C219.94 267.571 220.21 267.701 220.32 267.751C220.35 267.771 220.38 267.781 220.38 267.781C220.38 267.781 220.73 198.751 220.38 190.021C189.5 183.531 148.24 188.521 125.07 196.151C110.8 208.301 79.5301 242.721 62.2201 262.071C54.9201 270.231 50.1201 275.711 50.1201 275.711Z" fill="#CCB9FF"/>
<path d="M62.2202 262.061C129.23 246.981 184.01 257.161 207.7 263.611C207.76 263.631 207.81 263.641 207.88 263.661C213.28 265.141 217.04 266.411 218.94 267.141C219.15 267.231 219.35 267.301 219.5 267.371C219.79 267.491 220.02 267.591 220.15 267.651C220.22 267.691 220.29 267.721 220.32 267.741C220.35 267.761 220.38 267.771 220.38 267.771C220.38 267.771 220.73 198.741 220.38 190.011C189.5 183.521 148.24 188.511 125.07 196.141C110.8 208.291 79.5202 242.711 62.2202 262.061Z" fill="#7843FF"/>
<path d="M50.5098 256.901C155.96 237.101 216.04 265.621 220.15 267.661C220.3 267.741 220.38 267.771 220.38 267.771C220.38 267.771 220.73 198.741 220.38 190.011C182.94 179.591 141.87 182.901 118.94 190.291C104 202.631 73.8098 233.061 59.0498 248.141C53.8098 253.481 50.5098 256.901 50.5098 256.901Z" fill="#CCB9FF"/>
<path d="M59.04 248.141C152.94 234.141 215.97 265.501 220.15 267.651C220.3 267.731 220.38 267.761 220.38 267.761C220.38 267.761 220.73 198.731 220.38 190.001C182.94 179.581 141.87 182.891 118.94 190.281C103.99 202.631 73.81 233.071 59.04 248.141Z" fill="#7843FF"/>
<path d="M220.37 190.011C220.73 198.751 220.37 267.771 220.37 267.771C220.37 267.771 157.93 229.021 46 243.771C46 243.771 91.17 194.871 109.85 175.941C146.51 166.221 186.4 175.041 220.37 190.011Z" fill="white"/>
<path d="M326.04 180.991C319.02 179.851 312.13 178.901 305.44 178.711C298.86 178.521 292.35 178.711 285.92 179.271C273.17 180.381 260.54 182.951 248.05 187.061C240.98 189.391 233.92 192.311 227 196.071C226.89 196.131 226.94 196.211 227.04 196.171C239.93 190.851 252.51 186.311 265.24 183.561C277.83 180.841 290.68 179.591 303.76 179.851C307.44 179.921 311.2 180.161 314.84 180.321C318.6 180.481 322.34 180.761 326.23 181.261C326.56 181.301 326.36 181.051 326.04 180.991Z" fill="#CCB9FF" fill-opacity="0.3"/>
<path d="M330.06 185.011C322.72 183.721 315.51 182.661 308.53 182.401C301.67 182.151 294.88 182.301 288.19 182.861C274.92 183.961 261.76 186.631 248.78 190.961C241.42 193.421 234.07 196.501 226.86 200.511C226.75 200.571 226.79 200.661 226.91 200.611C240.33 194.961 253.44 190.181 266.69 187.311C279.8 184.481 293.19 183.231 306.83 183.601C310.67 183.701 314.59 183.991 318.39 184.191C322.32 184.401 326.21 184.721 330.27 185.291C330.62 185.341 330.4 185.071 330.06 185.011Z" fill="#CCB9FF" fill-opacity="0.3"/>
<path d="M334.45 189.371C326.76 187.921 319.2 186.721 311.91 186.381C304.74 186.051 297.66 186.171 290.68 186.711C276.83 187.791 263.12 190.571 249.59 195.141C241.91 197.731 234.26 201.011 226.74 205.281C226.62 205.351 226.67 205.441 226.79 205.391C240.79 199.391 254.46 194.331 268.29 191.331C281.96 188.381 295.93 187.141 310.19 187.641C314.2 187.781 318.31 188.121 322.27 188.371C326.37 188.631 330.44 189.011 334.69 189.661C335.04 189.721 334.8 189.431 334.45 189.371Z" fill="#CCB9FF" fill-opacity="0.3"/>
<path d="M339.24 194.101C331.16 192.461 323.22 191.101 315.59 190.681C308.08 190.271 300.68 190.331 293.38 190.871C278.91 191.931 264.59 194.821 250.46 199.651C242.44 202.391 234.44 205.881 226.58 210.451C226.46 210.521 226.51 210.621 226.63 210.571C241.26 204.171 255.55 198.801 270 195.681C284.28 192.601 298.9 191.371 313.83 192.041C318.03 192.231 322.34 192.631 326.49 192.931C330.78 193.241 335.04 193.691 339.5 194.441C339.88 194.491 339.61 194.171 339.24 194.101Z" fill="#CCB9FF" fill-opacity="0.3"/>
<path d="M344.5 199.261C336 197.401 327.63 195.851 319.62 195.331C311.75 194.821 303.99 194.831 296.34 195.341C281.18 196.371 266.2 199.381 251.42 204.501C243.03 207.411 234.65 211.131 226.43 216.041C226.3 216.121 226.35 216.231 226.48 216.171C241.8 209.331 256.76 203.621 271.9 200.351C286.85 197.121 302.17 195.921 317.84 196.771C322.25 197.011 326.78 197.481 331.13 197.851C335.63 198.231 340.1 198.761 344.79 199.611C345.19 199.691 344.89 199.351 344.5 199.261Z" fill="#CCB9FF" fill-opacity="0.3"/>
<path d="M350.3 204.921C341.32 202.811 332.48 201.041 324.06 200.401C315.78 199.771 307.63 199.711 299.6 200.201C283.69 201.181 267.97 204.331 252.48 209.771C243.67 212.871 234.89 216.851 226.26 222.131C226.13 222.211 226.18 222.341 226.31 222.271C242.38 214.931 258.09 208.841 273.98 205.411C289.67 202.031 305.76 200.851 322.25 201.931C326.9 202.231 331.67 202.791 336.24 203.241C340.97 203.701 345.67 204.321 350.61 205.301C351.04 205.401 350.72 205.021 350.3 204.921Z" fill="#CCB9FF" fill-opacity="0.3"/>
<path d="M356.72 211.151C347.21 208.741 337.85 206.721 328.97 205.931C320.24 205.161 311.65 205.011 303.21 205.481C286.47 206.401 269.94 209.691 253.66 215.491C244.4 218.801 235.17 223.071 226.09 228.781C225.95 228.871 226.01 229.001 226.15 228.941C243.06 221.031 259.59 214.531 276.31 210.931C292.81 207.391 309.76 206.251 327.16 207.601C332.06 207.981 337.11 208.641 341.93 209.171C346.92 209.721 351.88 210.461 357.1 211.581C357.53 211.681 357.16 211.261 356.72 211.151Z" fill="#CCB9FF" fill-opacity="0.3"/>
<path d="M363.88 218.05C353.78 215.29 343.82 212.97 334.43 212.01C325.2 211.07 316.13 210.83 307.21 211.25C289.54 212.09 272.11 215.53 254.97 221.74C245.21 225.28 235.47 229.89 225.9 236.08C225.75 236.18 225.81 236.33 225.96 236.25C243.8 227.7 261.24 220.72 278.88 216.94C296.29 213.22 314.19 212.14 332.6 213.81C337.79 214.28 343.14 215.06 348.24 215.7C353.52 216.37 358.76 217.23 364.3 218.53C364.76 218.64 364.34 218.18 363.88 218.05Z" fill="#CCB9FF" fill-opacity="0.3"/>
<path d="M371.89 225.741C361.11 222.551 350.49 219.881 340.52 218.721C330.73 217.581 321.11 217.211 311.68 217.581C292.98 218.321 274.55 221.921 256.44 228.581C246.11 232.381 235.82 237.371 225.7 244.121C225.54 244.221 225.61 244.391 225.76 244.311C244.63 235.031 263.09 227.511 281.77 223.521C300.19 219.611 319.16 218.611 338.71 220.661C344.22 221.241 349.91 222.161 355.32 222.941C360.92 223.741 366.48 224.771 372.37 226.281C372.87 226.401 372.39 225.891 371.89 225.741Z" fill="#CCB9FF" fill-opacity="0.3"/>
<path d="M380.93 234.361C369.38 230.661 358 227.561 347.38 226.151C336.95 224.761 326.73 224.241 316.7 224.541C296.83 225.141 277.28 228.911 258.09 236.091C247.13 240.191 236.21 245.611 225.47 253C225.3 253.111 225.37 253.301 225.54 253.221C245.57 243.101 265.18 234.961 285.02 230.761C304.57 226.641 324.75 225.751 345.59 228.271C351.47 228.981 357.55 230.081 363.31 231.021C369.27 231.991 375.2 233.211 381.49 234.971C382.01 235.111 381.47 234.531 380.93 234.361Z" fill="#CCB9FF" fill-opacity="0.3"/>
<path d="M114.7 180.991C121.71 179.851 128.61 178.901 135.3 178.711C141.88 178.521 148.39 178.711 154.82 179.271C167.57 180.381 180.2 182.951 192.69 187.061C199.76 189.391 206.82 192.311 213.74 196.071C213.85 196.131 213.8 196.211 213.7 196.171C200.81 190.851 188.23 186.311 175.5 183.561C162.91 180.841 150.06 179.591 136.98 179.851C133.3 179.921 129.54 180.161 125.9 180.321C122.14 180.481 118.4 180.761 114.51 181.261C114.18 181.301 114.38 181.051 114.7 180.991Z" fill="#CCB9FF" fill-opacity="0.3"/>
<path d="M110.68 185.011C118.02 183.721 125.23 182.661 132.21 182.401C139.07 182.151 145.86 182.301 152.55 182.861C165.82 183.961 178.98 186.631 191.96 190.961C199.32 193.421 206.67 196.501 213.88 200.511C213.99 200.571 213.95 200.661 213.83 200.611C200.41 194.961 187.3 190.181 174.05 187.311C160.94 184.481 147.55 183.231 133.91 183.601C130.07 183.701 126.15 183.991 122.35 184.191C118.42 184.401 114.53 184.721 110.47 185.291C110.12 185.341 110.34 185.071 110.68 185.011Z" fill="#CCB9FF" fill-opacity="0.3"/>
<path d="M106.29 189.371C113.98 187.921 121.54 186.721 128.83 186.381C136 186.051 143.08 186.171 150.06 186.711C163.91 187.791 177.62 190.571 191.15 195.141C198.83 197.731 206.48 201.011 214 205.281C214.12 205.351 214.07 205.441 213.95 205.391C199.95 199.391 186.28 194.331 172.45 191.331C158.78 188.381 144.81 187.141 130.55 187.641C126.54 187.781 122.43 188.121 118.47 188.371C114.37 188.631 110.3 189.011 106.05 189.661C105.7 189.721 105.94 189.431 106.29 189.371Z" fill="#CCB9FF" fill-opacity="0.3"/>
<path d="M101.5 194.101C109.58 192.461 117.52 191.101 125.15 190.681C132.66 190.271 140.06 190.331 147.36 190.871C161.83 191.931 176.15 194.821 190.28 199.651C198.3 202.391 206.3 205.881 214.16 210.451C214.28 210.521 214.23 210.621 214.11 210.571C199.48 204.171 185.19 198.801 170.74 195.681C156.46 192.601 141.84 191.371 126.91 192.041C122.71 192.231 118.4 192.631 114.25 192.931C109.96 193.241 105.7 193.691 101.24 194.441C100.86 194.491 101.13 194.171 101.5 194.101Z" fill="#CCB9FF" fill-opacity="0.3"/>
<path d="M96.24 199.261C104.74 197.401 113.11 195.851 121.12 195.331C128.99 194.821 136.75 194.831 144.4 195.341C159.56 196.371 174.54 199.381 189.32 204.501C197.71 207.411 206.09 211.131 214.31 216.041C214.44 216.121 214.39 216.231 214.26 216.171C198.94 209.331 183.98 203.621 168.84 200.351C153.89 197.121 138.57 195.921 122.9 196.771C118.49 197.011 113.96 197.481 109.61 197.851C105.11 198.231 100.64 198.761 95.95 199.611C95.55 199.691 95.85 199.351 96.24 199.261Z" fill="#CCB9FF" fill-opacity="0.3"/>
<path d="M90.4399 204.921C99.4199 202.811 108.26 201.041 116.68 200.401C124.96 199.771 133.11 199.711 141.14 200.201C157.05 201.181 172.77 204.331 188.26 209.771C197.07 212.871 205.85 216.851 214.48 222.131C214.61 222.211 214.56 222.341 214.43 222.271C198.36 214.931 182.65 208.841 166.76 205.411C151.07 202.031 134.98 200.851 118.49 201.931C113.84 202.231 109.07 202.791 104.5 203.241C99.7699 203.701 95.0699 204.321 90.1299 205.301C89.6999 205.401 90.0199 205.021 90.4399 204.921Z" fill="#CCB9FF" fill-opacity="0.3"/>
<path d="M84.0198 211.151C93.5298 208.741 102.89 206.721 111.77 205.931C120.5 205.161 129.09 205.011 137.53 205.481C154.27 206.401 170.8 209.691 187.08 215.491C196.34 218.801 205.58 223.071 214.65 228.781C214.79 228.871 214.73 229.001 214.59 228.941C197.68 221.031 181.15 214.531 164.43 210.931C147.93 207.391 130.98 206.251 113.58 207.601C108.68 207.981 103.63 208.641 98.8098 209.171C93.8198 209.721 88.8598 210.461 83.6398 211.581C83.2098 211.681 83.5798 211.261 84.0198 211.151Z" fill="#CCB9FF" fill-opacity="0.3"/>
<path d="M76.8598 218.05C86.9598 215.29 96.9198 212.97 106.31 212.01C115.54 211.07 124.61 210.83 133.52 211.25C151.19 212.09 168.62 215.53 185.76 221.74C195.52 225.28 205.26 229.89 214.83 236.08C214.98 236.18 214.92 236.33 214.77 236.25C196.93 227.7 179.49 220.72 161.85 216.94C144.44 213.22 126.54 212.14 108.13 213.81C102.94 214.28 97.5898 215.06 92.4898 215.7C87.2098 216.37 81.9698 217.23 76.4298 218.53C75.9798 218.64 76.3998 218.18 76.8598 218.05Z" fill="#CCB9FF" fill-opacity="0.3"/>
<path d="M68.85 225.741C79.63 222.551 90.25 219.881 100.22 218.721C110.01 217.581 119.63 217.211 129.06 217.581C147.76 218.321 166.19 221.921 184.3 228.581C194.63 232.381 204.92 237.371 215.04 244.121C215.2 244.221 215.13 244.391 214.98 244.311C196.11 235.031 177.65 227.511 158.97 223.521C140.55 219.611 121.58 218.611 102.03 220.661C96.52 221.241 90.83 222.161 85.42 222.941C79.82 223.741 74.26 224.771 68.37 226.281C67.87 226.401 68.35 225.891 68.85 225.741Z" fill="#CCB9FF" fill-opacity="0.3"/>
<path d="M59.8099 234.361C71.3599 230.661 82.7399 227.561 93.3599 226.151C103.79 224.761 114.01 224.241 124.04 224.541C143.91 225.141 163.46 228.911 182.65 236.091C193.61 240.191 204.53 245.611 215.27 253C215.44 253.111 215.37 253.301 215.2 253.221C195.17 243.101 175.56 234.961 155.72 230.761C136.17 226.641 115.99 225.751 95.1499 228.271C89.2699 228.981 83.1899 230.081 77.4299 231.021C71.4699 231.991 65.5399 233.211 59.2499 234.971C58.7299 235.111 59.2699 234.531 59.8099 234.361Z" fill="#CCB9FF" fill-opacity="0.3"/>
</g>
<defs>
<filter id="filter0_f_4778_41713" x="-117.413" y="-57.4751" width="674.165" height="615.125" filterUnits="userSpaceOnUse" color-interpolation-filters="sRGB">
<feFlood flood-opacity="0" result="BackgroundImageFix"/>
<feBlend mode="normal" in="SourceGraphic" in2="BackgroundImageFix" result="shape"/>
<feGaussianBlur stdDeviation="50" result="effect1_foregroundBlur_4778_41713"/>
</filter>
<clipPath id="clip0_4778_41713">
<rect width="438" height="486" rx="12" fill="white"/>
</clipPath>
</defs>
</svg>
