<svg width="45" height="44" viewBox="0 0 45 44" fill="none" xmlns="http://www.w3.org/2000/svg">
<g clip-path="url(#clip0_8663_368)">
<rect x="0.5" width="44" height="44" rx="8" fill="#7843FF"/>
<g filter="url(#filter0_f_8663_368)">
<path d="M39.5023 44.6393C39.5023 54.7795 49.4144 63 39.5023 63C29.5903 63 7.53444 61.6447 7.53444 51.5045C7.53444 41.3643 6.45606 28 16.3681 28C68.3876 29.8446 39.5023 34.499 39.5023 44.6393Z" fill="white"/>
</g>
<path d="M34.7204 30.75H33V18.5C33 18.0358 32.8156 17.5907 32.4874 17.2625C32.1592 16.9343 31.7141 16.75 31.25 16.75H26.4375C26.3214 16.75 26.2102 16.7961 26.1281 16.8781C26.0461 16.9602 26 17.0714 26 17.1875V30.75H24.25V11.5448C24.2529 11.2722 24.1937 11.0026 24.077 10.7562C23.9603 10.5099 23.789 10.2933 23.5762 10.1229C23.2862 9.8968 22.9322 9.76779 22.5647 9.75424C22.1971 9.74069 21.8346 9.84329 21.5287 10.0475L12.7787 15.875C12.5387 16.0351 12.342 16.2521 12.2061 16.5067C12.0702 16.7613 11.9994 17.0455 12 17.334V30.75H10.2795C10.0534 30.7466 9.83439 30.829 9.66658 30.9806C9.49876 31.1322 9.39457 31.3417 9.37497 31.567C9.36702 31.6867 9.38377 31.8067 9.42417 31.9197C9.46457 32.0326 9.52776 32.1361 9.60982 32.2235C9.69188 32.311 9.79105 32.3807 9.90117 32.4283C10.0113 32.4758 10.13 32.5002 10.25 32.5H34.75C34.8699 32.5002 34.9886 32.4758 35.0988 32.4283C35.2089 32.3807 35.3081 32.311 35.3901 32.2235C35.4722 32.1361 35.5354 32.0326 35.5758 31.9197C35.6162 31.8067 35.6329 31.6867 35.625 31.567C35.6054 31.3417 35.5012 31.1322 35.3334 30.9806C35.1655 30.829 34.9466 30.7466 34.7204 30.75ZM16.8125 28.125C16.8127 28.2449 16.7883 28.3637 16.7408 28.4738C16.6932 28.5839 16.6235 28.6831 16.536 28.7651C16.4486 28.8472 16.3451 28.9104 16.2322 28.9508C16.1192 28.9912 15.9992 29.0079 15.8795 29C15.654 28.9804 15.4444 28.876 15.2927 28.708C15.1411 28.5399 15.0589 28.3207 15.0625 28.0943V26.4045C15.0594 26.1785 15.1419 25.9596 15.2934 25.7919C15.445 25.6241 15.6543 25.5198 15.8795 25.5C15.9992 25.492 16.1192 25.5088 16.2322 25.5492C16.3451 25.5896 16.4486 25.6528 16.536 25.7348C16.6235 25.8169 16.6932 25.9161 16.7408 26.0262C16.7883 26.1363 16.8127 26.255 16.8125 26.375V28.125ZM16.8125 22C16.8127 22.1199 16.7883 22.2387 16.7408 22.3488C16.6932 22.4589 16.6235 22.5581 16.536 22.6401C16.4486 22.7222 16.3451 22.7854 16.2322 22.8258C16.1192 22.8662 15.9992 22.8829 15.8795 22.875C15.6541 22.8551 15.4446 22.7507 15.293 22.5827C15.1415 22.4147 15.0591 22.1956 15.0625 21.9693V20.2795C15.0594 20.0535 15.1419 19.8346 15.2934 19.6669C15.445 19.4991 15.6543 19.3948 15.8795 19.375C15.9992 19.367 16.1192 19.3838 16.2322 19.4242C16.3451 19.4646 16.4486 19.5278 16.536 19.6098C16.6235 19.6919 16.6932 19.7911 16.7408 19.9012C16.7883 20.0113 16.8127 20.13 16.8125 20.25V22ZM21.1875 28.125C21.1877 28.2449 21.1633 28.3637 21.1158 28.4738C21.0682 28.5839 20.9985 28.6831 20.911 28.7651C20.8236 28.8472 20.7201 28.9104 20.6072 28.9508C20.4942 28.9912 20.3742 29.0079 20.2545 29C20.0294 28.9804 19.8201 28.8763 19.6685 28.7088C19.5169 28.5412 19.4344 28.3225 19.4375 28.0965V26.4045C19.4347 26.1786 19.5173 25.9601 19.6688 25.7925C19.8203 25.625 20.0295 25.5209 20.2545 25.5011C20.3742 25.4931 20.4942 25.5099 20.6072 25.5503C20.7201 25.5907 20.8236 25.6539 20.911 25.7359C20.9985 25.818 21.0682 25.9171 21.1158 26.0273C21.1633 26.1374 21.1877 26.2561 21.1875 26.3761V28.125ZM21.1875 22C21.1877 22.1199 21.1633 22.2387 21.1158 22.3488C21.0682 22.4589 20.9985 22.5581 20.911 22.6401C20.8236 22.7222 20.7201 22.7854 20.6072 22.8258C20.4942 22.8662 20.3742 22.8829 20.2545 22.875C20.0295 22.8551 19.8203 22.751 19.6688 22.5835C19.5173 22.416 19.4347 22.1974 19.4375 21.9715V20.2795C19.4347 20.0536 19.5173 19.8351 19.6688 19.6675C19.8203 19.5 20.0295 19.3959 20.2545 19.3761C20.3742 19.3681 20.4942 19.3849 20.6072 19.4253C20.7201 19.4657 20.8236 19.5289 20.911 19.6109C20.9985 19.693 21.0682 19.7921 21.1158 19.9023C21.1633 20.0124 21.1877 20.1311 21.1875 20.2511V22Z" fill="white"/>
</g>
<defs>
<filter id="filter0_f_8663_368" x="-42.5" y="-22" width="140" height="135" filterUnits="userSpaceOnUse" color-interpolation-filters="sRGB">
<feFlood flood-opacity="0" result="BackgroundImageFix"/>
<feBlend mode="normal" in="SourceGraphic" in2="BackgroundImageFix" result="shape"/>
<feGaussianBlur stdDeviation="25" result="effect1_foregroundBlur_8663_368"/>
</filter>
<clipPath id="clip0_8663_368">
<rect x="0.5" width="44" height="44" rx="8" fill="white"/>
</clipPath>
</defs>
</svg>
