<svg width="32" height="32" viewBox="0 0 32 32" fill="none" xmlns="http://www.w3.org/2000/svg">
<g clip-path="url(#clip0_4778_30226)">
<rect width="32" height="32" rx="4" fill="#7843FF"/>
<g filter="url(#filter0_f_4778_30226)">
<path d="M33.0023 38.6393C33.0023 48.7795 42.9144 57 33.0023 57C23.0903 57 1.03444 55.6447 1.03444 45.5045C1.03444 35.3643 -0.0439386 22 9.86808 22C61.8876 23.8446 33.0023 28.499 33.0023 38.6393Z" fill="white"/>
</g>
<path d="M20.2501 24.125C20.2501 24.2908 20.1843 24.4498 20.067 24.567C19.9498 24.6842 19.7909 24.75 19.6251 24.75H13.3751C13.2093 24.75 13.0504 24.6842 12.9332 24.567C12.816 24.4498 12.7501 24.2908 12.7501 24.125C12.7501 23.9593 12.816 23.8003 12.9332 23.6831C13.0504 23.5659 13.2093 23.5 13.3751 23.5H19.6251C19.7909 23.5 19.9498 23.5659 20.067 23.6831C20.1843 23.8003 20.2501 23.9593 20.2501 24.125ZM23.3751 14.125C23.3778 15.167 23.1424 16.1957 22.6869 17.1328C22.2315 18.0699 21.5679 18.8905 20.747 19.5321C20.5935 19.6497 20.4689 19.8009 20.3828 19.9741C20.2967 20.1473 20.2513 20.3379 20.2501 20.5313V21C20.2501 21.3316 20.1184 21.6495 19.884 21.8839C19.6496 22.1183 19.3316 22.25 19.0001 22.25H14.0001C13.6686 22.25 13.3506 22.1183 13.1162 21.8839C12.8818 21.6495 12.7501 21.3316 12.7501 21V20.5313C12.75 20.3402 12.706 20.1517 12.6217 19.9802C12.5373 19.8088 12.4147 19.6589 12.2634 19.5422C11.4445 18.9045 10.7814 18.0887 10.3243 17.1568C9.86722 16.2249 9.62812 15.2013 9.6251 14.1633C9.60479 10.4399 12.6142 7.3391 16.3345 7.25004C17.2512 7.22795 18.163 7.38946 19.0163 7.72506C19.8696 8.06065 20.6472 8.56356 21.3033 9.20418C21.9593 9.84479 22.4806 10.6102 22.8364 11.4553C23.1922 12.3004 23.3754 13.2081 23.3751 14.125ZM20.8665 13.3954C20.7044 12.4901 20.2689 11.6563 19.6186 11.0061C18.9682 10.3558 18.1343 9.92051 17.229 9.75864C17.1481 9.74499 17.0652 9.74742 16.9852 9.76579C16.9052 9.78417 16.8296 9.81811 16.7627 9.86571C16.6958 9.9133 16.639 9.97359 16.5954 10.0432C16.5518 10.1127 16.5223 10.1902 16.5087 10.2711C16.4951 10.3521 16.4975 10.4349 16.5159 10.5149C16.5342 10.5949 16.5682 10.6705 16.6158 10.7374C16.6634 10.8043 16.7237 10.8612 16.7932 10.9048C16.8628 10.9483 16.9402 10.9778 17.0212 10.9914C18.3157 11.2094 19.4142 12.3079 19.6337 13.6047C19.6584 13.7503 19.7339 13.8824 19.8467 13.9776C19.9595 14.0729 20.1025 14.1251 20.2501 14.125C20.2854 14.1248 20.3207 14.122 20.3556 14.1164C20.5189 14.0886 20.6645 13.9969 20.7604 13.8617C20.8562 13.7265 20.8944 13.5587 20.8665 13.3954Z" fill="white"/>
</g>
<defs>
<filter id="filter0_f_4778_30226" x="-49" y="-28" width="140" height="135" filterUnits="userSpaceOnUse" color-interpolation-filters="sRGB">
<feFlood flood-opacity="0" result="BackgroundImageFix"/>
<feBlend mode="normal" in="SourceGraphic" in2="BackgroundImageFix" result="shape"/>
<feGaussianBlur stdDeviation="25" result="effect1_foregroundBlur_4778_30226"/>
</filter>
<clipPath id="clip0_4778_30226">
<rect width="32" height="32" rx="4" fill="white"/>
</clipPath>
</defs>
</svg>
