<svg width="45" height="44" viewBox="0 0 45 44" fill="none" xmlns="http://www.w3.org/2000/svg">
<g clip-path="url(#clip0_8613_838)">
<rect x="0.666504" width="44" height="44" rx="8" fill="#F95341"/>
<g filter="url(#filter0_f_8613_838)">
<path d="M39.6688 44.6393C39.6688 54.7795 49.5809 63 39.6688 63C29.7568 63 7.70094 61.6447 7.70094 51.5045C7.70094 41.3643 6.62257 28 16.5346 28C68.5541 29.8446 39.6688 34.499 39.6688 44.6393Z" fill="white"/>
</g>
<path d="M31.4165 11.5H28.7915V10.625C28.7915 10.3929 28.6993 10.1704 28.5352 10.0063C28.3711 9.84219 28.1486 9.75 27.9165 9.75C27.6844 9.75 27.4619 9.84219 27.2978 10.0063C27.1337 10.1704 27.0415 10.3929 27.0415 10.625V11.5H18.2915V10.625C18.2915 10.3929 18.1993 10.1704 18.0352 10.0063C17.8711 9.84219 17.6486 9.75 17.4165 9.75C17.1844 9.75 16.9619 9.84219 16.7978 10.0063C16.6337 10.1704 16.5415 10.3929 16.5415 10.625V11.5H13.9165C13.4524 11.5 13.0073 11.6844 12.6791 12.0126C12.3509 12.3408 12.1665 12.7859 12.1665 13.25V30.75C12.1665 31.2141 12.3509 31.6592 12.6791 31.9874C13.0073 32.3156 13.4524 32.5 13.9165 32.5H31.4165C31.8806 32.5 32.3258 32.3156 32.6539 31.9874C32.9821 31.6592 33.1665 31.2141 33.1665 30.75V13.25C33.1665 12.7859 32.9821 12.3408 32.6539 12.0126C32.3258 11.6844 31.8806 11.5 31.4165 11.5ZM20.9165 28.125C20.9165 28.3571 20.8243 28.5796 20.6602 28.7437C20.4961 28.9078 20.2736 29 20.0415 29C19.8094 29 19.5869 28.9078 19.4228 28.7437C19.2587 28.5796 19.1665 28.3571 19.1665 28.125V22.5403L18.6831 22.7831C18.4754 22.887 18.2349 22.9041 18.0146 22.8306C17.7943 22.7572 17.6122 22.5993 17.5084 22.3916C17.4045 22.1839 17.3874 21.9434 17.4609 21.7231C17.5343 21.5028 17.6922 21.3207 17.8999 21.2169L19.6499 20.3419C19.7834 20.2751 19.9317 20.2436 20.0808 20.2503C20.2299 20.257 20.3747 20.3017 20.5017 20.3801C20.6286 20.4586 20.7333 20.5683 20.8059 20.6986C20.8786 20.829 20.9166 20.9758 20.9165 21.125V28.125ZM27.0415 27.25C27.2736 27.25 27.4961 27.3422 27.6602 27.5063C27.8243 27.6704 27.9165 27.8929 27.9165 28.125C27.9165 28.3571 27.8243 28.5796 27.6602 28.7437C27.4961 28.9078 27.2736 29 27.0415 29H23.5415C23.379 29 23.2197 28.9548 23.0815 28.8693C22.9433 28.7839 22.8316 28.6617 22.7589 28.5163C22.6862 28.371 22.6554 28.2083 22.67 28.0464C22.6846 27.8846 22.744 27.73 22.8415 27.6L25.9893 23.4033C26.0609 23.308 26.1123 23.199 26.1403 23.0831C26.1682 22.9672 26.1722 22.8469 26.152 22.7294C26.1318 22.6119 26.0878 22.4998 26.0227 22.3999C25.9576 22.3 25.8728 22.2145 25.7734 22.1486C25.6741 22.0827 25.5623 22.0378 25.445 22.0167C25.3277 21.9955 25.2073 21.9985 25.0912 22.0256C24.9751 22.0526 24.8657 22.1031 24.7698 22.174C24.6739 22.2448 24.5935 22.3345 24.5335 22.4375C24.4778 22.5402 24.402 22.6307 24.3107 22.7036C24.2194 22.7765 24.1145 22.8304 24.002 22.8621C23.8895 22.8938 23.7719 22.9027 23.6559 22.8882C23.54 22.8737 23.4281 22.8361 23.3269 22.7776C23.2258 22.7192 23.1373 22.6411 23.0668 22.5479C22.9963 22.4547 22.9452 22.3484 22.9165 22.2351C22.8877 22.1218 22.882 22.004 22.8995 21.8885C22.9171 21.7729 22.9576 21.6621 23.0187 21.5625C23.3077 21.0623 23.7537 20.6714 24.2875 20.4505C24.8212 20.2295 25.413 20.1908 25.971 20.3403C26.529 20.4899 27.0221 20.8193 27.3738 21.2776C27.7256 21.7358 27.9163 22.2973 27.9165 22.875C27.9184 23.4457 27.7323 24.0011 27.3871 24.4555L25.2915 27.25H27.0415ZM13.9165 16.75V13.25H16.5415V14.125C16.5415 14.3571 16.6337 14.5796 16.7978 14.7437C16.9619 14.9078 17.1844 15 17.4165 15C17.6486 15 17.8711 14.9078 18.0352 14.7437C18.1993 14.5796 18.2915 14.3571 18.2915 14.125V13.25H27.0415V14.125C27.0415 14.3571 27.1337 14.5796 27.2978 14.7437C27.4619 14.9078 27.6844 15 27.9165 15C28.1486 15 28.3711 14.9078 28.5352 14.7437C28.6993 14.5796 28.7915 14.3571 28.7915 14.125V13.25H31.4165V16.75H13.9165Z" fill="white"/>
</g>
<defs>
<filter id="filter0_f_8613_838" x="-42.3335" y="-22" width="140" height="135" filterUnits="userSpaceOnUse" color-interpolation-filters="sRGB">
<feFlood flood-opacity="0" result="BackgroundImageFix"/>
<feBlend mode="normal" in="SourceGraphic" in2="BackgroundImageFix" result="shape"/>
<feGaussianBlur stdDeviation="25" result="effect1_foregroundBlur_8613_838"/>
</filter>
<clipPath id="clip0_8613_838">
<rect x="0.666504" width="44" height="44" rx="8" fill="white"/>
</clipPath>
</defs>
</svg>
