<svg width="13" height="13" viewBox="0 0 13 13" fill="none" xmlns="http://www.w3.org/2000/svg">
<path d="M10.2655 8.26658C10.2307 8.30145 10.1893 8.32911 10.1438 8.34798C10.0983 8.36685 10.0495 8.37657 10.0002 8.37657C9.95093 8.37657 9.90213 8.36685 9.85661 8.34798C9.81108 8.32911 9.76972 8.30145 9.7349 8.26658L6.25021 4.78143L2.76552 8.26658C2.69516 8.33695 2.59972 8.37648 2.50021 8.37648C2.4007 8.37648 2.30526 8.33695 2.2349 8.26658C2.16453 8.19622 2.125 8.10078 2.125 8.00127C2.125 7.90176 2.16453 7.80632 2.2349 7.73596L5.9849 3.98596C6.01972 3.95109 6.06108 3.92343 6.10661 3.90456C6.15213 3.88569 6.20093 3.87598 6.25021 3.87598C6.29949 3.87598 6.34829 3.88569 6.39381 3.90456C6.43934 3.92343 6.48069 3.95109 6.51552 3.98596L10.2655 7.73596C10.3004 7.77079 10.328 7.81214 10.3469 7.85767C10.3658 7.90319 10.3755 7.95199 10.3755 8.00127C10.3755 8.05055 10.3658 8.09935 10.3469 8.14487C10.328 8.1904 10.3004 8.23176 10.2655 8.26658Z" fill="white"/>
</svg>
