<svg width="238" height="50" viewBox="0 0 238 50" fill="none" xmlns="http://www.w3.org/2000/svg">
<path fill-rule="evenodd" clip-rule="evenodd" d="M61.3503 34.9372C59.5039 36.7833 57.2026 37.706 54.4449 37.706C51.6872 37.706 49.3736 36.7711 47.5042 34.9019C46.3359 33.7338 45.588 32.2267 45.2605 30.3806C45.074 29.3528 44.9805 27.565 44.9805 25.0185C44.9805 22.4714 45.074 20.6843 45.2605 19.6558C45.588 17.8097 46.3359 16.3033 47.5042 15.1351C49.3736 13.2653 51.6872 12.3311 54.4449 12.3311C57.2026 12.3311 59.5039 13.2538 61.3503 15.0999L57.2839 19.165C56.3733 18.2538 55.426 17.7982 54.4449 17.7982C53.3932 17.7982 52.5985 18.1487 52.0615 18.8497C51.4302 19.668 51.1149 21.7236 51.1149 25.0185C51.1149 28.3128 51.4302 30.369 52.0615 31.1873C52.5985 31.8877 53.3932 32.2389 54.4449 32.2389C55.426 32.2389 56.3733 31.7826 57.2839 30.8714L61.3503 34.9372ZM72.2169 37.4951H69.167C67.227 37.4951 65.7319 36.8884 64.6802 35.6728C63.7689 34.645 63.3133 33.3948 63.3133 31.9229V12.5412H69.0619V31.5026C69.0619 32.2728 69.4477 32.6592 70.2186 32.6592H72.2169V37.4951ZM80.6995 14.2938C80.6995 15.2517 80.355 16.0755 79.6654 16.7643C78.9758 17.4538 78.152 17.7982 77.1939 17.7982C76.2358 17.7982 75.4119 17.4538 74.723 16.7643C74.0334 16.0755 73.6883 15.2517 73.6883 14.2938C73.6883 13.3358 74.0334 12.5121 74.723 11.8226C75.4119 11.1331 76.2358 10.7887 77.1939 10.7887C78.152 10.7887 78.9758 11.1331 79.6654 11.8226C80.355 12.5121 80.6995 13.3358 80.6995 14.2938ZM74.3189 37.4951H80.0682V19.3751H74.3189V37.4951ZM97.1391 35.2877C95.5266 36.8999 93.4586 37.706 90.9348 37.706C88.7142 37.706 86.8915 37.1331 85.4662 35.9887C83.4565 34.3528 82.4516 31.7121 82.4516 28.0673C82.4516 24.4226 83.4565 21.7819 85.4662 20.1467C86.8915 19.0016 88.7142 18.4294 90.9348 18.4294C93.4586 18.4294 95.5266 19.2355 97.1391 20.8477L93.2477 24.7378C92.5005 23.9907 91.7288 23.6165 90.9348 23.6165C89.1115 23.6165 88.2002 25.0999 88.2002 28.0673C88.2002 31.0348 89.1115 32.5189 90.9348 32.5189C91.7288 32.5189 92.5005 32.1446 93.2477 31.3968L97.1391 35.2877ZM116.734 37.4951H109.618L105.692 30.5914L104.57 31.8178V37.4951H98.8214V12.5412H104.57V25.2287L109.653 18.6395H116.558L109.618 26.4551L116.734 37.4951Z" fill="white"/>
<mask id="mask0_4778_41621" style="mask-type:luminance" maskUnits="userSpaceOnUse" x="118" y="10" width="120" height="34">
<path d="M118.137 10.7888H237.392V43.8044H118.137V10.7888Z" fill="white"/>
</mask>
<g mask="url(#mask0_4778_41621)">
<path fill-rule="evenodd" clip-rule="evenodd" d="M136.539 20.5671C136.539 22.7637 135.815 24.6092 134.366 26.1048C132.777 27.7637 130.663 28.5929 128.022 28.5929H124.27V37.4953H118.137V12.5414H128.022C130.663 12.5414 132.777 13.3705 134.366 15.0295C135.815 16.5251 136.539 18.3705 136.539 20.5671ZM130.405 20.5671C130.405 19.8892 130.16 19.2993 129.669 18.797C129.179 18.2946 128.535 18.0437 127.741 18.0437H124.27V23.0905H127.741C128.535 23.0905 129.179 22.8397 129.669 22.3373C130.16 21.8349 130.405 21.2451 130.405 20.5671ZM153.119 20.182L148.773 24.5976C148.119 23.9434 147.43 23.6166 146.705 23.6166C146.167 23.6166 145.688 23.78 145.268 24.1075C144.684 24.5746 144.391 25.2756 144.391 26.2098V37.4953H138.643V18.6397H144.251V20.182C145.42 19.0132 146.904 18.4295 148.702 18.4295C150.479 18.4295 151.951 19.0132 153.119 20.182ZM160.551 14.2939C160.551 15.2519 160.206 16.0756 159.517 16.7644C158.827 17.4539 158.003 17.7983 157.045 17.7983C156.087 17.7983 155.263 17.4539 154.574 16.7644C153.885 16.0756 153.54 15.2519 153.54 14.2939C153.54 13.3353 153.885 12.5122 154.574 11.8227C155.263 11.1332 156.087 10.7888 157.045 10.7888C158.003 10.7888 158.827 11.1332 159.517 11.8227C160.206 12.5122 160.551 13.3353 160.551 14.2939ZM154.17 37.4953H159.92V19.3753H154.17V37.4953ZM179.269 37.4953H173.52V26.2098C173.52 25.2519 173.228 24.5509 172.643 24.1075C172.246 23.78 171.767 23.6166 171.207 23.6166C170.646 23.6166 170.167 23.78 169.77 24.1075C169.185 24.5509 168.893 25.2519 168.893 26.2098V37.4953H163.144V18.6397H168.753V20.182C169.921 19.0132 171.382 18.4295 173.134 18.4295C174.887 18.4295 176.302 18.9664 177.376 20.0417C178.638 21.3034 179.269 23.102 179.269 25.439V37.4953ZM191.473 37.4953H188.598C186.659 37.4953 185.164 36.8885 184.112 35.6729C183.2 34.6451 182.745 33.3942 182.745 31.9231V23.7915H181.027V19.3753H182.745V13.978H188.493V19.3753H191.473V23.7915H188.493V31.502C188.493 32.2729 188.879 32.6586 189.65 32.6586H191.473V37.4953ZM200.3 14.2939C200.3 15.2519 199.955 16.0756 199.266 16.7644C198.577 17.4539 197.753 17.7983 196.795 17.7983C195.837 17.7983 195.013 17.4539 194.324 16.7644C193.634 16.0756 193.289 15.2519 193.289 14.2939C193.289 13.3353 193.634 12.5122 194.324 11.8227C195.013 11.1332 195.837 10.7888 196.795 10.7888C197.753 10.7888 198.577 11.1332 199.266 11.8227C199.955 12.5122 200.3 13.3353 200.3 14.2939ZM193.92 37.4953H199.67V19.3753H193.92V37.4953ZM219.019 37.4953H213.27V26.2098C213.27 25.2519 212.977 24.5509 212.394 24.1075C211.996 23.78 211.517 23.6166 210.956 23.6166C210.395 23.6166 209.917 23.78 209.519 24.1075C208.935 24.5509 208.642 25.2519 208.642 26.2098V37.4953H202.894V18.6397H208.503V20.182C209.671 19.0132 211.132 18.4295 212.884 18.4295C214.637 18.4295 216.051 18.9664 217.126 20.0417C218.388 21.3034 219.019 23.102 219.019 25.439V37.4953ZM237.392 36.1285C237.392 38.3712 236.609 40.2119 235.044 41.6485C233.478 43.0851 231.421 43.8044 228.875 43.8044C225.789 43.8044 223.43 42.9868 221.794 41.3509L225.369 37.7759C226.164 38.5705 227.238 38.9678 228.594 38.9678C230.627 38.9678 231.644 38.0098 231.644 36.0939V34.7264C230.591 35.778 229.237 36.3034 227.577 36.3034C225.754 36.3034 224.282 35.7427 223.16 34.6214C222.366 33.8275 221.863 32.8336 221.653 31.6424C221.49 30.8241 221.408 29.3997 221.408 27.3664C221.408 25.3339 221.49 23.9081 221.653 23.0905C221.863 21.8986 222.366 20.9061 223.16 20.1115C224.282 18.9902 225.766 18.4295 227.612 18.4295C229.248 18.4295 230.65 19.0132 231.819 20.182V18.6397H237.392V36.1285ZM231.644 27.3664C231.644 26.1515 231.539 25.2871 231.328 24.7732C230.977 24.0017 230.334 23.6166 229.4 23.6166C228.465 23.6166 227.834 24.0017 227.507 24.7732C227.273 25.2871 227.157 26.1515 227.157 27.3664C227.157 28.5814 227.273 29.4458 227.507 29.9603C227.834 30.7312 228.465 31.117 229.4 31.117C230.334 31.117 230.977 30.7312 231.328 29.9603C231.539 29.4458 231.644 28.5814 231.644 27.3664Z" fill="white"/>
</g>
<path fill-rule="evenodd" clip-rule="evenodd" d="M34.8261 34.9173L0.275391 14.9729L8.91323 9.98643L17.5504 5.00067L26.1882 9.98643L34.8261 14.9729V24.9451V34.9173Z" fill="white"/>
<path fill-rule="evenodd" clip-rule="evenodd" d="M26.1879 29.9312L34.8251 34.9169H34.8258V24.9447V14.9725L26.1879 19.959L17.5508 24.9447V24.9454L26.1879 29.9312Z" fill="white"/>
<path fill-rule="evenodd" clip-rule="evenodd" d="M26.1879 29.9312L34.8251 34.917H34.8258L26.1879 39.9034L17.5508 44.8898V34.917V24.9454L26.1879 29.9312Z" fill="white"/>
<path fill-rule="evenodd" clip-rule="evenodd" d="M8.91255 19.9586L0.275391 14.9729V14.9722L8.91255 9.98644L17.5504 5V14.9722V24.9444H17.5497L8.91255 19.9586Z" fill="white"/>
</svg>
