<svg width="45" height="44" viewBox="0 0 45 44" fill="none" xmlns="http://www.w3.org/2000/svg">
<g clip-path="url(#clip0_8663_176)">
<rect x="0.666504" width="44" height="44" rx="8" fill="#7843FF"/>
<g filter="url(#filter0_f_8663_176)">
<path d="M39.6688 44.6393C39.6688 54.7795 49.5809 63 39.6688 63C29.7568 63 7.70094 61.6447 7.70094 51.5045C7.70094 41.3643 6.62257 28 16.5346 28C68.5541 29.8446 39.6688 34.499 39.6688 44.6393Z" fill="white"/>
</g>
<path d="M32.2915 12.375H13.0415C12.5774 12.375 12.1323 12.5594 11.8041 12.8876C11.4759 13.2158 11.2915 13.6609 11.2915 14.125V29.875C11.2915 30.3391 11.4759 30.7842 11.8041 31.1124C12.1323 31.4406 12.5774 31.625 13.0415 31.625H32.2915C32.7556 31.625 33.2008 31.4406 33.5289 31.1124C33.8571 30.7842 34.0415 30.3391 34.0415 29.875V14.125C34.0415 13.6609 33.8571 13.2158 33.5289 12.8876C33.2008 12.5594 32.7556 12.375 32.2915 12.375ZM18.8165 23.925C19.0022 24.0642 19.1249 24.2715 19.1577 24.5013C19.1905 24.731 19.1307 24.9643 18.9915 25.15C18.8523 25.3357 18.645 25.4584 18.4152 25.4912C18.1855 25.524 17.9522 25.4642 17.7665 25.325L14.2665 22.7C14.1578 22.6185 14.0696 22.5128 14.0089 22.3913C13.9481 22.2698 13.9165 22.1358 13.9165 22C13.9165 21.8642 13.9481 21.7302 14.0089 21.6087C14.0696 21.4872 14.1578 21.3815 14.2665 21.3L17.7665 18.675C17.9522 18.5358 18.1855 18.476 18.4152 18.5088C18.645 18.5416 18.8523 18.6643 18.9915 18.85C19.1307 19.0357 19.1905 19.269 19.1577 19.4987C19.1249 19.7285 19.0022 19.9358 18.8165 20.075L16.2495 22L18.8165 23.925ZM25.2576 16.1156L21.7576 28.3656C21.7278 28.4781 21.6758 28.5834 21.6048 28.6756C21.5338 28.7677 21.4451 28.8447 21.3439 28.9022C21.2427 28.9596 21.1311 28.9963 21.0156 29.0101C20.9001 29.0239 20.783 29.0145 20.6712 28.9825C20.5593 28.9505 20.455 28.8965 20.3643 28.8237C20.2735 28.7509 20.1982 28.6608 20.1428 28.5585C20.0873 28.4563 20.0527 28.344 20.0412 28.2282C20.0296 28.1125 20.0413 27.9956 20.0754 27.8844L23.5754 15.6344C23.6427 15.4153 23.7932 15.2314 23.9946 15.1222C24.196 15.0129 24.4322 14.987 24.6525 15.05C24.8728 15.113 25.0596 15.26 25.1727 15.4592C25.2859 15.6585 25.3164 15.8941 25.2576 16.1156ZM31.0665 22.7L27.5665 25.325C27.3809 25.4642 27.1475 25.524 26.9178 25.4912C26.688 25.4584 26.4807 25.3357 26.3415 25.15C26.2023 24.9643 26.1425 24.731 26.1753 24.5013C26.2081 24.2715 26.3309 24.0642 26.5165 23.925L29.0835 22L26.5165 20.075C26.4246 20.0061 26.3471 19.9197 26.2886 19.8208C26.23 19.7219 26.1915 19.6125 26.1753 19.4987C26.159 19.385 26.1654 19.2692 26.1939 19.1578C26.2224 19.0465 26.2726 18.9419 26.3415 18.85C26.4104 18.7581 26.4968 18.6806 26.5957 18.6221C26.6946 18.5635 26.804 18.525 26.9178 18.5088C27.0315 18.4925 27.1474 18.4989 27.2587 18.5274C27.37 18.5559 27.4746 18.6061 27.5665 18.675L31.0665 21.3C31.1752 21.3815 31.2634 21.4872 31.3241 21.6087C31.3849 21.7302 31.4165 21.8642 31.4165 22C31.4165 22.1358 31.3849 22.2698 31.3241 22.3913C31.2634 22.5128 31.1752 22.6185 31.0665 22.7Z" fill="white"/>
</g>
<defs>
<filter id="filter0_f_8663_176" x="-42.3335" y="-22" width="140" height="135" filterUnits="userSpaceOnUse" color-interpolation-filters="sRGB">
<feFlood flood-opacity="0" result="BackgroundImageFix"/>
<feBlend mode="normal" in="SourceGraphic" in2="BackgroundImageFix" result="shape"/>
<feGaussianBlur stdDeviation="25" result="effect1_foregroundBlur_8663_176"/>
</filter>
<clipPath id="clip0_8663_176">
<rect x="0.666504" width="44" height="44" rx="8" fill="white"/>
</clipPath>
</defs>
</svg>
