<svg width="18" height="18" viewBox="0 0 18 18" fill="none" xmlns="http://www.w3.org/2000/svg">
<path d="M16.5 0H1.5C1.10218 0 0.720644 0.158035 0.43934 0.43934C0.158035 0.720644 0 1.10218 0 1.5V16.5C0 16.8978 0.158035 17.2794 0.43934 17.5607C0.720644 17.842 1.10218 18 1.5 18H16.5C16.8978 18 17.2794 17.842 17.5607 17.5607C17.842 17.2794 18 16.8978 18 16.5V1.5C18 1.10218 17.842 0.720644 17.5607 0.43934C17.2794 0.158035 16.8978 0 16.5 0ZM10.5525 13.2806L8.54156 15.2916C7.76459 16.0483 6.72084 16.4686 5.63625 16.4615C4.55167 16.4544 3.51353 16.0203 2.7466 15.2534C1.97967 14.4865 1.54565 13.4483 1.5385 12.3637C1.53136 11.2792 1.95167 10.2354 2.70844 9.45844L4.71937 7.44656C4.789 7.37688 4.87166 7.32159 4.96265 7.28386C5.05364 7.24612 5.15117 7.22668 5.24967 7.22663C5.34817 7.22659 5.44572 7.24595 5.53674 7.2836C5.62776 7.32126 5.71047 7.37647 5.78016 7.44609C5.84984 7.51572 5.90513 7.59838 5.94286 7.68937C5.9806 7.78036 6.00004 7.87788 6.00009 7.97639C6.00013 8.07489 5.98077 8.17244 5.94312 8.26346C5.90546 8.35448 5.85025 8.43719 5.78063 8.50688L3.76875 10.5187C3.27644 11.0111 2.99987 11.6788 2.99987 12.375C2.99987 13.0712 3.27644 13.7389 3.76875 14.2313C4.26106 14.7236 4.92877 15.0001 5.625 15.0001C6.32123 15.0001 6.98894 14.7236 7.48125 14.2313L9.49219 12.2194C9.63292 12.0788 9.82374 11.9998 10.0227 11.9999C10.2216 12 10.4124 12.0791 10.553 12.2198C10.6936 12.3606 10.7725 12.5514 10.7724 12.7503C10.7723 12.9493 10.6932 13.14 10.5525 13.2806ZM7.28063 11.7806C7.21094 11.8503 7.12822 11.9056 7.03717 11.9433C6.94613 11.981 6.84855 12.0004 6.75 12.0004C6.65145 12.0004 6.55387 11.981 6.46283 11.9433C6.37178 11.9056 6.28906 11.8503 6.21937 11.7806C6.14969 11.7109 6.09442 11.6282 6.0567 11.5372C6.01899 11.4461 5.99958 11.3485 5.99958 11.25C5.99958 11.1515 6.01899 11.0539 6.0567 10.9628C6.09442 10.8718 6.14969 10.7891 6.21937 10.7194L10.7194 6.21937C10.7891 6.14969 10.8718 6.09442 10.9628 6.0567C11.0539 6.01899 11.1515 5.99958 11.25 5.99958C11.3485 5.99958 11.4461 6.01899 11.5372 6.0567C11.6282 6.09442 11.7109 6.14969 11.7806 6.21937C11.8503 6.28906 11.9056 6.37178 11.9433 6.46283C11.981 6.55387 12.0004 6.65145 12.0004 6.75C12.0004 6.84855 11.981 6.94613 11.9433 7.03717C11.9056 7.12822 11.8503 7.21094 11.7806 7.28063L7.28063 11.7806ZM15.2916 8.54156L13.2806 10.5525C13.14 10.6932 12.9493 10.7723 12.7503 10.7724C12.5514 10.7725 12.3606 10.6936 12.2198 10.553C12.0791 10.4124 12 10.2216 11.9999 10.0227C11.9998 9.82374 12.0788 9.63292 12.2194 9.49219L14.2313 7.48125C14.7236 6.98894 15.0001 6.32123 15.0001 5.625C15.0001 4.92877 14.7236 4.26106 14.2313 3.76875C13.7389 3.27644 13.0712 2.99987 12.375 2.99987C11.6788 2.99987 11.0111 3.27644 10.5187 3.76875L8.50688 5.78063C8.36614 5.92123 8.17532 6.00017 7.97639 6.00009C7.77745 6 7.5867 5.92089 7.44609 5.78016C7.30549 5.63943 7.22654 5.4486 7.22663 5.24967C7.22672 5.05073 7.30583 4.85998 7.44656 4.71937L9.45844 2.70844C10.2354 1.95167 11.2792 1.53136 12.3637 1.5385C13.4483 1.54565 14.4865 1.97967 15.2534 2.7466C16.0203 3.51353 16.4544 4.55167 16.4615 5.63625C16.4686 6.72084 16.0483 7.76459 15.2916 8.54156Z" fill="#7843FF"/>
</svg>
