<svg width="44" height="44" viewBox="0 0 44 44" fill="none" xmlns="http://www.w3.org/2000/svg">
<g clip-path="url(#clip0_8621_1352)">
<rect width="44" height="44" rx="8" fill="#7843FF"/>
<g filter="url(#filter0_f_8621_1352)">
<path d="M39.0023 44.6393C39.0023 54.7795 48.9144 63 39.0023 63C29.0903 63 7.03444 61.6447 7.03444 51.5045C7.03444 41.3643 5.95606 28 15.8681 28C67.8876 29.8446 39.0023 34.499 39.0023 44.6393Z" fill="white"/>
</g>
<path d="M19.375 19.375H24.625V24.625H19.375V19.375ZM34.25 24.625C34.25 24.8571 34.1578 25.0796 33.9937 25.2437C33.8296 25.4078 33.6071 25.5 33.375 25.5H31.625V29.875C31.625 30.3391 31.4406 30.7842 31.1124 31.1124C30.7842 31.4406 30.3391 31.625 29.875 31.625H25.5V33.375C25.5 33.6071 25.4078 33.8296 25.2437 33.9937C25.0796 34.1578 24.8571 34.25 24.625 34.25C24.3929 34.25 24.1704 34.1578 24.0063 33.9937C23.8422 33.8296 23.75 33.6071 23.75 33.375V31.625H20.25V33.375C20.25 33.6071 20.1578 33.8296 19.9937 33.9937C19.8296 34.1578 19.6071 34.25 19.375 34.25C19.1429 34.25 18.9204 34.1578 18.7563 33.9937C18.5922 33.8296 18.5 33.6071 18.5 33.375V31.625H14.125C13.6609 31.625 13.2158 31.4406 12.8876 31.1124C12.5594 30.7842 12.375 30.3391 12.375 29.875V25.5H10.625C10.3929 25.5 10.1704 25.4078 10.0063 25.2437C9.84219 25.0796 9.75 24.8571 9.75 24.625C9.75 24.3929 9.84219 24.1704 10.0063 24.0063C10.1704 23.8422 10.3929 23.75 10.625 23.75H12.375V20.25H10.625C10.3929 20.25 10.1704 20.1578 10.0063 19.9937C9.84219 19.8296 9.75 19.6071 9.75 19.375C9.75 19.1429 9.84219 18.9204 10.0063 18.7563C10.1704 18.5922 10.3929 18.5 10.625 18.5H12.375V14.125C12.375 13.6609 12.5594 13.2158 12.8876 12.8876C13.2158 12.5594 13.6609 12.375 14.125 12.375H18.5V10.625C18.5 10.3929 18.5922 10.1704 18.7563 10.0063C18.9204 9.84219 19.1429 9.75 19.375 9.75C19.6071 9.75 19.8296 9.84219 19.9937 10.0063C20.1578 10.1704 20.25 10.3929 20.25 10.625V12.375H23.75V10.625C23.75 10.3929 23.8422 10.1704 24.0063 10.0063C24.1704 9.84219 24.3929 9.75 24.625 9.75C24.8571 9.75 25.0796 9.84219 25.2437 10.0063C25.4078 10.1704 25.5 10.3929 25.5 10.625V12.375H29.875C30.3391 12.375 30.7842 12.5594 31.1124 12.8876C31.4406 13.2158 31.625 13.6609 31.625 14.125V18.5H33.375C33.6071 18.5 33.8296 18.5922 33.9937 18.7563C34.1578 18.9204 34.25 19.1429 34.25 19.375C34.25 19.6071 34.1578 19.8296 33.9937 19.9937C33.8296 20.1578 33.6071 20.25 33.375 20.25H31.625V23.75H33.375C33.6071 23.75 33.8296 23.8422 33.9937 24.0063C34.1578 24.1704 34.25 24.3929 34.25 24.625ZM26.375 18.5C26.375 18.2679 26.2828 18.0454 26.1187 17.8813C25.9546 17.7172 25.7321 17.625 25.5 17.625H18.5C18.2679 17.625 18.0454 17.7172 17.8813 17.8813C17.7172 18.0454 17.625 18.2679 17.625 18.5V25.5C17.625 25.7321 17.7172 25.9546 17.8813 26.1187C18.0454 26.2828 18.2679 26.375 18.5 26.375H25.5C25.7321 26.375 25.9546 26.2828 26.1187 26.1187C26.2828 25.9546 26.375 25.7321 26.375 25.5V18.5Z" fill="white"/>
</g>
<defs>
<filter id="filter0_f_8621_1352" x="-43" y="-22" width="140" height="135" filterUnits="userSpaceOnUse" color-interpolation-filters="sRGB">
<feFlood flood-opacity="0" result="BackgroundImageFix"/>
<feBlend mode="normal" in="SourceGraphic" in2="BackgroundImageFix" result="shape"/>
<feGaussianBlur stdDeviation="25" result="effect1_foregroundBlur_8621_1352"/>
</filter>
<clipPath id="clip0_8621_1352">
<rect width="44" height="44" rx="8" fill="white"/>
</clipPath>
</defs>
</svg>
