<svg width="45" height="44" viewBox="0 0 45 44" fill="none" xmlns="http://www.w3.org/2000/svg">
<g clip-path="url(#clip0_8613_830)">
<rect x="0.333496" width="44" height="44" rx="8" fill="#F95341"/>
<g filter="url(#filter0_f_8613_830)">
<path d="M39.3358 44.6393C39.3358 54.7795 49.2478 63 39.3358 63C29.4238 63 7.36793 61.6447 7.36793 51.5045C7.36793 41.3643 6.28956 28 16.2016 28C68.2211 29.8446 39.3358 34.499 39.3358 44.6393Z" fill="white"/>
</g>
<path d="M35.0472 14.5625C34.9213 14.4839 34.7774 14.4386 34.6291 14.431C34.4808 14.4233 34.333 14.4535 34.1996 14.5188C29.5041 16.8157 26.1507 15.7394 22.6058 14.6041C18.8772 13.4174 15.0272 12.1869 9.69959 14.7878C9.55245 14.8597 9.42843 14.9714 9.34161 15.1102C9.2548 15.249 9.20868 15.4094 9.2085 15.5732V28.6905C9.20848 28.839 9.24623 28.985 9.3182 29.1148C9.39018 29.2447 9.49401 29.3541 9.61992 29.4327C9.74583 29.5114 9.88969 29.5567 10.0379 29.5644C10.1862 29.5722 10.334 29.542 10.4674 29.4769C15.1629 27.18 18.5163 28.2563 22.0666 29.3916C24.171 30.0642 26.3147 30.75 28.7385 30.75C30.6077 30.75 32.6465 30.3432 34.963 29.2122C35.1102 29.1404 35.2342 29.0287 35.321 28.8899C35.4078 28.751 35.4539 28.5906 35.4541 28.4269V15.3096C35.4554 15.1607 35.4188 15.014 35.3476 14.8833C35.2764 14.7526 35.173 14.6422 35.0472 14.5625ZM13.5835 24.625C13.5835 24.8571 13.4913 25.0797 13.3272 25.2437C13.1631 25.4078 12.9406 25.5 12.7085 25.5C12.4764 25.5 12.2539 25.4078 12.0898 25.2437C11.9257 25.0797 11.8335 24.8571 11.8335 24.625V17.625C11.8335 17.393 11.9257 17.1704 12.0898 17.0063C12.2539 16.8422 12.4764 16.75 12.7085 16.75C12.9406 16.75 13.1631 16.8422 13.3272 17.0063C13.4913 17.1704 13.5835 17.393 13.5835 17.625V24.625ZM22.3335 25.5C21.6413 25.5 20.9646 25.2948 20.389 24.9102C19.8134 24.5256 19.3648 23.979 19.0999 23.3394C18.835 22.6999 18.7657 21.9961 18.9007 21.3172C19.0358 20.6383 19.3691 20.0146 19.8586 19.5252C20.3481 19.0357 20.9717 18.7023 21.6507 18.5673C22.3296 18.4322 23.0333 18.5015 23.6729 18.7664C24.3124 19.0314 24.8591 19.48 25.2436 20.0555C25.6282 20.6311 25.8335 21.3078 25.8335 22C25.8335 22.9283 25.4647 23.8185 24.8084 24.4749C24.152 25.1313 23.2618 25.5 22.3335 25.5ZM32.8335 26.375C32.8335 26.6071 32.7413 26.8297 32.5772 26.9937C32.4131 27.1578 32.1906 27.25 31.9585 27.25C31.7264 27.25 31.5039 27.1578 31.3398 26.9937C31.1757 26.8297 31.0835 26.6071 31.0835 26.375V19.375C31.0835 19.143 31.1757 18.9204 31.3398 18.7563C31.5039 18.5922 31.7264 18.5 31.9585 18.5C32.1906 18.5 32.4131 18.5922 32.5772 18.7563C32.7413 18.9204 32.8335 19.143 32.8335 19.375V26.375Z" fill="white"/>
</g>
<defs>
<filter id="filter0_f_8613_830" x="-42.6665" y="-22" width="140" height="135" filterUnits="userSpaceOnUse" color-interpolation-filters="sRGB">
<feFlood flood-opacity="0" result="BackgroundImageFix"/>
<feBlend mode="normal" in="SourceGraphic" in2="BackgroundImageFix" result="shape"/>
<feGaussianBlur stdDeviation="25" result="effect1_foregroundBlur_8613_830"/>
</filter>
<clipPath id="clip0_8613_830">
<rect x="0.333496" width="44" height="44" rx="8" fill="white"/>
</clipPath>
</defs>
</svg>
