<svg width="27" height="20" viewBox="0 0 27 20" fill="none" xmlns="http://www.w3.org/2000/svg">
<g clip-path="url(#clip0_8608_685)">
<rect width="27" height="20" rx="4" fill="white"/>
<path fill-rule="evenodd" clip-rule="evenodd" d="M-0.000488281 -0.125V20.125H26.9995V-0.125H-0.000488281Z" fill="#2E42A5"/>
<mask id="mask0_8608_685" style="mask-type:luminance" maskUnits="userSpaceOnUse" x="-1" y="-1" width="28" height="22">
<path fill-rule="evenodd" clip-rule="evenodd" d="M-0.000488281 -0.125V20.125H26.9995V-0.125H-0.000488281Z" fill="white"/>
</mask>
<g mask="url(#mask0_8608_685)">
<path d="M-3.00928 18.6783L2.93215 21.191L27.1319 2.60693L30.2659 -1.12707L23.9124 -1.9669L14.0419 6.04152L6.09714 11.4373L-3.00928 18.6783Z" fill="white"/>
<path d="M-2.19531 20.4388L0.831569 21.897L29.1411 -1.47401H24.891L-2.19531 20.4388Z" fill="#F50100"/>
<path d="M30.0039 18.6783L24.0625 21.191L-0.137314 2.60693L-3.27128 -1.12707L3.08222 -1.9669L12.9527 6.04152L20.8975 11.4373L30.0039 18.6783Z" fill="white"/>
<path d="M29.8013 19.9418L26.7744 21.4L14.7199 11.3936L11.146 10.2757L-3.57274 -1.11429H0.677351L15.3878 10.0053L19.2953 11.3459L29.8013 19.9418Z" fill="#F50100"/>
<mask id="path-8-inside-1_8608_685" fill="white">
<path fill-rule="evenodd" clip-rule="evenodd" d="M16.6868 -1.81251H10.3118V6.62499H-1.66553V13.375H10.3118V21.8125H16.6868V13.375H28.7095V6.62499H16.6868V-1.81251Z"/>
</mask>
<path fill-rule="evenodd" clip-rule="evenodd" d="M16.6868 -1.81251H10.3118V6.62499H-1.66553V13.375H10.3118V21.8125H16.6868V13.375H28.7095V6.62499H16.6868V-1.81251Z" fill="#F50100"/>
<path d="M10.3118 -1.81251V-3.50001H8.62427V-1.81251H10.3118ZM16.6868 -1.81251H18.3743V-3.50001H16.6868V-1.81251ZM10.3118 6.62499V8.31249H11.9993V6.62499H10.3118ZM-1.66553 6.62499V4.93749H-3.35303V6.62499H-1.66553ZM-1.66553 13.375H-3.35303V15.0625H-1.66553V13.375ZM10.3118 13.375H11.9993V11.6875H10.3118V13.375ZM10.3118 21.8125H8.62427V23.5H10.3118V21.8125ZM16.6868 21.8125V23.5H18.3743V21.8125H16.6868ZM16.6868 13.375V11.6875H14.9993V13.375H16.6868ZM28.7095 13.375V15.0625H30.397V13.375H28.7095ZM28.7095 6.62499H30.397V4.93749H28.7095V6.62499ZM16.6868 6.62499H14.9993V8.31249H16.6868V6.62499ZM10.3118 -0.125008H16.6868V-3.50001H10.3118V-0.125008ZM11.9993 6.62499V-1.81251H8.62427V6.62499H11.9993ZM-1.66553 8.31249H10.3118V4.93749H-1.66553V8.31249ZM0.0219727 13.375V6.62499H-3.35303V13.375H0.0219727ZM10.3118 11.6875H-1.66553V15.0625H10.3118V11.6875ZM11.9993 21.8125V13.375H8.62427V21.8125H11.9993ZM16.6868 20.125H10.3118V23.5H16.6868V20.125ZM14.9993 13.375V21.8125H18.3743V13.375H14.9993ZM28.7095 11.6875H16.6868V15.0625H28.7095V11.6875ZM27.022 6.62499V13.375H30.397V6.62499H27.022ZM16.6868 8.31249H28.7095V4.93749H16.6868V8.31249ZM14.9993 -1.81251V6.62499H18.3743V-1.81251H14.9993Z" fill="white" mask="url(#path-8-inside-1_8608_685)"/>
</g>
</g>
<defs>
<clipPath id="clip0_8608_685">
<rect width="27" height="20" rx="4" fill="white"/>
</clipPath>
</defs>
</svg>
