<svg width="45" height="44" viewBox="0 0 45 44" fill="none" xmlns="http://www.w3.org/2000/svg">
<g clip-path="url(#clip0_8661_5894)">
<rect x="0.333496" width="44" height="44" rx="8" fill="#7843FF"/>
<g filter="url(#filter0_f_8661_5894)">
<path d="M39.3358 44.6393C39.3358 54.7795 49.2478 63 39.3358 63C29.4238 63 7.36793 61.6447 7.36793 51.5045C7.36793 41.3643 6.28956 28 16.2016 28C68.2211 29.8446 39.3358 34.499 39.3358 44.6393Z" fill="white"/>
</g>
<path d="M20.5837 13.25V30.75C20.5837 30.9821 20.4915 31.2046 20.3274 31.3687C20.1633 31.5328 19.9408 31.625 19.7087 31.625C19.4766 31.625 19.2541 31.5328 19.09 31.3687C18.9259 31.2046 18.8337 30.9821 18.8337 30.75V22.875H15.3337V25.5C15.3338 25.6732 15.2826 25.8425 15.1865 25.9865C15.0903 26.1305 14.9536 26.2428 14.7936 26.309C14.6337 26.3753 14.4576 26.3927 14.2878 26.3588C14.118 26.325 13.962 26.2416 13.8396 26.1191L10.3396 22.6191C10.2583 22.5378 10.1937 22.4413 10.1497 22.3351C10.1057 22.2288 10.083 22.115 10.083 22C10.083 21.885 10.1057 21.7712 10.1497 21.6649C10.1937 21.5587 10.2583 21.4622 10.3396 21.3809L13.8396 17.8809C13.962 17.7584 14.118 17.675 14.2878 17.6412C14.4576 17.6073 14.6337 17.6247 14.7936 17.691C14.9536 17.7572 15.0903 17.8695 15.1865 18.0135C15.2826 18.1575 15.3338 18.3268 15.3337 18.5V21.125H18.8337V13.25C18.8337 13.0179 18.9259 12.7954 19.09 12.6313C19.2541 12.4672 19.4766 12.375 19.7087 12.375C19.9408 12.375 20.1633 12.4672 20.3274 12.6313C20.4915 12.7954 20.5837 13.0179 20.5837 13.25ZM34.3278 21.3809L30.8278 17.8809C30.7054 17.7584 30.5494 17.675 30.3796 17.6412C30.2098 17.6073 30.0337 17.6247 29.8738 17.691C29.7138 17.7572 29.5771 17.8695 29.4809 18.0135C29.3848 18.1575 29.3336 18.3268 29.3337 18.5V21.125H25.8337V13.25C25.8337 13.0179 25.7415 12.7954 25.5774 12.6313C25.4133 12.4672 25.1908 12.375 24.9587 12.375C24.7266 12.375 24.5041 12.4672 24.34 12.6313C24.1759 12.7954 24.0837 13.0179 24.0837 13.25V30.75C24.0837 30.9821 24.1759 31.2046 24.34 31.3687C24.5041 31.5328 24.7266 31.625 24.9587 31.625C25.1908 31.625 25.4133 31.5328 25.5774 31.3687C25.7415 31.2046 25.8337 30.9821 25.8337 30.75V22.875H29.3337V25.5C29.3336 25.6732 29.3848 25.8425 29.4809 25.9865C29.5771 26.1305 29.7138 26.2428 29.8738 26.309C30.0337 26.3753 30.2098 26.3927 30.3796 26.3588C30.5494 26.325 30.7054 26.2416 30.8278 26.1191L34.3278 22.6191C34.4091 22.5378 34.4737 22.4413 34.5177 22.3351C34.5617 22.2288 34.5844 22.115 34.5844 22C34.5844 21.885 34.5617 21.7712 34.5177 21.6649C34.4737 21.5587 34.4091 21.4622 34.3278 21.3809Z" fill="white"/>
</g>
<defs>
<filter id="filter0_f_8661_5894" x="-42.6665" y="-22" width="140" height="135" filterUnits="userSpaceOnUse" color-interpolation-filters="sRGB">
<feFlood flood-opacity="0" result="BackgroundImageFix"/>
<feBlend mode="normal" in="SourceGraphic" in2="BackgroundImageFix" result="shape"/>
<feGaussianBlur stdDeviation="25" result="effect1_foregroundBlur_8661_5894"/>
</filter>
<clipPath id="clip0_8661_5894">
<rect x="0.333496" width="44" height="44" rx="8" fill="white"/>
</clipPath>
</defs>
</svg>
