<svg width="40" height="40" viewBox="0 0 40 40" fill="none" xmlns="http://www.w3.org/2000/svg">
<path d="M22.3591 15.1225C22.3591 14.0743 21.5263 13.2246 20.4991 13.2246C19.4719 13.2246 18.6392 14.0743 18.6392 15.1225V25.8774C18.6392 26.9256 19.4719 27.7753 20.4991 27.7753C21.5263 27.7753 22.3591 26.9256 22.3591 25.8774V15.1225Z" fill="#F0BA41"/>
<path d="M22.3591 31.5713C22.3591 30.5231 21.5263 29.6733 20.4991 29.6733C19.4719 29.6733 18.6392 30.5231 18.6392 31.5713V34.1018C18.6392 35.15 19.4719 35.9997 20.4991 35.9997C21.5263 35.9997 22.3591 35.15 22.3591 34.1018V31.5713Z" fill="#F0BA41"/>
<path d="M22.3591 6.89792C22.3591 5.84973 21.5263 5 20.4991 5C19.4719 5 18.6392 5.84973 18.6392 6.89792V9.42848C18.6392 10.4767 19.4719 11.3264 20.4991 11.3264C21.5263 11.3264 22.3591 10.4767 22.3591 9.42848V6.89792Z" fill="#F0BA41"/>
<path d="M29.1809 13.8569C29.1809 12.8087 28.3481 11.959 27.3209 11.959C26.2937 11.959 25.4609 12.8087 25.4609 13.8569V15.7548C25.4609 16.803 26.2937 17.6527 27.3209 17.6527C28.3481 17.6527 29.1809 16.803 29.1809 15.7548V13.8569Z" fill="#58A45C"/>
<path d="M35.9987 19.5512C35.9987 18.503 35.166 17.6533 34.1388 17.6533C33.1115 17.6533 32.2788 18.503 32.2788 19.5512V21.4492C32.2788 22.4973 33.1115 23.3471 34.1388 23.3471C35.166 23.3471 35.9987 22.4973 35.9987 21.4492V19.5512Z" fill="#77A2F5"/>
<path d="M9.33991 19.8676C9.33991 18.6447 8.36839 17.6533 7.16995 17.6533C5.97152 17.6533 5 18.6447 5 19.8676V21.1328C5 22.3557 5.97152 23.3471 7.16995 23.3471C8.36839 23.3471 9.33991 22.3557 9.33991 21.1328V19.8676Z" fill="#77A2F5"/>
<path d="M16.1618 25.8769C16.1618 24.8287 15.3291 23.979 14.3019 23.979C13.2746 23.979 12.4419 24.8287 12.4419 25.8769V27.7748C12.4419 28.823 13.2746 29.6728 14.3019 29.6728C15.3291 29.6728 16.1618 28.823 16.1618 27.7748V25.8769Z" fill="#D8503F"/>
<path d="M16.1618 13.2241C16.1618 12.1759 15.3291 11.3262 14.3019 11.3262C13.2746 11.3262 12.4419 12.1759 12.4419 13.2241V20.1831C12.4419 21.2313 13.2746 22.081 14.3019 22.081C15.3291 22.081 16.1618 21.2313 16.1618 20.1831V13.2241Z" fill="#D8503F"/>
<path d="M29.1809 20.8164C29.1809 19.7682 28.3481 18.9185 27.3209 18.9185C26.2937 18.9185 25.4609 19.7682 25.4609 20.8164V27.7754C25.4609 28.8236 26.2937 29.6733 27.3209 29.6733C28.3481 29.6733 29.1809 28.8236 29.1809 27.7754V20.8164Z" fill="#58A45C"/>
</svg>
