<svg width="118" height="20" viewBox="0 0 118 20" fill="none" xmlns="http://www.w3.org/2000/svg">
<path d="M9.58691 6.36426V9.39498V10.6064V13.637H12.3261V10.6064V9.39498V6.36426H9.58691Z" fill="#FAB908"/>
<path d="M1.3696 10.5684C2.12601 10.5684 2.7392 10.0087 2.7392 9.31836C2.7392 8.628 2.12601 8.06836 1.3696 8.06836C0.613192 8.06836 0 8.628 0 9.31836C0 10.0087 0.613192 10.5684 1.3696 10.5684Z" fill="#0066D9"/>
<path d="M1.3696 11.9317C2.12601 11.9317 2.7392 11.372 2.7392 10.6816C2.7392 9.99128 2.12601 9.43164 1.3696 9.43164C0.613192 9.43164 0 9.99128 0 10.6816C0 11.372 0.613192 11.9317 1.3696 11.9317Z" fill="#0066D9"/>
<path d="M2.7392 9.31836H0V10.682H2.7392V9.31836Z" fill="#0066D9"/>
<path d="M20.5439 11.9317C21.3003 11.9317 21.9135 11.372 21.9135 10.6816C21.9135 9.99128 21.3003 9.43164 20.5439 9.43164C19.7875 9.43164 19.1743 9.99128 19.1743 10.6816C19.1743 11.372 19.7875 11.9317 20.5439 11.9317Z" fill="#4285F4"/>
<path d="M20.5439 10.5684C21.3003 10.5684 21.9135 10.0087 21.9135 9.31836C21.9135 8.628 21.3003 8.06836 20.5439 8.06836C19.7875 8.06836 19.1743 8.628 19.1743 9.31836C19.1743 10.0087 19.7875 10.5684 20.5439 10.5684Z" fill="#4285F4"/>
<path d="M19.1743 10.682H21.9135V9.31836H19.1743V10.682Z" fill="#4285F4"/>
<path d="M6.10055 14.6592C6.85694 14.6592 7.47014 14.0995 7.47014 13.4092C7.47014 12.7188 6.85694 12.1592 6.10055 12.1592C5.34414 12.1592 4.73096 12.7188 4.73096 13.4092C4.73096 14.0995 5.34414 14.6592 6.10055 14.6592Z" fill="#EA4335"/>
<path d="M6.10055 16.0225C6.85694 16.0225 7.47014 15.4629 7.47014 14.7725C7.47014 14.0822 6.85694 13.5225 6.10055 13.5225C5.34414 13.5225 4.73096 14.0822 4.73096 14.7725C4.73096 15.4629 5.34414 16.0225 6.10055 16.0225Z" fill="#EA4335"/>
<path d="M7.47014 13.4092H4.73096V14.7728H7.47014V13.4092Z" fill="#EA4335"/>
<path d="M6.10055 6.47753C6.85694 6.47753 7.47014 5.91789 7.47014 5.22754C7.47014 4.53719 6.85694 3.97754 6.10055 3.97754C5.34414 3.97754 4.73096 4.53719 4.73096 5.22754C4.73096 5.91789 5.34414 6.47753 6.10055 6.47753Z" fill="#EA4335"/>
<path d="M6.10055 10.9092C6.85694 10.9092 7.47014 10.3495 7.47014 9.65919C7.47014 8.96882 6.85694 8.40918 6.10055 8.40918C5.34414 8.40918 4.73096 8.96882 4.73096 9.65919C4.73096 10.3495 5.34414 10.9092 6.10055 10.9092Z" fill="#EA4335"/>
<path d="M7.47014 5.22754H4.73096V9.68782H7.47014V5.22754Z" fill="#EA4335"/>
<path d="M15.8125 7.84084C16.5688 7.84084 17.182 7.28119 17.182 6.59083C17.182 5.90047 16.5688 5.34082 15.8125 5.34082C15.0561 5.34082 14.4429 5.90047 14.4429 6.59083C14.4429 7.28119 15.0561 7.84084 15.8125 7.84084Z" fill="#34A853"/>
<path d="M15.8125 6.47753C16.5688 6.47753 17.182 5.91789 17.182 5.22754C17.182 4.53719 16.5688 3.97754 15.8125 3.97754C15.0561 3.97754 14.4429 4.53719 14.4429 5.22754C14.4429 5.91789 15.0561 6.47753 15.8125 6.47753Z" fill="#34A853"/>
<path d="M14.4429 6.59117H17.1821V5.22754H14.4429V6.59117Z" fill="#34A853"/>
<path d="M10.9565 3.86329C11.7129 3.86329 12.3261 3.30365 12.3261 2.61329C12.3261 1.92293 11.7129 1.36328 10.9565 1.36328C10.2001 1.36328 9.58691 1.92293 9.58691 2.61329C9.58691 3.30365 10.2001 3.86329 10.9565 3.86329Z" fill="#FAB908"/>
<path d="M10.9565 2.50001C11.7129 2.50001 12.3261 1.94036 12.3261 1.25001C12.3261 0.559648 11.7129 0 10.9565 0C10.2001 0 9.58691 0.559648 9.58691 1.25001C9.58691 1.94036 10.2001 2.50001 10.9565 2.50001Z" fill="#FAB908"/>
<path d="M9.5874 2.61365H12.3266V1.25H9.5874V2.61365Z" fill="#FAB908"/>
<path d="M10.9565 20C11.7129 20 12.3261 19.4404 12.3261 18.75C12.3261 18.0596 11.7129 17.5 10.9565 17.5C10.2001 17.5 9.58691 18.0596 9.58691 18.75C9.58691 19.4404 10.2001 20 10.9565 20Z" fill="#FAB908"/>
<path d="M10.9565 18.6367C11.7129 18.6367 12.3261 18.0771 12.3261 17.3867C12.3261 16.6964 11.7129 16.1367 10.9565 16.1367C10.2001 16.1367 9.58691 16.6964 9.58691 17.3867C9.58691 18.0771 10.2001 18.6367 10.9565 18.6367Z" fill="#FAB908"/>
<path d="M9.5874 18.7504H12.3266V17.3867H9.5874V18.7504Z" fill="#FAB908"/>
<path d="M15.8125 16.0225C16.5688 16.0225 17.182 15.4629 17.182 14.7725C17.182 14.0822 16.5688 13.5225 15.8125 13.5225C15.0561 13.5225 14.4429 14.0822 14.4429 14.7725C14.4429 15.4629 15.0561 16.0225 15.8125 16.0225Z" fill="#34A853"/>
<path d="M15.8125 11.5908C16.5688 11.5908 17.182 11.0312 17.182 10.3408C17.182 9.65046 16.5688 9.09082 15.8125 9.09082C15.0561 9.09082 14.4429 9.65046 14.4429 10.3408C14.4429 11.0312 15.0561 11.5908 15.8125 11.5908Z" fill="#34A853"/>
<path d="M14.4429 14.7727H17.1821V10.3408H14.4429V14.7727Z" fill="#34A853"/>
<path d="M10.9565 7.61332C11.7129 7.61332 12.3261 7.05362 12.3261 6.36331C12.3261 5.67295 11.7129 5.11328 10.9565 5.11328C10.2001 5.11328 9.58691 5.67295 9.58691 6.36331C9.58691 7.05362 10.2001 7.61332 10.9565 7.61332Z" fill="#FAB908"/>
<path d="M10.9565 14.8867C11.7129 14.8867 12.3261 14.3271 12.3261 13.6367C12.3261 12.9464 11.7129 12.3867 10.9565 12.3867C10.2001 12.3867 9.58691 12.9464 9.58691 13.6367C9.58691 14.3271 10.2001 14.8867 10.9565 14.8867Z" fill="#FAB908"/>
<path fill-rule="evenodd" clip-rule="evenodd" d="M72.3474 13.1374H71.207V5.03711H74.2317C74.9836 5.03711 75.6342 5.26526 76.1838 5.72153C76.7333 6.17784 77.008 6.75292 77.008 7.44681C77.008 8.1407 76.7333 8.71577 76.1838 9.17208C75.6342 9.62839 74.9836 9.85655 74.2317 9.85655H72.3474V13.1374ZM72.3474 8.86099H74.2563C74.7358 8.86099 75.1201 8.7139 75.4092 8.41978C75.6983 8.1256 75.8432 7.80127 75.8432 7.44681C75.8432 7.09234 75.6983 6.76802 75.4092 6.47389C75.1201 6.17972 74.7358 6.03268 74.2563 6.03268H72.3474V8.86099ZM77.9538 8.26139C78.5404 7.69568 79.2881 7.41286 80.1973 7.41286C81.1066 7.41286 81.8542 7.69381 82.4409 8.25571C83.0275 8.81761 83.3208 9.52087 83.3208 10.3656C83.3208 11.2103 83.0275 11.9136 82.4409 12.4755C81.8542 13.0374 81.1066 13.3183 80.1973 13.3183C79.2881 13.3183 78.5404 13.0374 77.9538 12.4755C77.3672 11.9136 77.0739 11.2103 77.0739 10.3656C77.0739 9.52087 77.3672 8.81949 77.9538 8.26139ZM78.7966 11.825C79.1935 12.187 79.6604 12.3681 80.1973 12.3681C80.7343 12.3681 81.1994 12.1852 81.5921 11.8193C81.9841 11.4536 82.1805 10.969 82.1805 10.3656C82.1805 9.76226 81.9841 9.27767 81.5921 8.91185C81.1994 8.54609 80.7343 8.36318 80.1973 8.36318C79.6604 8.36318 79.1953 8.54609 78.8026 8.91185C78.4105 9.27767 78.2142 9.76226 78.2142 10.3656C78.2142 10.969 78.4081 11.4555 78.7966 11.825ZM86.7579 13.3183C85.9732 13.3183 85.2956 13.0355 84.7251 12.4699C84.1553 11.9042 83.8697 11.2028 83.8697 10.3656C83.8697 9.52842 84.1553 8.82704 84.7251 8.26139C85.2956 7.69568 85.9732 7.41286 86.7579 7.41286C87.2207 7.41286 87.6361 7.50341 88.0036 7.68439C88.3718 7.86542 88.6465 8.09165 88.8279 8.36318H88.8776L88.8279 7.5939V5.03711H89.9688V13.1374H88.8776V12.3681H88.8279C88.6465 12.6396 88.3718 12.8658 88.0036 13.0469C87.6361 13.2279 87.2207 13.3183 86.7579 13.3183ZM86.9441 12.3681C87.4811 12.3681 87.9378 12.187 88.3137 11.825C88.6896 11.463 88.8776 10.9766 88.8776 10.3656C88.8776 9.75471 88.6896 9.26825 88.3137 8.90623C87.9378 8.54421 87.4811 8.36318 86.9441 8.36318C86.415 8.36318 85.9606 8.54609 85.5805 8.91185C85.2004 9.27767 85.01 9.76226 85.01 10.3656C85.01 10.969 85.2004 11.4536 85.5805 11.8193C85.9606 12.1852 86.415 12.3681 86.9441 12.3681ZM93.9261 13.3183C93.0175 13.3183 92.2692 13.0374 91.6826 12.4755C91.096 11.9136 90.8027 11.2103 90.8027 10.3656C90.8027 9.52087 91.096 8.81761 91.6826 8.25571C92.2692 7.69381 93.0175 7.41286 93.9261 7.41286C94.6037 7.41286 95.1658 7.5637 95.6118 7.86542C96.0583 8.1671 96.3846 8.54796 96.5911 9.00802L95.5501 9.40399C95.2359 8.7101 94.6702 8.36318 93.8519 8.36318C93.3479 8.36318 92.9037 8.55176 92.5194 8.92883C92.1351 9.30595 91.943 9.78485 91.943 10.3656C91.943 10.9464 92.1351 11.4253 92.5194 11.8024C92.9037 12.1795 93.3479 12.3681 93.8519 12.3681C94.7031 12.3681 95.2897 12.0211 95.6118 11.3273L96.6282 11.7232C96.4217 12.1757 96.0894 12.5547 95.6303 12.8602C95.1718 13.1656 94.6037 13.3183 93.9261 13.3183ZM99.3338 13.3183C98.6898 13.3183 98.1504 13.1487 97.7164 12.8093C97.2824 12.4699 97.0658 12.0211 97.0658 11.463C97.0658 10.8596 97.322 10.3864 97.8344 10.0432C98.3468 9.70004 98.9789 9.52842 99.7307 9.52842C100.4 9.52842 100.949 9.64157 101.379 9.86785V9.70946C101.379 9.3022 101.227 8.976 100.921 8.73087C100.615 8.48574 100.239 8.36318 99.793 8.36318C99.4619 8.36318 99.1626 8.43482 98.8939 8.57816C98.6257 8.72145 98.4419 8.91753 98.3426 9.16641L97.301 8.75914C97.4417 8.42727 97.7188 8.11998 98.1319 7.83715C98.5449 7.55427 99.0902 7.41286 99.7678 7.41286C100.545 7.41286 101.189 7.62029 101.702 8.03511C102.214 8.44992 102.47 9.03442 102.47 9.78865V13.1374H101.379V12.3681H101.33C100.875 13.0016 100.21 13.3183 99.3338 13.3183ZM99.52 12.3681C99.9911 12.3681 100.418 12.2078 100.803 11.8872C101.187 11.5667 101.379 11.1877 101.379 10.7503C101.057 10.5089 100.574 10.3883 99.9288 10.3883C99.3751 10.3883 98.9579 10.4976 98.6772 10.7163C98.3964 10.9351 98.2558 11.1915 98.2558 11.4856C98.2558 11.7571 98.3839 11.9721 98.6401 12.1305C98.8963 12.2889 99.1896 12.3681 99.52 12.3681ZM105.808 13.3183C105.131 13.3183 104.57 13.1675 104.129 12.8658C103.686 12.5642 103.362 12.187 103.155 11.7345L104.172 11.3499C104.494 12.0438 105.044 12.3907 105.82 12.3907C106.176 12.3907 106.467 12.319 106.694 12.1757C106.922 12.0325 107.035 11.8439 107.035 11.6101C107.035 11.248 106.758 11.0029 106.205 10.8747L104.977 10.6032C104.589 10.5127 104.221 10.3411 103.874 10.0885C103.528 9.83577 103.354 9.49453 103.354 9.06462C103.354 8.57436 103.591 8.17652 104.066 7.87104C104.542 7.56562 105.105 7.41286 105.759 7.41286C106.296 7.41286 106.775 7.52413 107.196 7.74661C107.618 7.96914 107.919 8.28779 108.101 8.7026L107.11 9.07592C106.886 8.58566 106.424 8.34058 105.721 8.34058C105.383 8.34058 105.097 8.40468 104.866 8.53286C104.634 8.6611 104.519 8.83459 104.519 9.05327C104.519 9.37004 104.788 9.58502 105.325 9.69816L106.527 9.95834C107.097 10.079 107.518 10.2864 107.791 10.5806C108.064 10.8747 108.2 11.2066 108.2 11.5761C108.2 12.0739 107.978 12.4887 107.531 12.8206C107.085 13.1525 106.51 13.3183 105.808 13.3183ZM111.613 13.2279C110.977 13.2279 110.491 13.0733 110.156 12.764C109.821 12.4548 109.654 12.0174 109.654 11.4517V8.54421H108.588V7.5939H109.654V5.89689H110.795V7.5939H112.282V8.54421H110.795V11.3725C110.795 11.9759 111.068 12.2775 111.613 12.2775C111.819 12.2775 111.993 12.2474 112.133 12.187L112.53 13.0808C112.282 13.1789 111.976 13.2279 111.613 13.2279ZM115.607 13.3183C114.93 13.3183 114.37 13.1675 113.928 12.8658C113.486 12.5642 113.161 12.187 112.955 11.7345L113.971 11.3499C114.293 12.0438 114.843 12.3907 115.62 12.3907C115.975 12.3907 116.266 12.319 116.494 12.1757C116.721 12.0325 116.834 11.8439 116.834 11.6101C116.834 11.248 116.558 11.0029 116.004 10.8747L114.777 10.6032C114.389 10.5127 114.021 10.3411 113.674 10.0885C113.327 9.83577 113.153 9.49453 113.153 9.06462C113.153 8.57436 113.391 8.17652 113.866 7.87104C114.341 7.56562 114.905 7.41286 115.558 7.41286C116.095 7.41286 116.575 7.52413 116.996 7.74661C117.417 7.96914 117.719 8.28779 117.9 8.7026L116.909 9.07592C116.686 8.58566 116.223 8.34058 115.52 8.34058C115.182 8.34058 114.897 8.40468 114.666 8.53286C114.434 8.6611 114.318 8.83459 114.318 9.05327C114.318 9.37004 114.587 9.58502 115.124 9.69816L116.326 9.95834C116.897 10.079 117.318 10.2864 117.591 10.5806C117.863 10.8747 118 11.2066 118 11.5761C118 12.0739 117.777 12.4887 117.331 12.8206C116.884 13.1525 116.31 13.3183 115.607 13.3183Z" fill="white"/>
<path d="M27.8994 8.67433C27.8994 6.11122 30.2527 4.03418 33.061 4.03418C34.6104 4.03418 35.7144 4.591 36.5473 5.31575L35.5595 6.20844C34.9688 5.6958 34.165 5.29808 33.061 5.29808C31.0177 5.29808 29.4198 6.80059 29.4198 8.66552C29.4198 10.5304 31.0177 12.033 33.061 12.033C34.3877 12.033 35.1431 11.5468 35.6273 11.1049C36.0243 10.7426 36.2858 10.2211 36.3826 9.51399H33.061V8.2501H37.7383C37.7868 8.4799 37.8159 8.74504 37.8159 9.04555C37.8159 10.0001 37.535 11.1756 36.615 12.0065C35.7144 12.8549 34.5717 13.3057 33.061 13.3057C30.2527 13.3057 27.8994 11.2287 27.8994 8.67433ZM41.5442 7.3928C43.3551 7.3928 44.827 8.64782 44.827 10.3802C44.827 12.1037 43.3551 13.3676 41.5442 13.3676C39.7333 13.3676 38.2613 12.1037 38.2613 10.3802C38.2613 8.64782 39.7333 7.3928 41.5442 7.3928ZM41.5442 12.1832C42.532 12.1832 43.3938 11.4408 43.3938 10.3713C43.3938 9.29305 42.532 8.55948 41.5442 8.55948C40.5467 8.55948 39.6946 9.29305 39.6946 10.3713C39.6946 11.4408 40.5564 12.1832 41.5442 12.1832ZM48.7104 7.3928C50.5212 7.3928 51.9932 8.64782 51.9932 10.3802C51.9932 12.1037 50.5212 13.3676 48.7104 13.3676C46.8994 13.3676 45.4275 12.1037 45.4275 10.3802C45.4275 8.64782 46.8994 7.3928 48.7104 7.3928ZM48.7104 12.1832C49.6981 12.1832 50.56 11.4408 50.56 10.3713C50.56 9.29305 49.7078 8.55948 48.7104 8.55948C47.7129 8.55948 46.8607 9.29305 46.8607 10.3713C46.8607 11.4408 47.7226 12.1832 48.7104 12.1832ZM57.5034 7.49002H58.8786V12.8549C58.8786 15.0646 57.455 15.9661 55.77 15.9661C54.1818 15.9661 53.2231 14.9939 52.8648 14.1984L54.114 13.7211C54.3367 14.2072 54.8791 14.7817 55.7603 14.7817C56.8352 14.7817 57.5034 14.1719 57.5034 13.0317V12.5986H57.455C57.1354 12.961 56.5156 13.2792 55.7312 13.2792C54.0947 13.2792 52.5936 11.9711 52.5936 10.3006C52.5936 8.6125 54.0947 7.30441 55.7312 7.30441C56.5156 7.30441 57.1354 7.62256 57.455 7.97614H57.5034V7.49002ZM55.8571 12.1037C56.8352 12.1037 57.6099 11.3524 57.6002 10.3006C57.6002 9.24885 56.8352 8.47991 55.8571 8.47991C54.8694 8.47991 54.0365 9.24885 54.0365 10.3006C54.0365 11.3436 54.8694 12.1037 55.8571 12.1037ZM59.8567 13.1643V4.38772H61.2897V13.1643H59.8567ZM65.2315 12.1832C65.9672 12.1832 66.4706 11.8562 66.8483 11.3612L67.9623 12.0418C67.5941 12.5279 66.7322 13.3676 65.2315 13.3676C63.3716 13.3676 61.9871 12.0506 61.9871 10.3802C61.9871 8.60363 63.3914 7.3928 65.0764 7.3928C66.7711 7.3928 67.6037 8.62132 67.8749 9.29305L68.0203 9.62889L63.6428 11.2817C63.9822 11.8739 64.4952 12.1832 65.2315 12.1832ZM65.1249 8.54179C64.3887 8.54179 63.3716 9.13395 63.4106 10.2829L66.3353 9.17815C66.1803 8.79811 65.696 8.54179 65.1249 8.54179Z" fill="white"/>
</svg>
