<svg width="602" height="322" viewBox="0 0 602 322" fill="none" xmlns="http://www.w3.org/2000/svg">
<g clip-path="url(#clip0_8663_1504)">
<path opacity="0.05" d="M665.466 80.2982L607.06 110.586M607.06 110.586L524.808 153.24M607.06 110.586L690.903 153.328M607.06 110.586L524.713 68.607M524.808 153.24L441.499 196.442M524.808 153.24L608.651 195.982M524.808 153.24L442.46 111.261M441.499 196.442L359.247 239.096M441.499 196.442L525.342 239.184M441.499 196.442L359.152 154.463M359.247 239.096L274.745 282.916M359.247 239.096L443.09 281.838M359.247 239.096L276.9 197.116M274.745 282.916L192.493 325.57M274.745 282.916L358.588 325.658M274.745 282.916L192.397 240.937M192.493 325.57L159.522 342.668M192.493 325.57L276.336 368.312M192.493 325.57L110.145 283.591M756.918 119.095L690.903 153.328M690.903 153.328L608.651 195.982M690.903 153.328L766.519 191.876M608.651 195.982L525.342 239.184M608.651 195.982L738.756 262.307M525.342 239.184L443.09 281.838M525.342 239.184L575.721 264.866M443.09 281.838L358.588 325.658M443.09 281.838L547.958 335.297M358.588 325.658L276.336 368.312M358.588 325.658L426.372 360.213M276.336 368.312L250.974 381.464M276.336 368.312L398.609 430.645M585.858 36.8988L524.713 68.607M524.713 68.607L442.46 111.261M524.713 68.607L436.96 23.8721M442.46 111.261L359.152 154.463M442.46 111.261L354.071 66.2013M359.152 154.463L276.9 197.116M359.152 154.463L270.117 109.074M276.9 197.116L192.397 240.937M276.9 197.116L187.228 151.403M192.397 240.937L110.145 283.591M192.397 240.937L102.071 194.89M110.145 283.591L79.9134 299.268M110.145 283.591L19.1822 237.219M589.147 -53.8456L524.967 -21.0705M524.967 -21.0705L436.96 23.8721M524.967 -21.0705L817.707 128.163M524.967 -21.0705L442.048 -63.3412M436.96 23.8721L354.071 66.2013M436.96 23.8721L354.041 -18.3986M354.071 66.2013L270.117 109.074M354.071 66.2013L271.152 23.9306M270.117 109.074L187.228 151.403M270.117 109.074L187.198 66.8035M187.228 151.403L102.071 194.89M187.228 151.403L104.309 109.133M102.071 194.89L19.1822 237.219M102.071 194.89L19.1522 152.62M19.1822 237.219L-131.938 314.392M19.1822 237.219L-63.7368 194.949M548.356 -117.63L524.937 -105.67M524.937 -105.67L442.048 -63.3412M524.937 -105.67L845.47 57.732M524.937 -105.67L358.309 -190.615M442.048 -63.3412L354.041 -18.3986M442.048 -63.3412L358.339 -106.015M354.041 -18.3986L271.152 23.9306M354.041 -18.3986L270.332 -61.0721M271.152 23.9306L187.198 66.8035M271.152 23.9306L187.442 -18.7429M187.198 66.8035L104.309 109.133M187.198 66.8035L103.489 24.13M104.309 109.133L19.1522 152.62M104.309 109.133L20.5995 66.4591M19.1522 152.62L-63.7368 194.949M19.1522 152.62L-64.557 109.946M-63.7368 194.949L-172.73 250.608M-63.7368 194.949L-147.446 152.275M433.877 -144.59L358.339 -106.015M358.339 -106.015L270.332 -61.0721M358.339 -106.015L275.42 -148.285M270.332 -61.0721L187.442 -18.7429M270.332 -61.0721L187.413 -103.343M187.442 -18.7429L103.489 24.13M187.442 -18.7429L104.523 -61.0136M103.489 24.13L20.5995 66.4591M103.489 24.13L20.5696 -18.1407M20.5995 66.4591L-64.557 109.946M20.5995 66.4591L-62.3194 24.1884M-64.557 109.946L-147.446 152.275M-64.557 109.946L-147.476 67.6754M-147.446 152.275L-287.209 223.648M-147.446 152.275L-230.365 110.005M393.085 -208.374L358.309 -190.615M358.309 -190.615L275.42 -148.285M358.309 -190.615L124.125 -309.998M275.42 -148.285L187.413 -103.343M275.42 -148.285L96.3613 -239.566M187.413 -103.343L104.523 -61.0136M187.413 -103.343L45.1739 -175.854M104.523 -61.0136L20.5696 -18.1407M104.523 -61.0136L17.4104 -105.422M20.5696 -18.1407L-62.3194 24.1884M20.5696 -18.1407L-145.624 -102.864M-62.3194 24.1884L-147.476 67.6754M-62.3194 24.1884L-173.388 -32.4323M-147.476 67.6754L-230.365 110.005M-147.476 67.6754L-294.973 -7.51626M-230.365 110.005L-328 159.864M-230.365 110.005L-322.737 62.915M750.997 80.6562L692.59 110.944M692.59 110.944L610.338 153.598M692.59 110.944L776.434 153.686M692.59 110.944L610.243 68.9649M610.338 153.598L527.029 196.8M610.338 153.598L694.181 196.34M610.338 153.598L527.991 111.619M527.029 196.8L444.777 239.454M527.029 196.8L610.873 239.542M527.029 196.8L444.682 154.821M444.777 239.454L360.275 283.274M444.777 239.454L528.621 282.196M444.777 239.454L362.43 197.474M360.275 283.274L278.023 325.928M360.275 283.274L444.118 326.016M360.275 283.274L277.928 241.295M278.023 325.928L245.053 343.026M278.023 325.928L361.866 368.67M278.023 325.928L195.676 283.949M842.448 119.453L776.434 153.686M776.434 153.686L694.181 196.34M776.434 153.686L852.049 192.234M694.181 196.34L610.873 239.542M694.181 196.34L824.286 262.665M610.873 239.542L528.621 282.196M610.873 239.542L661.251 265.224M528.621 282.196L444.118 326.016M528.621 282.196L633.488 335.655M444.118 326.016L361.866 368.67M444.118 326.016L511.902 360.571M361.866 368.67L336.504 381.822M361.866 368.67L484.139 431.002M671.388 37.2567L610.243 68.9649M610.243 68.9649L527.991 111.619M610.243 68.9649L522.49 24.2301M527.991 111.619L444.682 154.821M527.991 111.619L439.601 66.5592M444.682 154.821L362.43 197.474M444.682 154.821L355.647 109.432M362.43 197.474L277.928 241.295M362.43 197.474L272.758 151.761M277.928 241.295L195.676 283.949M277.928 241.295L187.601 195.248M195.676 283.949L165.444 299.626M195.676 283.949L104.712 237.577M674.677 -53.4877L610.497 -20.7126M610.497 -20.7126L522.49 24.2301M610.497 -20.7126L903.237 128.521M610.497 -20.7126L527.578 -62.9832M522.49 24.2301L439.601 66.5592M522.49 24.2301L439.571 -18.0406M439.601 66.5592L355.647 109.432M439.601 66.5592L356.682 24.2886M355.647 109.432L272.758 151.761M355.647 109.432L272.728 67.1615M272.758 151.761L187.601 195.248M272.758 151.761L189.839 109.491M187.601 195.248L104.712 237.577M187.601 195.248L104.682 152.978M104.712 237.577L-46.4081 314.75M104.712 237.577L21.7934 195.307M633.886 -117.272L610.467 -105.312M610.467 -105.312L527.578 -62.9832M610.467 -105.312L931 58.0899M610.467 -105.312L443.839 -190.257M527.578 -62.9832L439.571 -18.0406M527.578 -62.9832L443.869 -105.657M439.571 -18.0406L356.682 24.2886M439.571 -18.0406L355.862 -60.7141M356.682 24.2886L272.728 67.1615M356.682 24.2886L272.973 -18.385M272.728 67.1615L189.839 109.491M272.728 67.1615L189.019 24.4879M189.839 109.491L104.682 152.978M189.839 109.491L106.13 66.8171M104.682 152.978L21.7934 195.307M104.682 152.978L20.9732 110.304M21.7934 195.307L-87.1995 250.966M21.7934 195.307L-61.9158 152.633M519.407 -144.232L443.869 -105.657M443.869 -105.657L355.862 -60.7141M443.869 -105.657L360.95 -147.927M355.862 -60.7141L272.973 -18.385M355.862 -60.7141L272.943 -102.985M272.973 -18.385L189.019 24.4879M272.973 -18.385L190.054 -60.6557M189.019 24.4879L106.13 66.8171M189.019 24.4879L106.1 -17.7828M106.13 66.8171L20.9732 110.304M106.13 66.8171L23.2108 24.5464M20.9732 110.304L-61.9158 152.633M20.9732 110.304L-61.9458 68.0334M-61.9158 152.633L-201.678 224.006M-61.9158 152.633L-144.835 110.363M478.616 -208.016L443.839 -190.257M443.839 -190.257L360.95 -147.927M443.839 -190.257L209.655 -309.64M360.95 -147.927L272.943 -102.985M360.95 -147.927L181.892 -239.208M272.943 -102.985L190.054 -60.6557M272.943 -102.985L130.704 -175.496M190.054 -60.6557L106.1 -17.7828M190.054 -60.6557L102.941 -105.064M106.1 -17.7828L23.2108 24.5464M106.1 -17.7828L-60.0943 -102.506M23.2108 24.5464L-61.9458 68.0334M23.2108 24.5464L-87.8575 -32.0744M-61.9458 68.0334L-144.835 110.363M-61.9458 68.0334L-209.443 -7.1583M-144.835 110.363L-242.47 160.222M-144.835 110.363L-237.207 63.273" stroke="#09110A"/>
</g>
<defs>
<clipPath id="clip0_8663_1504">
<rect width="602" height="323" fill="white" transform="translate(0 0.00244141)"/>
</clipPath>
</defs>
</svg>
