<svg width="380" height="203" viewBox="0 0 380 203" fill="none" xmlns="http://www.w3.org/2000/svg">
<g opacity="0.5" filter="url(#filter0_f_8673_7647)">
<path d="M298.004 119L380 71.5082L298.004 24L216 71.5082L298.004 119Z" fill="white"/>
</g>
<path opacity="0.1" d="M336.859 143.488L313.292 155.709M313.292 155.709L280.104 172.92M313.292 155.709L347.122 172.956M313.292 155.709L280.065 138.77M280.104 172.92L246.489 190.353M280.104 172.92L313.934 190.167M280.104 172.92L246.877 155.981M246.489 190.353L213.301 207.564M246.489 190.353L280.319 207.6M246.489 190.353L213.262 173.414M213.301 207.564L179.204 225.246M213.301 207.564L247.131 224.811M213.301 207.564L180.074 190.625M179.204 225.246L146.016 242.457M179.204 225.246L213.035 242.493M179.204 225.246L145.978 208.307M146.016 242.457L132.713 249.356M146.016 242.457L179.846 259.704M146.016 242.457L112.789 225.518M373.759 159.143L347.122 172.956M347.122 172.956L313.934 190.167M347.122 172.956L377.633 188.51M313.934 190.167L280.319 207.6M313.934 190.167L366.43 216.93M280.319 207.6L247.131 224.811M280.319 207.6L300.647 217.962M247.131 224.811L213.035 242.493M247.131 224.811L289.444 246.382M213.035 242.493L179.846 259.704M213.035 242.493L240.385 256.436M179.846 259.704L169.613 265.011M179.846 259.704L229.183 284.856M304.737 125.976L280.065 138.77M280.065 138.77L246.877 155.981M280.065 138.77L244.657 120.719M246.877 155.981L213.262 173.414M246.877 155.981L211.212 137.8M213.262 173.414L180.074 190.625M213.262 173.414L177.337 155.099M180.074 190.625L145.978 208.307M180.074 190.625L143.892 172.179M145.978 208.307L112.789 225.518M145.978 208.307L109.532 189.727M112.789 225.518L100.591 231.844M112.789 225.518L76.0862 206.807M306.064 89.3595L280.168 102.585M280.168 102.585L244.657 120.719M280.168 102.585L398.287 162.802M280.168 102.585L246.71 85.528M244.657 120.719L211.212 137.8M244.657 120.719L211.2 103.663M211.212 137.8L177.337 155.099M211.212 137.8L177.755 120.743M177.337 155.099L143.892 172.179M177.337 155.099L143.88 138.043M143.892 172.179L109.532 189.727M143.892 172.179L110.434 155.123M109.532 189.727L76.0862 206.807M109.532 189.727L76.0741 172.67M76.0862 206.807L15.1099 237.947M76.0862 206.807L42.6288 189.75M289.605 63.6221L280.156 68.4478M280.156 68.4478L246.71 85.528M280.156 68.4478L409.489 134.382M280.156 68.4478L212.922 34.1721M246.71 85.528L211.2 103.663M246.71 85.528L212.934 68.3089M211.2 103.663L177.755 120.743M211.2 103.663L177.424 86.4436M177.755 120.743L143.88 138.043M177.755 120.743L143.978 103.524M143.88 138.043L110.434 155.123M143.88 138.043L110.103 120.823M110.434 155.123L76.0741 172.67M110.434 155.123L76.6581 137.904M76.0741 172.67L42.6288 189.75M76.0741 172.67L42.2979 155.451M42.6288 189.75L-1.34923 212.209M42.6288 189.75L8.85259 172.531M243.413 52.7434L212.934 68.3089M212.934 68.3089L177.424 86.4436M212.934 68.3089L179.477 51.2523M177.424 86.4436L143.978 103.524M177.424 86.4436L143.966 69.387M143.978 103.524L110.103 120.823M143.978 103.524L110.521 86.4672M110.103 120.823L76.6581 137.904M110.103 120.823L76.646 103.767M76.6581 137.904L42.2979 155.451M76.6581 137.904L43.2007 120.847M42.2979 155.451L8.85259 172.531M42.2979 155.451L8.84051 138.394M8.85259 172.531L-47.5409 201.331M8.85259 172.531L-24.6048 155.475M226.954 27.006L212.922 34.1721M212.922 34.1721L179.477 51.2523M212.922 34.1721L118.43 -14M179.477 51.2523L143.966 69.387M179.477 51.2523L107.228 14.4196M143.966 69.387L110.521 86.4672M143.966 69.387L86.5738 40.1282M110.521 86.4672L76.646 103.767M110.521 86.4672L75.3713 68.5479M76.646 103.767L43.2007 120.847M76.646 103.767L9.58759 69.5804M43.2007 120.847L8.84051 138.394M43.2007 120.847L-1.61475 98M8.84051 138.394L-24.6048 155.475M8.84051 138.394L-50.674 108.054M-24.6048 155.475L-64 175.593M-24.6048 155.475L-61.8763 136.473M371.37 143.632L347.803 155.854M347.803 155.854L314.615 173.065M347.803 155.854L381.633 173.1M347.803 155.854L314.576 138.915M314.615 173.065L281 190.497M314.615 173.065L348.445 190.312M314.615 173.065L281.388 156.126M281 190.497L247.812 207.708M281 190.497L314.83 207.744M281 190.497L247.773 173.558M247.812 207.708L213.715 225.39M247.812 207.708L281.642 224.955M247.812 207.708L214.585 190.769M213.715 225.39L180.527 242.602M213.715 225.39L247.546 242.637M213.715 225.39L180.489 208.451M180.527 242.602L167.224 249.501M180.527 242.602L214.358 259.848M180.527 242.602L147.3 225.663M408.27 159.287L381.633 173.1M381.633 173.1L348.445 190.312M381.633 173.1L412.144 188.655M348.445 190.312L314.83 207.744M348.445 190.312L400.941 217.074M314.83 207.744L281.642 224.955M314.83 207.744L335.158 218.107M281.642 224.955L247.546 242.637M281.642 224.955L323.955 246.527M247.546 242.637L214.358 259.848M247.546 242.637L274.896 256.58M214.358 259.848L204.124 265.155M214.358 259.848L263.694 285M339.248 126.12L314.576 138.915M314.576 138.915L281.388 156.126M314.576 138.915L279.168 120.864M281.388 156.126L247.773 173.558M281.388 156.126L245.723 137.944M247.773 173.558L214.585 190.769M247.773 173.558L211.848 155.244M214.585 190.769L180.489 208.451M214.585 190.769L178.403 172.324M180.489 208.451L147.3 225.663M180.489 208.451L144.043 189.871M147.3 225.663L135.102 231.989M147.3 225.663L110.597 206.951M340.575 89.504L314.679 102.729M314.679 102.729L279.168 120.864M314.679 102.729L432.798 162.946M314.679 102.729L281.221 85.6724M279.168 120.864L245.723 137.944M279.168 120.864L245.711 103.807M245.723 137.944L211.848 155.244M245.723 137.944L212.266 120.887M211.848 155.244L178.403 172.324M211.848 155.244L178.391 138.187M178.403 172.324L144.043 189.871M178.403 172.324L144.945 155.267M144.043 189.871L110.597 206.951M144.043 189.871L110.585 172.815M110.597 206.951L49.6209 238.091M110.597 206.951L77.1398 189.895M324.116 63.7665L314.667 68.5923M314.667 68.5923L281.221 85.6724M314.667 68.5923L444 134.527M314.667 68.5923L247.433 34.3165M281.221 85.6724L245.711 103.807M281.221 85.6724L247.445 68.4533M245.711 103.807L212.266 120.887M245.711 103.807L211.935 86.588M212.266 120.887L178.391 138.187M212.266 120.887L178.489 103.668M178.391 138.187L144.945 155.267M178.391 138.187L144.614 120.968M144.945 155.267L110.585 172.815M144.945 155.267L111.169 138.048M110.585 172.815L77.1398 189.895M110.585 172.815L76.8089 155.595M77.1398 189.895L33.1618 212.354M77.1398 189.895L43.3636 172.676M277.924 52.8878L247.445 68.4533M247.445 68.4533L211.935 86.588M247.445 68.4533L213.988 51.3967M211.935 86.588L178.489 103.668M211.935 86.588L178.477 69.5314M178.489 103.668L144.614 120.968M178.489 103.668L145.032 86.6116M144.614 120.968L111.169 138.048M144.614 120.968L111.157 103.911M111.169 138.048L76.8089 155.595M111.169 138.048L77.7117 120.991M76.8089 155.595L43.3636 172.676M76.8089 155.595L43.3515 138.539M43.3636 172.676L-13.0299 201.475M43.3636 172.676L9.9062 155.619M261.465 27.1504L247.433 34.3165M247.433 34.3165L213.988 51.3967M247.433 34.3165L152.941 -13.8556M213.988 51.3967L178.477 69.5314M213.988 51.3967L141.739 14.5641M178.477 69.5314L145.032 86.6116M178.477 69.5314L121.085 40.2727M145.032 86.6116L111.157 103.911M145.032 86.6116L109.882 68.6923M111.157 103.911L77.7117 120.991M111.157 103.911L44.0986 69.7248M77.7117 120.991L43.3515 138.539M77.7117 120.991L32.8963 98.1444M43.3515 138.539L9.9062 155.619M43.3515 138.539L-16.163 108.198M9.9062 155.619L-29.489 175.738M9.9062 155.619L-27.3653 136.618" stroke="white"/>
<defs>
<filter id="filter0_f_8673_7647" x="116" y="-76" width="364" height="295" filterUnits="userSpaceOnUse" color-interpolation-filters="sRGB">
<feFlood flood-opacity="0" result="BackgroundImageFix"/>
<feBlend mode="normal" in="SourceGraphic" in2="BackgroundImageFix" result="shape"/>
<feGaussianBlur stdDeviation="50" result="effect1_foregroundBlur_8673_7647"/>
</filter>
</defs>
</svg>
