<svg width="44" height="44" viewBox="0 0 44 44" fill="none" xmlns="http://www.w3.org/2000/svg">
<g clip-path="url(#clip0_8661_5886)">
<rect width="44" height="44" rx="8" fill="#7843FF"/>
<g filter="url(#filter0_f_8661_5886)">
<path d="M39.0023 44.6393C39.0023 54.7795 48.9144 63 39.0023 63C29.0903 63 7.03444 61.6447 7.03444 51.5045C7.03444 41.3643 5.95606 28 15.8681 28C67.8876 29.8446 39.0023 34.499 39.0023 44.6393Z" fill="white"/>
</g>
<path d="M33.2 31.9739C33.2978 32.1039 33.3575 32.2586 33.3722 32.4206C33.387 32.5826 33.3563 32.7455 33.2836 32.8911C33.2109 33.0366 33.099 33.159 32.9606 33.2445C32.8222 33.33 32.6627 33.3752 32.5 33.375H11.5C11.3375 33.375 11.1782 33.3298 11.04 33.2443C10.9018 33.1589 10.79 33.0367 10.7174 32.8913C10.6447 32.746 10.6139 32.5833 10.6285 32.4214C10.6431 32.2596 10.7025 32.105 10.8 31.975C11.5748 30.9362 12.608 30.1183 13.7969 29.6027C13.1452 29.0079 12.6886 28.23 12.4869 27.371C12.2853 26.5121 12.3481 25.6122 12.6671 24.7896C12.986 23.967 13.5463 23.26 14.2742 22.7615C15.0022 22.263 15.8639 21.9962 16.7462 21.9962C17.6285 21.9962 18.4902 22.263 19.2181 22.7615C19.9461 23.26 20.5063 23.967 20.8253 24.7896C21.1442 25.6122 21.207 26.5121 21.0054 27.371C20.8038 28.23 20.3471 29.0079 19.6955 29.6027C20.5532 29.9734 21.3327 30.5038 21.9923 31.1656C22.652 30.5038 23.4315 29.9734 24.2892 29.6027C23.6375 29.0079 23.1809 28.23 22.9793 27.371C22.7777 26.5121 22.8404 25.6122 23.1594 24.7896C23.4784 23.967 24.0386 23.26 24.7666 22.7615C25.4945 22.263 26.3562 21.9962 27.2385 21.9962C28.1208 21.9962 28.9825 22.263 29.7105 22.7615C30.4384 23.26 30.9987 23.967 31.3176 24.7896C31.6366 25.6122 31.6994 26.5121 31.4977 27.371C31.2961 28.23 30.8395 29.0079 30.1878 29.6027C31.3822 30.1156 32.4209 30.9333 33.2 31.9739ZM10.975 21.825C11.0669 21.894 11.1715 21.9441 11.2828 21.9726C11.3942 22.0012 11.51 22.0075 11.6237 21.9912C11.7375 21.975 11.8469 21.9365 11.9458 21.8779C12.0447 21.8194 12.1311 21.7419 12.2 21.65C12.7298 20.9436 13.4167 20.3703 14.2065 19.9755C14.9962 19.5806 15.867 19.375 16.75 19.375C17.633 19.375 18.5038 19.5806 19.2935 19.9755C20.0833 20.3703 20.7702 20.9436 21.3 21.65C21.3815 21.7587 21.4872 21.8469 21.6087 21.9076C21.7302 21.9684 21.8642 22 22 22C22.1358 22 22.2698 21.9684 22.3913 21.9076C22.5128 21.8469 22.6185 21.7587 22.7 21.65C23.2298 20.9436 23.9167 20.3703 24.7065 19.9755C25.4962 19.5806 26.367 19.375 27.25 19.375C28.133 19.375 29.0038 19.5806 29.7935 19.9755C30.5833 20.3703 31.2702 20.9436 31.8 21.65C31.869 21.7419 31.9555 21.8194 32.0544 21.8779C32.1533 21.9364 32.2628 21.9749 32.3766 21.9911C32.4904 22.0073 32.6063 22.0009 32.7177 21.9723C32.829 21.9437 32.9336 21.8935 33.0255 21.8245C33.1175 21.7554 33.1949 21.669 33.2534 21.5701C33.3119 21.4711 33.3504 21.3616 33.3666 21.2478C33.3828 21.134 33.3764 21.0181 33.3478 20.9068C33.3192 20.7955 33.269 20.6908 33.2 20.5989C32.4252 19.5604 31.392 18.7429 30.2031 18.2277C30.8548 17.6329 31.3114 16.855 31.5131 15.996C31.7147 15.1371 31.6519 14.2372 31.3329 13.4146C31.014 12.592 30.4537 11.885 29.7258 11.3865C28.9978 10.888 28.1361 10.6212 27.2538 10.6212C26.3715 10.6212 25.5098 10.888 24.7819 11.3865C24.0539 11.885 23.4937 12.592 23.1747 13.4146C22.8558 14.2372 22.793 15.1371 22.9946 15.996C23.1962 16.855 23.6529 17.6329 24.3045 18.2277C23.4468 18.5984 22.6673 19.1288 22.0077 19.7906C21.348 19.1288 20.5685 18.5984 19.7108 18.2277C20.3625 17.6329 20.8191 16.855 21.0207 15.996C21.2223 15.1371 21.1596 14.2372 20.8406 13.4146C20.5216 12.592 19.9614 11.885 19.2334 11.3865C18.5055 10.888 17.6438 10.6212 16.7615 10.6212C15.8792 10.6212 15.0175 10.888 14.2895 11.3865C13.5616 11.885 13.0013 12.592 12.6824 13.4146C12.3634 14.2372 12.3006 15.1371 12.5023 15.996C12.7039 16.855 13.1605 17.6329 13.8122 18.2277C12.6177 18.7411 11.579 19.5591 10.8 20.6C10.7311 20.6919 10.6809 20.7965 10.6524 20.9079C10.6239 21.0192 10.6175 21.135 10.6338 21.2488C10.65 21.3625 10.6885 21.4719 10.7471 21.5708C10.8056 21.6697 10.8831 21.7561 10.975 21.825Z" fill="white"/>
</g>
<defs>
<filter id="filter0_f_8661_5886" x="-43" y="-22" width="140" height="135" filterUnits="userSpaceOnUse" color-interpolation-filters="sRGB">
<feFlood flood-opacity="0" result="BackgroundImageFix"/>
<feBlend mode="normal" in="SourceGraphic" in2="BackgroundImageFix" result="shape"/>
<feGaussianBlur stdDeviation="25" result="effect1_foregroundBlur_8661_5886"/>
</filter>
<clipPath id="clip0_8661_5886">
<rect width="44" height="44" rx="8" fill="white"/>
</clipPath>
</defs>
</svg>
