<svg width="602" height="287" viewBox="0 0 602 287" fill="none" xmlns="http://www.w3.org/2000/svg">
<rect x="-71" y="67" width="237" height="144" rx="22.3928" fill="#1B1A20"/>
<rect x="-71" y="67" width="236.524" height="144.153" rx="16.7946" fill="#7843FF"/>
<rect x="-70.5" y="67.5" width="235.524" height="143.153" rx="16.2946" stroke="url(#paint0_linear_8670_3755)" stroke-opacity="0.06"/>
<rect x="4.57568" y="92.1919" width="85.3725" height="20.9932" rx="10.4966" fill="white" fill-opacity="0.1"/>
<rect x="5.07568" y="92.6919" width="84.3725" height="19.9932" rx="9.99661" stroke="white" stroke-opacity="0.1"/>
<rect x="-33.2124" y="129.98" width="160.948" height="12.5959" rx="6.29797" fill="white" fill-opacity="0.1"/>
<rect x="-32.7124" y="130.48" width="159.948" height="11.5959" rx="5.79797" stroke="white" stroke-opacity="0.1"/>
<rect x="-19.2168" y="152.373" width="134.357" height="12.5959" rx="6.29797" fill="white" fill-opacity="0.1"/>
<rect x="-18.7168" y="152.873" width="133.357" height="11.5959" rx="5.79797" stroke="white" stroke-opacity="0.1"/>
<rect x="-45.8081" y="173.366" width="184.74" height="12.5959" rx="6.29797" fill="white" fill-opacity="0.1"/>
<rect x="-45.3081" y="173.866" width="183.74" height="11.5959" rx="5.79797" stroke="white" stroke-opacity="0.1"/>
<rect x="182.794" y="67" width="237" height="144" rx="22.3928" fill="#1B1A20"/>
<rect x="182.794" y="67" width="236.524" height="144.153" rx="16.7946" fill="#F95341"/>
<rect x="183.294" y="67.5" width="235.524" height="143.153" rx="16.2946" stroke="url(#paint1_linear_8670_3755)" stroke-opacity="0.06"/>
<rect x="258.37" y="92.1919" width="85.3725" height="20.9932" rx="10.4966" fill="white" fill-opacity="0.1"/>
<rect x="258.87" y="92.6919" width="84.3725" height="19.9932" rx="9.99661" stroke="white" stroke-opacity="0.1"/>
<rect x="220.582" y="129.98" width="160.948" height="12.5959" rx="6.29797" fill="white" fill-opacity="0.1"/>
<rect x="221.082" y="130.48" width="159.948" height="11.5959" rx="5.79797" stroke="white" stroke-opacity="0.1"/>
<rect x="234.578" y="152.373" width="134.357" height="12.5959" rx="6.29797" fill="white" fill-opacity="0.1"/>
<rect x="235.078" y="152.873" width="133.357" height="11.5959" rx="5.79797" stroke="white" stroke-opacity="0.1"/>
<rect x="207.986" y="173.366" width="184.74" height="12.5959" rx="6.29797" fill="white" fill-opacity="0.1"/>
<rect x="208.486" y="173.866" width="183.74" height="11.5959" rx="5.79797" stroke="white" stroke-opacity="0.1"/>
<rect x="436.589" y="67" width="237" height="144" rx="22.3928" fill="#1B1A20"/>
<rect x="436.589" y="67" width="236.524" height="144.153" rx="16.7946" fill="#0AC655"/>
<rect x="437.089" y="67.5" width="235.524" height="143.153" rx="16.2946" stroke="url(#paint2_linear_8670_3755)" stroke-opacity="0.06"/>
<rect x="512.165" y="92.1919" width="85.3725" height="20.9932" rx="10.4966" fill="white" fill-opacity="0.1"/>
<rect x="512.665" y="92.6919" width="84.3725" height="19.9932" rx="9.99661" stroke="white" stroke-opacity="0.1"/>
<rect x="474.377" y="129.98" width="160.948" height="12.5959" rx="6.29797" fill="white" fill-opacity="0.1"/>
<rect x="474.877" y="130.48" width="159.948" height="11.5959" rx="5.79797" stroke="white" stroke-opacity="0.1"/>
<rect x="488.373" y="152.373" width="134.357" height="12.5959" rx="6.29797" fill="white" fill-opacity="0.1"/>
<rect x="488.873" y="152.873" width="133.357" height="11.5959" rx="5.79797" stroke="white" stroke-opacity="0.1"/>
<rect x="461.781" y="173.366" width="184.74" height="12.5959" rx="6.29797" fill="white" fill-opacity="0.1"/>
<rect x="462.281" y="173.866" width="183.74" height="11.5959" rx="5.79797" stroke="white" stroke-opacity="0.1"/>
<g clip-path="url(#clip0_8670_3755)">
<path d="M224.893 36.0096L245.065 28.0975C246.184 27.6587 247.285 28.7772 246.865 29.9262L239.522 50.0312C239.091 51.2102 237.488 51.2794 236.963 50.1416L233.391 42.4143C233.238 42.0824 232.965 41.824 232.63 41.6931L224.895 38.6698C223.702 38.2039 223.702 36.477 224.893 36.0096Z" fill="#0AC655"/>
</g>
<rect width="164" height="36" rx="4" transform="matrix(-1 0 0 1 230 44)" fill="#0AC655"/>
<path d="M79.7589 68V56.32H82.7829C83.5402 56.32 84.1909 56.464 84.7349 56.752C85.2895 57.04 85.7162 57.4453 86.0149 57.968C86.3242 58.4907 86.4789 59.1093 86.4789 59.824V64.48C86.4789 65.1947 86.3242 65.8187 86.0149 66.352C85.7162 66.8747 85.2895 67.28 84.7349 67.568C84.1909 67.856 83.5402 68 82.7829 68H79.7589ZM81.1989 66.72H82.7829C83.4869 66.72 84.0362 66.5227 84.4309 66.128C84.8362 65.7333 85.0389 65.184 85.0389 64.48V59.824C85.0389 59.1307 84.8362 58.5867 84.4309 58.192C84.0362 57.7973 83.4869 57.6 82.7829 57.6H81.1989V66.72ZM92.3606 68.16C91.6673 68.16 91.0593 68.0213 90.5366 67.744C90.0246 67.4667 89.6246 67.0773 89.3366 66.576C89.0593 66.064 88.9206 65.472 88.9206 64.8V62.4C88.9206 61.7173 89.0593 61.1253 89.3366 60.624C89.6246 60.1227 90.0246 59.7333 90.5366 59.456C91.0593 59.1787 91.6673 59.04 92.3606 59.04C93.054 59.04 93.6566 59.1787 94.1686 59.456C94.6913 59.7333 95.0913 60.1227 95.3686 60.624C95.6566 61.1253 95.8006 61.7173 95.8006 62.4V63.952H90.3286V64.8C90.3286 65.4933 90.5046 66.0267 90.8566 66.4C91.2086 66.7627 91.71 66.944 92.3606 66.944C92.9153 66.944 93.3633 66.848 93.7046 66.656C94.046 66.4533 94.254 66.1547 94.3286 65.76H95.7686C95.6726 66.496 95.31 67.0827 94.6806 67.52C94.062 67.9467 93.2886 68.16 92.3606 68.16ZM94.3926 62.992V62.4C94.3926 61.7067 94.2166 61.1733 93.8646 60.8C93.5233 60.4267 93.022 60.24 92.3606 60.24C91.71 60.24 91.2086 60.4267 90.8566 60.8C90.5046 61.1733 90.3286 61.7067 90.3286 62.4V62.864H94.5046L94.3926 62.992ZM100.658 68L97.7144 59.2H99.1864L101.138 65.12C101.256 65.472 101.362 65.8133 101.458 66.144C101.554 66.464 101.624 66.7147 101.666 66.896C101.72 66.7147 101.794 66.464 101.89 66.144C101.986 65.8133 102.088 65.472 102.194 65.12L104.098 59.2H105.554L102.61 68H100.658ZM116.598 68V56.32H118.486L119.702 60.096C119.819 60.4373 119.926 60.7787 120.022 61.12C120.118 61.4507 120.187 61.7067 120.23 61.888C120.283 61.7067 120.353 61.4507 120.438 61.12C120.523 60.7787 120.619 60.432 120.726 60.08L121.878 56.32H123.766V68H122.358V63.76C122.358 63.2907 122.374 62.7573 122.406 62.16C122.438 61.5627 122.481 60.9547 122.534 60.336C122.587 59.7067 122.641 59.1093 122.694 58.544C122.758 57.968 122.811 57.4667 122.854 57.04L120.966 62.88H119.446L117.542 57.04C117.595 57.456 117.649 57.9413 117.702 58.496C117.755 59.04 117.803 59.6213 117.846 60.24C117.889 60.848 117.926 61.456 117.958 62.064C117.99 62.672 118.006 63.2373 118.006 63.76V68H116.598ZM128.688 68.16C127.76 68.16 127.029 67.9253 126.496 67.456C125.962 66.976 125.696 66.3307 125.696 65.52C125.696 64.6987 125.962 64.0533 126.496 63.584C127.029 63.1147 127.749 62.88 128.656 62.88H131.376V62C131.376 61.456 131.21 61.04 130.88 60.752C130.56 60.4533 130.101 60.304 129.504 60.304C128.981 60.304 128.544 60.416 128.192 60.64C127.84 60.8533 127.637 61.1467 127.584 61.52H126.144C126.24 60.7627 126.597 60.16 127.216 59.712C127.834 59.264 128.608 59.04 129.536 59.04C130.549 59.04 131.349 59.3013 131.936 59.824C132.522 60.3467 132.816 61.056 132.816 61.952V68H131.408V66.32H131.168L131.408 66.08C131.408 66.72 131.157 67.2267 130.656 67.6C130.165 67.9733 129.509 68.16 128.688 68.16ZM129.04 67.024C129.722 67.024 130.282 66.8533 130.72 66.512C131.157 66.1707 131.376 65.7333 131.376 65.2V63.952H128.688C128.208 63.952 127.829 64.0853 127.552 64.352C127.274 64.6187 127.136 64.9813 127.136 65.44C127.136 65.9307 127.301 66.32 127.632 66.608C127.973 66.8853 128.442 67.024 129.04 67.024ZM135.289 68V66.688H138.409V60.512H135.689V59.2H139.849V66.688H142.809V68H135.289ZM138.969 57.616C138.617 57.616 138.34 57.5253 138.137 57.344C137.935 57.1627 137.833 56.9173 137.833 56.608C137.833 56.288 137.935 56.0373 138.137 55.856C138.34 55.664 138.617 55.568 138.969 55.568C139.321 55.568 139.599 55.664 139.801 55.856C140.004 56.0373 140.105 56.288 140.105 56.608C140.105 56.9173 140.004 57.1627 139.801 57.344C139.599 57.5253 139.321 57.616 138.969 57.616ZM144.675 68V59.2H146.115V60.88H146.419L146.115 61.216C146.115 60.5227 146.323 59.9893 146.739 59.616C147.155 59.232 147.731 59.04 148.467 59.04C149.352 59.04 150.056 59.312 150.579 59.856C151.102 60.4 151.363 61.1413 151.363 62.08V68H149.923V62.24C149.923 61.6107 149.752 61.1307 149.411 60.8C149.08 60.4587 148.627 60.288 148.051 60.288C147.454 60.288 146.979 60.4693 146.627 60.832C146.286 61.1947 146.115 61.7173 146.115 62.4V68H144.675ZM158.237 68C157.48 68 156.888 67.7973 156.461 67.392C156.045 66.9867 155.837 66.416 155.837 65.68V60.512H153.357V59.2H155.837V56.72H157.277V59.2H160.797V60.512H157.277V65.68C157.277 66.352 157.597 66.688 158.237 66.688H160.637V68H158.237ZM166.551 68.16C165.857 68.16 165.249 68.0213 164.727 67.744C164.215 67.4667 163.815 67.0773 163.527 66.576C163.249 66.064 163.111 65.472 163.111 64.8V62.4C163.111 61.7173 163.249 61.1253 163.527 60.624C163.815 60.1227 164.215 59.7333 164.727 59.456C165.249 59.1787 165.857 59.04 166.551 59.04C167.244 59.04 167.847 59.1787 168.359 59.456C168.881 59.7333 169.281 60.1227 169.559 60.624C169.847 61.1253 169.991 61.7173 169.991 62.4V63.952H164.519V64.8C164.519 65.4933 164.695 66.0267 165.047 66.4C165.399 66.7627 165.9 66.944 166.551 66.944C167.105 66.944 167.553 66.848 167.895 66.656C168.236 66.4533 168.444 66.1547 168.519 65.76H169.959C169.863 66.496 169.5 67.0827 168.871 67.52C168.252 67.9467 167.479 68.16 166.551 68.16ZM168.583 62.992V62.4C168.583 61.7067 168.407 61.1733 168.055 60.8C167.713 60.4267 167.212 60.24 166.551 60.24C165.9 60.24 165.399 60.4267 165.047 60.8C164.695 61.1733 164.519 61.7067 164.519 62.4V62.864H168.695L168.583 62.992ZM172.496 68V59.2H173.936V60.88H174.24L173.936 61.216C173.936 60.5227 174.144 59.9893 174.56 59.616C174.976 59.232 175.552 59.04 176.288 59.04C177.174 59.04 177.878 59.312 178.4 59.856C178.923 60.4 179.184 61.1413 179.184 62.08V68H177.744V62.24C177.744 61.6107 177.574 61.1307 177.232 60.8C176.902 60.4587 176.448 60.288 175.872 60.288C175.275 60.288 174.8 60.4693 174.448 60.832C174.107 61.1947 173.936 61.7173 173.936 62.4V68H172.496ZM184.33 68.16C183.402 68.16 182.671 67.9253 182.138 67.456C181.605 66.976 181.338 66.3307 181.338 65.52C181.338 64.6987 181.605 64.0533 182.138 63.584C182.671 63.1147 183.391 62.88 184.298 62.88H187.018V62C187.018 61.456 186.853 61.04 186.522 60.752C186.202 60.4533 185.743 60.304 185.146 60.304C184.623 60.304 184.186 60.416 183.834 60.64C183.482 60.8533 183.279 61.1467 183.226 61.52H181.786C181.882 60.7627 182.239 60.16 182.858 59.712C183.477 59.264 184.25 59.04 185.178 59.04C186.191 59.04 186.991 59.3013 187.578 59.824C188.165 60.3467 188.458 61.056 188.458 61.952V68H187.05V66.32H186.81L187.05 66.08C187.05 66.72 186.799 67.2267 186.298 67.6C185.807 67.9733 185.151 68.16 184.33 68.16ZM184.682 67.024C185.365 67.024 185.925 66.8533 186.362 66.512C186.799 66.1707 187.018 65.7333 187.018 65.2V63.952H184.33C183.85 63.952 183.471 64.0853 183.194 64.352C182.917 64.6187 182.778 64.9813 182.778 65.44C182.778 65.9307 182.943 66.32 183.274 66.608C183.615 66.8853 184.085 67.024 184.682 67.024ZM191.044 68V59.2H192.484V60.88H192.788L192.484 61.216C192.484 60.5227 192.692 59.9893 193.108 59.616C193.524 59.232 194.1 59.04 194.836 59.04C195.721 59.04 196.425 59.312 196.948 59.856C197.471 60.4 197.732 61.1413 197.732 62.08V68H196.292V62.24C196.292 61.6107 196.121 61.1307 195.78 60.8C195.449 60.4587 194.996 60.288 194.42 60.288C193.823 60.288 193.348 60.4693 192.996 60.832C192.655 61.1947 192.484 61.7173 192.484 62.4V68H191.044ZM203.71 68.16C203.006 68.16 202.387 68.0267 201.854 67.76C201.331 67.4933 200.926 67.1093 200.638 66.608C200.35 66.096 200.206 65.4933 200.206 64.8V62.4C200.206 61.696 200.35 61.0933 200.638 60.592C200.926 60.0907 201.331 59.7067 201.854 59.44C202.387 59.1733 203.006 59.04 203.71 59.04C204.723 59.04 205.539 59.312 206.158 59.856C206.776 60.4 207.102 61.1413 207.134 62.08H205.694C205.662 61.5147 205.47 61.0827 205.118 60.784C204.776 60.4747 204.307 60.32 203.71 60.32C203.08 60.32 202.579 60.5013 202.206 60.864C201.832 61.216 201.646 61.7227 201.646 62.384V64.8C201.646 65.4613 201.832 65.9733 202.206 66.336C202.579 66.6987 203.08 66.88 203.71 66.88C204.307 66.88 204.776 66.7253 205.118 66.416C205.47 66.1067 205.662 65.6747 205.694 65.12H207.134C207.102 66.0587 206.776 66.8 206.158 67.344C205.539 67.888 204.723 68.16 203.71 68.16ZM212.919 68.16C212.226 68.16 211.618 68.0213 211.095 67.744C210.583 67.4667 210.183 67.0773 209.895 66.576C209.618 66.064 209.479 65.472 209.479 64.8V62.4C209.479 61.7173 209.618 61.1253 209.895 60.624C210.183 60.1227 210.583 59.7333 211.095 59.456C211.618 59.1787 212.226 59.04 212.919 59.04C213.613 59.04 214.215 59.1787 214.727 59.456C215.25 59.7333 215.65 60.1227 215.927 60.624C216.215 61.1253 216.359 61.7173 216.359 62.4V63.952H210.887V64.8C210.887 65.4933 211.063 66.0267 211.415 66.4C211.767 66.7627 212.269 66.944 212.919 66.944C213.474 66.944 213.922 66.848 214.263 66.656C214.605 66.4533 214.813 66.1547 214.887 65.76H216.327C216.231 66.496 215.869 67.0827 215.239 67.52C214.621 67.9467 213.847 68.16 212.919 68.16ZM214.951 62.992V62.4C214.951 61.7067 214.775 61.1733 214.423 60.8C214.082 60.4267 213.581 60.24 212.919 60.24C212.269 60.24 211.767 60.4267 211.415 60.8C211.063 61.1733 210.887 61.7067 210.887 62.4V62.864H215.063L214.951 62.992Z" fill="white"/>
<g clip-path="url(#clip1_8670_3755)">
<path d="M423.107 8.00958L402.935 0.0975173C401.816 -0.341284 400.715 0.777191 401.135 1.92622L408.478 22.0312C408.909 23.2102 410.512 23.2794 411.037 22.1416L414.609 14.4143C414.762 14.0824 415.035 13.824 415.37 13.6931L423.105 10.6698C424.298 10.2039 424.298 8.47701 423.107 8.00958Z" fill="#F95341"/>
</g>
<rect x="418" y="16" width="127" height="36" rx="4" fill="#F95341"/>
<path d="M431.806 40V28.32H434.83C435.588 28.32 436.238 28.464 436.782 28.752C437.337 29.04 437.764 29.4453 438.062 29.968C438.372 30.4907 438.526 31.1093 438.526 31.824V36.48C438.526 37.1947 438.372 37.8187 438.062 38.352C437.764 38.8747 437.337 39.28 436.782 39.568C436.238 39.856 435.588 40 434.83 40H431.806ZM433.246 38.72H434.83C435.534 38.72 436.084 38.5227 436.478 38.128C436.884 37.7333 437.086 37.184 437.086 36.48V31.824C437.086 31.1307 436.884 30.5867 436.478 30.192C436.084 29.7973 435.534 29.6 434.83 29.6H433.246V38.72ZM444.408 40.16C443.715 40.16 443.107 40.0213 442.584 39.744C442.072 39.4667 441.672 39.0773 441.384 38.576C441.107 38.064 440.968 37.472 440.968 36.8V34.4C440.968 33.7173 441.107 33.1253 441.384 32.624C441.672 32.1227 442.072 31.7333 442.584 31.456C443.107 31.1787 443.715 31.04 444.408 31.04C445.101 31.04 445.704 31.1787 446.216 31.456C446.739 31.7333 447.139 32.1227 447.416 32.624C447.704 33.1253 447.848 33.7173 447.848 34.4V35.952H442.376V36.8C442.376 37.4933 442.552 38.0267 442.904 38.4C443.256 38.7627 443.757 38.944 444.408 38.944C444.963 38.944 445.411 38.848 445.752 38.656C446.093 38.4533 446.301 38.1547 446.376 37.76H447.816C447.72 38.496 447.357 39.0827 446.728 39.52C446.109 39.9467 445.336 40.16 444.408 40.16ZM446.44 34.992V34.4C446.44 33.7067 446.264 33.1733 445.912 32.8C445.571 32.4267 445.069 32.24 444.408 32.24C443.757 32.24 443.256 32.4267 442.904 32.8C442.552 33.1733 442.376 33.7067 442.376 34.4V34.864H446.552L446.44 34.992ZM452.706 40L449.762 31.2H451.234L453.186 37.12C453.303 37.472 453.41 37.8133 453.506 38.144C453.602 38.464 453.671 38.7147 453.714 38.896C453.767 38.7147 453.842 38.464 453.938 38.144C454.034 37.8133 454.135 37.472 454.242 37.12L456.146 31.2H457.602L454.658 40H452.706ZM468.901 42.88V31.2H470.341V32.88H470.629L470.341 33.216C470.341 32.544 470.56 32.016 470.997 31.632C471.445 31.2373 472.032 31.04 472.757 31.04C473.643 31.04 474.347 31.3333 474.869 31.92C475.403 32.496 475.669 33.2907 475.669 34.304V36.88C475.669 37.552 475.547 38.1333 475.301 38.624C475.067 39.1147 474.731 39.4933 474.293 39.76C473.867 40.0267 473.355 40.16 472.757 40.16C472.043 40.16 471.461 39.9627 471.013 39.568C470.565 39.1733 470.341 38.6453 470.341 37.984L470.629 38.32H470.309L470.341 40.32V42.88H468.901ZM472.277 38.912C472.885 38.912 473.36 38.7307 473.701 38.368C474.053 38.0053 474.229 37.4827 474.229 36.8V34.4C474.229 33.7173 474.053 33.1947 473.701 32.832C473.36 32.4693 472.885 32.288 472.277 32.288C471.691 32.288 471.221 32.4747 470.869 32.848C470.517 33.2213 470.341 33.7387 470.341 34.4V36.8C470.341 37.4613 470.517 37.9787 470.869 38.352C471.221 38.7253 471.691 38.912 472.277 38.912ZM478.479 40V31.2H479.887V32.88H480.223L479.759 33.92C479.759 32.9707 479.962 32.256 480.367 31.776C480.783 31.2853 481.396 31.04 482.207 31.04C483.135 31.04 483.871 31.3333 484.415 31.92C484.97 32.496 485.247 33.28 485.247 34.272V34.8H483.807V34.4C483.807 33.7067 483.636 33.1787 483.295 32.816C482.964 32.4427 482.49 32.256 481.871 32.256C481.263 32.256 480.783 32.4427 480.431 32.816C480.09 33.1893 479.919 33.7173 479.919 34.4V40H478.479ZM490.777 40.128C490.073 40.128 489.465 39.9947 488.953 39.728C488.441 39.4613 488.041 39.0773 487.753 38.576C487.476 38.064 487.337 37.4613 487.337 36.768V34.432C487.337 33.728 487.476 33.1253 487.753 32.624C488.041 32.1227 488.441 31.7387 488.953 31.472C489.465 31.2053 490.073 31.072 490.777 31.072C491.481 31.072 492.089 31.2053 492.601 31.472C493.113 31.7387 493.508 32.1227 493.785 32.624C494.073 33.1253 494.217 33.7227 494.217 34.416V36.768C494.217 37.4613 494.073 38.064 493.785 38.576C493.508 39.0773 493.113 39.4613 492.601 39.728C492.089 39.9947 491.481 40.128 490.777 40.128ZM490.777 38.848C491.406 38.848 491.897 38.672 492.249 38.32C492.601 37.968 492.777 37.4507 492.777 36.768V34.432C492.777 33.7493 492.601 33.232 492.249 32.88C491.897 32.528 491.406 32.352 490.777 32.352C490.158 32.352 489.668 32.528 489.305 32.88C488.953 33.232 488.777 33.7493 488.777 34.432V36.768C488.777 37.4507 488.953 37.968 489.305 38.32C489.668 38.672 490.158 38.848 490.777 38.848ZM499.539 40.16C498.664 40.16 497.955 39.8667 497.411 39.28C496.877 38.6933 496.611 37.8987 496.611 36.896V34.32C496.611 33.3067 496.877 32.5067 497.411 31.92C497.944 31.3333 498.653 31.04 499.539 31.04C500.264 31.04 500.845 31.2373 501.283 31.632C501.72 32.0267 501.939 32.5547 501.939 33.216L501.651 32.88H501.971L501.939 30.88V28.32H503.379V40H501.939V38.32H501.651L501.939 37.984C501.939 38.656 501.72 39.1893 501.283 39.584C500.845 39.968 500.264 40.16 499.539 40.16ZM500.019 38.912C500.616 38.912 501.085 38.7253 501.427 38.352C501.768 37.9787 501.939 37.4613 501.939 36.8V34.4C501.939 33.7387 501.768 33.2213 501.427 32.848C501.085 32.4747 500.616 32.288 500.019 32.288C499.411 32.288 498.931 32.4693 498.579 32.832C498.227 33.1947 498.051 33.7173 498.051 34.4V36.8C498.051 37.4827 498.227 38.0053 498.579 38.368C498.931 38.7307 499.411 38.912 500.019 38.912ZM509.308 40.16C508.295 40.16 507.484 39.8613 506.876 39.264C506.268 38.656 505.964 37.8347 505.964 36.8V31.2H507.404V36.8C507.404 37.4613 507.575 37.9787 507.916 38.352C508.258 38.7147 508.722 38.896 509.308 38.896C509.906 38.896 510.375 38.7147 510.716 38.352C511.068 37.9787 511.244 37.4613 511.244 36.8V31.2H512.684V36.8C512.684 37.8347 512.375 38.656 511.756 39.264C511.138 39.8613 510.322 40.16 509.308 40.16ZM518.662 40.16C517.958 40.16 517.339 40.0267 516.806 39.76C516.283 39.4933 515.878 39.1093 515.59 38.608C515.302 38.096 515.158 37.4933 515.158 36.8V34.4C515.158 33.696 515.302 33.0933 515.59 32.592C515.878 32.0907 516.283 31.7067 516.806 31.44C517.339 31.1733 517.958 31.04 518.662 31.04C519.675 31.04 520.491 31.312 521.11 31.856C521.729 32.4 522.054 33.1413 522.086 34.08H520.646C520.614 33.5147 520.422 33.0827 520.07 32.784C519.729 32.4747 519.259 32.32 518.662 32.32C518.033 32.32 517.531 32.5013 517.158 32.864C516.785 33.216 516.598 33.7227 516.598 34.384V36.8C516.598 37.4613 516.785 37.9733 517.158 38.336C517.531 38.6987 518.033 38.88 518.662 38.88C519.259 38.88 519.729 38.7253 520.07 38.416C520.422 38.1067 520.614 37.6747 520.646 37.12H522.086C522.054 38.0587 521.729 38.8 521.11 39.344C520.491 39.888 519.675 40.16 518.662 40.16ZM528.832 40C528.075 40 527.483 39.7973 527.056 39.392C526.64 38.9867 526.432 38.416 526.432 37.68V32.512H523.952V31.2H526.432V28.72H527.872V31.2H531.392V32.512H527.872V37.68C527.872 38.352 528.192 38.688 528.832 38.688H531.232V40H528.832Z" fill="white"/>
<g clip-path="url(#clip2_8670_3755)">
<path d="M392.107 243.01L371.935 235.098C370.816 234.659 369.715 235.777 370.135 236.926L377.478 257.031C377.909 258.21 379.512 258.279 380.037 257.142L383.609 249.414C383.762 249.082 384.035 248.824 384.37 248.693L392.105 245.67C393.298 245.204 393.298 243.477 392.107 243.01Z" fill="#7843FF"/>
</g>
<rect x="387" y="251" width="145" height="36" rx="4" fill="#7843FF"/>
<path d="M403.925 275.16C403.221 275.16 402.607 275.027 402.085 274.76C401.573 274.493 401.173 274.109 400.885 273.608C400.607 273.096 400.469 272.493 400.469 271.8V266.52C400.469 265.816 400.607 265.213 400.885 264.712C401.173 264.211 401.573 263.827 402.085 263.56C402.607 263.293 403.221 263.16 403.925 263.16C404.629 263.16 405.237 263.299 405.749 263.576C406.261 263.843 406.655 264.227 406.933 264.728C407.21 265.229 407.349 265.827 407.349 266.52H405.909C405.909 265.859 405.733 265.352 405.381 265C405.039 264.637 404.554 264.456 403.925 264.456C403.295 264.456 402.799 264.632 402.437 264.984C402.085 265.336 401.909 265.843 401.909 266.504V271.8C401.909 272.461 402.085 272.973 402.437 273.336C402.799 273.688 403.295 273.864 403.925 273.864C404.554 273.864 405.039 273.688 405.381 273.336C405.733 272.973 405.909 272.461 405.909 271.8H407.349C407.349 272.483 407.21 273.08 406.933 273.592C406.655 274.093 406.261 274.483 405.749 274.76C405.237 275.027 404.629 275.16 403.925 275.16ZM412.414 275V264.616H409.214V263.304H417.054V264.616H413.854V275H412.414ZM422.408 275.16C421.704 275.16 421.096 275.027 420.584 274.76C420.083 274.493 419.693 274.109 419.416 273.608C419.149 273.096 419.016 272.493 419.016 271.8V266.52C419.016 265.816 419.149 265.213 419.416 264.712C419.693 264.211 420.083 263.827 420.584 263.56C421.096 263.293 421.704 263.16 422.408 263.16C423.112 263.16 423.715 263.293 424.216 263.56C424.728 263.827 425.117 264.211 425.384 264.712C425.661 265.213 425.8 265.811 425.8 266.504V271.8C425.8 272.493 425.661 273.096 425.384 273.608C425.117 274.109 424.728 274.493 424.216 274.76C423.715 275.027 423.112 275.16 422.408 275.16ZM422.408 273.864C423.037 273.864 423.517 273.688 423.848 273.336C424.189 272.973 424.36 272.461 424.36 271.8V266.52C424.36 265.859 424.189 265.352 423.848 265C423.517 264.637 423.037 264.456 422.408 264.456C421.789 264.456 421.309 264.637 420.968 265C420.627 265.352 420.456 265.859 420.456 266.52V271.8C420.456 272.461 420.627 272.973 420.968 273.336C421.309 273.688 421.789 273.864 422.408 273.864ZM440.956 275.16C440.252 275.16 439.644 275.027 439.132 274.76C438.63 274.493 438.241 274.109 437.964 273.608C437.697 273.096 437.564 272.493 437.564 271.8V266.52C437.564 265.816 437.697 265.213 437.964 264.712C438.241 264.211 438.63 263.827 439.132 263.56C439.644 263.293 440.252 263.16 440.956 263.16C441.66 263.16 442.262 263.293 442.764 263.56C443.276 263.827 443.665 264.211 443.932 264.712C444.209 265.213 444.348 265.811 444.348 266.504V271.8C444.348 272.493 444.209 273.096 443.932 273.608C443.665 274.109 443.276 274.493 442.764 274.76C442.262 275.027 441.66 275.16 440.956 275.16ZM440.956 273.864C441.585 273.864 442.065 273.688 442.396 273.336C442.737 272.973 442.908 272.461 442.908 271.8V266.52C442.908 265.859 442.737 265.352 442.396 265C442.065 264.637 441.585 264.456 440.956 264.456C440.337 264.456 439.857 264.637 439.516 265C439.174 265.352 439.004 265.859 439.004 266.52V271.8C439.004 272.461 439.174 272.973 439.516 273.336C439.857 273.688 440.337 273.864 440.956 273.864ZM446.901 275V266.2H448.341V267.88H448.645L448.341 268.216C448.341 267.523 448.549 266.989 448.965 266.616C449.381 266.232 449.957 266.04 450.693 266.04C451.579 266.04 452.283 266.312 452.805 266.856C453.328 267.4 453.589 268.141 453.589 269.08V275H452.149V269.24C452.149 268.611 451.979 268.131 451.637 267.8C451.307 267.459 450.853 267.288 450.277 267.288C449.68 267.288 449.205 267.469 448.853 267.832C448.512 268.195 448.341 268.717 448.341 269.4V275H446.901ZM456.943 270.36V269.08H462.063V270.36H456.943ZM468.265 275.16C467.39 275.16 466.681 274.867 466.137 274.28C465.604 273.693 465.337 272.899 465.337 271.896V269.32C465.337 268.307 465.604 267.507 466.137 266.92C466.67 266.333 467.38 266.04 468.265 266.04C468.99 266.04 469.572 266.237 470.009 266.632C470.446 267.027 470.665 267.555 470.665 268.216L470.377 267.88H470.697L470.665 265.88V263.32H472.105V275H470.665V273.32H470.377L470.665 272.984C470.665 273.656 470.446 274.189 470.009 274.584C469.572 274.968 468.99 275.16 468.265 275.16ZM468.745 273.912C469.342 273.912 469.812 273.725 470.153 273.352C470.494 272.979 470.665 272.461 470.665 271.8V269.4C470.665 268.739 470.494 268.221 470.153 267.848C469.812 267.475 469.342 267.288 468.745 267.288C468.137 267.288 467.657 267.469 467.305 267.832C466.953 268.195 466.777 268.717 466.777 269.4V271.8C466.777 272.483 466.953 273.005 467.305 273.368C467.657 273.731 468.137 273.912 468.745 273.912ZM478.051 275.16C477.357 275.16 476.749 275.021 476.227 274.744C475.715 274.467 475.315 274.077 475.027 273.576C474.749 273.064 474.611 272.472 474.611 271.8V269.4C474.611 268.717 474.749 268.125 475.027 267.624C475.315 267.123 475.715 266.733 476.227 266.456C476.749 266.179 477.357 266.04 478.051 266.04C478.744 266.04 479.347 266.179 479.859 266.456C480.381 266.733 480.781 267.123 481.059 267.624C481.347 268.125 481.491 268.717 481.491 269.4V270.952H476.019V271.8C476.019 272.493 476.195 273.027 476.547 273.4C476.899 273.763 477.4 273.944 478.051 273.944C478.605 273.944 479.053 273.848 479.395 273.656C479.736 273.453 479.944 273.155 480.019 272.76H481.459C481.363 273.496 481 274.083 480.371 274.52C479.752 274.947 478.979 275.16 478.051 275.16ZM480.083 269.992V269.4C480.083 268.707 479.907 268.173 479.555 267.8C479.213 267.427 478.712 267.24 478.051 267.24C477.4 267.24 476.899 267.427 476.547 267.8C476.195 268.173 476.019 268.707 476.019 269.4V269.864H480.195L480.083 269.992ZM483.58 275V266.2H484.844V267.256H485.132L484.908 267.64C484.908 267.149 485.036 266.76 485.292 266.472C485.559 266.184 485.916 266.04 486.364 266.04C486.855 266.04 487.234 266.221 487.5 266.584C487.767 266.947 487.9 267.459 487.9 268.12L487.468 267.256H488.14L487.836 267.64C487.836 267.149 487.97 266.76 488.236 266.472C488.514 266.184 488.876 266.04 489.324 266.04C489.879 266.04 490.306 266.248 490.604 266.664C490.914 267.08 491.068 267.629 491.068 268.312V275H489.74V268.296C489.74 267.933 489.66 267.651 489.5 267.448C489.351 267.245 489.127 267.144 488.828 267.144C488.54 267.144 488.311 267.245 488.14 267.448C487.98 267.64 487.9 267.917 487.9 268.28V275H486.748V268.296C486.748 267.923 486.663 267.64 486.492 267.448C486.332 267.245 486.103 267.144 485.804 267.144C485.506 267.144 485.282 267.245 485.132 267.448C484.983 267.64 484.908 267.917 484.908 268.28V275H483.58ZM495.83 275.16C494.902 275.16 494.171 274.925 493.638 274.456C493.105 273.976 492.838 273.331 492.838 272.52C492.838 271.699 493.105 271.053 493.638 270.584C494.171 270.115 494.891 269.88 495.798 269.88H498.518V269C498.518 268.456 498.353 268.04 498.022 267.752C497.702 267.453 497.243 267.304 496.646 267.304C496.123 267.304 495.686 267.416 495.334 267.64C494.982 267.853 494.779 268.147 494.726 268.52H493.286C493.382 267.763 493.739 267.16 494.358 266.712C494.977 266.264 495.75 266.04 496.678 266.04C497.691 266.04 498.491 266.301 499.078 266.824C499.665 267.347 499.958 268.056 499.958 268.952V275H498.55V273.32H498.31L498.55 273.08C498.55 273.72 498.299 274.227 497.798 274.6C497.307 274.973 496.651 275.16 495.83 275.16ZM496.182 274.024C496.865 274.024 497.425 273.853 497.862 273.512C498.299 273.171 498.518 272.733 498.518 272.2V270.952H495.83C495.35 270.952 494.971 271.085 494.694 271.352C494.417 271.619 494.278 271.981 494.278 272.44C494.278 272.931 494.443 273.32 494.774 273.608C495.115 273.885 495.585 274.024 496.182 274.024ZM502.544 275V266.2H503.984V267.88H504.288L503.984 268.216C503.984 267.523 504.192 266.989 504.608 266.616C505.024 266.232 505.6 266.04 506.336 266.04C507.221 266.04 507.925 266.312 508.448 266.856C508.971 267.4 509.232 268.141 509.232 269.08V275H507.792V269.24C507.792 268.611 507.621 268.131 507.28 267.8C506.949 267.459 506.496 267.288 505.92 267.288C505.323 267.288 504.848 267.469 504.496 267.832C504.155 268.195 503.984 268.717 503.984 269.4V275H502.544ZM514.634 275.16C513.759 275.16 513.05 274.867 512.506 274.28C511.972 273.693 511.706 272.899 511.706 271.896V269.32C511.706 268.307 511.972 267.507 512.506 266.92C513.039 266.333 513.748 266.04 514.634 266.04C515.359 266.04 515.94 266.237 516.378 266.632C516.815 267.027 517.034 267.555 517.034 268.216L516.746 267.88H517.066L517.034 265.88V263.32H518.474V275H517.034V273.32H516.746L517.034 272.984C517.034 273.656 516.815 274.189 516.378 274.584C515.94 274.968 515.359 275.16 514.634 275.16ZM515.114 273.912C515.711 273.912 516.18 273.725 516.522 273.352C516.863 272.979 517.034 272.461 517.034 271.8V269.4C517.034 268.739 516.863 268.221 516.522 267.848C516.18 267.475 515.711 267.288 515.114 267.288C514.506 267.288 514.026 267.469 513.674 267.832C513.322 268.195 513.146 268.717 513.146 269.4V271.8C513.146 272.483 513.322 273.005 513.674 273.368C514.026 273.731 514.506 273.912 515.114 273.912Z" fill="white"/>
<defs>
<linearGradient id="paint0_linear_8670_3755" x1="47.2618" y1="67" x2="47.2618" y2="211.153" gradientUnits="userSpaceOnUse">
<stop stop-color="white"/>
<stop offset="1" stop-color="white" stop-opacity="0"/>
</linearGradient>
<linearGradient id="paint1_linear_8670_3755" x1="301.056" y1="67" x2="301.056" y2="211.153" gradientUnits="userSpaceOnUse">
<stop stop-color="white"/>
<stop offset="1" stop-color="white" stop-opacity="0"/>
</linearGradient>
<linearGradient id="paint2_linear_8670_3755" x1="554.851" y1="67" x2="554.851" y2="211.153" gradientUnits="userSpaceOnUse">
<stop stop-color="white"/>
<stop offset="1" stop-color="white" stop-opacity="0"/>
</linearGradient>
<clipPath id="clip0_8670_3755">
<rect width="24" height="24" fill="white" transform="matrix(0 1 -1 0 248 28)"/>
</clipPath>
<clipPath id="clip1_8670_3755">
<rect width="24" height="24" fill="white" transform="matrix(0 1 1 0 400 0)"/>
</clipPath>
<clipPath id="clip2_8670_3755">
<rect width="24" height="24" fill="white" transform="matrix(0 1 1 0 369 235)"/>
</clipPath>
</defs>
</svg>
