<svg width="493" height="326" viewBox="0 0 493 326" fill="none" xmlns="http://www.w3.org/2000/svg">
<g clip-path="url(#clip0_8670_4008)">
<rect x="105" y="66.0024" width="288" height="272.552" rx="13.2414" fill="#F95341"/>
<path d="M114.731 312.338H115.901V308.133L114.499 308.808V308.085L115.893 307.421H116.646V312.338H117.802V312.968H114.731V312.338ZM118.842 307.403H122.345V307.723L120.355 312.968H119.569L121.507 308.036H118.842V307.403Z" fill="white"/>
<path d="M114.731 286.165H115.901V281.961L114.499 282.636V281.913L115.893 281.249H116.646V286.165H117.802V286.795H114.731V286.165ZM119.095 281.23H121.913V281.864H119.781V283.232C119.888 283.192 119.995 283.164 120.102 283.146C120.211 283.126 120.32 283.117 120.43 283.117C121.006 283.117 121.463 283.287 121.801 283.627C122.139 283.968 122.308 284.429 122.308 285.01C122.308 285.596 122.131 286.059 121.775 286.397C121.422 286.735 120.939 286.904 120.325 286.904C120.03 286.904 119.759 286.884 119.513 286.844C119.269 286.804 119.051 286.744 118.857 286.665V285.901C119.085 286.025 119.315 286.118 119.546 286.18C119.777 286.24 120.013 286.27 120.254 286.27C120.669 286.27 120.989 286.161 121.212 285.942C121.439 285.723 121.552 285.413 121.552 285.01C121.552 284.612 121.435 284.303 121.201 284.082C120.97 283.861 120.647 283.75 120.232 283.75C120.031 283.75 119.834 283.774 119.643 283.821C119.452 283.866 119.269 283.934 119.095 284.026V281.23Z" fill="white"/>
<path d="M114.73 273.079H115.9V268.875L114.499 269.549V268.826L115.893 268.163H116.646V273.079H117.801V273.709H114.73V273.079ZM121.063 268.83L119.307 271.771H121.063V268.83ZM120.94 268.144H121.812V271.771H122.554V272.382H121.812V273.709H121.063V272.382H118.703V271.67L120.94 268.144Z" fill="white"/>
<path d="M114.73 259.993H115.9V255.789L114.499 256.463V255.74L115.893 255.077H116.646V259.993H117.801V260.623H114.73V259.993ZM121.216 257.645C121.581 257.742 121.86 257.915 122.054 258.163C122.248 258.409 122.345 258.717 122.345 259.087C122.345 259.599 122.172 260.002 121.827 260.295C121.484 260.586 121.008 260.731 120.399 260.731C120.143 260.731 119.882 260.708 119.617 260.66C119.351 260.613 119.09 260.545 118.834 260.455V259.706C119.087 259.838 119.337 259.936 119.583 260.001C119.829 260.065 120.074 260.097 120.317 260.097C120.73 260.097 121.047 260.004 121.268 259.818C121.489 259.632 121.6 259.363 121.6 259.013C121.6 258.69 121.489 258.434 121.268 258.245C121.047 258.054 120.747 257.958 120.37 257.958H119.795V257.339H120.37C120.715 257.339 120.985 257.263 121.178 257.112C121.372 256.96 121.469 256.749 121.469 256.478C121.469 256.192 121.378 255.974 121.197 255.822C121.018 255.668 120.762 255.591 120.429 255.591C120.208 255.591 119.979 255.616 119.743 255.666C119.507 255.715 119.26 255.79 119.002 255.889V255.196C119.302 255.117 119.569 255.057 119.803 255.017C120.039 254.977 120.248 254.957 120.429 254.957C120.971 254.957 121.403 255.094 121.726 255.367C122.052 255.638 122.215 255.999 122.215 256.448C122.215 256.754 122.129 257.009 121.957 257.213C121.788 257.416 121.541 257.56 121.216 257.645Z" fill="white"/>
<path d="M114.731 299.252H115.901V295.047L114.499 295.722V294.999L115.893 294.336H116.646V299.252H117.802V299.882H114.731V299.252ZM122.017 294.44V295.133C121.861 295.041 121.694 294.972 121.518 294.924C121.342 294.875 121.158 294.85 120.966 294.85C120.489 294.85 120.128 295.03 119.882 295.39C119.636 295.748 119.513 296.276 119.513 296.974C119.632 296.726 119.797 296.536 120.008 296.404C120.22 296.27 120.462 296.203 120.735 296.203C121.272 296.203 121.687 296.368 121.98 296.699C122.276 297.027 122.424 297.493 122.424 298.096C122.424 298.698 122.272 299.164 121.969 299.494C121.666 299.825 121.24 299.99 120.691 299.99C120.044 299.99 119.571 299.759 119.27 299.297C118.97 298.832 118.819 298.101 118.819 297.105C118.819 296.166 119 295.45 119.36 294.958C119.723 294.464 120.247 294.216 120.933 294.216C121.117 294.216 121.301 294.236 121.484 294.276C121.668 294.313 121.846 294.368 122.017 294.44ZM120.676 296.792C120.355 296.792 120.103 296.907 119.919 297.139C119.735 297.37 119.643 297.689 119.643 298.096C119.643 298.504 119.735 298.823 119.919 299.054C120.103 299.285 120.355 299.401 120.676 299.401C121.009 299.401 121.26 299.292 121.429 299.073C121.598 298.852 121.682 298.526 121.682 298.096C121.682 297.664 121.598 297.339 121.429 297.12C121.26 296.901 121.009 296.792 120.676 296.792Z" fill="white"/>
<path d="M114.731 233.821H115.901V229.616L114.499 230.291V229.568L115.893 228.904H116.646V233.821H117.802V234.451H114.731V233.821ZM119.33 233.821H120.5V229.616L119.099 230.291V229.568L120.493 228.904H121.246V233.821H122.401V234.451H119.33V233.821Z" fill="white"/>
<path d="M114.73 220.735H115.9V216.53L114.499 217.205V216.482L115.893 215.818H116.646V220.735H117.801V221.365H114.73V220.735ZM120.619 215.718C121.213 215.718 121.662 215.96 121.965 216.445C122.27 216.929 122.423 217.646 122.423 218.595C122.423 219.545 122.27 220.261 121.965 220.746C121.662 221.231 121.213 221.473 120.619 221.473C120.025 221.473 119.577 221.231 119.274 220.746C118.971 220.261 118.819 219.545 118.819 218.595C118.819 217.646 118.971 216.929 119.274 216.445C119.577 215.96 120.025 215.718 120.619 215.718ZM120.619 220.876C120.972 220.876 121.234 220.689 121.406 220.314C121.58 219.938 121.667 219.366 121.667 218.595C121.667 218.185 121.642 217.815 121.592 217.485L119.818 220.261C120.004 220.671 120.271 220.876 120.619 220.876ZM120.619 216.314C120.269 216.314 120.007 216.502 119.833 216.877C119.661 217.252 119.576 217.825 119.576 218.595C119.576 218.946 119.599 219.274 119.646 219.579L121.383 216.81C121.194 216.479 120.94 216.314 120.619 216.314Z" fill="white"/>
<path d="M114.731 246.907H115.901V242.703L114.499 243.377V242.654L115.893 241.991H116.646V246.907H117.802V247.537H114.731V246.907ZM119.714 246.903H122.271V247.537H118.89V246.903C119.355 246.414 119.761 245.982 120.109 245.606C120.457 245.231 120.697 244.966 120.828 244.812C121.077 244.509 121.245 244.264 121.332 244.078C121.419 243.889 121.462 243.697 121.462 243.5C121.462 243.19 121.37 242.946 121.186 242.77C121.005 242.593 120.755 242.505 120.437 242.505C120.211 242.505 119.974 242.546 119.725 242.628C119.477 242.71 119.213 242.834 118.935 243.001V242.241C119.191 242.119 119.442 242.027 119.688 241.965C119.936 241.903 120.181 241.872 120.422 241.872C120.966 241.872 121.404 242.017 121.734 242.308C122.067 242.596 122.234 242.975 122.234 243.444C122.234 243.683 122.178 243.922 122.066 244.16C121.957 244.399 121.778 244.662 121.529 244.95C121.39 245.112 121.188 245.335 120.922 245.621C120.658 245.907 120.256 246.334 119.714 246.903Z" fill="white"/>
<path d="M120.087 205.811C120.407 205.811 120.658 205.695 120.84 205.464C121.024 205.233 121.115 204.914 121.115 204.506C121.115 204.099 121.024 203.779 120.84 203.548C120.658 203.317 120.407 203.202 120.087 203.202C119.754 203.202 119.503 203.312 119.334 203.533C119.165 203.752 119.08 204.076 119.08 204.506C119.08 204.939 119.164 205.264 119.33 205.483C119.499 205.701 119.751 205.811 120.087 205.811ZM118.745 208.163V207.469C118.901 207.561 119.068 207.632 119.244 207.682C119.421 207.729 119.605 207.753 119.796 207.753C120.273 207.753 120.633 207.574 120.877 207.216C121.123 206.856 121.246 206.326 121.246 205.628C121.129 205.877 120.965 206.068 120.754 206.202C120.543 206.334 120.3 206.4 120.027 206.4C119.49 206.4 119.074 206.234 118.778 205.904C118.485 205.574 118.339 205.105 118.339 204.499C118.339 203.9 118.489 203.436 118.79 203.108C119.093 202.778 119.52 202.613 120.072 202.613C120.718 202.613 121.191 202.845 121.492 203.31C121.793 203.774 121.943 204.505 121.943 205.501C121.943 206.438 121.762 207.154 121.399 207.648C121.038 208.14 120.514 208.386 119.826 208.386C119.644 208.386 119.462 208.367 119.278 208.327C119.094 208.29 118.916 208.235 118.745 208.163Z" fill="white"/>
<path d="M120.161 192.549C119.826 192.549 119.566 192.644 119.382 192.833C119.201 193.019 119.11 193.284 119.11 193.627C119.11 193.97 119.202 194.237 119.386 194.428C119.572 194.617 119.831 194.711 120.161 194.711C120.499 194.711 120.759 194.618 120.94 194.432C121.124 194.243 121.216 193.975 121.216 193.627C121.216 193.286 121.123 193.022 120.937 192.833C120.753 192.644 120.494 192.549 120.161 192.549ZM119.505 192.236C119.185 192.154 118.934 192.002 118.752 191.778C118.573 191.554 118.484 191.285 118.484 190.969C118.484 190.527 118.634 190.176 118.935 189.918C119.236 189.657 119.644 189.527 120.161 189.527C120.681 189.527 121.091 189.657 121.391 189.918C121.692 190.176 121.842 190.527 121.842 190.969C121.842 191.285 121.752 191.554 121.57 191.778C121.391 192.002 121.142 192.154 120.821 192.236C121.194 192.318 121.478 192.484 121.675 192.732C121.873 192.981 121.973 193.302 121.973 193.697C121.973 194.199 121.813 194.592 121.492 194.875C121.171 195.159 120.728 195.3 120.161 195.3C119.595 195.3 119.151 195.16 118.831 194.879C118.513 194.596 118.354 194.204 118.354 193.705C118.354 193.307 118.452 192.984 118.648 192.736C118.847 192.485 119.133 192.318 119.505 192.236ZM119.233 191.04C119.233 191.338 119.313 191.565 119.472 191.722C119.631 191.879 119.861 191.957 120.161 191.957C120.464 191.957 120.696 191.879 120.855 191.722C121.014 191.565 121.093 191.338 121.093 191.04C121.093 190.737 121.014 190.506 120.855 190.347C120.698 190.188 120.467 190.108 120.161 190.108C119.861 190.108 119.631 190.189 119.472 190.35C119.313 190.509 119.233 190.739 119.233 191.04Z" fill="white"/>
<path d="M118.383 176.541H121.887V176.862L119.897 182.106H119.11L121.048 177.175H118.383V176.541Z" fill="white"/>
<path d="M121.559 163.578V164.271C121.402 164.179 121.236 164.109 121.06 164.062C120.883 164.012 120.699 163.988 120.508 163.988C120.031 163.988 119.669 164.168 119.423 164.528C119.177 164.886 119.054 165.414 119.054 166.112C119.174 165.864 119.339 165.674 119.55 165.542C119.761 165.408 120.003 165.341 120.277 165.341C120.814 165.341 121.229 165.506 121.522 165.836C121.817 166.164 121.965 166.63 121.965 167.234C121.965 167.835 121.814 168.301 121.511 168.632C121.207 168.962 120.781 169.128 120.232 169.128C119.586 169.128 119.113 168.897 118.812 168.434C118.511 167.97 118.361 167.239 118.361 166.243C118.361 165.303 118.541 164.588 118.901 164.096C119.264 163.601 119.789 163.354 120.474 163.354C120.658 163.354 120.842 163.374 121.026 163.414C121.21 163.451 121.388 163.506 121.559 163.578ZM120.217 165.93C119.897 165.93 119.644 166.045 119.461 166.276C119.277 166.507 119.185 166.827 119.185 167.234C119.185 167.642 119.277 167.961 119.461 168.192C119.644 168.423 119.897 168.539 120.217 168.539C120.55 168.539 120.801 168.429 120.97 168.211C121.139 167.99 121.224 167.664 121.224 167.234C121.224 166.802 121.139 166.476 120.97 166.258C120.801 166.039 120.55 165.93 120.217 165.93Z" fill="white"/>
<path d="M118.637 150.368H121.455V151.002H119.323V152.37C119.429 152.33 119.536 152.302 119.643 152.284C119.753 152.264 119.862 152.254 119.971 152.254C120.548 152.254 121.005 152.425 121.343 152.765C121.681 153.106 121.85 153.566 121.85 154.148C121.85 154.734 121.672 155.197 121.317 155.535C120.964 155.872 120.481 156.041 119.867 156.041C119.571 156.041 119.3 156.022 119.054 155.982C118.811 155.942 118.592 155.882 118.398 155.803V155.039C118.627 155.163 118.857 155.256 119.088 155.318C119.319 155.378 119.555 155.408 119.796 155.408C120.211 155.408 120.53 155.298 120.754 155.08C120.98 154.861 121.093 154.551 121.093 154.148C121.093 153.75 120.976 153.441 120.743 153.22C120.512 152.999 120.189 152.888 119.774 152.888C119.572 152.888 119.376 152.912 119.185 152.959C118.993 153.004 118.811 153.072 118.637 153.164V150.368Z" fill="white"/>
<path d="M120.758 126.783C121.123 126.88 121.402 127.053 121.596 127.301C121.79 127.547 121.887 127.855 121.887 128.226C121.887 128.737 121.714 129.14 121.369 129.433C121.026 129.724 120.55 129.869 119.941 129.869C119.685 129.869 119.425 129.846 119.159 129.799C118.893 129.751 118.632 129.683 118.376 129.593V128.844C118.629 128.976 118.879 129.074 119.125 129.139C119.371 129.203 119.616 129.236 119.859 129.236C120.272 129.236 120.589 129.142 120.81 128.956C121.031 128.77 121.142 128.501 121.142 128.151C121.142 127.828 121.031 127.572 120.81 127.383C120.589 127.192 120.289 127.096 119.912 127.096H119.338V126.477H119.912C120.257 126.477 120.527 126.402 120.72 126.25C120.914 126.098 121.011 125.887 121.011 125.616C121.011 125.331 120.92 125.112 120.739 124.96C120.56 124.806 120.304 124.729 119.971 124.729C119.75 124.729 119.521 124.754 119.285 124.804C119.049 124.854 118.802 124.928 118.544 125.027V124.334C118.844 124.255 119.111 124.195 119.345 124.155C119.581 124.116 119.79 124.096 119.971 124.096C120.513 124.096 120.945 124.232 121.268 124.506C121.594 124.777 121.757 125.137 121.757 125.587C121.757 125.892 121.671 126.147 121.499 126.351C121.33 126.554 121.083 126.699 120.758 126.783Z" fill="white"/>
<path d="M120.604 137.968L118.848 140.909H120.604V137.968ZM120.481 137.282H121.353V140.909H122.095V141.52H121.353V142.847H120.604V141.52H118.244V140.808L120.481 137.282Z" fill="white"/>
<path d="M119.255 116.041H121.812V116.675H118.431V116.041C118.895 115.552 119.302 115.119 119.65 114.744C119.998 114.369 120.237 114.104 120.369 113.95C120.618 113.647 120.785 113.402 120.872 113.216C120.959 113.027 121.003 112.834 121.003 112.638C121.003 112.327 120.911 112.084 120.727 111.908C120.545 111.731 120.296 111.643 119.978 111.643C119.752 111.643 119.514 111.684 119.266 111.766C119.017 111.848 118.754 111.972 118.476 112.139V111.378C118.731 111.256 118.982 111.165 119.228 111.102C119.477 111.04 119.722 111.009 119.963 111.009C120.507 111.009 120.944 111.155 121.275 111.445C121.608 111.734 121.774 112.113 121.774 112.582C121.774 112.821 121.718 113.059 121.607 113.298C121.497 113.536 121.318 113.8 121.07 114.088C120.931 114.25 120.728 114.473 120.462 114.759C120.199 115.045 119.796 115.472 119.255 116.041Z" fill="white"/>
<path d="M118.872 102.959H120.042V98.7542L118.641 99.4289V98.7058L120.035 98.0423H120.787V102.959H121.943V103.589H118.872V102.959Z" fill="white"/>
<path d="M120 79.5024C120 80.3309 119.328 81.0024 118.5 81.0024C117.672 81.0024 117 80.3309 117 79.5024C117 78.674 117.672 78.0024 118.5 78.0024C119.328 78.0024 120 78.674 120 79.5024Z" fill="white" stroke="white" stroke-width="0.551724"/>
<path d="M125.207 79.5024C125.207 80.3309 124.535 81.0024 123.707 81.0024C122.879 81.0024 122.207 80.3309 122.207 79.5024C122.207 78.674 122.879 78.0024 123.707 78.0024C124.535 78.0024 125.207 78.674 125.207 79.5024Z" fill="white" stroke="white" stroke-width="0.551724"/>
<path d="M130.414 79.5024C130.414 80.3309 129.742 81.0024 128.914 81.0024C128.085 81.0024 127.414 80.3309 127.414 79.5024C127.414 78.674 128.085 78.0024 128.914 78.0024C129.742 78.0024 130.414 78.674 130.414 79.5024Z" fill="white" stroke="white" stroke-width="0.551724"/>
<rect x="140" y="95.0024" width="158.55" height="12.4083" rx="6.20414" fill="white" fill-opacity="0.1"/>
<rect x="140.5" y="95.5024" width="157.55" height="11.4083" rx="5.70414" stroke="white" stroke-opacity="0.1"/>
<rect x="140" y="115.411" width="132.355" height="12.4083" rx="6.20414" fill="white" fill-opacity="0.1"/>
<rect x="140.5" y="115.911" width="131.355" height="11.4083" rx="5.70414" stroke="white" stroke-opacity="0.1"/>
<rect x="140" y="135.819" width="181.988" height="12.4083" rx="6.20414" fill="white" fill-opacity="0.1"/>
<rect x="140.5" y="136.319" width="180.988" height="11.4083" rx="5.70414" stroke="white" stroke-opacity="0.1"/>
<rect x="140" y="156.227" width="87" height="13" rx="6.5" fill="white" fill-opacity="0.1"/>
<rect x="140.5" y="156.727" width="86" height="12" rx="6" stroke="white" stroke-opacity="0.1"/>
<rect x="140" y="177.227" width="181.988" height="12.4083" rx="6.20414" fill="white" fill-opacity="0.1"/>
<rect x="140.5" y="177.727" width="180.988" height="11.4083" rx="5.70414" stroke="white" stroke-opacity="0.1"/>
<rect x="140" y="197.635" width="132.355" height="12.4083" rx="6.20414" fill="white" fill-opacity="0.1"/>
<rect x="140.5" y="198.135" width="131.355" height="11.4083" rx="5.70414" stroke="white" stroke-opacity="0.1"/>
<rect x="140" y="218.044" width="48" height="12" rx="6" fill="white" fill-opacity="0.1"/>
<rect x="140.5" y="218.544" width="47" height="11" rx="5.5" stroke="white" stroke-opacity="0.1"/>
<rect x="140" y="238.044" width="132.355" height="12.4083" rx="6.20414" fill="white" fill-opacity="0.1"/>
<rect x="140.5" y="238.544" width="131.355" height="11.4083" rx="5.70414" stroke="white" stroke-opacity="0.1"/>
</g>
<g clip-path="url(#clip1_8670_4008)">
<path d="M371.107 8.01202L350.935 0.0999587C349.816 -0.338843 348.715 0.779633 349.135 1.92866L356.478 22.0337C356.909 23.2127 358.512 23.2819 359.037 22.144L362.609 14.4167C362.762 14.0848 363.035 13.8264 363.37 13.6955L371.105 10.6723C372.298 10.2063 372.298 8.47945 371.107 8.01202Z" fill="#F95341"/>
</g>
<rect x="366" y="16.0024" width="62" height="36" rx="4" fill="#F95341"/>
<path d="M382.372 40.0024V29.6184H379.172V28.3064H387.012V29.6184H383.812V40.0024H382.372ZM388.926 40.0024V38.6904H392.046V32.5144H389.326V31.2024H393.486V38.6904H396.446V40.0024H388.926ZM392.606 29.6184C392.254 29.6184 391.977 29.5278 391.774 29.3464C391.572 29.1651 391.47 28.9198 391.47 28.6104C391.47 28.2904 391.572 28.0398 391.774 27.8584C391.977 27.6664 392.254 27.5704 392.606 27.5704C392.958 27.5704 393.236 27.6664 393.438 27.8584C393.641 28.0398 393.742 28.2904 393.742 28.6104C393.742 28.9198 393.641 29.1651 393.438 29.3464C393.236 29.5278 392.958 29.6184 392.606 29.6184ZM397.896 40.0024V31.2024H399.16V32.2584H399.448L399.224 32.6424C399.224 32.1518 399.352 31.7624 399.608 31.4744C399.875 31.1864 400.232 31.0424 400.68 31.0424C401.171 31.0424 401.549 31.2238 401.816 31.5864C402.083 31.9491 402.216 32.4611 402.216 33.1224L401.784 32.2584H402.456L402.152 32.6424C402.152 32.1518 402.285 31.7624 402.552 31.4744C402.829 31.1864 403.192 31.0424 403.64 31.0424C404.195 31.0424 404.621 31.2504 404.92 31.6664C405.229 32.0824 405.384 32.6318 405.384 33.3144V40.0024H404.056V33.2984C404.056 32.9358 403.976 32.6531 403.816 32.4504C403.667 32.2478 403.443 32.1464 403.144 32.1464C402.856 32.1464 402.627 32.2478 402.456 32.4504C402.296 32.6424 402.216 32.9198 402.216 33.2824V40.0024H401.064V33.2984C401.064 32.9251 400.979 32.6424 400.808 32.4504C400.648 32.2478 400.419 32.1464 400.12 32.1464C399.821 32.1464 399.597 32.2478 399.448 32.4504C399.299 32.6424 399.224 32.9198 399.224 33.2824V40.0024H397.896ZM410.914 40.1624C410.22 40.1624 409.612 40.0238 409.09 39.7464C408.578 39.4691 408.178 39.0798 407.89 38.5784C407.612 38.0664 407.474 37.4744 407.474 36.8024V34.4024C407.474 33.7198 407.612 33.1278 407.89 32.6264C408.178 32.1251 408.578 31.7358 409.09 31.4584C409.612 31.1811 410.22 31.0424 410.914 31.0424C411.607 31.0424 412.21 31.1811 412.722 31.4584C413.244 31.7358 413.644 32.1251 413.922 32.6264C414.21 33.1278 414.354 33.7198 414.354 34.4024V35.9544H408.882V36.8024C408.882 37.4958 409.058 38.0291 409.41 38.4024C409.762 38.7651 410.263 38.9464 410.914 38.9464C411.468 38.9464 411.916 38.8504 412.258 38.6584C412.599 38.4558 412.807 38.1571 412.882 37.7624H414.322C414.226 38.4984 413.863 39.0851 413.234 39.5224C412.615 39.9491 411.842 40.1624 410.914 40.1624ZM412.946 34.9944V34.4024C412.946 33.7091 412.77 33.1758 412.418 32.8024C412.076 32.4291 411.575 32.2424 410.914 32.2424C410.263 32.2424 409.762 32.4291 409.41 32.8024C409.058 33.1758 408.882 33.7091 408.882 34.4024V34.8664H413.058L412.946 34.9944Z" fill="white"/>
<g clip-path="url(#clip2_8670_4008)">
<path d="M56.8933 160.012L77.0653 152.1C78.184 151.661 79.2849 152.78 78.8653 153.929L71.5221 174.034C71.0915 175.213 69.4884 175.282 68.9626 174.144L65.391 166.417C65.2376 166.085 64.9649 165.826 64.6298 165.695L56.8948 162.672C55.7025 162.206 55.7015 160.479 56.8933 160.012Z" fill="#7843FF"/>
</g>
<rect width="62" height="36" rx="4" transform="matrix(-1 0 0 1 62 168.002)" fill="#7843FF"/>
<path d="M13.7645 192.002V180.322H16.7885C17.5458 180.322 18.1965 180.466 18.7405 180.754C19.2952 181.042 19.7218 181.448 20.0205 181.97C20.3298 182.493 20.4845 183.112 20.4845 183.826V188.482C20.4845 189.197 20.3298 189.821 20.0205 190.354C19.7218 190.877 19.2952 191.282 18.7405 191.57C18.1965 191.858 17.5458 192.002 16.7885 192.002H13.7645ZM15.2045 190.722H16.7885C17.4925 190.722 18.0418 190.525 18.4365 190.13C18.8418 189.736 19.0445 189.186 19.0445 188.482V183.826C19.0445 183.133 18.8418 182.589 18.4365 182.194C18.0418 181.8 17.4925 181.602 16.7885 181.602H15.2045V190.722ZM25.5982 192.162C24.6702 192.162 23.9396 191.928 23.4062 191.458C22.8729 190.978 22.6062 190.333 22.6062 189.522C22.6062 188.701 22.8729 188.056 23.4062 187.586C23.9396 187.117 24.6596 186.882 25.5662 186.882H28.2863V186.002C28.2863 185.458 28.1209 185.042 27.7903 184.754C27.4703 184.456 27.0116 184.306 26.4142 184.306C25.8916 184.306 25.4543 184.418 25.1023 184.642C24.7503 184.856 24.5476 185.149 24.4943 185.522H23.0542C23.1502 184.765 23.5076 184.162 24.1263 183.714C24.7449 183.266 25.5182 183.042 26.4462 183.042C27.4596 183.042 28.2596 183.304 28.8463 183.826C29.4329 184.349 29.7263 185.058 29.7263 185.954V192.002H28.3183V190.322H28.0782L28.3183 190.082C28.3183 190.722 28.0676 191.229 27.5663 191.602C27.0756 191.976 26.4196 192.162 25.5982 192.162ZM25.9503 191.026C26.6329 191.026 27.1929 190.856 27.6302 190.514C28.0676 190.173 28.2863 189.736 28.2863 189.202V187.954H25.5982C25.1183 187.954 24.7396 188.088 24.4622 188.354C24.1849 188.621 24.0462 188.984 24.0462 189.442C24.0462 189.933 24.2116 190.322 24.5422 190.61C24.8836 190.888 25.3529 191.026 25.9503 191.026ZM36.6 192.002C35.8427 192.002 35.2507 191.8 34.824 191.394C34.408 190.989 34.2 190.418 34.2 189.682V184.514H31.72V183.202H34.2V180.722H35.64V183.202H39.16V184.514H35.64V189.682C35.64 190.354 35.96 190.69 36.6 190.69H39V192.002H36.6ZM44.9138 192.162C44.2204 192.162 43.6124 192.024 43.0898 191.746C42.5778 191.469 42.1778 191.08 41.8898 190.578C41.6124 190.066 41.4738 189.474 41.4738 188.802V186.402C41.4738 185.72 41.6124 185.128 41.8898 184.626C42.1778 184.125 42.5778 183.736 43.0898 183.458C43.6124 183.181 44.2204 183.042 44.9138 183.042C45.6071 183.042 46.2098 183.181 46.7218 183.458C47.2444 183.736 47.6444 184.125 47.9218 184.626C48.2098 185.128 48.3538 185.72 48.3538 186.402V187.954H42.8818V188.802C42.8818 189.496 43.0578 190.029 43.4098 190.402C43.7618 190.765 44.2631 190.946 44.9138 190.946C45.4684 190.946 45.9164 190.85 46.2578 190.658C46.5991 190.456 46.8071 190.157 46.8818 189.762H48.3218C48.2258 190.498 47.8631 191.085 47.2338 191.522C46.6151 191.949 45.8418 192.162 44.9138 192.162ZM46.9458 186.994V186.402C46.9458 185.709 46.7698 185.176 46.4178 184.802C46.0764 184.429 45.5751 184.242 44.9138 184.242C44.2631 184.242 43.7618 184.429 43.4098 184.802C43.0578 185.176 42.8818 185.709 42.8818 186.402V186.866H47.0578L46.9458 186.994Z" fill="white"/>
<defs>
<clipPath id="clip0_8670_4008">
<rect x="105" y="66.0024" width="288" height="272.552" rx="13.2414" fill="white"/>
</clipPath>
<clipPath id="clip1_8670_4008">
<rect width="24" height="24" fill="white" transform="matrix(0 1 1 0 348 0.00244141)"/>
</clipPath>
<clipPath id="clip2_8670_4008">
<rect width="24" height="24" fill="white" transform="matrix(0 1 -1 0 80 152.002)"/>
</clipPath>
</defs>
</svg>
