<svg width="466" height="287" viewBox="0 0 466 287" fill="none" xmlns="http://www.w3.org/2000/svg">
<rect x="77" y="66.0024" width="271.323" height="165.362" rx="25.6873" fill="#1B1A20"/>
<rect x="77" y="66.0024" width="271.323" height="165.362" rx="19.2655" fill="#7843FF"/>
<rect x="77.5736" y="66.576" width="270.175" height="164.215" rx="18.6919" stroke="url(#paint0_linear_8670_4172)" stroke-opacity="0.06" stroke-width="1.14713"/>
<rect x="163.695" y="94.9009" width="97.933" height="24.0819" rx="12.0409" fill="white" fill-opacity="0.1"/>
<rect x="164.268" y="95.4744" width="96.7859" height="22.9348" rx="11.4674" stroke="white" stroke-opacity="0.1" stroke-width="1.14713"/>
<rect x="120.347" y="138.248" width="184.628" height="14.4491" rx="7.22457" fill="white" fill-opacity="0.1"/>
<rect x="120.921" y="138.822" width="183.481" height="13.302" rx="6.651" stroke="white" stroke-opacity="0.1" stroke-width="1.14713"/>
<rect x="136.402" y="163.936" width="154.124" height="14.4491" rx="7.22457" fill="white" fill-opacity="0.1"/>
<rect x="136.975" y="164.509" width="152.977" height="13.302" rx="6.651" stroke="white" stroke-opacity="0.1" stroke-width="1.14713"/>
<rect x="105.898" y="188.017" width="211.921" height="14.4491" rx="7.22457" fill="white" fill-opacity="0.1"/>
<rect x="106.472" y="188.591" width="210.773" height="13.302" rx="6.651" stroke="white" stroke-opacity="0.1" stroke-width="1.14713"/>
<g clip-path="url(#clip0_8670_4172)">
<path d="M130.893 36.012L151.065 28.1C152.184 27.6612 153.285 28.7796 152.865 29.9287L145.522 50.0337C145.091 51.2127 143.488 51.2819 142.963 50.144L139.391 42.4167C139.238 42.0848 138.965 41.8264 138.63 41.6955L130.895 38.6723C129.702 38.2063 129.702 36.4795 130.893 36.012Z" fill="#0AC655"/>
</g>
<rect width="136" height="36" rx="4" transform="matrix(-1 0 0 1 136 44.0024)" fill="#0AC655"/>
<path d="M16.2775 68.0024V63.6344L12.7575 56.3224H14.2455L16.5655 61.1224C16.6935 61.3891 16.7948 61.6184 16.8695 61.8104C16.9442 61.9918 16.9922 62.1251 17.0135 62.2104C17.0348 62.1251 17.0828 61.9918 17.1575 61.8104C17.2428 61.6184 17.3495 61.3891 17.4775 61.1224L19.7495 56.3224H21.2375L17.7175 63.6344V68.0024H16.2775ZM26.2712 68.1304C25.5672 68.1304 24.9592 67.9971 24.4472 67.7304C23.9352 67.4638 23.5352 67.0798 23.2472 66.5784C22.9699 66.0664 22.8312 65.4638 22.8312 64.7704V62.4344C22.8312 61.7304 22.9699 61.1278 23.2472 60.6264C23.5352 60.1251 23.9352 59.7411 24.4472 59.4744C24.9592 59.2078 25.5672 59.0744 26.2712 59.0744C26.9752 59.0744 27.5832 59.2078 28.0952 59.4744C28.6072 59.7411 29.0019 60.1251 29.2792 60.6264C29.5672 61.1278 29.7112 61.7251 29.7112 62.4184V64.7704C29.7112 65.4638 29.5672 66.0664 29.2792 66.5784C29.0019 67.0798 28.6072 67.4638 28.0952 67.7304C27.5832 67.9971 26.9752 68.1304 26.2712 68.1304ZM26.2712 66.8504C26.9006 66.8504 27.3912 66.6744 27.7432 66.3224C28.0952 65.9704 28.2712 65.4531 28.2712 64.7704V62.4344C28.2712 61.7518 28.0952 61.2344 27.7432 60.8824C27.3912 60.5304 26.9006 60.3544 26.2712 60.3544C25.6526 60.3544 25.1619 60.5304 24.7992 60.8824C24.4472 61.2344 24.2712 61.7518 24.2712 62.4344V64.7704C24.2712 65.4531 24.4472 65.9704 24.7992 66.3224C25.1619 66.6744 25.6526 66.8504 26.2712 66.8504ZM35.529 68.1624C34.5157 68.1624 33.705 67.8638 33.097 67.2664C32.489 66.6584 32.185 65.8371 32.185 64.8024V59.2024H33.625V64.8024C33.625 65.4638 33.7957 65.9811 34.137 66.3544C34.4783 66.7171 34.9423 66.8984 35.529 66.8984C36.1263 66.8984 36.5957 66.7171 36.937 66.3544C37.289 65.9811 37.465 65.4638 37.465 64.8024V59.2024H38.905V64.8024C38.905 65.8371 38.5957 66.6584 37.977 67.2664C37.3583 67.8638 36.5423 68.1624 35.529 68.1624ZM41.7947 68.0024V59.2024H43.2027V60.8824H43.5387L43.0747 61.9224C43.0747 60.9731 43.2774 60.2584 43.6827 59.7784C44.0987 59.2878 44.7121 59.0424 45.5227 59.0424C46.4507 59.0424 47.1867 59.3358 47.7307 59.9224C48.2854 60.4984 48.5627 61.2824 48.5627 62.2744V62.8024H47.1227V62.4024C47.1227 61.7091 46.9521 61.1811 46.6107 60.8184C46.2801 60.4451 45.8054 60.2584 45.1867 60.2584C44.5787 60.2584 44.0987 60.4451 43.7467 60.8184C43.4054 61.1918 43.2347 61.7198 43.2347 62.4024V68.0024H41.7947ZM63.4303 68.1624C62.7263 68.1624 62.1076 68.0291 61.5742 67.7624C61.0516 67.4958 60.6463 67.1118 60.3582 66.6104C60.0702 66.0984 59.9262 65.4958 59.9262 64.8024V62.4024C59.9262 61.6984 60.0702 61.0958 60.3582 60.5944C60.6463 60.0931 61.0516 59.7091 61.5742 59.4424C62.1076 59.1758 62.7263 59.0424 63.4303 59.0424C64.4436 59.0424 65.2596 59.3144 65.8783 59.8584C66.4969 60.4024 66.8223 61.1438 66.8542 62.0824H65.4143C65.3823 61.5171 65.1903 61.0851 64.8383 60.7864C64.4969 60.4771 64.0276 60.3224 63.4303 60.3224C62.8009 60.3224 62.2996 60.5038 61.9262 60.8664C61.5529 61.2184 61.3663 61.7251 61.3663 62.3864V64.8024C61.3663 65.4638 61.5529 65.9758 61.9262 66.3384C62.2996 66.7011 62.8009 66.8824 63.4303 66.8824C64.0276 66.8824 64.4969 66.7278 64.8383 66.4184C65.1903 66.1091 65.3823 65.6771 65.4143 65.1224H66.8542C66.8223 66.0611 66.4969 66.8024 65.8783 67.3464C65.2596 67.8904 64.4436 68.1624 63.4303 68.1624ZM72.64 68.1304C71.936 68.1304 71.328 67.9971 70.816 67.7304C70.304 67.4638 69.904 67.0798 69.616 66.5784C69.3387 66.0664 69.2 65.4638 69.2 64.7704V62.4344C69.2 61.7304 69.3387 61.1278 69.616 60.6264C69.904 60.1251 70.304 59.7411 70.816 59.4744C71.328 59.2078 71.936 59.0744 72.64 59.0744C73.344 59.0744 73.952 59.2078 74.464 59.4744C74.976 59.7411 75.3707 60.1251 75.648 60.6264C75.936 61.1278 76.08 61.7251 76.08 62.4184V64.7704C76.08 65.4638 75.936 66.0664 75.648 66.5784C75.3707 67.0798 74.976 67.4638 74.464 67.7304C73.952 67.9971 73.344 68.1304 72.64 68.1304ZM72.64 66.8504C73.2693 66.8504 73.76 66.6744 74.112 66.3224C74.464 65.9704 74.64 65.4531 74.64 64.7704V62.4344C74.64 61.7518 74.464 61.2344 74.112 60.8824C73.76 60.5304 73.2693 60.3544 72.64 60.3544C72.0213 60.3544 71.5307 60.5304 71.168 60.8824C70.816 61.2344 70.64 61.7518 70.64 62.4344V64.7704C70.64 65.4531 70.816 65.9704 71.168 66.3224C71.5307 66.6744 72.0213 66.8504 72.64 66.8504ZM78.1698 68.0024V59.2024H79.4338V60.2584H79.7218L79.4978 60.6424C79.4978 60.1518 79.6258 59.7624 79.8818 59.4744C80.1484 59.1864 80.5058 59.0424 80.9538 59.0424C81.4444 59.0424 81.8231 59.2238 82.0898 59.5864C82.3564 59.9491 82.4898 60.4611 82.4898 61.1224L82.0578 60.2584H82.7298L82.4258 60.6424C82.4258 60.1518 82.5591 59.7624 82.8258 59.4744C83.1031 59.1864 83.4658 59.0424 83.9138 59.0424C84.4684 59.0424 84.8951 59.2504 85.1938 59.6664C85.5031 60.0824 85.6578 60.6318 85.6578 61.3144V68.0024H84.3298V61.2984C84.3298 60.9358 84.2498 60.6531 84.0898 60.4504C83.9404 60.2478 83.7164 60.1464 83.4178 60.1464C83.1298 60.1464 82.9004 60.2478 82.7298 60.4504C82.5698 60.6424 82.4898 60.9198 82.4898 61.2824V68.0024H81.3378V61.2984C81.3378 60.9251 81.2524 60.6424 81.0818 60.4504C80.9218 60.2478 80.6924 60.1464 80.3938 60.1464C80.0951 60.1464 79.8711 60.2478 79.7218 60.4504C79.5724 60.6424 79.4978 60.9198 79.4978 61.2824V68.0024H78.1698ZM87.8595 70.8824V59.2024H89.2995V60.8824H89.5875L89.2995 61.2184C89.2995 60.5464 89.5182 60.0184 89.9555 59.6344C90.4035 59.2398 90.9902 59.0424 91.7155 59.0424C92.6008 59.0424 93.3048 59.3358 93.8275 59.9224C94.3608 60.4984 94.6275 61.2931 94.6275 62.3064V64.8824C94.6275 65.5544 94.5048 66.1358 94.2595 66.6264C94.0248 67.1171 93.6888 67.4958 93.2515 67.7624C92.8248 68.0291 92.3128 68.1624 91.7155 68.1624C91.0008 68.1624 90.4195 67.9651 89.9715 67.5704C89.5235 67.1758 89.2995 66.6478 89.2995 65.9864L89.5875 66.3224H89.2675L89.2995 68.3224V70.8824H87.8595ZM91.2355 66.9144C91.8435 66.9144 92.3182 66.7331 92.6595 66.3704C93.0115 66.0078 93.1875 65.4851 93.1875 64.8024V62.4024C93.1875 61.7198 93.0115 61.1971 92.6595 60.8344C92.3182 60.4718 91.8435 60.2904 91.2355 60.2904C90.6488 60.2904 90.1795 60.4771 89.8275 60.8504C89.4755 61.2238 89.2995 61.7411 89.2995 62.4024V64.8024C89.2995 65.4638 89.4755 65.9811 89.8275 66.3544C90.1795 66.7278 90.6488 66.9144 91.2355 66.9144ZM99.6933 68.1624C98.7653 68.1624 98.0346 67.9278 97.5013 67.4584C96.9679 66.9784 96.7013 66.3331 96.7013 65.5224C96.7013 64.7011 96.9679 64.0558 97.5013 63.5864C98.0346 63.1171 98.7546 62.8824 99.6613 62.8824H102.381V62.0024C102.381 61.4584 102.216 61.0424 101.885 60.7544C101.565 60.4558 101.107 60.3064 100.509 60.3064C99.9866 60.3064 99.5493 60.4184 99.1973 60.6424C98.8453 60.8558 98.6426 61.1491 98.5893 61.5224H97.1493C97.2453 60.7651 97.6026 60.1624 98.2213 59.7144C98.8399 59.2664 99.6133 59.0424 100.541 59.0424C101.555 59.0424 102.355 59.3038 102.941 59.8264C103.528 60.3491 103.821 61.0584 103.821 61.9544V68.0024H102.413V66.3224H102.173L102.413 66.0824C102.413 66.7224 102.163 67.2291 101.661 67.6024C101.171 67.9758 100.515 68.1624 99.6933 68.1624ZM100.045 67.0264C100.728 67.0264 101.288 66.8558 101.725 66.5144C102.163 66.1731 102.381 65.7358 102.381 65.2024V63.9544H99.6933C99.2133 63.9544 98.8346 64.0878 98.5573 64.3544C98.2799 64.6211 98.1413 64.9838 98.1413 65.4424C98.1413 65.9331 98.3066 66.3224 98.6373 66.6104C98.9786 66.8878 99.4479 67.0264 100.045 67.0264ZM106.407 68.0024V59.2024H107.847V60.8824H108.151L107.847 61.2184C107.847 60.5251 108.055 59.9918 108.471 59.6184C108.887 59.2344 109.463 59.0424 110.199 59.0424C111.084 59.0424 111.788 59.3144 112.311 59.8584C112.834 60.4024 113.095 61.1438 113.095 62.0824V68.0024H111.655V62.2424C111.655 61.6131 111.484 61.1331 111.143 60.8024C110.812 60.4611 110.359 60.2904 109.783 60.2904C109.186 60.2904 108.711 60.4718 108.359 60.8344C108.018 61.1971 107.847 61.7198 107.847 62.4024V68.0024H106.407ZM117.057 70.8824L118.353 67.4584L115.089 59.2024H116.689L118.737 64.6424C118.811 64.8238 118.881 65.0424 118.945 65.2984C119.009 65.5438 119.062 65.7518 119.105 65.9224C119.147 65.7518 119.201 65.5438 119.265 65.2984C119.329 65.0424 119.393 64.8238 119.457 64.6424L121.377 59.2024H122.929L118.593 70.8824H117.057Z" fill="white"/>
<g clip-path="url(#clip1_8670_4172)">
<path d="M335.107 8.01202L314.935 0.0999587C313.816 -0.338843 312.715 0.779633 313.135 1.92866L320.478 22.0337C320.909 23.2127 322.512 23.2819 323.037 22.144L326.609 14.4167C326.762 14.0848 327.035 13.8264 327.37 13.6955L335.105 10.6723C336.298 10.2063 336.298 8.47945 335.107 8.01202Z" fill="#F95341"/>
</g>
<rect x="330" y="16.0024" width="136" height="36" rx="4" fill="#F95341"/>
<path d="M346.277 40.0024V35.6344L342.757 28.3224H344.245L346.565 33.1224C346.693 33.3891 346.795 33.6184 346.869 33.8104C346.944 33.9918 346.992 34.1251 347.013 34.2104C347.035 34.1251 347.083 33.9918 347.157 33.8104C347.243 33.6184 347.349 33.3891 347.477 33.1224L349.749 28.3224H351.237L347.717 35.6344V40.0024H346.277ZM356.271 40.1304C355.567 40.1304 354.959 39.9971 354.447 39.7304C353.935 39.4638 353.535 39.0798 353.247 38.5784C352.97 38.0664 352.831 37.4638 352.831 36.7704V34.4344C352.831 33.7304 352.97 33.1278 353.247 32.6264C353.535 32.1251 353.935 31.7411 354.447 31.4744C354.959 31.2078 355.567 31.0744 356.271 31.0744C356.975 31.0744 357.583 31.2078 358.095 31.4744C358.607 31.7411 359.002 32.1251 359.279 32.6264C359.567 33.1278 359.711 33.7251 359.711 34.4184V36.7704C359.711 37.4638 359.567 38.0664 359.279 38.5784C359.002 39.0798 358.607 39.4638 358.095 39.7304C357.583 39.9971 356.975 40.1304 356.271 40.1304ZM356.271 38.8504C356.901 38.8504 357.391 38.6744 357.743 38.3224C358.095 37.9704 358.271 37.4531 358.271 36.7704V34.4344C358.271 33.7518 358.095 33.2344 357.743 32.8824C357.391 32.5304 356.901 32.3544 356.271 32.3544C355.653 32.3544 355.162 32.5304 354.799 32.8824C354.447 33.2344 354.271 33.7518 354.271 34.4344V36.7704C354.271 37.4531 354.447 37.9704 354.799 38.3224C355.162 38.6744 355.653 38.8504 356.271 38.8504ZM365.529 40.1624C364.516 40.1624 363.705 39.8638 363.097 39.2664C362.489 38.6584 362.185 37.8371 362.185 36.8024V31.2024H363.625V36.8024C363.625 37.4638 363.796 37.9811 364.137 38.3544C364.478 38.7171 364.942 38.8984 365.529 38.8984C366.126 38.8984 366.596 38.7171 366.937 38.3544C367.289 37.9811 367.465 37.4638 367.465 36.8024V31.2024H368.905V36.8024C368.905 37.8371 368.596 38.6584 367.977 39.2664C367.358 39.8638 366.542 40.1624 365.529 40.1624ZM371.795 40.0024V31.2024H373.203V32.8824H373.539L373.075 33.9224C373.075 32.9731 373.277 32.2584 373.683 31.7784C374.099 31.2878 374.712 31.0424 375.523 31.0424C376.451 31.0424 377.187 31.3358 377.731 31.9224C378.285 32.4984 378.563 33.2824 378.563 34.2744V34.8024H377.123V34.4024C377.123 33.7091 376.952 33.1811 376.611 32.8184C376.28 32.4451 375.805 32.2584 375.187 32.2584C374.579 32.2584 374.099 32.4451 373.747 32.8184C373.405 33.1918 373.235 33.7198 373.235 34.4024V40.0024H371.795ZM390.342 40.0024V31.2024H391.75V32.8824H392.086L391.622 33.9224C391.622 32.9731 391.825 32.2584 392.23 31.7784C392.646 31.2878 393.26 31.0424 394.07 31.0424C394.998 31.0424 395.734 31.3358 396.278 31.9224C396.833 32.4984 397.11 33.2824 397.11 34.2744V34.8024H395.67V34.4024C395.67 33.7091 395.5 33.1811 395.158 32.8184C394.828 32.4451 394.353 32.2584 393.734 32.2584C393.126 32.2584 392.646 32.4451 392.294 32.8184C391.953 33.1918 391.782 33.7198 391.782 34.4024V40.0024H390.342ZM402.64 40.1624C401.947 40.1624 401.339 40.0238 400.816 39.7464C400.304 39.4691 399.904 39.0798 399.616 38.5784C399.339 38.0664 399.2 37.4744 399.2 36.8024V34.4024C399.2 33.7198 399.339 33.1278 399.616 32.6264C399.904 32.1251 400.304 31.7358 400.816 31.4584C401.339 31.1811 401.947 31.0424 402.64 31.0424C403.333 31.0424 403.936 31.1811 404.448 31.4584C404.971 31.7358 405.371 32.1251 405.648 32.6264C405.936 33.1278 406.08 33.7198 406.08 34.4024V35.9544H400.608V36.8024C400.608 37.4958 400.784 38.0291 401.136 38.4024C401.488 38.7651 401.989 38.9464 402.64 38.9464C403.195 38.9464 403.643 38.8504 403.984 38.6584C404.325 38.4558 404.533 38.1571 404.608 37.7624H406.048C405.952 38.4984 405.589 39.0851 404.96 39.5224C404.341 39.9491 403.568 40.1624 402.64 40.1624ZM404.672 34.9944V34.4024C404.672 33.7091 404.496 33.1758 404.144 32.8024C403.803 32.4291 403.301 32.2424 402.64 32.2424C401.989 32.2424 401.488 32.4291 401.136 32.8024C400.784 33.1758 400.608 33.7091 400.608 34.4024V34.8664H404.784L404.672 34.9944ZM413.802 42.8824V40.3224L413.834 38.3224H413.514L413.802 37.9864C413.802 38.6478 413.583 39.1758 413.146 39.5704C412.708 39.9651 412.127 40.1624 411.402 40.1624C410.516 40.1624 409.812 39.8691 409.29 39.2824C408.778 38.6958 408.522 37.8958 408.522 36.8824V34.3064C408.522 33.2931 408.783 32.4984 409.306 31.9224C409.828 31.3358 410.527 31.0424 411.402 31.0424C412.127 31.0424 412.708 31.2398 413.146 31.6344C413.583 32.0184 413.802 32.5464 413.802 33.2184L413.514 32.8824H413.802V31.2024H415.242V42.8824H413.802ZM411.882 38.9144C412.479 38.9144 412.948 38.7278 413.29 38.3544C413.631 37.9811 413.802 37.4638 413.802 36.8024V34.4024C413.802 33.7411 413.631 33.2238 413.29 32.8504C412.948 32.4771 412.479 32.2904 411.882 32.2904C411.274 32.2904 410.799 32.4718 410.458 32.8344C410.127 33.1971 409.962 33.7198 409.962 34.4024V36.8024C409.962 37.4851 410.127 38.0078 410.458 38.3704C410.799 38.7331 411.274 38.9144 411.882 38.9144ZM421.171 40.1624C420.158 40.1624 419.347 39.8638 418.739 39.2664C418.131 38.6584 417.827 37.8371 417.827 36.8024V31.2024H419.267V36.8024C419.267 37.4638 419.438 37.9811 419.779 38.3544C420.121 38.7171 420.585 38.8984 421.171 38.8984C421.769 38.8984 422.238 38.7171 422.579 38.3544C422.931 37.9811 423.107 37.4638 423.107 36.8024V31.2024H424.547V36.8024C424.547 37.8371 424.238 38.6584 423.619 39.2664C423.001 39.8638 422.185 40.1624 421.171 40.1624ZM430.461 40.1624C429.768 40.1624 429.16 40.0238 428.637 39.7464C428.125 39.4691 427.725 39.0798 427.437 38.5784C427.16 38.0664 427.021 37.4744 427.021 36.8024V34.4024C427.021 33.7198 427.16 33.1278 427.437 32.6264C427.725 32.1251 428.125 31.7358 428.637 31.4584C429.16 31.1811 429.768 31.0424 430.461 31.0424C431.155 31.0424 431.757 31.1811 432.269 31.4584C432.792 31.7358 433.192 32.1251 433.469 32.6264C433.757 33.1278 433.901 33.7198 433.901 34.4024V35.9544H428.429V36.8024C428.429 37.4958 428.605 38.0291 428.957 38.4024C429.309 38.7651 429.811 38.9464 430.461 38.9464C431.016 38.9464 431.464 38.8504 431.805 38.6584C432.147 38.4558 432.355 38.1571 432.429 37.7624H433.869C433.773 38.4984 433.411 39.0851 432.781 39.5224C432.163 39.9491 431.389 40.1624 430.461 40.1624ZM432.493 34.9944V34.4024C432.493 33.7091 432.317 33.1758 431.965 32.8024C431.624 32.4291 431.123 32.2424 430.461 32.2424C429.811 32.2424 429.309 32.4291 428.957 32.8024C428.605 33.1758 428.429 33.7091 428.429 34.4024V34.8664H432.605L432.493 34.9944ZM439.463 40.1304C438.866 40.1304 438.343 40.0398 437.895 39.8584C437.458 39.6664 437.106 39.3998 436.839 39.0584C436.583 38.7171 436.428 38.3118 436.375 37.8424H437.815C437.879 38.1518 438.05 38.3971 438.327 38.5784C438.615 38.7598 438.994 38.8504 439.463 38.8504H440.135C440.7 38.8504 441.122 38.7384 441.399 38.5144C441.676 38.2798 441.815 37.9704 441.815 37.5864C441.815 37.2131 441.687 36.9198 441.431 36.7064C441.186 36.4824 440.818 36.3331 440.327 36.2584L439.143 36.0664C438.279 35.9171 437.634 35.6504 437.207 35.2664C436.791 34.8718 436.583 34.3011 436.583 33.5544C436.583 32.7651 436.834 32.1571 437.335 31.7304C437.836 31.2931 438.588 31.0744 439.591 31.0744H440.199C441.042 31.0744 441.719 31.2718 442.231 31.6664C442.743 32.0611 443.052 32.5944 443.159 33.2664H441.719C441.655 32.9891 441.495 32.7704 441.239 32.6104C440.983 32.4398 440.636 32.3544 440.199 32.3544H439.591C439.047 32.3544 438.647 32.4558 438.391 32.6584C438.146 32.8611 438.023 33.1651 438.023 33.5704C438.023 33.9331 438.13 34.1998 438.343 34.3704C438.556 34.5411 438.892 34.6638 439.351 34.7384L440.535 34.9304C441.484 35.0798 442.172 35.3571 442.599 35.7624C443.036 36.1678 443.255 36.7544 443.255 37.5224C443.255 38.3331 442.994 38.9731 442.471 39.4424C441.959 39.9011 441.18 40.1304 440.135 40.1304H439.463ZM449.969 40.0024C449.211 40.0024 448.619 39.7998 448.193 39.3944C447.777 38.9891 447.569 38.4184 447.569 37.6824V32.5144H445.089V31.2024H447.569V28.7224H449.009V31.2024H452.529V32.5144H449.009V37.6824C449.009 38.3544 449.329 38.6904 449.969 38.6904H452.369V40.0024H449.969Z" fill="white"/>
<g clip-path="url(#clip2_8670_4172)">
<path d="M304.107 243.012L283.935 235.1C282.816 234.661 281.715 235.78 282.135 236.929L289.478 257.034C289.909 258.213 291.512 258.282 292.037 257.144L295.609 249.417C295.762 249.085 296.035 248.826 296.37 248.695L304.105 245.672C305.298 245.206 305.298 243.479 304.107 243.012Z" fill="#7843FF"/>
</g>
<rect x="299" y="251.002" width="99" height="36" rx="4" fill="#7843FF"/>
<path d="M316.109 275.162C315.341 275.162 314.68 275.034 314.125 274.778C313.581 274.522 313.16 274.154 312.861 273.674C312.562 273.194 312.408 272.624 312.397 271.962H313.837C313.837 272.549 314.034 273.013 314.429 273.354C314.834 273.696 315.394 273.866 316.109 273.866C316.781 273.866 317.304 273.701 317.677 273.37C318.061 273.04 318.253 272.581 318.253 271.994C318.253 271.525 318.125 271.114 317.869 270.762C317.624 270.41 317.266 270.165 316.797 270.026L315.213 269.53C314.413 269.285 313.794 268.874 313.357 268.298C312.93 267.722 312.717 267.045 312.717 266.266C312.717 265.637 312.856 265.093 313.133 264.634C313.421 264.165 313.821 263.802 314.333 263.546C314.845 263.28 315.448 263.146 316.141 263.146C317.165 263.146 317.986 263.434 318.605 264.01C319.224 264.576 319.538 265.333 319.549 266.282H318.109C318.109 265.706 317.933 265.258 317.581 264.938C317.24 264.608 316.754 264.442 316.125 264.442C315.506 264.442 315.021 264.592 314.669 264.89C314.328 265.189 314.157 265.605 314.157 266.138C314.157 266.618 314.285 267.034 314.541 267.386C314.797 267.738 315.165 267.989 315.645 268.138L317.245 268.65C318.024 268.896 318.626 269.312 319.053 269.898C319.48 270.485 319.693 271.173 319.693 271.962C319.693 272.602 319.544 273.162 319.245 273.642C318.946 274.122 318.525 274.496 317.981 274.762C317.448 275.029 316.824 275.162 316.109 275.162ZM325.319 275.13C324.615 275.13 324.007 274.997 323.495 274.73C322.983 274.464 322.583 274.08 322.295 273.578C322.017 273.066 321.879 272.464 321.879 271.77V269.434C321.879 268.73 322.017 268.128 322.295 267.626C322.583 267.125 322.983 266.741 323.495 266.474C324.007 266.208 324.615 266.074 325.319 266.074C326.023 266.074 326.631 266.208 327.143 266.474C327.655 266.741 328.049 267.125 328.327 267.626C328.615 268.128 328.759 268.725 328.759 269.418V271.77C328.759 272.464 328.615 273.066 328.327 273.578C328.049 274.08 327.655 274.464 327.143 274.73C326.631 274.997 326.023 275.13 325.319 275.13ZM325.319 273.85C325.948 273.85 326.439 273.674 326.791 273.322C327.143 272.97 327.319 272.453 327.319 271.77V269.434C327.319 268.752 327.143 268.234 326.791 267.882C326.439 267.53 325.948 267.354 325.319 267.354C324.7 267.354 324.209 267.53 323.847 267.882C323.495 268.234 323.319 268.752 323.319 269.434V271.77C323.319 272.453 323.495 272.97 323.847 273.322C324.209 273.674 324.7 273.85 325.319 273.85ZM333.312 275.002V268.394H330.752V267.082H333.312V265.562C333.312 264.869 333.531 264.325 333.968 263.93C334.406 263.525 335.008 263.322 335.776 263.322H338.352V264.634H335.776C335.446 264.634 335.19 264.714 335.008 264.874C334.838 265.024 334.752 265.253 334.752 265.562V267.082H338.352V268.394H334.752V275.002H333.312ZM344.826 275.002C344.069 275.002 343.477 274.8 343.05 274.394C342.634 273.989 342.426 273.418 342.426 272.682V267.514H339.946V266.202H342.426V263.722H343.866V266.202H347.386V267.514H343.866V272.682C343.866 273.354 344.186 273.69 344.826 273.69H347.226V275.002H344.826ZM350.308 275.002L348.9 266.202H350.18L351.06 272.442C351.092 272.677 351.124 272.933 351.156 273.21C351.199 273.477 351.231 273.701 351.252 273.882C351.273 273.701 351.305 273.477 351.348 273.21C351.401 272.933 351.444 272.677 351.476 272.442L352.452 266.202H353.828L354.804 272.442C354.836 272.677 354.873 272.933 354.916 273.21C354.969 273.477 355.007 273.701 355.028 273.882C355.049 273.701 355.081 273.477 355.124 273.21C355.177 272.933 355.22 272.677 355.252 272.442L356.164 266.202H357.38L355.908 275.002H354.324L353.38 268.922C353.337 268.624 353.289 268.325 353.236 268.026C353.183 267.728 353.145 267.493 353.124 267.322C353.103 267.493 353.071 267.728 353.028 268.026C352.985 268.325 352.937 268.624 352.884 268.922L351.892 275.002H350.308ZM361.646 275.162C360.718 275.162 359.987 274.928 359.454 274.458C358.92 273.978 358.654 273.333 358.654 272.522C358.654 271.701 358.92 271.056 359.454 270.586C359.987 270.117 360.707 269.882 361.614 269.882H364.334V269.002C364.334 268.458 364.168 268.042 363.838 267.754C363.518 267.456 363.059 267.306 362.462 267.306C361.939 267.306 361.502 267.418 361.15 267.642C360.798 267.856 360.595 268.149 360.542 268.522H359.102C359.198 267.765 359.555 267.162 360.174 266.714C360.792 266.266 361.566 266.042 362.494 266.042C363.507 266.042 364.307 266.304 364.894 266.826C365.48 267.349 365.774 268.058 365.774 268.954V275.002H364.366V273.322H364.126L364.366 273.082C364.366 273.722 364.115 274.229 363.614 274.602C363.123 274.976 362.467 275.162 361.646 275.162ZM361.998 274.026C362.68 274.026 363.24 273.856 363.678 273.514C364.115 273.173 364.334 272.736 364.334 272.202V270.954H361.646C361.166 270.954 360.787 271.088 360.51 271.354C360.232 271.621 360.094 271.984 360.094 272.442C360.094 272.933 360.259 273.322 360.59 273.61C360.931 273.888 361.4 274.026 361.998 274.026ZM368.664 275.002V266.202H370.072V267.882H370.408L369.944 268.922C369.944 267.973 370.146 267.258 370.552 266.778C370.968 266.288 371.581 266.042 372.392 266.042C373.32 266.042 374.056 266.336 374.6 266.922C375.154 267.498 375.432 268.282 375.432 269.274V269.802H373.992V269.402C373.992 268.709 373.821 268.181 373.48 267.818C373.149 267.445 372.674 267.258 372.056 267.258C371.448 267.258 370.968 267.445 370.616 267.818C370.274 268.192 370.104 268.72 370.104 269.402V275.002H368.664ZM380.961 275.162C380.268 275.162 379.66 275.024 379.137 274.746C378.625 274.469 378.225 274.08 377.937 273.578C377.66 273.066 377.521 272.474 377.521 271.802V269.402C377.521 268.72 377.66 268.128 377.937 267.626C378.225 267.125 378.625 266.736 379.137 266.458C379.66 266.181 380.268 266.042 380.961 266.042C381.655 266.042 382.257 266.181 382.769 266.458C383.292 266.736 383.692 267.125 383.969 267.626C384.257 268.128 384.401 268.72 384.401 269.402V270.954H378.929V271.802C378.929 272.496 379.105 273.029 379.457 273.402C379.809 273.765 380.311 273.946 380.961 273.946C381.516 273.946 381.964 273.85 382.305 273.658C382.647 273.456 382.855 273.157 382.929 272.762H384.369C384.273 273.498 383.911 274.085 383.281 274.522C382.663 274.949 381.889 275.162 380.961 275.162ZM382.993 269.994V269.402C382.993 268.709 382.817 268.176 382.465 267.802C382.124 267.429 381.623 267.242 380.961 267.242C380.311 267.242 379.809 267.429 379.457 267.802C379.105 268.176 378.929 268.709 378.929 269.402V269.866H383.105L382.993 269.994Z" fill="white"/>
<defs>
<linearGradient id="paint0_linear_8670_4172" x1="212.661" y1="66.0024" x2="212.661" y2="231.365" gradientUnits="userSpaceOnUse">
<stop stop-color="white"/>
<stop offset="1" stop-color="white" stop-opacity="0"/>
</linearGradient>
<clipPath id="clip0_8670_4172">
<rect width="24" height="24" fill="white" transform="matrix(0 1 -1 0 154 28.0024)"/>
</clipPath>
<clipPath id="clip1_8670_4172">
<rect width="24" height="24" fill="white" transform="matrix(0 1 1 0 312 0.00244141)"/>
</clipPath>
<clipPath id="clip2_8670_4172">
<rect width="24" height="24" fill="white" transform="matrix(0 1 1 0 281 235.002)"/>
</clipPath>
</defs>
</svg>
