<svg width="894" height="369" viewBox="0 0 894 369" fill="none" xmlns="http://www.w3.org/2000/svg">
<g opacity="0.5" filter="url(#filter0_f_8672_7757)">
<path d="M326.511 382.739L553 251.261L326.511 119.739L100 251.261L326.511 382.739Z" fill="white"/>
</g>
<path opacity="0.1" d="M967.284 202.718L912.357 231.208M912.357 231.208L835.005 271.329M912.357 231.208L991.206 271.412M912.357 231.208L834.916 191.721M835.005 271.329L756.659 311.965M835.005 271.329L913.854 311.533M835.005 271.329L757.563 231.842M756.659 311.965L679.307 352.086M756.659 311.965L835.508 352.169M756.659 311.965L679.217 272.479M679.307 352.086L599.839 393.305M679.307 352.086L758.156 392.29M679.307 352.086L601.865 312.6M599.839 393.305L522.486 433.426M599.839 393.305L678.687 433.509M599.839 393.305L522.397 353.818M522.486 433.426L491.48 449.509M522.486 433.426L601.335 473.63M522.486 433.426L445.044 393.94M1053.29 239.211L991.206 271.412M991.206 271.412L913.854 311.533M991.206 271.412L1062.32 307.67M913.854 311.533L835.508 352.169M913.854 311.533L1036.21 373.92M835.508 352.169L758.156 392.29M835.508 352.169L882.885 376.326M758.156 392.29L678.687 433.509M758.156 392.29L856.776 442.575M678.687 433.509L601.335 473.63M678.687 433.509L742.433 466.012M601.335 473.63L577.484 486.001M601.335 473.63L716.324 532.261M892.418 161.896L834.916 191.721M834.916 191.721L757.563 231.842M834.916 191.721L752.39 149.643M757.563 231.842L679.217 272.479M757.563 231.842L674.439 189.458M679.217 272.479L601.865 312.6M679.217 272.479L595.486 229.785M601.865 312.6L522.397 353.818M601.865 312.6L517.535 269.601M522.397 353.818L445.044 393.94M522.397 353.818L437.451 310.506M445.044 393.94L416.614 408.686M445.044 393.94L359.5 350.322M895.512 76.5397L835.155 107.369M835.155 107.369L752.39 149.643M835.155 107.369L1110.46 247.741M835.155 107.369L757.175 67.608M752.39 149.643L674.439 189.458M752.39 149.643L674.411 109.882M674.439 189.458L595.486 229.785M674.439 189.458L596.46 149.698M595.486 229.785L517.535 269.601M595.486 229.785L517.507 190.025M517.535 269.601L437.451 310.506M517.535 269.601L439.556 229.84M437.451 310.506L359.5 350.322M437.451 310.506L359.472 270.745M359.5 350.322L217.382 422.912M359.5 350.322L281.521 310.561M857.15 16.5431L835.126 27.7923M835.126 27.7923L757.175 67.608M835.126 27.7923L1136.56 181.492M835.126 27.7923L678.424 -52.108M757.175 67.608L674.411 109.882M757.175 67.608L678.453 27.4684M674.411 109.882L596.46 149.698M674.411 109.882L595.688 69.7423M596.46 149.698L517.507 190.025M596.46 149.698L517.737 109.558M517.507 190.025L439.556 229.84M517.507 190.025L438.784 149.885M439.556 229.84L359.472 270.745M439.556 229.84L360.833 189.701M359.472 270.745L281.521 310.561M359.472 270.745L280.749 230.606M281.521 310.561L179.021 362.915M281.521 310.561L202.798 270.421M749.491 -8.81633L678.453 27.4684M678.453 27.4684L595.688 69.7423M678.453 27.4684L600.473 -12.2923M595.688 69.7423L517.737 109.558M595.688 69.7423L517.709 29.9816M517.737 109.558L438.784 149.885M517.737 109.558L439.758 69.7973M438.784 149.885L360.833 189.701M438.784 149.885L360.805 110.124M360.833 189.701L280.749 230.606M360.833 189.701L282.854 149.94M280.749 230.606L202.798 270.421M280.749 230.606L202.77 190.845M202.798 270.421L71.3614 337.556M202.798 270.421L124.819 230.661M711.13 -68.813L678.424 -52.108M678.424 -52.108L600.473 -12.2923M678.424 -52.108L458.191 -164.402M600.473 -12.2923L517.709 29.9816M600.473 -12.2923L432.082 -98.153M517.709 29.9816L439.758 69.7973M517.709 29.9816L383.944 -38.2236M439.758 69.7973L360.805 110.124M439.758 69.7973L357.834 28.0255M360.805 110.124L282.854 149.94M360.805 110.124L204.511 30.4324M282.854 149.94L202.77 190.845M282.854 149.94L178.402 96.6815M202.77 190.845L124.819 230.661M202.77 190.845L64.0591 120.118M124.819 230.661L33 277.559M124.819 230.661L37.9497 186.367M1047.72 203.055L992.793 231.544M992.793 231.544L915.44 271.666M992.793 231.544L1071.64 271.748M992.793 231.544L915.351 192.058M915.44 271.666L837.094 312.302M915.44 271.666L994.289 311.87M915.44 271.666L837.998 232.179M837.094 312.302L759.742 352.423M837.094 312.302L915.943 352.506M837.094 312.302L759.652 272.815M759.742 352.423L680.274 393.642M759.742 352.423L838.591 392.627M759.742 352.423L682.3 312.937M680.274 393.642L602.922 433.763M680.274 393.642L759.122 433.846M680.274 393.642L602.832 354.155M602.922 433.763L571.915 449.845M602.922 433.763L681.77 473.967M602.922 433.763L525.48 394.276M1133.72 239.548L1071.64 271.748M1071.64 271.748L994.289 311.87M1071.64 271.748L1142.75 308.007M994.289 311.87L915.943 352.506M994.289 311.87L1116.64 374.256M915.943 352.506L838.591 392.627M915.943 352.506L963.32 376.663M838.591 392.627L759.122 433.846M838.591 392.627L937.211 442.912M759.122 433.846L681.77 473.967M759.122 433.846L822.868 466.349M681.77 473.967L657.919 486.338M681.77 473.967L796.759 532.598M972.853 162.232L915.351 192.058M915.351 192.058L837.998 232.179M915.351 192.058L832.825 149.979M837.998 232.179L759.652 272.815M837.998 232.179L754.874 189.795M759.652 272.815L682.3 312.937M759.652 272.815L675.921 230.122M682.3 312.937L602.832 354.155M682.3 312.937L597.97 269.938M602.832 354.155L525.48 394.276M602.832 354.155L517.886 310.843M525.48 394.276L497.049 409.023M525.48 394.276L439.935 350.658M975.947 76.8764L915.59 107.705M915.59 107.705L832.825 149.979M915.59 107.705L1190.89 248.078M915.59 107.705L837.61 67.9447M832.825 149.979L754.874 189.795M832.825 149.979L754.846 110.219M754.874 189.795L675.921 230.122M754.874 189.795L676.895 150.034M675.921 230.122L597.97 269.938M675.921 230.122L597.942 190.361M597.97 269.938L517.886 310.843M597.97 269.938L519.991 230.177M517.886 310.843L439.935 350.658M517.886 310.843L439.907 271.082M439.935 350.658L297.817 423.249M439.935 350.658L361.956 310.898M937.585 16.8798L915.561 28.129M915.561 28.129L837.61 67.9447M915.561 28.129L1217 181.829M915.561 28.129L758.86 -51.7712M837.61 67.9447L754.846 110.219M837.61 67.9447L758.888 27.8051M754.846 110.219L676.895 150.034M754.846 110.219L676.123 70.0791M676.895 150.034L597.942 190.361M676.895 150.034L598.172 109.895M597.942 190.361L519.991 230.177M597.942 190.361L519.219 150.222M519.991 230.177L439.907 271.082M519.991 230.177L441.268 190.038M439.907 271.082L361.956 310.898M439.907 271.082L361.185 230.942M361.956 310.898L259.456 363.252M361.956 310.898L283.233 270.758M829.926 -8.47963L758.888 27.8051M758.888 27.8051L676.123 70.0791M758.888 27.8051L680.908 -11.9556M676.123 70.0791L598.172 109.895M676.123 70.0791L598.144 30.3184M598.172 109.895L519.219 150.222M598.172 109.895L520.193 70.1341M519.219 150.222L441.268 190.038M519.219 150.222L441.24 110.461M441.268 190.038L361.185 230.942M441.268 190.038L363.289 150.277M361.185 230.942L283.233 270.758M361.185 230.942L283.205 191.182M283.233 270.758L151.796 337.893M283.233 270.758L205.254 230.997M791.565 -68.4763L758.86 -51.7712M758.86 -51.7712L680.908 -11.9556M758.86 -51.7712L538.626 -164.065M680.908 -11.9556L598.144 30.3184M680.908 -11.9556L512.517 -97.8163M598.144 30.3184L520.193 70.1341M598.144 30.3184L464.379 -37.8869M520.193 70.1341L441.24 110.461M520.193 70.1341L438.269 28.3623M441.24 110.461L363.289 150.277M441.24 110.461L284.946 30.7691M363.289 150.277L283.205 191.182M363.289 150.277L258.837 97.0182M283.205 191.182L205.254 230.997M283.205 191.182L144.494 120.455M205.254 230.997L113.435 277.896M205.254 230.997L118.385 186.704" stroke="white"/>
<defs>
<filter id="filter0_f_8672_7757" x="0" y="19.7385" width="653" height="463" filterUnits="userSpaceOnUse" color-interpolation-filters="sRGB">
<feFlood flood-opacity="0" result="BackgroundImageFix"/>
<feBlend mode="normal" in="SourceGraphic" in2="BackgroundImageFix" result="shape"/>
<feGaussianBlur stdDeviation="50" result="effect1_foregroundBlur_8672_7757"/>
</filter>
</defs>
</svg>
