<svg width="45" height="44" viewBox="0 0 45 44" fill="none" xmlns="http://www.w3.org/2000/svg">
<g clip-path="url(#clip0_8613_803)">
<rect x="0.333496" width="44" height="44" rx="8" fill="#F95341"/>
<g filter="url(#filter0_f_8613_803)">
<path d="M39.3358 44.6393C39.3358 54.7795 49.2478 63 39.3358 63C29.4238 63 7.36793 61.6447 7.36793 51.5045C7.36793 41.3643 6.28956 28 16.2016 28C68.2211 29.8446 39.3358 34.499 39.3358 44.6393Z" fill="white"/>
</g>
<path d="M32.3959 26.4943L22.3334 32.3622L12.2709 26.4943C12.0716 26.3951 11.8421 26.3755 11.6289 26.4396C11.4158 26.5037 11.2351 26.6466 11.1236 26.8392C11.0121 27.0318 10.9782 27.2597 11.0288 27.4764C11.0793 27.6931 11.2106 27.8825 11.3959 28.0058L21.8959 34.1308C22.0296 34.2088 22.1818 34.25 22.3366 34.25C22.4915 34.25 22.6436 34.2088 22.7774 34.1308L33.2774 28.0058C33.3783 27.9488 33.4668 27.8722 33.5378 27.7807C33.6089 27.6892 33.661 27.5844 33.6912 27.4726C33.7215 27.3607 33.7292 27.244 33.7139 27.1291C33.6987 27.0142 33.6608 26.9035 33.6024 26.8034C33.544 26.7033 33.4663 26.6158 33.3739 26.546C33.2814 26.4762 33.176 26.4254 33.0638 26.3967C32.9515 26.3679 32.8347 26.3617 32.72 26.3785C32.6054 26.3952 32.4952 26.4346 32.3959 26.4943Z" fill="white"/>
<path d="M32.3959 21.2443L22.3334 27.1122L12.2709 21.2443C12.0716 21.1451 11.8421 21.1255 11.6289 21.1896C11.4158 21.2537 11.2351 21.3966 11.1236 21.5892C11.0121 21.7818 10.9782 22.0097 11.0288 22.2264C11.0793 22.4431 11.2106 22.6325 11.3959 22.7558L21.8959 28.8808C22.0296 28.9588 22.1818 29 22.3366 29C22.4915 29 22.6436 28.9588 22.7774 28.8808L33.2774 22.7558C33.3783 22.6988 33.4668 22.6222 33.5378 22.5307C33.6089 22.4392 33.661 22.3344 33.6912 22.2226C33.7215 22.1107 33.7292 21.994 33.7139 21.8791C33.6987 21.7642 33.6608 21.6535 33.6024 21.5534C33.544 21.4534 33.4663 21.3658 33.3739 21.296C33.2814 21.2262 33.176 21.1754 33.0638 21.1467C32.9515 21.1179 32.8347 21.1117 32.72 21.1285C32.6054 21.1452 32.4952 21.1846 32.3959 21.2443Z" fill="white"/>
<path d="M11.396 17.5058L21.896 23.6308C22.0298 23.7088 22.1819 23.7499 22.3368 23.7499C22.4916 23.7499 22.6438 23.7088 22.7775 23.6308L33.2775 17.5058C33.4096 17.4288 33.5192 17.3184 33.5954 17.1858C33.6715 17.0532 33.7116 16.903 33.7116 16.75C33.7116 16.5971 33.6715 16.4469 33.5954 16.3143C33.5192 16.1816 33.4096 16.0713 33.2775 15.9943L22.7775 9.86925C22.6438 9.79123 22.4916 9.75012 22.3368 9.75012C22.1819 9.75012 22.0298 9.79123 21.896 9.86925L11.396 15.9943C11.2639 16.0713 11.1543 16.1816 11.0782 16.3143C11.002 16.4469 10.9619 16.5971 10.9619 16.75C10.9619 16.903 11.002 17.0532 11.0782 17.1858C11.1543 17.3184 11.2639 17.4288 11.396 17.5058Z" fill="white"/>
</g>
<defs>
<filter id="filter0_f_8613_803" x="-42.6665" y="-22" width="140" height="135" filterUnits="userSpaceOnUse" color-interpolation-filters="sRGB">
<feFlood flood-opacity="0" result="BackgroundImageFix"/>
<feBlend mode="normal" in="SourceGraphic" in2="BackgroundImageFix" result="shape"/>
<feGaussianBlur stdDeviation="25" result="effect1_foregroundBlur_8613_803"/>
</filter>
<clipPath id="clip0_8613_803">
<rect x="0.333496" width="44" height="44" rx="8" fill="white"/>
</clipPath>
</defs>
</svg>
