<svg width="176" height="50" viewBox="0 0 176 50" fill="none" xmlns="http://www.w3.org/2000/svg">
<g clip-path="url(#clip0_4778_41619)">
<mask id="mask0_4778_41619" style="mask-type:luminance" maskUnits="userSpaceOnUse" x="-1" y="7" width="178" height="52">
<path d="M-0.923828 7.69939H176.812V58.7296H-0.923828V7.69939Z" fill="white"/>
</mask>
<g mask="url(#mask0_4778_41619)">
<path d="M168.146 19.3738H174.785V19.1565C174.785 16.4585 173.61 14.332 171.258 12.7775C168.907 11.2234 165.65 10.4464 161.489 10.4464C157.616 10.4464 154.504 11.2715 152.153 12.9217C149.801 14.5728 148.626 16.7111 148.626 19.3375C148.626 21.5547 149.44 23.2716 151.07 24.4881C152.699 25.7051 155.247 26.494 158.711 26.8555L163.456 27.3254C165.56 27.5422 166.958 27.8584 167.65 28.2743C168.342 28.6898 168.688 29.338 168.688 30.2171C168.688 31.2654 168.158 32.0751 167.1 32.6475C166.041 33.22 164.538 33.5062 162.59 33.5062C160.063 33.5062 158.139 33.1116 156.816 32.3223C155.493 31.5335 154.831 30.3859 154.831 28.8794V28.6268H147.994V29.187C147.994 32.1989 149.185 34.5186 151.567 36.1443C153.948 37.7714 157.351 38.5847 161.778 38.5847C166.42 38.5847 169.947 37.8104 172.359 36.2618C174.77 34.7141 175.976 32.452 175.976 29.4759C175.976 27.1621 175.173 25.3708 173.568 24.0998C171.962 22.8288 169.451 22.0065 166.035 21.6327L161.074 21.1088C158.692 20.8439 157.198 20.5304 156.59 20.1689C155.983 19.8074 155.68 19.2354 155.68 18.452C155.68 17.4763 156.196 16.7202 157.231 16.184C158.266 15.6483 159.721 15.3798 161.597 15.3798C163.629 15.3798 165.19 15.7114 166.279 16.3736C167.367 17.0364 167.989 18.0361 168.146 19.3738Z" fill="white"/>
<path d="M135.438 26.4758L147.309 11.1504H138.847L132.262 20.711L125.605 11.1504H117.107L128.762 26.4758V37.8794H135.438V26.4758Z" fill="white"/>
<path d="M96.121 18.4525C96.121 17.4768 96.6386 16.7206 97.6728 16.1845C98.7071 15.6483 100.162 15.3802 102.039 15.3802C104.071 15.3802 105.632 15.7118 106.72 16.3741C107.809 17.0372 108.432 18.0365 108.587 19.3742H115.227V19.1569C115.227 16.4584 114.051 14.3324 111.699 12.7775C109.349 11.2239 106.091 10.4468 101.93 10.4468C98.0573 10.4468 94.945 11.2719 92.5943 12.9221C90.2428 14.5733 89.0668 16.712 89.0668 19.3379C89.0668 21.5551 89.8819 23.272 91.5116 24.4885C93.1418 25.7051 95.6885 26.4944 99.1518 26.8559L103.897 27.3258C106.001 27.5426 107.4 27.8588 108.092 28.2743C108.783 28.6903 109.129 29.338 109.129 30.2175C109.129 31.2654 108.6 32.0755 107.542 32.6475C106.483 33.2204 104.98 33.5066 103.031 33.5066C100.505 33.5066 98.5812 33.1115 97.2576 32.3227C95.9344 31.5339 95.2733 30.3863 95.2733 28.8799V28.6272H88.4355V29.1874C88.4355 32.1998 89.626 34.5181 92.0075 36.1448C94.3894 37.7709 97.7928 38.5842 102.219 38.5842C106.862 38.5842 110.389 37.8104 112.801 36.2622C115.211 34.7146 116.417 32.452 116.417 29.4764C116.417 27.163 115.615 25.3713 114.009 24.0998C112.403 22.8288 109.892 22.0069 106.477 21.6331L101.515 21.1088C99.1341 20.8439 97.6398 20.5309 97.0325 20.1693C96.4244 19.8078 96.121 19.2354 96.121 18.4525Z" fill="white"/>
<path d="M26.127 37.8799H49.8154V32.2593H32.8202V26.5126H47.957V21.073H32.8202V16.5547H49.8154V11.1514H26.127V37.8799Z" fill="white"/>
<path d="M-0.0253906 37.8798H20.3977V32.2592H6.66744V11.1513H-0.0253906L-0.0253906 37.8798Z" fill="white"/>
<path d="M70.2832 8.7609L53.375 37.8799H60.5084L70.2832 20.8821L79.6958 37.8799H87.191L70.2832 8.7609Z" fill="white"/>
</g>
<path d="M55.8203 33.6676C56.0309 33.6263 56.2419 33.585 56.452 33.5433C59.0304 33.0289 61.5454 32.4578 63.9835 31.8369L70.2828 20.8815L74.591 28.6616C76.6663 27.9386 78.6493 27.1829 80.5249 26.4004L70.2828 8.76031L55.8203 33.6676Z" fill="white"/>
</g>
<defs>
<clipPath id="clip0_4778_41619">
<rect width="176" height="50" fill="white"/>
</clipPath>
</defs>
</svg>
