<svg width="32" height="32" viewBox="0 0 32 32" fill="none" xmlns="http://www.w3.org/2000/svg">
<path d="M16.0004 2.73926C8.67666 2.73926 2.73975 8.67617 2.73975 15.9999C2.73975 23.3237 8.67666 29.2606 16.0004 29.2606C23.3242 29.2606 29.2611 23.3237 29.2611 15.9999C29.2611 8.67617 23.3242 2.73926 16.0004 2.73926ZM12.7543 21.4962H10.069V12.8547H12.7543V21.4962ZM11.3951 11.7938C10.547 11.7938 9.99858 11.1929 9.99858 10.4498C9.99858 9.69144 10.5635 9.10853 11.4296 9.10853C12.2957 9.10853 12.8261 9.69144 12.8427 10.4498C12.8427 11.1929 12.2957 11.7938 11.3951 11.7938ZM22.5617 21.4962H19.8764V16.7072C19.8764 15.5924 19.4869 14.8355 18.5158 14.8355C17.774 14.8355 17.3334 15.348 17.1386 15.8411C17.0668 16.0165 17.0488 16.2651 17.0488 16.5124V21.4948H14.3622V15.6104C14.3622 14.5316 14.3276 13.6296 14.2917 12.8533H16.6248L16.7477 14.0537H16.8016C17.1552 13.4901 18.0213 12.6585 19.4703 12.6585C21.237 12.6585 22.5617 13.8423 22.5617 16.3867V21.4962Z" fill="white"/>
</svg>
