<svg width="24" height="24" viewBox="0 0 24 24" fill="none" xmlns="http://www.w3.org/2000/svg">
<path d="M12.0002 2.05469C6.50737 2.05469 2.05469 6.50737 2.05469 12.0002C2.05469 17.493 6.50737 21.9457 12.0002 21.9457C17.493 21.9457 21.9457 17.493 21.9457 12.0002C21.9457 6.50737 17.493 2.05469 12.0002 2.05469ZM9.56562 16.1224H7.55165V9.64124H9.56562V16.1224ZM8.5462 8.8456C7.9101 8.8456 7.49882 8.39495 7.49882 7.83758C7.49882 7.26883 7.92254 6.83164 8.5721 6.83164C9.22167 6.83164 9.61949 7.26883 9.63192 7.83758C9.63192 8.39495 9.22167 8.8456 8.5462 8.8456ZM16.9211 16.1224H14.9072V12.5306C14.9072 11.6946 14.615 11.1269 13.8867 11.1269C13.3304 11.1269 12.9999 11.5112 12.8539 11.8811C12.8 12.0126 12.7865 12.1991 12.7865 12.3845V16.1214H10.7715V11.708C10.7715 10.8989 10.7456 10.2224 10.7187 9.64021H12.4685L12.5607 10.5405H12.6011C12.8663 10.1178 13.5158 9.49413 14.6026 9.49413C15.9276 9.49413 16.9211 10.382 16.9211 12.2903V16.1224Z" fill="#7843FF"/>
</svg>
