<svg width="44" height="44" viewBox="0 0 44 44" fill="none" xmlns="http://www.w3.org/2000/svg">
<g clip-path="url(#clip0_8663_160)">
<rect width="44" height="44" rx="8" fill="#7843FF"/>
<g filter="url(#filter0_f_8663_160)">
<path d="M39.0023 44.6393C39.0023 54.7795 48.9144 63 39.0023 63C29.0903 63 7.03444 61.6447 7.03444 51.5045C7.03444 41.3643 5.95606 28 15.8681 28C67.8876 29.8446 39.0023 34.499 39.0023 44.6393Z" fill="white"/>
</g>
<path d="M30.75 16.75H27.25V14.125C27.25 12.7326 26.6969 11.3973 25.7123 10.4127C24.7277 9.42812 23.3924 8.875 22 8.875C20.6076 8.875 19.2723 9.42812 18.2877 10.4127C17.3031 11.3973 16.75 12.7326 16.75 14.125V16.75H13.25C12.7859 16.75 12.3408 16.9344 12.0126 17.2626C11.6844 17.5908 11.5 18.0359 11.5 18.5V30.75C11.5 31.2141 11.6844 31.6592 12.0126 31.9874C12.3408 32.3156 12.7859 32.5 13.25 32.5H30.75C31.2141 32.5 31.6592 32.3156 31.9874 31.9874C32.3156 31.6592 32.5 31.2141 32.5 30.75V18.5C32.5 18.0359 32.3156 17.5908 31.9874 17.2626C31.6592 16.9344 31.2141 16.75 30.75 16.75ZM22 25.9375C21.7404 25.9375 21.4867 25.8605 21.2708 25.7163C21.055 25.5721 20.8867 25.3671 20.7874 25.1273C20.6881 24.8874 20.6621 24.6235 20.7127 24.3689C20.7634 24.1143 20.8884 23.8805 21.0719 23.6969C21.2555 23.5134 21.4893 23.3884 21.7439 23.3377C21.9985 23.2871 22.2624 23.3131 22.5023 23.4124C22.7421 23.5117 22.9471 23.68 23.0913 23.8958C23.2355 24.1117 23.3125 24.3654 23.3125 24.625C23.3125 24.9731 23.1742 25.3069 22.9281 25.5531C22.6819 25.7992 22.3481 25.9375 22 25.9375ZM25.5 16.75H18.5V14.125C18.5 13.1967 18.8687 12.3065 19.5251 11.6501C20.1815 10.9937 21.0717 10.625 22 10.625C22.9283 10.625 23.8185 10.9937 24.4749 11.6501C25.1313 12.3065 25.5 13.1967 25.5 14.125V16.75Z" fill="white"/>
</g>
<defs>
<filter id="filter0_f_8663_160" x="-43" y="-22" width="140" height="135" filterUnits="userSpaceOnUse" color-interpolation-filters="sRGB">
<feFlood flood-opacity="0" result="BackgroundImageFix"/>
<feBlend mode="normal" in="SourceGraphic" in2="BackgroundImageFix" result="shape"/>
<feGaussianBlur stdDeviation="25" result="effect1_foregroundBlur_8663_160"/>
</filter>
<clipPath id="clip0_8663_160">
<rect width="44" height="44" rx="8" fill="white"/>
</clipPath>
</defs>
</svg>
