<svg width="146" height="39" viewBox="0 0 146 39" fill="none" xmlns="http://www.w3.org/2000/svg">
<path fill-rule="evenodd" clip-rule="evenodd" d="M43.2502 24.804C42.9666 25.5856 42.5316 26.2069 41.9446 26.6684C41.3564 27.13 40.6014 27.361 39.6783 27.361C38.7242 27.361 37.9609 27.146 37.3893 26.7154C36.8172 26.2859 36.406 25.6829 36.1539 24.9068C35.9024 24.1302 35.7764 23.2281 35.7764 22.2C35.7764 21.1724 35.9024 20.2703 36.1539 19.4942C36.406 18.7176 36.8073 18.1146 37.3578 17.6845C37.9083 17.255 38.6297 17.0394 39.5213 17.0394C40.4753 17.0394 41.2597 17.2733 41.8738 17.7398C42.4868 18.2063 42.9401 18.8304 43.2347 19.612C43.5282 20.3936 43.6752 21.2564 43.6752 22.2C43.6752 23.1551 43.5332 24.023 43.2502 24.804ZM44.3983 14.3962C43.1922 13.6207 41.776 13.2315 40.1504 13.2315C38.6469 13.2315 37.3689 13.577 36.3109 14.2585V8.04004H32V30.6964H35.7759V29.7174C35.8936 29.8109 36.0136 29.9021 36.1379 29.9883C37.2711 30.7754 38.6812 31.1684 40.3704 31.1684C41.933 31.1684 43.3022 30.7754 44.4768 29.9883C45.6514 29.2017 46.5668 28.1321 47.2223 26.7784C47.8779 25.4258 48.2057 23.8991 48.2057 22.2C48.2057 20.4693 47.8724 18.9304 47.2063 17.5828C46.5402 16.2346 45.6044 15.1728 44.3983 14.3962Z" fill="#F95341"/>
<path fill-rule="evenodd" clip-rule="evenodd" d="M60.4709 25.78C59.7943 26.7086 58.769 27.1729 57.3954 27.1729C56.0627 27.1729 55.0528 26.7241 54.3663 25.8275C53.6792 24.9309 53.3359 23.7215 53.3359 22.2003C53.3359 21.2148 53.4802 20.3497 53.7682 19.6046C54.0567 18.8595 54.5 18.278 55.0976 17.8584C55.6956 17.4389 56.4612 17.2288 57.3954 17.2288C58.748 17.2288 59.7683 17.6804 60.4554 18.582C61.1419 19.4841 61.4858 20.6902 61.4858 22.2003C61.4858 23.6585 61.1475 24.8519 60.4709 25.78ZM61.9028 14.381C60.6071 13.6155 59.1047 13.2324 57.3956 13.2324C55.7169 13.2324 54.2327 13.61 52.9426 14.3656C51.6525 15.1206 50.6404 16.172 49.9063 17.5201C49.1717 18.8678 48.8047 20.4282 48.8047 22.2003C48.8047 23.952 49.164 25.5025 49.8826 26.8501C50.6011 28.1983 51.6055 29.2546 52.8956 30.0207C54.1858 30.7863 55.6854 31.1688 57.3956 31.1688C59.0948 31.1688 60.5916 30.789 61.8873 30.0284C63.1824 29.2678 64.1945 28.2132 64.9241 26.8656C65.6527 25.518 66.0169 23.9631 66.0169 22.2003C66.0169 20.4492 65.6554 18.8993 64.9313 17.5511C64.2078 16.204 63.1984 15.1472 61.9028 14.381Z" fill="#F95341"/>
<path fill-rule="evenodd" clip-rule="evenodd" d="M83.0564 17.7559C82.8575 17.0063 82.5241 16.285 82.0576 15.5924C81.5911 14.9003 80.9377 14.3288 80.0987 13.8777C79.2596 13.4267 78.174 13.2012 76.8418 13.2012C75.1742 13.2012 73.7917 13.5632 72.6962 14.2868C72.181 14.6273 71.7288 15.0192 71.3353 15.4592V13.7047H67.5273V30.697H71.8703V22.0745C71.8703 21.0155 71.9886 20.1659 72.2241 19.5258C72.4601 18.8863 72.7614 18.4009 73.129 18.0704C73.496 17.7404 73.889 17.5171 74.3091 17.4021C74.7286 17.2866 75.1216 17.2291 75.4892 17.2291C76.4013 17.2291 77.1066 17.4336 77.6052 17.8427C78.1032 18.2511 78.4625 18.7602 78.683 19.3688C78.903 19.9774 79.034 20.5827 79.0761 21.1857C79.1181 21.7893 79.1391 22.2846 79.1391 22.6732V30.697H83.4821V21.1625C83.4821 20.8789 83.46 20.4284 83.4185 19.8094C83.3765 19.1903 83.2554 18.506 83.0564 17.7559Z" fill="#F95341"/>
<path fill-rule="evenodd" clip-rule="evenodd" d="M99.0252 14.2392V13.7041H85.0222V17.4175H92.417L84.0781 30.1618V30.6963H98.7107V26.9835H90.7178L99.0252 14.2392Z" fill="#F95341"/>
<path fill-rule="evenodd" clip-rule="evenodd" d="M113.939 14.2392V13.7041H99.9363V17.4175H107.331L98.9922 30.1618V30.6963H113.625V26.9835H105.632L113.939 14.2392Z" fill="#F95341"/>
<path fill-rule="evenodd" clip-rule="evenodd" d="M124.104 25.5358C123.988 25.7773 123.77 26.0764 123.451 26.4323C123.131 26.7894 122.701 27.1067 122.161 27.3842C121.621 27.6622 120.957 27.8015 120.171 27.8015C119.677 27.8015 119.253 27.728 118.896 27.581C118.54 27.4345 118.264 27.2217 118.07 26.9436C117.876 26.6662 117.779 26.3323 117.779 25.9443C117.779 25.6618 117.839 25.4048 117.96 25.1737C118.081 24.9432 118.269 24.7304 118.526 24.5358C118.783 24.3429 119.121 24.1616 119.541 23.9936C119.908 23.8576 120.333 23.731 120.816 23.6161C121.298 23.5005 121.933 23.3723 122.719 23.2302C123.224 23.1396 123.831 23.0346 124.535 22.9157C124.527 23.2148 124.512 23.547 124.489 23.9228C124.453 24.5358 124.324 25.0742 124.104 25.5358ZM128.1 16.3153C127.502 15.1832 126.622 14.3856 125.457 13.924C124.293 13.4625 122.961 13.2314 121.461 13.2314C119.415 13.2314 117.8 13.672 116.615 14.5536C115.429 15.4347 114.622 16.5778 114.192 17.9835L118.062 19.2106C118.335 18.4345 118.812 17.8945 119.494 17.5899C120.176 17.2859 120.832 17.1339 121.461 17.1339C122.594 17.1339 123.401 17.3699 123.884 17.842C124.262 18.2118 124.49 18.749 124.571 19.4472C123.85 19.5561 123.161 19.6578 122.515 19.7534C121.414 19.9159 120.427 20.0867 119.557 20.2647C118.686 20.4432 117.937 20.6478 117.307 20.8783C116.395 21.2143 115.668 21.6311 115.128 22.1291C114.588 22.6272 114.197 23.2015 113.956 23.8521C113.714 24.5027 113.594 25.2213 113.594 26.0078C113.594 26.9519 113.812 27.8142 114.247 28.5958C114.682 29.3769 115.322 30.0015 116.167 30.468C117.011 30.9351 118.041 31.1678 119.258 31.1678C120.727 31.1678 121.941 30.9135 122.9 30.4055C123.657 30.0037 124.372 29.4023 125.048 28.6063V30.6963H128.792V20.3122C128.792 19.5362 128.761 18.8331 128.698 18.2035C128.635 17.5744 128.436 16.9449 128.1 16.3153Z" fill="#F95341"/>
<path fill-rule="evenodd" clip-rule="evenodd" d="M141.473 13.7041L137.035 25.2666L132.568 13.7041H128.131L134.985 30.5626L132.19 38.2481H136.155L145.752 13.7041H141.473Z" fill="#F95341"/>
<path fill-rule="evenodd" clip-rule="evenodd" d="M22.4636 6.38456C20.1661 2.08757 16.4251 0.0313796 11.6129 0.00825438C8.05671 -0.00859963 4.5001 0.0055107 0.943491 0.00590266H0.0476731C0.0310552 0.375907 0.00864042 0.639692 0.00864042 0.903477C0.00709457 4.64507 -0.0122285 8.38587 0.012505 12.1271C0.0569481 18.6707 4.84985 23.8371 11.2782 24.2831C12.7646 24.3866 14.22 24.1934 15.7682 23.6513C14.9836 22.8603 14.2641 22.1877 13.609 21.4563C13.165 20.9605 12.7004 20.7743 12.023 20.781C7.346 20.8265 3.52506 17.0234 3.47288 12.2917C3.44351 9.62758 3.481 6.96269 3.45511 4.29858C3.45008 3.7177 3.58998 3.49311 4.20677 3.49978C6.80727 3.52839 9.40932 3.46842 12.0094 3.51271C17.1424 3.60051 20.9506 7.98098 20.4181 13.1654C20.2832 14.4757 19.8859 15.7072 19.0001 16.9246C16.7405 14.6215 14.5597 12.3983 12.4036 10.2002C11.6094 11.0026 10.8431 11.7774 10.0126 12.6154C10.2004 12.82 10.3565 13.0007 10.5235 13.1704C13.0544 15.7421 15.6341 18.2666 18.1055 20.8962C20.4745 23.4173 21.1067 26.4506 19.9663 29.7179C18.8255 32.9861 16.4541 35.0383 13.0421 35.3523C10.0404 35.6286 6.99935 35.4597 3.97567 35.4973C3.37434 35.5051 3.46863 35.0826 3.46786 34.7173C3.46477 32.1336 3.41453 29.5482 3.49066 26.9668C3.52312 25.8709 3.32139 25.0604 2.30538 24.5203C1.87177 24.2894 1.53014 23.8727 1.16146 23.5247C0.811321 23.1943 0.479737 22.8431 0.0847734 22.4456V38.9586C0.310081 38.9751 0.465825 38.9971 0.621569 38.9971C4.46957 38.9982 8.31757 39.0069 12.166 38.9877C12.8253 38.9841 13.4934 38.9065 14.1415 38.7799C22.6537 37.118 26.6617 27.4458 21.8978 20.0645C21.6594 19.6953 21.557 19.4366 21.8375 18.9996C24.4465 14.9248 24.743 10.6474 22.4636 6.38456Z" fill="#F95341"/>
</svg>
