<svg width="146" height="40" viewBox="0 0 146 40" fill="none" xmlns="http://www.w3.org/2000/svg">
<path fill-rule="evenodd" clip-rule="evenodd" d="M43.2502 25.3041C42.9666 26.0857 42.5316 26.707 41.9446 27.1686C41.3564 27.6301 40.6014 27.8612 39.6783 27.8612C38.7242 27.8612 37.9609 27.6461 37.3893 27.2155C36.8172 26.786 36.406 26.183 36.1539 25.4069C35.9024 24.6303 35.7764 23.7282 35.7764 22.7001C35.7764 21.6725 35.9024 20.7704 36.1539 19.9943C36.406 19.2177 36.8073 18.6147 37.3578 18.1846C37.9083 17.7551 38.6297 17.5396 39.5213 17.5396C40.4753 17.5396 41.2597 17.7734 41.8738 18.2399C42.4868 18.7064 42.9401 19.3305 43.2347 20.1121C43.5282 20.8937 43.6752 21.7565 43.6752 22.7001C43.6752 23.6552 43.5332 24.5231 43.2502 25.3041ZM44.3983 14.8963C43.1922 14.1208 41.776 13.7316 40.1504 13.7316C38.6469 13.7316 37.3689 14.0771 36.3109 14.7587V8.54016H32V31.1965H35.7759V30.2176C35.8936 30.311 36.0136 30.4022 36.1379 30.4884C37.2711 31.2755 38.6812 31.6685 40.3704 31.6685C41.933 31.6685 43.3022 31.2755 44.4768 30.4884C45.6514 29.7018 46.5668 28.6323 47.2223 27.2786C47.8779 25.926 48.2057 24.3993 48.2057 22.7001C48.2057 20.9694 47.8724 19.4305 47.2063 18.0829C46.5402 16.7347 45.6044 15.6729 44.3983 14.8963Z" fill="#7843FF"/>
<path fill-rule="evenodd" clip-rule="evenodd" d="M60.4709 26.2796C59.7943 27.2083 58.769 27.6726 57.3954 27.6726C56.0627 27.6726 55.0528 27.2237 54.3663 26.3272C53.6792 25.4306 53.3359 24.2212 53.3359 22.7C53.3359 21.7144 53.4802 20.8494 53.7682 20.1042C54.0567 19.3591 54.5 18.7776 55.0976 18.3581C55.6956 17.9386 56.4612 17.7285 57.3954 17.7285C58.748 17.7285 59.7683 18.1801 60.4554 19.0816C61.1419 19.9837 61.4858 21.1899 61.4858 22.7C61.4858 24.1582 61.1475 25.3516 60.4709 26.2796ZM61.9028 14.8807C60.6071 14.1151 59.1047 13.7321 57.3956 13.7321C55.7169 13.7321 54.2327 14.1096 52.9426 14.8652C51.6525 15.6203 50.6404 16.6716 49.9063 18.0198C49.1717 19.3674 48.8047 20.9279 48.8047 22.7C48.8047 24.4517 49.164 26.0021 49.8826 27.3498C50.6011 28.6979 51.6055 29.7542 52.8956 30.5204C54.1858 31.2859 55.6854 31.6684 57.3956 31.6684C59.0948 31.6684 60.5916 31.2887 61.8873 30.5281C63.1824 29.7675 64.1945 28.7129 64.9241 27.3652C65.6527 26.0176 66.0169 24.4627 66.0169 22.7C66.0169 20.9489 65.6554 19.3989 64.9313 18.0508C64.2078 16.7037 63.1984 15.6468 61.9028 14.8807Z" fill="#7843FF"/>
<path fill-rule="evenodd" clip-rule="evenodd" d="M83.0564 18.2555C82.8575 17.5059 82.5241 16.7846 82.0576 16.092C81.5911 15.3999 80.9377 14.8284 80.0987 14.3773C79.2596 13.9263 78.174 13.7008 76.8418 13.7008C75.1742 13.7008 73.7917 14.0628 72.6962 14.7864C72.181 15.1269 71.7288 15.5188 71.3353 15.9588V14.2043H67.5273V31.1966H71.8703V22.5742C71.8703 21.5151 71.9886 20.6655 72.2241 20.0254C72.4601 19.3859 72.7614 18.9005 73.129 18.57C73.496 18.24 73.889 18.0167 74.3091 17.9017C74.7286 17.7862 75.1216 17.7287 75.4892 17.7287C76.4013 17.7287 77.1066 17.9332 77.6052 18.3423C78.1032 18.7507 78.4625 19.2598 78.683 19.8684C78.903 20.477 79.034 21.0823 79.0761 21.6853C79.1181 22.2889 79.1391 22.7842 79.1391 23.1728V31.1966H83.4821V21.6621C83.4821 21.3785 83.46 20.928 83.4185 20.309C83.3765 19.6899 83.2554 19.0056 83.0564 18.2555Z" fill="#7843FF"/>
<path fill-rule="evenodd" clip-rule="evenodd" d="M99.0252 14.7392V14.2041H85.0222V17.9175H92.417L84.0781 30.6619V31.1964H98.7107V27.4835H90.7178L99.0252 14.7392Z" fill="#7843FF"/>
<path fill-rule="evenodd" clip-rule="evenodd" d="M113.939 14.7392V14.2041H99.9363V17.9175H107.331L98.9922 30.6619V31.1964H113.625V27.4835H105.632L113.939 14.7392Z" fill="#7843FF"/>
<path fill-rule="evenodd" clip-rule="evenodd" d="M124.104 26.0361C123.988 26.2777 123.77 26.5767 123.451 26.9327C123.131 27.2898 122.701 27.6071 122.161 27.8846C121.621 28.1626 120.957 28.3019 120.171 28.3019C119.677 28.3019 119.253 28.2284 118.896 28.0813C118.54 27.9349 118.264 27.7221 118.07 27.444C117.876 27.1665 117.779 26.8327 117.779 26.4446C117.779 26.1622 117.839 25.9051 117.96 25.6741C118.081 25.4436 118.269 25.2308 118.526 25.0362C118.783 24.8433 119.121 24.662 119.541 24.494C119.908 24.358 120.333 24.2314 120.816 24.1164C121.298 24.0009 121.933 23.8727 122.719 23.7306C123.224 23.64 123.831 23.5349 124.535 23.4161C124.527 23.7151 124.512 24.0473 124.489 24.4232C124.453 25.0362 124.324 25.5746 124.104 26.0361ZM128.1 16.8156C127.502 15.6836 126.622 14.886 125.457 14.4244C124.293 13.9629 122.961 13.7318 121.461 13.7318C119.415 13.7318 117.8 14.1724 116.615 15.054C115.429 15.9351 114.622 17.0782 114.192 18.4839L118.062 19.711C118.335 18.9349 118.812 18.3949 119.494 18.0903C120.176 17.7863 120.832 17.6343 121.461 17.6343C122.594 17.6343 123.401 17.8703 123.884 18.3423C124.262 18.7121 124.49 19.2494 124.571 19.9475C123.85 20.0564 123.161 20.1581 122.515 20.2538C121.414 20.4163 120.427 20.5871 119.557 20.7651C118.686 20.9436 117.937 21.1481 117.307 21.3786C116.395 21.7147 115.668 22.1315 115.128 22.6295C114.588 23.1275 114.197 23.7019 113.956 24.3525C113.714 25.003 113.594 25.7216 113.594 26.5082C113.594 27.4523 113.812 28.3146 114.247 29.0962C114.682 29.8772 115.322 30.5019 116.167 30.9684C117.011 31.4355 118.041 31.6682 119.258 31.6682C120.727 31.6682 121.941 31.4139 122.9 30.9059C123.657 30.5041 124.372 29.9027 125.048 29.1067V31.1967H128.792V20.8126C128.792 20.0365 128.761 19.3334 128.698 18.7038C128.635 18.0748 128.436 17.4452 128.1 16.8156Z" fill="#7843FF"/>
<path fill-rule="evenodd" clip-rule="evenodd" d="M141.473 14.2043L137.035 25.7668L132.568 14.2043H128.131L134.985 31.0628L132.19 38.7483H136.155L145.752 14.2043H141.473Z" fill="#7843FF"/>
<path fill-rule="evenodd" clip-rule="evenodd" d="M22.4636 6.88456C20.1661 2.58757 16.4251 0.53138 11.6129 0.508254C8.05671 0.4914 4.5001 0.505511 0.943491 0.505903H0.0476731C0.0310552 0.875907 0.00864042 1.13969 0.00864042 1.40348C0.00709457 5.14507 -0.0122285 8.88587 0.012505 12.6271C0.0569481 19.1707 4.84985 24.3371 11.2782 24.7831C12.7646 24.8866 14.22 24.6934 15.7682 24.1513C14.9836 23.3603 14.2641 22.6877 13.609 21.9563C13.165 21.4605 12.7004 21.2743 12.023 21.281C7.346 21.3265 3.52506 17.5234 3.47288 12.7917C3.44351 10.1276 3.481 7.46269 3.45511 4.79858C3.45008 4.2177 3.58998 3.99311 4.20677 3.99978C6.80727 4.02839 9.40932 3.96842 12.0094 4.01271C17.1424 4.10051 20.9506 8.48098 20.4181 13.6654C20.2832 14.9757 19.8859 16.2072 19.0001 17.4246C16.7405 15.1215 14.5597 12.8983 12.4036 10.7002C11.6094 11.5026 10.8431 12.2774 10.0126 13.1154C10.2004 13.32 10.3565 13.5007 10.5235 13.6704C13.0544 16.2421 15.6341 18.7666 18.1055 21.3962C20.4745 23.9173 21.1067 26.9506 19.9663 30.2179C18.8255 33.4861 16.4541 35.5383 13.0421 35.8523C10.0404 36.1286 6.99935 35.9597 3.97567 35.9973C3.37434 36.0051 3.46863 35.5826 3.46786 35.2173C3.46477 32.6336 3.41453 30.0482 3.49066 27.4668C3.52312 26.3709 3.32139 25.5604 2.30538 25.0203C1.87177 24.7894 1.53014 24.3727 1.16146 24.0247C0.811321 23.6943 0.479737 23.3431 0.0847734 22.9456V39.4586C0.310081 39.4751 0.465825 39.4971 0.621569 39.4971C4.46957 39.4982 8.31757 39.5069 12.166 39.4877C12.8253 39.4841 13.4934 39.4065 14.1415 39.2799C22.6537 37.618 26.6617 27.9458 21.8978 20.5645C21.6594 20.1953 21.557 19.9366 21.8375 19.4996C24.4465 15.4248 24.743 11.1474 22.4636 6.88456Z" fill="#7843FF"/>
</svg>
