<svg width="45" height="44" viewBox="0 0 45 44" fill="none" xmlns="http://www.w3.org/2000/svg">
<g clip-path="url(#clip0_8613_813)">
<rect x="0.666504" width="44" height="44" rx="8" fill="#F95341"/>
<g filter="url(#filter0_f_8613_813)">
<path d="M39.6688 44.6393C39.6688 54.7795 49.5809 63 39.6688 63C29.7568 63 7.70094 61.6447 7.70094 51.5045C7.70094 41.3643 6.62257 28 16.5346 28C68.5541 29.8446 39.6688 34.499 39.6688 44.6393Z" fill="white"/>
</g>
<path d="M32.064 31.0366C32.1429 31.1213 32.2042 31.2209 32.2443 31.3295C32.2844 31.4381 32.3026 31.5536 32.2978 31.6693C32.2929 31.785 32.2652 31.8986 32.2161 32.0035C32.1671 32.1083 32.0977 32.2025 32.012 32.2803C31.9263 32.3582 31.826 32.4183 31.717 32.4571C31.6079 32.4959 31.4922 32.5127 31.3765 32.5065C31.2609 32.5003 31.1477 32.4712 31.0434 32.4209C30.9391 32.3706 30.8458 32.3001 30.769 32.2135L29.6468 30.9786C27.914 32.3266 25.8281 33.1444 23.6409 33.3332C21.4536 33.522 19.2584 33.0739 17.3202 32.0428L13.596 33.2842C13.2877 33.3871 12.9568 33.402 12.6404 33.3273C12.3241 33.2527 12.0348 33.0914 11.805 32.8616C11.5751 32.6317 11.4138 32.3424 11.3392 32.0261C11.2645 31.7097 11.2794 31.3788 11.3823 31.0705L12.6237 27.3463C11.5064 25.245 11.076 22.8464 11.3928 20.4877C11.7097 18.1291 12.7579 15.9291 14.3901 14.1972L13.269 12.9635C13.1901 12.8787 13.1288 12.7791 13.0887 12.6705C13.0485 12.5619 13.0304 12.4464 13.0352 12.3307C13.04 12.215 13.0678 12.1015 13.1168 11.9966C13.1659 11.8917 13.2353 11.7976 13.321 11.7197C13.4066 11.6418 13.5069 11.5817 13.616 11.5429C13.7251 11.5041 13.8408 11.4873 13.9564 11.4935C14.0721 11.4997 14.1853 11.5288 14.2896 11.5792C14.3939 11.6295 14.4871 11.7 14.564 11.7866L32.064 31.0366ZM22.6665 10.625C21.1516 10.6222 19.6515 10.9239 18.2554 11.5121C18.1265 11.5664 18.0126 11.6509 17.9231 11.7584C17.8337 11.8659 17.7713 11.9933 17.7412 12.1299C17.7111 12.2664 17.7141 12.4082 17.7501 12.5434C17.7861 12.6785 17.854 12.8031 17.9481 12.9066L31.2699 27.5628C31.364 27.6672 31.4818 27.7474 31.6135 27.7966C31.7451 27.8458 31.8866 27.8626 32.0261 27.8455C32.1655 27.8284 32.2989 27.778 32.4147 27.6986C32.5306 27.6191 32.6256 27.5129 32.6918 27.3889C33.6243 25.6554 34.0911 23.7096 34.0464 21.7417C34.0017 19.7738 33.4471 17.8511 32.4368 16.1618C31.4265 14.4724 29.9951 13.0741 28.2825 12.1036C26.57 11.1331 24.6349 10.6237 22.6665 10.625Z" fill="white"/>
</g>
<defs>
<filter id="filter0_f_8613_813" x="-42.3335" y="-22" width="140" height="135" filterUnits="userSpaceOnUse" color-interpolation-filters="sRGB">
<feFlood flood-opacity="0" result="BackgroundImageFix"/>
<feBlend mode="normal" in="SourceGraphic" in2="BackgroundImageFix" result="shape"/>
<feGaussianBlur stdDeviation="25" result="effect1_foregroundBlur_8613_813"/>
</filter>
<clipPath id="clip0_8613_813">
<rect x="0.666504" width="44" height="44" rx="8" fill="white"/>
</clipPath>
</defs>
</svg>
