<svg width="44" height="44" viewBox="0 0 44 44" fill="none" xmlns="http://www.w3.org/2000/svg">
<g clip-path="url(#clip0_4778_37798)">
<rect y="0.00244141" width="44" height="44" rx="8" fill="#7843FF"/>
<g filter="url(#filter0_f_4778_37798)">
<path d="M39.0023 44.6417C39.0023 54.782 48.9144 63.0024 39.0023 63.0024C29.0903 63.0024 7.03444 61.6472 7.03444 51.5069C7.03444 41.3667 5.95606 28.0024 15.8681 28.0024C67.8876 29.847 39.0023 34.5015 39.0023 44.6417Z" fill="white"/>
</g>
<path d="M29.9592 13.8967C27.8414 11.7995 24.9805 10.6244 22 10.6274H21.883C18.8865 10.6583 16.0232 11.8703 13.9152 14.0002C11.8072 16.1301 10.6248 19.0058 10.625 22.0024C10.625 26.7056 13.5322 30.6496 18.2113 32.3023C18.739 32.4884 19.3037 32.5452 19.8579 32.468C20.4121 32.3908 20.9398 32.1818 21.3966 31.8586C21.8534 31.5354 22.226 31.1073 22.4833 30.6104C22.7405 30.1134 22.8748 29.562 22.875 29.0024C22.875 28.5383 23.0594 28.0932 23.3876 27.765C23.7158 27.4368 24.1609 27.2524 24.625 27.2524H29.6792C30.4732 27.2563 31.2445 26.9885 31.8653 26.4935C32.486 25.9985 32.9188 25.3061 33.0917 24.5312C33.2873 23.6701 33.3824 22.7892 33.375 21.9062C33.3639 20.4115 33.0562 18.934 32.4699 17.5591C31.8835 16.1842 31.0302 14.9393 29.9592 13.8967ZM17.1875 26.3774C16.9279 26.3774 16.6742 26.3005 16.4583 26.1563C16.2425 26.012 16.0742 25.807 15.9749 25.5672C15.8756 25.3274 15.8496 25.0635 15.9002 24.8089C15.9509 24.5543 16.0759 24.3204 16.2594 24.1369C16.443 23.9533 16.6768 23.8283 16.9314 23.7777C17.186 23.727 17.4499 23.753 17.6898 23.8524C17.9296 23.9517 18.1346 24.1199 18.2788 24.3358C18.423 24.5516 18.5 24.8054 18.5 25.0649C18.5 25.413 18.3617 25.7469 18.1156 25.993C17.8694 26.2392 17.5356 26.3774 17.1875 26.3774ZM17.1875 20.2524C16.9279 20.2524 16.6742 20.1755 16.4583 20.0313C16.2425 19.887 16.0742 19.682 15.9749 19.4422C15.8756 19.2024 15.8496 18.9385 15.9002 18.6839C15.9509 18.4293 16.0759 18.1954 16.2594 18.0119C16.443 17.8283 16.6768 17.7033 16.9314 17.6527C17.186 17.602 17.4499 17.628 17.6898 17.7274C17.9296 17.8267 18.1346 17.9949 18.2788 18.2108C18.423 18.4266 18.5 18.6804 18.5 18.9399C18.5 19.288 18.3617 19.6219 18.1156 19.868C17.8694 20.1142 17.5356 20.2524 17.1875 20.2524ZM22 17.6274C21.7404 17.6274 21.4867 17.5505 21.2708 17.4063C21.055 17.262 20.8867 17.057 20.7874 16.8172C20.6881 16.5774 20.6621 16.3135 20.7127 16.0589C20.7634 15.8043 20.8884 15.5704 21.0719 15.3869C21.2555 15.2033 21.4893 15.0783 21.7439 15.0277C21.9985 14.977 22.2624 15.003 22.5023 15.1024C22.7421 15.2017 22.9471 15.3699 23.0913 15.5858C23.2355 15.8016 23.3125 16.0554 23.3125 16.3149C23.3125 16.663 23.1742 16.9969 22.9281 17.243C22.6819 17.4892 22.3481 17.6274 22 17.6274ZM26.8125 20.2524C26.5529 20.2524 26.2992 20.1755 26.0833 20.0313C25.8675 19.887 25.6992 19.682 25.5999 19.4422C25.5006 19.2024 25.4746 18.9385 25.5252 18.6839C25.5759 18.4293 25.7009 18.1954 25.8844 18.0119C26.068 17.8283 26.3018 17.7033 26.5564 17.6527C26.811 17.602 27.0749 17.628 27.3148 17.7274C27.5546 17.8267 27.7596 17.9949 27.9038 18.2108C28.048 18.4266 28.125 18.6804 28.125 18.9399C28.125 19.288 27.9867 19.6219 27.7406 19.868C27.4944 20.1142 27.1606 20.2524 26.8125 20.2524Z" fill="white"/>
</g>
<defs>
<filter id="filter0_f_4778_37798" x="-43" y="-21.9976" width="140" height="135" filterUnits="userSpaceOnUse" color-interpolation-filters="sRGB">
<feFlood flood-opacity="0" result="BackgroundImageFix"/>
<feBlend mode="normal" in="SourceGraphic" in2="BackgroundImageFix" result="shape"/>
<feGaussianBlur stdDeviation="25" result="effect1_foregroundBlur_4778_37798"/>
</filter>
<clipPath id="clip0_4778_37798">
<rect y="0.00244141" width="44" height="44" rx="8" fill="white"/>
</clipPath>
</defs>
</svg>
