<svg width="157" height="154" viewBox="0 0 157 154" fill="none" xmlns="http://www.w3.org/2000/svg">
<path d="M73.6033 110.964L71.0179 151.83C71.0179 151.857 71.0443 151.857 71.0706 151.857L101.384 107.64L105.051 90.3334V90.307L2.10758 2.77093C2.0812 2.74455 2.05487 2.77096 2.08125 2.79734L32.7637 83.5004L73.6033 110.964Z" fill="#4C26AA"/>
<path d="M69.3801 152.911L71.9656 111.755L31.8383 84.7921L31.4162 84.5019L0.548996 3.27119L0.179688 2.084L2.21109 0.79126L105.999 89.0396L106.764 89.6728L102.938 107.771V108.246L72.335 152.753L71.6226 153.702L69.3801 152.911ZM103.308 90.8864L5.61441 7.80893L33.9753 82.4441L74.4455 109.644L75.2633 110.198L72.9153 146.342L99.8779 106.98L103.308 90.8864Z" fill="#361784"/>
<path d="M2.125 2.82255L101.348 107.613C101.348 107.613 101.348 107.613 101.375 107.613L154.64 100.78C154.667 100.78 154.667 100.753 154.64 100.727L2.15141 2.76978C2.12503 2.76978 2.125 2.79617 2.125 2.82255Z" fill="#7843FF"/>
<path d="M0.992769 3.87797L0.0429688 2.76992L1.86335 0.738525L155.46 99.3815L156.437 99.9883L155.935 102.178L101.641 109.143L100.797 109.275L0.992769 3.87797ZM11.9678 10.9484L101.931 105.977L150.237 99.7772L11.9678 10.9484Z" fill="#7843FF"/>
<path d="M70.9889 151.881L25.4797 95.0805C25.4533 95.0541 25.4797 95.0278 25.5061 95.0541L73.5743 110.963C73.5743 110.963 73.6007 110.963 73.6007 110.989L71.0153 151.881H70.9889Z" fill="#603DB8"/>
<path d="M24.2093 96.0038L23.5234 95.0541L24.8953 93.2073L73.9397 109.459L75.2061 109.802L72.5415 151.987L72.4624 153.068L70.431 153.728L24.2093 96.0038ZM29.9606 98.1408L69.7186 147.766L71.9611 112.044L29.9606 98.1408Z" fill="#603DB8"/>
<path d="M2.02344 2.76905L8.06498 120.223C8.06498 120.223 8.065 120.249 8.09139 120.249L73.5719 110.962C73.5983 110.962 73.5983 110.936 73.5983 110.936L2.07625 2.76905C2.04987 2.74267 2.02344 2.74267 2.02344 2.76905Z" fill="#7843FF"/>
<path d="M6.53568 120.936L0.441406 2.84898V2.79625L0.467734 1.55628L2.73664 0.923096L74.9447 110.119L75.3668 110.858L74.6281 112.361L8.25051 121.78L7.53814 121.833L6.53568 120.936ZM3.87106 8.31011L9.54321 118.456L70.9345 109.75L3.87106 8.31011Z" fill="#7843FF"/>
</svg>
