<svg width="45" height="44" viewBox="0 0 45 44" fill="none" xmlns="http://www.w3.org/2000/svg">
<g clip-path="url(#clip0_8663_168)">
<rect x="0.333496" width="44" height="44" rx="8" fill="#7843FF"/>
<g filter="url(#filter0_f_8663_168)">
<path d="M39.3358 44.6393C39.3358 54.7795 49.2478 63 39.3358 63C29.4238 63 7.36793 61.6447 7.36793 51.5045C7.36793 41.3643 6.28956 28 16.2016 28C68.2211 29.8446 39.3358 34.499 39.3358 44.6393Z" fill="white"/>
</g>
<g clip-path="url(#clip1_8663_168)">
<path d="M30.0038 29.3117C30.1111 29.4393 30.1797 29.5949 30.2016 29.7602C30.2235 29.9255 30.1977 30.0936 30.1272 30.2447C30.0568 30.3958 29.9446 30.5236 29.804 30.6132C29.6633 30.7027 29.5 30.7501 29.3333 30.75H10.9583C10.7917 30.7499 10.6285 30.7023 10.488 30.6127C10.3475 30.5231 10.2355 30.3953 10.1652 30.2442C10.0949 30.0931 10.0692 29.9251 10.0911 29.7599C10.113 29.5947 10.1816 29.4392 10.2889 29.3117C11.923 27.367 13.9552 25.9856 16.2138 25.2462C14.8421 24.3919 13.786 23.1141 13.2052 21.6061C12.6245 20.0981 12.5506 18.442 12.9949 16.8883C13.4392 15.3346 14.3774 13.9679 15.6676 12.9949C16.9578 12.0219 18.5298 11.4956 20.1458 11.4956C21.7618 11.4956 23.3338 12.0219 24.624 12.9949C25.9142 13.9679 26.8524 15.3346 27.2967 16.8883C27.741 18.442 27.6671 20.0981 27.0864 21.6061C26.5056 23.1141 25.4495 24.3919 24.0778 25.2462C26.3364 25.9856 28.3686 27.367 30.0038 29.3117ZM36.2436 24.8437C36.1667 24.9769 36.056 25.0875 35.9228 25.1643C35.7895 25.2411 35.6384 25.2815 35.4845 25.2812C35.3309 25.2817 35.1799 25.2413 35.047 25.1642L34.5363 24.8689C34.2918 25.0786 34.0108 25.2414 33.7072 25.349V25.9375C33.7072 26.1695 33.615 26.3921 33.4509 26.5562C33.2868 26.7203 33.0643 26.8125 32.8322 26.8125C32.6001 26.8125 32.3776 26.7203 32.2135 26.5562C32.0494 26.3921 31.9572 26.1695 31.9572 25.9375V25.349C31.6536 25.2414 31.3726 25.0786 31.1281 24.8689L30.6174 25.1642C30.4845 25.2413 30.3335 25.2817 30.1799 25.2812C29.9872 25.2813 29.7999 25.2178 29.647 25.1005C29.4941 24.9832 29.3842 24.8188 29.3343 24.6327C29.2845 24.4466 29.2974 24.2492 29.3712 24.0712C29.445 23.8932 29.5754 23.7445 29.7424 23.6483L30.252 23.354C30.1922 23.0375 30.1922 22.7125 30.252 22.3959L29.7424 22.1017C29.6428 22.0442 29.5556 21.9677 29.4856 21.8766C29.4156 21.7854 29.3643 21.6813 29.3345 21.5703C29.3048 21.4593 29.2972 21.3435 29.3122 21.2296C29.3271 21.1156 29.3644 21.0058 29.4219 20.9062C29.4793 20.8067 29.5558 20.7194 29.647 20.6495C29.7382 20.5795 29.8422 20.5282 29.9532 20.4984C30.0643 20.4686 30.18 20.461 30.294 20.476C30.4079 20.491 30.5178 20.5283 30.6174 20.5858L31.1281 20.8811C31.3726 20.6714 31.6536 20.5086 31.9572 20.4009V19.8125C31.9572 19.5804 32.0494 19.3579 32.2135 19.1938C32.3776 19.0297 32.6001 18.9375 32.8322 18.9375C33.0643 18.9375 33.2868 19.0297 33.4509 19.1938C33.615 19.3579 33.7072 19.5804 33.7072 19.8125V20.4009C34.0108 20.5086 34.2918 20.6714 34.5363 20.8811L35.047 20.5858C35.1466 20.5283 35.2565 20.491 35.3704 20.476C35.4844 20.461 35.6001 20.4686 35.7111 20.4984C35.8222 20.5282 35.9262 20.5795 36.0174 20.6495C36.1086 20.7194 36.1851 20.8067 36.2425 20.9062C36.3 21.0058 36.3372 21.1156 36.3522 21.2296C36.3672 21.3435 36.3596 21.4593 36.3299 21.5703C36.3001 21.6813 36.2488 21.7854 36.1788 21.8766C36.1088 21.9677 36.0216 22.0442 35.922 22.1017L35.4124 22.3959C35.4721 22.7125 35.4721 23.0375 35.4124 23.354L35.922 23.6483C36.0217 23.7056 36.1091 23.782 36.1792 23.8732C36.2492 23.9643 36.3007 24.0683 36.3306 24.1794C36.3604 24.2904 36.3681 24.4062 36.3532 24.5202C36.3383 24.6342 36.301 24.7441 36.2436 24.8437ZM32.8333 23.75C33.0063 23.75 33.1755 23.6987 33.3194 23.6025C33.4633 23.5064 33.5755 23.3697 33.6417 23.2098C33.7079 23.0499 33.7252 22.874 33.6915 22.7043C33.6577 22.5345 33.5744 22.3786 33.452 22.2563C33.3296 22.1339 33.1737 22.0506 33.004 22.0168C32.8343 21.983 32.6583 22.0004 32.4984 22.0666C32.3386 22.1328 32.2019 22.245 32.1058 22.3889C32.0096 22.5327 31.9583 22.7019 31.9583 22.875C31.9583 23.107 32.0505 23.3296 32.2146 23.4937C32.3787 23.6578 32.6012 23.75 32.8333 23.75Z" fill="white"/>
</g>
</g>
<defs>
<filter id="filter0_f_8663_168" x="-42.6665" y="-22" width="140" height="135" filterUnits="userSpaceOnUse" color-interpolation-filters="sRGB">
<feFlood flood-opacity="0" result="BackgroundImageFix"/>
<feBlend mode="normal" in="SourceGraphic" in2="BackgroundImageFix" result="shape"/>
<feGaussianBlur stdDeviation="25" result="effect1_foregroundBlur_8663_168"/>
</filter>
<clipPath id="clip0_8663_168">
<rect x="0.333496" width="44" height="44" rx="8" fill="white"/>
</clipPath>
<clipPath id="clip1_8663_168">
<rect width="28" height="28" fill="white" transform="translate(8.3335 8)"/>
</clipPath>
</defs>
</svg>
