<svg width="100" height="100" viewBox="0 0 100 100" fill="none" xmlns="http://www.w3.org/2000/svg">
<g clip-path="url(#clip0_8663_504)">
<rect width="100" height="100" fill="#1B1A20"/>
<g opacity="0.4" filter="url(#filter0_f_8663_504)">
<rect x="33.5977" y="1.10156" width="55.079" height="55.079" fill="#7843FF"/>
</g>
<g clip-path="url(#clip1_8663_504)">
<path opacity="0.05" d="M162.756 24.8821L144.706 34.2472M144.706 34.2472L119.287 47.436M144.706 34.2472L170.617 47.4632M144.706 34.2472L119.258 21.2671M119.287 47.436L93.5418 60.7941M119.287 47.436L145.198 60.6519M119.287 47.436L93.8388 34.4558M93.5418 60.7941L68.123 73.9828M93.5418 60.7941L119.452 74.01M93.5418 60.7941L68.0935 47.8139M68.123 73.9828L42.0088 87.5322M68.123 73.9828L94.0335 87.1987M68.123 73.9828L42.6747 61.0026M42.0088 87.5322L16.59 100.721M42.0088 87.5322L67.9194 100.748M42.0088 87.5322L16.5605 74.5521M16.59 100.721L6.40093 106.008M16.59 100.721L42.5005 113.937M16.59 100.721L-8.85831 87.7408M191.017 36.8781L170.617 47.4632M170.617 47.4632L145.198 60.6519M170.617 47.4632L193.985 59.3822M145.198 60.6519L119.452 74.01M145.198 60.6519L185.405 81.1598M119.452 74.01L94.0335 87.1987M119.452 74.01L135.021 81.951M94.0335 87.1987L67.9194 100.748M94.0335 87.1987L126.441 103.729M67.9194 100.748L42.5005 113.937M67.9194 100.748L88.8669 111.433M42.5005 113.937L34.6627 118.004M42.5005 113.937L80.2871 133.21M138.154 11.4628L119.258 21.2671M119.258 21.2671L93.8388 34.4558M119.258 21.2671L92.139 7.43495M93.8388 34.4558L68.0935 47.8139M93.8388 34.4558L66.5233 20.5233M68.0935 47.8139L42.6747 61.0026M68.0935 47.8139L40.5786 33.7797M42.6747 61.0026L16.5605 74.5521M42.6747 61.0026L14.9629 46.868M16.5605 74.5521L-8.85831 87.7408M16.5605 74.5521L-11.3535 60.3143M-8.85831 87.7408L-18.201 92.5883M-8.85831 87.7408L-36.9691 73.4026M139.17 -16.5956L119.336 -6.46145M119.336 -6.46145L92.139 7.43495M119.336 -6.46145L209.803 39.6821M119.336 -6.46145L93.7113 -19.5317M92.139 7.43495L66.5233 20.5233M92.139 7.43495L66.5141 -5.63527M66.5233 20.5233L40.5786 33.7797M66.5233 20.5233L40.8984 7.45304M40.5786 33.7797L14.9629 46.868M40.5786 33.7797L14.9537 20.7095M14.9629 46.868L-11.3535 60.3143M14.9629 46.868L-10.662 33.7978M-11.3535 60.3143L-36.9691 73.4026M-11.3535 60.3143L-36.9784 47.2441M-36.9691 73.4026L-83.6707 97.2647M-36.9691 73.4026L-62.594 60.3324M126.564 -36.3179L119.327 -32.62M119.327 -32.62L93.7113 -19.5317M119.327 -32.62L218.383 17.9045M119.327 -32.62L67.833 -58.885M93.7113 -19.5317L66.5141 -5.63527M93.7113 -19.5317L67.8422 -32.7265M66.5141 -5.63527L40.8984 7.45304M66.5141 -5.63527L40.645 -18.8301M40.8984 7.45304L14.9537 20.7095M40.8984 7.45304L15.0293 -5.74175M14.9537 20.7095L-10.662 33.7978M14.9537 20.7095L-10.9155 7.51468M-10.662 33.7978L-36.9784 47.2441M-10.662 33.7978L-36.5311 20.603M-36.9784 47.2441L-62.594 60.3324M-36.9784 47.2441L-62.8475 34.0493M-62.594 60.3324L-96.2767 77.5425M-62.594 60.3324L-88.4632 47.1376M91.1862 -44.6541L67.8422 -32.7265M67.8422 -32.7265L40.645 -18.8301M67.8422 -32.7265L42.2173 -45.7967M40.645 -18.8301L15.0293 -5.74175M40.645 -18.8301L15.0201 -31.9003M15.0293 -5.74175L-10.9155 7.51468M15.0293 -5.74175L-10.5956 -18.812M-10.9155 7.51468L-36.5311 20.603M-10.9155 7.51468L-36.5404 -5.55555M-36.5311 20.603L-62.8475 34.0493M-36.5311 20.603L-62.156 7.53275M-62.8475 34.0493L-88.4632 47.1376M-62.8475 34.0493L-88.4724 20.9791M-88.4632 47.1376L-131.655 69.2063M-88.4632 47.1376L-114.088 34.0674M78.5802 -64.3763L67.833 -58.885M67.833 -58.885L42.2173 -45.7967M67.833 -58.885L-4.53821 -95.7986M42.2173 -45.7967L15.0201 -31.9003M42.2173 -45.7967L-13.118 -74.021M15.0201 -31.9003L-10.5956 -18.812M15.0201 -31.9003L-28.9368 -54.3209M-10.5956 -18.812L-36.5404 -5.55555M-10.5956 -18.812L-37.5167 -32.5433M-36.5404 -5.55555L-62.156 7.53275M-36.5404 -5.55555L-87.9002 -31.7521M-62.156 7.53275L-88.4724 20.9791M-62.156 7.53275L-96.4801 -9.97456M-88.4724 20.9791L-114.088 34.0674M-88.4724 20.9791L-134.054 -2.27043M-114.088 34.0674L-144.261 49.4841M-114.088 34.0674L-142.634 19.5071M189.187 24.9928L171.138 34.3579M171.138 34.3579L145.719 47.5466M171.138 34.3579L197.048 47.5739M171.138 34.3579L145.69 21.3778M145.719 47.5466L119.974 60.9048M145.719 47.5466L171.63 60.7626M145.719 47.5466L120.271 34.5665M119.974 60.9048L94.5548 74.0935M119.974 60.9048L145.884 74.1207M119.974 60.9048L94.5253 47.9246M94.5548 74.0935L68.4406 87.6429M94.5548 74.0935L120.465 87.3094M94.5548 74.0935L69.1065 61.1133M68.4406 87.6429L43.0219 100.832M68.4406 87.6429L94.3512 100.859M68.4406 87.6429L42.9924 74.6628M43.0219 100.832L32.8328 106.118M43.0219 100.832L68.9324 114.048M43.0219 100.832L17.5736 87.8515M217.449 36.9888L197.048 47.5739M197.048 47.5739L171.63 60.7626M197.048 47.5739L220.416 59.4929M171.63 60.7626L145.884 74.1207M171.63 60.7626L211.836 81.2705M145.884 74.1207L120.465 87.3094M145.884 74.1207L161.453 82.0617M120.465 87.3094L94.3512 100.859M120.465 87.3094L152.873 103.839M94.3512 100.859L68.9324 114.048M94.3512 100.859L115.299 111.543M68.9324 114.048L61.0945 118.114M68.9324 114.048L106.719 133.321M164.586 11.5735L145.69 21.3778M145.69 21.3778L120.271 34.5665M145.69 21.3778L118.571 7.54563M120.271 34.5665L94.5253 47.9246M120.271 34.5665L92.9552 20.6339M94.5253 47.9246L69.1065 61.1133M94.5253 47.9246L67.0104 33.8904M69.1065 61.1133L42.9924 74.6628M69.1065 61.1133L41.3948 46.9787M42.9924 74.6628L17.5736 87.8515M42.9924 74.6628L15.0784 60.425M17.5736 87.8515L8.23083 92.699M17.5736 87.8515L-10.5373 73.5133M165.602 -16.4849L145.768 -6.35077M145.768 -6.35077L118.571 7.54563M145.768 -6.35077L236.235 39.7928M145.768 -6.35077L120.143 -19.421M118.571 7.54563L92.9552 20.6339M118.571 7.54563L92.9459 -5.52459M92.9552 20.6339L67.0104 33.8904M92.9552 20.6339L67.3303 7.56372M67.0104 33.8904L41.3948 46.9787M67.0104 33.8904L41.3855 20.8201M41.3948 46.9787L15.0784 60.425M41.3948 46.9787L15.7699 33.9084M15.0784 60.425L-10.5373 73.5133M15.0784 60.425L-10.5465 47.3548M-10.5373 73.5133L-57.2389 97.3754M-10.5373 73.5133L-36.1622 60.4431M152.996 -36.2072L145.759 -32.5093M145.759 -32.5093L120.143 -19.421M145.759 -32.5093L244.815 18.0152M145.759 -32.5093L94.2648 -58.7743M120.143 -19.421L92.9459 -5.52459M120.143 -19.421L94.2741 -32.6158M92.9459 -5.52459L67.3303 7.56372M92.9459 -5.52459L67.0768 -18.7194M67.3303 7.56372L41.3855 20.8201M67.3303 7.56372L41.4611 -5.63107M41.3855 20.8201L15.7699 33.9084M41.3855 20.8201L15.5164 7.62536M15.7699 33.9084L-10.5465 47.3548M15.7699 33.9084L-10.0993 20.7137M-10.5465 47.3548L-36.1622 60.4431M-10.5465 47.3548L-36.4156 34.16M-36.1622 60.4431L-69.8448 77.6532M-36.1622 60.4431L-62.0313 47.2483M117.618 -44.5434L94.2741 -32.6158M94.2741 -32.6158L67.0768 -18.7194M94.2741 -32.6158L68.6492 -45.686M67.0768 -18.7194L41.4611 -5.63107M67.0768 -18.7194L41.4519 -31.7896M41.4611 -5.63107L15.5164 7.62536M41.4611 -5.63107L15.8362 -18.7013M15.5164 7.62536L-10.0993 20.7137M15.5164 7.62536L-10.1085 -5.44486M-10.0993 20.7137L-36.4156 34.16M-10.0993 20.7137L-35.7242 7.64343M-36.4156 34.16L-62.0313 47.2483M-36.4156 34.16L-62.0406 21.0898M-62.0313 47.2483L-105.223 69.317M-62.0313 47.2483L-87.6562 34.1781M105.012 -64.2656L94.2648 -58.7743M94.2648 -58.7743L68.6492 -45.686M94.2648 -58.7743L21.8937 -95.6879M68.6492 -45.686L41.4519 -31.7896M68.6492 -45.686L13.3138 -73.9103M41.4519 -31.7896L15.8362 -18.7013M41.4519 -31.7896L-2.50489 -54.2102M15.8362 -18.7013L-10.1085 -5.44486M15.8362 -18.7013L-11.0848 -32.4326M-10.1085 -5.44486L-35.7242 7.64343M-10.1085 -5.44486L-61.4684 -31.6414M-35.7242 7.64343L-62.0406 21.0898M-35.7242 7.64343L-70.0482 -9.86387M-62.0406 21.0898L-87.6562 34.1781M-62.0406 21.0898L-107.623 -2.15975M-87.6562 34.1781L-117.829 49.5947M-87.6562 34.1781L-116.202 19.6178" stroke="white" stroke-width="0.420168"/>
</g>
<path d="M12.2077 48.9914L1 48.4816V72.2884H101V56.4924L89.8878 61.9178L78.7757 58.6043L67.6667 43.6376L56.6522 46.1152L45.5411 38.4318L34.43 55.1087L23.3188 62.1727L12.2077 48.9914Z" fill="url(#paint0_linear_8663_504)" fill-opacity="0.4"/>
<path d="M1 48.4816L12.2077 48.9914L23.3188 62.1727L34.43 55.1087L45.5411 38.4318L56.6522 46.1152L67.6667 43.6376L78.7756 58.6043L89.8878 61.9178L101 56.4924" stroke="#7843FF" stroke-width="0.442717" stroke-linejoin="round"/>
<g filter="url(#filter1_d_8663_504)">
<ellipse cx="12.1016" cy="49.1127" rx="1.10158" ry="1.1127" fill="url(#paint1_radial_8663_504)"/>
</g>
<g filter="url(#filter2_d_8663_504)">
<ellipse cx="23.1016" cy="62.1127" rx="1.10158" ry="1.1127" fill="url(#paint2_radial_8663_504)"/>
</g>
<g filter="url(#filter3_d_8663_504)">
<ellipse cx="46.1016" cy="39.1127" rx="1.10158" ry="1.1127" fill="url(#paint3_radial_8663_504)"/>
</g>
<g filter="url(#filter4_d_8663_504)">
<ellipse cx="57.1016" cy="46.1127" rx="1.10158" ry="1.1127" fill="url(#paint4_radial_8663_504)"/>
</g>
<g filter="url(#filter5_d_8663_504)">
<ellipse cx="68.1016" cy="44.1127" rx="1.10158" ry="1.1127" fill="url(#paint5_radial_8663_504)"/>
</g>
<g filter="url(#filter6_d_8663_504)">
<ellipse cx="78.1016" cy="58.1127" rx="1.10158" ry="1.1127" fill="url(#paint6_radial_8663_504)"/>
</g>
</g>
<defs>
<filter id="filter0_f_8663_504" x="6.05815" y="-26.4379" width="110.158" height="110.158" filterUnits="userSpaceOnUse" color-interpolation-filters="sRGB">
<feFlood flood-opacity="0" result="BackgroundImageFix"/>
<feBlend mode="normal" in="SourceGraphic" in2="BackgroundImageFix" result="shape"/>
<feGaussianBlur stdDeviation="13.7698" result="effect1_foregroundBlur_8663_504"/>
</filter>
<filter id="filter1_d_8663_504" x="8.0608" y="45.0608" width="8.08152" height="8.10386" filterUnits="userSpaceOnUse" color-interpolation-filters="sRGB">
<feFlood flood-opacity="0" result="BackgroundImageFix"/>
<feColorMatrix in="SourceAlpha" type="matrix" values="0 0 0 0 0 0 0 0 0 0 0 0 0 0 0 0 0 0 127 0" result="hardAlpha"/>
<feOffset/>
<feGaussianBlur stdDeviation="1.4696"/>
<feComposite in2="hardAlpha" operator="out"/>
<feColorMatrix type="matrix" values="0 0 0 0 1 0 0 0 0 1 0 0 0 0 1 0 0 0 0.38 0"/>
<feBlend mode="normal" in2="BackgroundImageFix" result="effect1_dropShadow_8663_504"/>
<feBlend mode="normal" in="SourceGraphic" in2="effect1_dropShadow_8663_504" result="shape"/>
</filter>
<filter id="filter2_d_8663_504" x="19.0608" y="58.0608" width="8.08152" height="8.10386" filterUnits="userSpaceOnUse" color-interpolation-filters="sRGB">
<feFlood flood-opacity="0" result="BackgroundImageFix"/>
<feColorMatrix in="SourceAlpha" type="matrix" values="0 0 0 0 0 0 0 0 0 0 0 0 0 0 0 0 0 0 127 0" result="hardAlpha"/>
<feOffset/>
<feGaussianBlur stdDeviation="1.4696"/>
<feComposite in2="hardAlpha" operator="out"/>
<feColorMatrix type="matrix" values="0 0 0 0 1 0 0 0 0 1 0 0 0 0 1 0 0 0 0.38 0"/>
<feBlend mode="normal" in2="BackgroundImageFix" result="effect1_dropShadow_8663_504"/>
<feBlend mode="normal" in="SourceGraphic" in2="effect1_dropShadow_8663_504" result="shape"/>
</filter>
<filter id="filter3_d_8663_504" x="42.0608" y="35.0608" width="8.08152" height="8.10386" filterUnits="userSpaceOnUse" color-interpolation-filters="sRGB">
<feFlood flood-opacity="0" result="BackgroundImageFix"/>
<feColorMatrix in="SourceAlpha" type="matrix" values="0 0 0 0 0 0 0 0 0 0 0 0 0 0 0 0 0 0 127 0" result="hardAlpha"/>
<feOffset/>
<feGaussianBlur stdDeviation="1.4696"/>
<feComposite in2="hardAlpha" operator="out"/>
<feColorMatrix type="matrix" values="0 0 0 0 1 0 0 0 0 1 0 0 0 0 1 0 0 0 0.38 0"/>
<feBlend mode="normal" in2="BackgroundImageFix" result="effect1_dropShadow_8663_504"/>
<feBlend mode="normal" in="SourceGraphic" in2="effect1_dropShadow_8663_504" result="shape"/>
</filter>
<filter id="filter4_d_8663_504" x="53.0608" y="42.0608" width="8.08152" height="8.10386" filterUnits="userSpaceOnUse" color-interpolation-filters="sRGB">
<feFlood flood-opacity="0" result="BackgroundImageFix"/>
<feColorMatrix in="SourceAlpha" type="matrix" values="0 0 0 0 0 0 0 0 0 0 0 0 0 0 0 0 0 0 127 0" result="hardAlpha"/>
<feOffset/>
<feGaussianBlur stdDeviation="1.4696"/>
<feComposite in2="hardAlpha" operator="out"/>
<feColorMatrix type="matrix" values="0 0 0 0 1 0 0 0 0 1 0 0 0 0 1 0 0 0 0.38 0"/>
<feBlend mode="normal" in2="BackgroundImageFix" result="effect1_dropShadow_8663_504"/>
<feBlend mode="normal" in="SourceGraphic" in2="effect1_dropShadow_8663_504" result="shape"/>
</filter>
<filter id="filter5_d_8663_504" x="64.0608" y="40.0608" width="8.08152" height="8.10386" filterUnits="userSpaceOnUse" color-interpolation-filters="sRGB">
<feFlood flood-opacity="0" result="BackgroundImageFix"/>
<feColorMatrix in="SourceAlpha" type="matrix" values="0 0 0 0 0 0 0 0 0 0 0 0 0 0 0 0 0 0 127 0" result="hardAlpha"/>
<feOffset/>
<feGaussianBlur stdDeviation="1.4696"/>
<feComposite in2="hardAlpha" operator="out"/>
<feColorMatrix type="matrix" values="0 0 0 0 1 0 0 0 0 1 0 0 0 0 1 0 0 0 0.38 0"/>
<feBlend mode="normal" in2="BackgroundImageFix" result="effect1_dropShadow_8663_504"/>
<feBlend mode="normal" in="SourceGraphic" in2="effect1_dropShadow_8663_504" result="shape"/>
</filter>
<filter id="filter6_d_8663_504" x="74.0608" y="54.0608" width="8.08152" height="8.10386" filterUnits="userSpaceOnUse" color-interpolation-filters="sRGB">
<feFlood flood-opacity="0" result="BackgroundImageFix"/>
<feColorMatrix in="SourceAlpha" type="matrix" values="0 0 0 0 0 0 0 0 0 0 0 0 0 0 0 0 0 0 127 0" result="hardAlpha"/>
<feOffset/>
<feGaussianBlur stdDeviation="1.4696"/>
<feComposite in2="hardAlpha" operator="out"/>
<feColorMatrix type="matrix" values="0 0 0 0 1 0 0 0 0 1 0 0 0 0 1 0 0 0 0.38 0"/>
<feBlend mode="normal" in2="BackgroundImageFix" result="effect1_dropShadow_8663_504"/>
<feBlend mode="normal" in="SourceGraphic" in2="effect1_dropShadow_8663_504" result="shape"/>
</filter>
<linearGradient id="paint0_linear_8663_504" x1="58.5646" y1="34.5394" x2="58.5274" y2="68.5002" gradientUnits="userSpaceOnUse">
<stop stop-color="#7843FF"/>
<stop offset="1" stop-color="#482899" stop-opacity="0.09"/>
</linearGradient>
<radialGradient id="paint1_radial_8663_504" cx="0" cy="0" r="1" gradientUnits="userSpaceOnUse" gradientTransform="translate(12.1016 49.1127) rotate(90) scale(1.1127 1.10158)">
<stop stop-color="#D6BDFF"/>
<stop offset="1" stop-color="#7843FF"/>
</radialGradient>
<radialGradient id="paint2_radial_8663_504" cx="0" cy="0" r="1" gradientUnits="userSpaceOnUse" gradientTransform="translate(23.1016 62.1127) rotate(90) scale(1.1127 1.10158)">
<stop stop-color="#D6BDFF"/>
<stop offset="1" stop-color="#7843FF"/>
</radialGradient>
<radialGradient id="paint3_radial_8663_504" cx="0" cy="0" r="1" gradientUnits="userSpaceOnUse" gradientTransform="translate(46.1016 39.1127) rotate(90) scale(1.1127 1.10158)">
<stop stop-color="#D6BDFF"/>
<stop offset="1" stop-color="#7843FF"/>
</radialGradient>
<radialGradient id="paint4_radial_8663_504" cx="0" cy="0" r="1" gradientUnits="userSpaceOnUse" gradientTransform="translate(57.1016 46.1127) rotate(90) scale(1.1127 1.10158)">
<stop stop-color="#D6BDFF"/>
<stop offset="1" stop-color="#7843FF"/>
</radialGradient>
<radialGradient id="paint5_radial_8663_504" cx="0" cy="0" r="1" gradientUnits="userSpaceOnUse" gradientTransform="translate(68.1016 44.1127) rotate(90) scale(1.1127 1.10158)">
<stop stop-color="#D6BDFF"/>
<stop offset="1" stop-color="#7843FF"/>
</radialGradient>
<radialGradient id="paint6_radial_8663_504" cx="0" cy="0" r="1" gradientUnits="userSpaceOnUse" gradientTransform="translate(78.1016 58.1127) rotate(90) scale(1.1127 1.10158)">
<stop stop-color="#D6BDFF"/>
<stop offset="1" stop-color="#7843FF"/>
</radialGradient>
<clipPath id="clip0_8663_504">
<rect width="100" height="100" fill="white"/>
</clipPath>
<clipPath id="clip1_8663_504">
<rect width="186.134" height="100" fill="white" transform="translate(-43)"/>
</clipPath>
</defs>
</svg>
