<svg width="620" height="333" viewBox="0 0 620 333" fill="none" xmlns="http://www.w3.org/2000/svg">
<g clip-path="url(#clip0_4778_37783)">
<mask id="path-1-inside-1_4778_37783" fill="white">
<path d="M0 16C0 7.16343 7.16344 0 16 0H604C612.837 0 620 7.16344 620 16V333H0V16Z"/>
</mask>
<path d="M0 16C0 7.16343 7.16344 0 16 0H604C612.837 0 620 7.16344 620 16V333H0V16Z" fill="#09110A"/>
<path opacity="0.05" d="M685.358 82.8811L625.236 114.076M625.236 114.076L540.567 158.006M625.236 114.076L711.542 158.097M625.236 114.076L540.469 70.8399M540.567 158.006L454.811 202.501M540.567 158.006L626.873 202.028M540.567 158.006L455.801 114.77M454.811 202.501L370.143 246.432M454.811 202.501L541.118 246.523M454.811 202.501L370.045 159.265M370.143 246.432L283.159 291.564M370.143 246.432L456.449 290.453M370.143 246.432L285.377 203.196M283.159 291.564L198.491 335.495M283.159 291.564L369.465 335.585M283.159 291.564L198.393 248.328M198.491 335.495L164.552 353.104M198.491 335.495L284.797 379.516M198.491 335.495L113.724 292.259M779.495 122.839L711.542 158.097M711.542 158.097L626.873 202.028M711.542 158.097L789.379 197.798M626.873 202.028L541.118 246.523M626.873 202.028L760.8 270.338M541.118 246.523L456.449 290.453M541.118 246.523L592.976 272.973M456.449 290.453L369.465 335.585M456.449 290.453L564.397 345.513M369.465 335.585L284.797 379.516M369.465 335.585L439.24 371.175M284.797 379.516L258.689 393.062M284.797 379.516L410.661 443.714M603.41 38.1826L540.469 70.8399M540.469 70.8399L455.801 114.77M540.469 70.8399L450.139 24.766M455.801 114.77L370.045 159.265M455.801 114.77L364.815 68.3622M370.045 159.265L285.377 203.196M370.045 159.265L278.395 112.518M285.377 203.196L198.393 248.328M285.377 203.196L193.071 156.115M198.393 248.328L113.724 292.259M198.393 248.328L105.413 200.903M113.724 292.259L82.6045 308.406M113.724 292.259L20.0893 244.499M606.796 -55.278L540.731 -21.5218M540.731 -21.5218L450.139 24.766M540.731 -21.5218L842.07 132.179M540.731 -21.5218L455.376 -65.0578M450.139 24.766L364.815 68.3622M450.139 24.766L364.784 -18.7699M364.815 68.3622L278.395 112.518M364.815 68.3622L279.46 24.8263M278.395 112.518L193.071 156.115M278.395 112.518L193.04 68.9824M193.071 156.115L105.413 200.903M193.071 156.115L107.716 112.579M105.413 200.903L20.0893 244.499M105.413 200.903L20.0585 157.367M20.0893 244.499L-135.47 323.982M20.0893 244.499L-65.2653 200.963M564.807 -120.971L540.7 -108.654M540.7 -108.654L455.376 -65.0578M540.7 -108.654L870.648 59.6394M540.7 -108.654L369.177 -196.141M455.376 -65.0578L364.784 -18.7699M455.376 -65.0578L369.208 -109.009M364.784 -18.7699L279.46 24.8263M364.784 -18.7699L278.616 -62.7208M279.46 24.8263L193.04 68.9824M279.46 24.8263L193.292 -19.1246M193.04 68.9824L107.716 112.579M193.04 68.9824L106.872 25.0316M107.716 112.579L20.0585 157.367M107.716 112.579L21.5483 68.6277M20.0585 157.367L-65.2653 200.963M20.0585 157.367L-66.1096 113.416M-65.2653 200.963L-177.46 258.289M-65.2653 200.963L-151.433 157.013M446.965 -148.739L369.208 -109.009M369.208 -109.009L278.616 -62.7208M369.208 -109.009L283.853 -152.545M278.616 -62.7208L193.292 -19.1246M278.616 -62.7208L193.261 -106.257M193.292 -19.1246L106.872 25.0316M193.292 -19.1246L107.937 -62.6605M106.872 25.0316L21.5483 68.6277M106.872 25.0316L21.5175 -18.5044M21.5483 68.6277L-66.1096 113.416M21.5483 68.6277L-63.8064 25.0918M-66.1096 113.416L-151.433 157.013M-66.1096 113.416L-151.464 69.8805M-151.433 157.013L-295.301 230.522M-151.433 157.013L-236.788 113.477M404.976 -214.432L369.177 -196.141M369.177 -196.141L283.853 -152.545M369.177 -196.141L128.114 -319.097M283.853 -152.545L193.261 -106.257M283.853 -152.545L99.5355 -246.558M193.261 -106.257L107.937 -62.6605M193.261 -106.257L46.8446 -180.938M107.937 -62.6605L21.5175 -18.5044M107.937 -62.6605L18.2655 -108.399M21.5175 -18.5044L-63.8064 25.0918M21.5175 -18.5044L-149.558 -105.763M-63.8064 25.0918L-151.464 69.8805M-63.8064 25.0918L-178.137 -33.2237M-151.464 69.8805L-236.788 113.477M-151.464 69.8805L-303.294 -7.56188M-236.788 113.477L-337.291 164.828M-236.788 113.477L-331.873 64.9776M773.4 83.2498L713.278 114.444M713.278 114.444L628.61 158.375M713.278 114.444L799.584 158.466M713.278 114.444L628.512 71.2086M628.61 158.375L542.854 202.87M628.61 158.375L714.916 202.396M628.61 158.375L543.843 115.139M542.854 202.87L458.186 246.801M542.854 202.87L629.16 246.891M542.854 202.87L458.088 159.634M458.186 246.801L371.201 291.933M458.186 246.801L544.492 290.822M458.186 246.801L373.419 203.565M371.201 291.933L286.533 335.863M371.201 291.933L457.508 335.954M371.201 291.933L286.435 248.697M286.533 335.863L252.594 353.473M286.533 335.863L372.839 379.885M286.533 335.863L201.767 292.628M867.538 123.208L799.584 158.466M799.584 158.466L714.916 202.396M799.584 158.466L877.421 198.167M714.916 202.396L629.16 246.891M714.916 202.396L848.842 270.707M629.16 246.891L544.492 290.822M629.16 246.891L681.018 273.342M544.492 290.822L457.508 335.954M544.492 290.822L652.44 345.881M457.508 335.954L372.839 379.885M457.508 335.954L527.282 371.543M372.839 379.885L346.732 393.431M372.839 379.885L498.704 444.083M691.453 38.5513L628.512 71.2086M628.512 71.2086L543.843 115.139M628.512 71.2086L538.181 25.1347M543.843 115.139L458.088 159.634M543.843 115.139L452.857 68.7309M458.088 159.634L373.419 203.565M458.088 159.634L366.438 112.887M373.419 203.565L286.435 248.697M373.419 203.565L281.114 156.483M286.435 248.697L201.767 292.628M286.435 248.697L193.456 201.272M201.767 292.628L170.647 308.774M201.767 292.628L108.132 244.868M694.839 -54.9093L628.773 -21.1532M628.773 -21.1532L538.181 25.1347M628.773 -21.1532L930.112 132.548M628.773 -21.1532L543.419 -64.6891M538.181 25.1347L452.857 68.7309M538.181 25.1347L452.827 -18.4012M452.857 68.7309L366.438 112.887M452.857 68.7309L367.503 25.195M366.438 112.887L281.114 156.483M366.438 112.887L281.083 69.3511M281.114 156.483L193.456 201.272M281.114 156.483L195.759 112.947M193.456 201.272L108.132 244.868M193.456 201.272L108.101 157.736M108.132 244.868L-47.4277 324.351M108.132 244.868L22.7772 201.332M652.849 -120.603L628.743 -108.285M628.743 -108.285L543.419 -64.6891M628.743 -108.285L958.691 60.008M628.743 -108.285L457.22 -195.772M543.419 -64.6891L452.827 -18.4012M543.419 -64.6891L457.251 -108.64M452.827 -18.4012L367.503 25.195M452.827 -18.4012L366.659 -62.3521M367.503 25.195L281.083 69.3511M367.503 25.195L281.335 -18.7559M281.083 69.3511L195.759 112.947M281.083 69.3511L194.915 25.4003M195.759 112.947L108.101 157.736M195.759 112.947L109.591 68.9964M108.101 157.736L22.7772 201.332M108.101 157.736L21.933 113.785M22.7772 201.332L-89.4172 258.658M22.7772 201.332L-63.3909 157.381M535.008 -148.37L457.251 -108.64M457.251 -108.64L366.659 -62.3521M457.251 -108.64L371.896 -152.176M366.659 -62.3521L281.335 -18.7559M366.659 -62.3521L281.304 -105.888M281.335 -18.7559L194.915 25.4003M281.335 -18.7559L195.98 -62.2919M194.915 25.4003L109.591 68.9964M194.915 25.4003L109.56 -18.1357M109.591 68.9964L21.933 113.785M109.591 68.9964L24.2362 25.4605M21.933 113.785L-63.3909 157.381M21.933 113.785L-63.4217 70.2491M-63.3909 157.381L-207.259 230.89M-63.3909 157.381L-148.746 113.845M493.018 -214.063L457.22 -195.772M457.22 -195.772L371.896 -152.176M457.22 -195.772L216.157 -318.728M371.896 -152.176L281.304 -105.888M371.896 -152.176L187.578 -246.189M281.304 -105.888L195.98 -62.2919M281.304 -105.888L134.887 -180.569M195.98 -62.2919L109.56 -18.1357M195.98 -62.2919L106.308 -108.03M109.56 -18.1357L24.2362 25.4605M109.56 -18.1357L-61.5158 -105.395M24.2362 25.4605L-63.4217 70.2491M24.2362 25.4605L-90.0946 -32.8551M-63.4217 70.2491L-148.746 113.845M-63.4217 70.2491L-215.252 -7.1932M-148.746 113.845L-249.248 165.197M-148.746 113.845L-243.831 65.3463" stroke="white"/>
<path d="M8.04221 97.6808L-76.9746 93.8821V271.285H681.581V153.576L597.289 194.006L512.997 169.314L428.729 57.7857L345.178 76.248L260.894 18.993L176.61 143.266L92.3261 195.905L8.04221 97.6808Z" fill="url(#paint0_linear_4778_37783)" fill-opacity="0.4"/>
<path d="M-76.9746 93.8821L8.04222 97.6808L92.3261 195.905L176.61 143.266L260.894 18.993L345.178 76.248L428.729 57.7857L512.997 169.314L597.289 194.006L681.581 153.576" stroke="#7843FF" stroke-width="2" stroke-linejoin="round"/>
<rect width="620" height="333.093" fill="url(#paint1_linear_4778_37783)"/>
<g opacity="0.4" filter="url(#filter0_f_4778_37783)">
<rect x="170.744" y="5.59816" width="279.91" height="279.91" fill="#7843FF"/>
</g>
<rect x="65.7793" y="102.167" width="236.524" height="144.153" rx="22.3928" fill="#1B1A20"/>
<rect x="65.7793" y="102.167" width="236.524" height="144.153" rx="16.7946" fill="#7843FF"/>
<rect x="66.2793" y="102.667" width="235.524" height="143.153" rx="16.2946" stroke="url(#paint2_linear_4778_37783)" stroke-opacity="0.06"/>
<rect x="141.355" y="127.359" width="85.3725" height="20.9932" rx="10.4966" fill="white" fill-opacity="0.1"/>
<rect x="141.855" y="127.859" width="84.3725" height="19.9932" rx="9.99661" stroke="white" stroke-opacity="0.1"/>
<rect x="103.567" y="165.147" width="160.948" height="12.5959" rx="6.29797" fill="white" fill-opacity="0.1"/>
<rect x="104.067" y="165.647" width="159.948" height="11.5959" rx="5.79797" stroke="white" stroke-opacity="0.1"/>
<rect x="117.562" y="187.539" width="134.357" height="12.5959" rx="6.29797" fill="white" fill-opacity="0.1"/>
<rect x="118.062" y="188.039" width="133.357" height="11.5959" rx="5.79797" stroke="white" stroke-opacity="0.1"/>
<rect x="90.9712" y="208.533" width="184.74" height="12.5959" rx="6.29797" fill="white" fill-opacity="0.1"/>
<rect x="91.4712" y="209.033" width="183.74" height="11.5959" rx="5.79797" stroke="white" stroke-opacity="0.1"/>
<rect x="319.098" y="102.167" width="236.524" height="144.153" rx="22.3928" fill="#1B1A20"/>
<rect x="319.098" y="102.167" width="236.524" height="144.153" rx="16.7946" fill="#F95341"/>
<rect x="319.598" y="102.667" width="235.524" height="143.153" rx="16.2946" stroke="url(#paint3_linear_4778_37783)" stroke-opacity="0.06"/>
<rect x="394.673" y="127.359" width="85.3725" height="20.9932" rx="10.4966" fill="white" fill-opacity="0.1"/>
<rect x="395.173" y="127.859" width="84.3725" height="19.9932" rx="9.99661" stroke="white" stroke-opacity="0.1"/>
<rect x="356.885" y="165.147" width="160.948" height="12.5959" rx="6.29797" fill="white" fill-opacity="0.1"/>
<rect x="357.385" y="165.647" width="159.948" height="11.5959" rx="5.79797" stroke="white" stroke-opacity="0.1"/>
<rect x="370.881" y="187.539" width="134.357" height="12.5959" rx="6.29797" fill="white" fill-opacity="0.1"/>
<rect x="371.381" y="188.039" width="133.357" height="11.5959" rx="5.79797" stroke="white" stroke-opacity="0.1"/>
<rect x="344.29" y="208.533" width="184.74" height="12.5959" rx="6.29797" fill="white" fill-opacity="0.1"/>
<rect x="344.79" y="209.033" width="183.74" height="11.5959" rx="5.79797" stroke="white" stroke-opacity="0.1"/>
<g filter="url(#filter1_d_4778_37783)">
<ellipse cx="260.317" cy="19.5883" rx="5.59819" ry="5.59662" fill="url(#paint4_radial_4778_37783)"/>
</g>
<g filter="url(#filter2_d_4778_37783)">
<ellipse cx="431.061" cy="57.3657" rx="5.59819" ry="5.59662" fill="url(#paint5_radial_4778_37783)"/>
</g>
<g filter="url(#filter3_d_4778_37783)">
<ellipse cx="593.409" cy="193.084" rx="5.59819" ry="5.59662" fill="url(#paint6_radial_4778_37783)"/>
</g>
<g filter="url(#filter4_d_4778_37783)">
<ellipse cx="9.79741" cy="99.3403" rx="5.59819" ry="5.59662" fill="url(#paint7_radial_4778_37783)"/>
</g>
</g>
<path d="M620 333V334H621V333H620ZM0 333H-1V334H0V333ZM16 1H604V-1H16V1ZM619 16V333H621V16H619ZM620 332H0V334H620V332ZM1 333V16H-1V333H1ZM604 1C612.284 1 619 7.71573 619 16H621C621 6.61116 613.389 -1 604 -1V1ZM16 -1C6.61116 -1 -1 6.61115 -1 16H1C1 7.71572 7.71573 1 16 1V-1Z" fill="white" fill-opacity="0.4" mask="url(#path-1-inside-1_4778_37783)"/>
<defs>
<filter id="filter0_f_4778_37783" x="30.7893" y="-134.357" width="559.819" height="559.819" filterUnits="userSpaceOnUse" color-interpolation-filters="sRGB">
<feFlood flood-opacity="0" result="BackgroundImageFix"/>
<feBlend mode="normal" in="SourceGraphic" in2="BackgroundImageFix" result="shape"/>
<feGaussianBlur stdDeviation="69.9774" result="effect1_foregroundBlur_4778_37783"/>
</filter>
<filter id="filter1_d_4778_37783" x="239.782" y="-0.945204" width="41.0701" height="41.067" filterUnits="userSpaceOnUse" color-interpolation-filters="sRGB">
<feFlood flood-opacity="0" result="BackgroundImageFix"/>
<feColorMatrix in="SourceAlpha" type="matrix" values="0 0 0 0 0 0 0 0 0 0 0 0 0 0 0 0 0 0 127 0" result="hardAlpha"/>
<feOffset/>
<feGaussianBlur stdDeviation="7.46845"/>
<feComposite in2="hardAlpha" operator="out"/>
<feColorMatrix type="matrix" values="0 0 0 0 1 0 0 0 0 1 0 0 0 0 1 0 0 0 0.38 0"/>
<feBlend mode="normal" in2="BackgroundImageFix" result="effect1_dropShadow_4778_37783"/>
<feBlend mode="normal" in="SourceGraphic" in2="effect1_dropShadow_4778_37783" result="shape"/>
</filter>
<filter id="filter2_d_4778_37783" x="410.526" y="36.8321" width="41.0701" height="41.067" filterUnits="userSpaceOnUse" color-interpolation-filters="sRGB">
<feFlood flood-opacity="0" result="BackgroundImageFix"/>
<feColorMatrix in="SourceAlpha" type="matrix" values="0 0 0 0 0 0 0 0 0 0 0 0 0 0 0 0 0 0 127 0" result="hardAlpha"/>
<feOffset/>
<feGaussianBlur stdDeviation="7.46845"/>
<feComposite in2="hardAlpha" operator="out"/>
<feColorMatrix type="matrix" values="0 0 0 0 1 0 0 0 0 1 0 0 0 0 1 0 0 0 0.38 0"/>
<feBlend mode="normal" in2="BackgroundImageFix" result="effect1_dropShadow_4778_37783"/>
<feBlend mode="normal" in="SourceGraphic" in2="effect1_dropShadow_4778_37783" result="shape"/>
</filter>
<filter id="filter3_d_4778_37783" x="572.874" y="172.55" width="41.0701" height="41.067" filterUnits="userSpaceOnUse" color-interpolation-filters="sRGB">
<feFlood flood-opacity="0" result="BackgroundImageFix"/>
<feColorMatrix in="SourceAlpha" type="matrix" values="0 0 0 0 0 0 0 0 0 0 0 0 0 0 0 0 0 0 127 0" result="hardAlpha"/>
<feOffset/>
<feGaussianBlur stdDeviation="7.46845"/>
<feComposite in2="hardAlpha" operator="out"/>
<feColorMatrix type="matrix" values="0 0 0 0 1 0 0 0 0 1 0 0 0 0 1 0 0 0 0.38 0"/>
<feBlend mode="normal" in2="BackgroundImageFix" result="effect1_dropShadow_4778_37783"/>
<feBlend mode="normal" in="SourceGraphic" in2="effect1_dropShadow_4778_37783" result="shape"/>
</filter>
<filter id="filter4_d_4778_37783" x="-10.7377" y="78.8067" width="41.0701" height="41.067" filterUnits="userSpaceOnUse" color-interpolation-filters="sRGB">
<feFlood flood-opacity="0" result="BackgroundImageFix"/>
<feColorMatrix in="SourceAlpha" type="matrix" values="0 0 0 0 0 0 0 0 0 0 0 0 0 0 0 0 0 0 127 0" result="hardAlpha"/>
<feOffset/>
<feGaussianBlur stdDeviation="7.46845"/>
<feComposite in2="hardAlpha" operator="out"/>
<feColorMatrix type="matrix" values="0 0 0 0 1 0 0 0 0 1 0 0 0 0 1 0 0 0 0.38 0"/>
<feBlend mode="normal" in2="BackgroundImageFix" result="effect1_dropShadow_4778_37783"/>
<feBlend mode="normal" in="SourceGraphic" in2="effect1_dropShadow_4778_37783" result="shape"/>
</filter>
<linearGradient id="paint0_linear_4778_37783" x1="359.685" y1="-10.0118" x2="365.5" y2="271" gradientUnits="userSpaceOnUse">
<stop stop-color="#7843FF"/>
<stop offset="1" stop-color="#482899" stop-opacity="0.09"/>
</linearGradient>
<linearGradient id="paint1_linear_4778_37783" x1="310" y1="0" x2="310" y2="333.093" gradientUnits="userSpaceOnUse">
<stop stop-color="#1B1A20"/>
<stop offset="0.2422" stop-color="#1B1A20" stop-opacity="0"/>
<stop offset="0.7385" stop-color="#1B1A20" stop-opacity="0"/>
<stop offset="1" stop-color="#1B1A20"/>
</linearGradient>
<linearGradient id="paint2_linear_4778_37783" x1="184.041" y1="102.167" x2="184.041" y2="246.32" gradientUnits="userSpaceOnUse">
<stop stop-color="white"/>
<stop offset="1" stop-color="white" stop-opacity="0"/>
</linearGradient>
<linearGradient id="paint3_linear_4778_37783" x1="437.359" y1="102.167" x2="437.359" y2="246.32" gradientUnits="userSpaceOnUse">
<stop stop-color="white"/>
<stop offset="1" stop-color="white" stop-opacity="0"/>
</linearGradient>
<radialGradient id="paint4_radial_4778_37783" cx="0" cy="0" r="1" gradientUnits="userSpaceOnUse" gradientTransform="translate(260.317 19.5883) rotate(90) scale(5.59662 5.59819)">
<stop stop-color="#D6BDFF"/>
<stop offset="1" stop-color="#7843FF"/>
</radialGradient>
<radialGradient id="paint5_radial_4778_37783" cx="0" cy="0" r="1" gradientUnits="userSpaceOnUse" gradientTransform="translate(431.061 57.3657) rotate(90) scale(5.59662 5.59819)">
<stop stop-color="#D6BDFF"/>
<stop offset="1" stop-color="#7843FF"/>
</radialGradient>
<radialGradient id="paint6_radial_4778_37783" cx="0" cy="0" r="1" gradientUnits="userSpaceOnUse" gradientTransform="translate(593.409 193.084) rotate(90) scale(5.59662 5.59819)">
<stop stop-color="#D6BDFF"/>
<stop offset="1" stop-color="#7843FF"/>
</radialGradient>
<radialGradient id="paint7_radial_4778_37783" cx="0" cy="0" r="1" gradientUnits="userSpaceOnUse" gradientTransform="translate(9.79741 99.3403) rotate(90) scale(5.59662 5.59819)">
<stop stop-color="#D6BDFF"/>
<stop offset="1" stop-color="#7843FF"/>
</radialGradient>
<clipPath id="clip0_4778_37783">
<path d="M0 16C0 7.16343 7.16344 0 16 0H604C612.837 0 620 7.16344 620 16V333H0V16Z" fill="white"/>
</clipPath>
</defs>
</svg>
