<svg width="182" height="52" viewBox="0 0 182 52" fill="none" xmlns="http://www.w3.org/2000/svg">
<g clip-path="url(#clip0_4778_41698)">
<path d="M158.893 8.00958L179.065 0.0975173C180.184 -0.341284 181.285 0.777191 180.865 1.92622L173.522 22.0312C173.091 23.2102 171.488 23.2794 170.963 22.1416L167.391 14.4143C167.238 14.0824 166.965 13.824 166.63 13.6931L158.895 10.6698C157.702 10.2039 157.702 8.47701 158.893 8.00958Z" fill="#7843FF"/>
</g>
<rect width="164" height="36" rx="4" transform="matrix(-1 0 0 1 164 16)" fill="#7843FF"/>
<path d="M13.7749 40V28.32H17.0869C18.1535 28.32 18.9855 28.5867 19.5829 29.12C20.1909 29.6533 20.4949 30.3947 20.4949 31.344C20.4949 31.8773 20.3829 32.3413 20.1589 32.736C19.9349 33.1307 19.6149 33.4347 19.1989 33.648C18.7935 33.8613 18.3029 33.9627 17.7269 33.952V33.712C18.3455 33.7013 18.8789 33.8187 19.3269 34.064C19.7855 34.3093 20.1375 34.6613 20.3829 35.12C20.6389 35.5787 20.7669 36.1227 20.7669 36.752C20.7669 37.4133 20.6282 37.9893 20.3509 38.48C20.0735 38.9707 19.6789 39.3493 19.1669 39.616C18.6549 39.872 18.0415 40 17.3269 40H13.7749ZM15.1829 38.704H17.1669C17.8389 38.704 18.3669 38.528 18.7509 38.176C19.1455 37.8133 19.3429 37.3227 19.3429 36.704C19.3429 36.064 19.1455 35.5467 18.7509 35.152C18.3669 34.7467 17.8389 34.544 17.1669 34.544H15.1829V38.704ZM15.1829 33.296H17.0709C17.6895 33.296 18.1749 33.1307 18.5269 32.8C18.8895 32.4693 19.0709 32.0213 19.0709 31.456C19.0709 30.8907 18.8949 30.4427 18.5429 30.112C18.1909 29.7813 17.7055 29.616 17.0869 29.616H15.1829V33.296ZM25.5926 40.16C24.6646 40.16 23.934 39.9253 23.4006 39.456C22.8673 38.976 22.6006 38.3307 22.6006 37.52C22.6006 36.6987 22.8673 36.0533 23.4006 35.584C23.934 35.1147 24.654 34.88 25.5606 34.88H28.2806V34C28.2806 33.456 28.1153 33.04 27.7846 32.752C27.4646 32.4533 27.006 32.304 26.4086 32.304C25.886 32.304 25.4486 32.416 25.0966 32.64C24.7446 32.8533 24.542 33.1467 24.4886 33.52H23.0486C23.1446 32.7627 23.502 32.16 24.1206 31.712C24.7393 31.264 25.5126 31.04 26.4406 31.04C27.454 31.04 28.254 31.3013 28.8406 31.824C29.4273 32.3467 29.7206 33.056 29.7206 33.952V40H28.3126V38.32H28.0726L28.3126 38.08C28.3126 38.72 28.062 39.2267 27.5606 39.6C27.07 39.9733 26.414 40.16 25.5926 40.16ZM25.9446 39.024C26.6273 39.024 27.1873 38.8533 27.6246 38.512C28.062 38.1707 28.2806 37.7333 28.2806 37.2V35.952H25.5926C25.1126 35.952 24.734 36.0853 24.4566 36.352C24.1793 36.6187 24.0406 36.9813 24.0406 37.44C24.0406 37.9307 24.206 38.32 24.5366 38.608C24.878 38.8853 25.3473 39.024 25.9446 39.024ZM35.3624 40.128C34.765 40.128 34.2424 40.0373 33.7944 39.856C33.357 39.664 33.005 39.3973 32.7384 39.056C32.4824 38.7147 32.3277 38.3093 32.2744 37.84H33.7144C33.7784 38.1493 33.949 38.3947 34.2264 38.576C34.5144 38.7573 34.893 38.848 35.3624 38.848H36.0344C36.5997 38.848 37.021 38.736 37.2984 38.512C37.5757 38.2773 37.7144 37.968 37.7144 37.584C37.7144 37.2107 37.5864 36.9173 37.3304 36.704C37.085 36.48 36.717 36.3307 36.2264 36.256L35.0424 36.064C34.1784 35.9147 33.533 35.648 33.1064 35.264C32.6904 34.8693 32.4824 34.2987 32.4824 33.552C32.4824 32.7627 32.733 32.1547 33.2344 31.728C33.7357 31.2907 34.4877 31.072 35.4904 31.072H36.0984C36.941 31.072 37.6184 31.2693 38.1304 31.664C38.6424 32.0587 38.9517 32.592 39.0584 33.264H37.6184C37.5544 32.9867 37.3944 32.768 37.1384 32.608C36.8824 32.4373 36.5357 32.352 36.0984 32.352H35.4904C34.9464 32.352 34.5464 32.4533 34.2904 32.656C34.045 32.8587 33.9224 33.1627 33.9224 33.568C33.9224 33.9307 34.029 34.1973 34.2424 34.368C34.4557 34.5387 34.7917 34.6613 35.2504 34.736L36.4344 34.928C37.3837 35.0773 38.0717 35.3547 38.4984 35.76C38.9357 36.1653 39.1544 36.752 39.1544 37.52C39.1544 38.3307 38.893 38.9707 38.3704 39.44C37.8584 39.8987 37.0797 40.128 36.0344 40.128H35.3624ZM44.9081 40.16C44.2148 40.16 43.6068 40.0213 43.0841 39.744C42.5721 39.4667 42.1721 39.0773 41.8841 38.576C41.6068 38.064 41.4681 37.472 41.4681 36.8V34.4C41.4681 33.7173 41.6068 33.1253 41.8841 32.624C42.1721 32.1227 42.5721 31.7333 43.0841 31.456C43.6068 31.1787 44.2148 31.04 44.9081 31.04C45.6015 31.04 46.2041 31.1787 46.7161 31.456C47.2388 31.7333 47.6388 32.1227 47.9161 32.624C48.2041 33.1253 48.3481 33.7173 48.3481 34.4V35.952H42.8761V36.8C42.8761 37.4933 43.0521 38.0267 43.4041 38.4C43.7561 38.7627 44.2575 38.944 44.9081 38.944C45.4628 38.944 45.9108 38.848 46.2521 38.656C46.5935 38.4533 46.8015 38.1547 46.8761 37.76H48.3161C48.2201 38.496 47.8575 39.0827 47.2281 39.52C46.6095 39.9467 45.8361 40.16 44.9081 40.16ZM46.9401 34.992V34.4C46.9401 33.7067 46.7641 33.1733 46.4121 32.8C46.0708 32.4267 45.5695 32.24 44.9081 32.24C44.2575 32.24 43.7561 32.4267 43.4041 32.8C43.0521 33.1733 42.8761 33.7067 42.8761 34.4V34.864H47.0521L46.9401 34.992ZM53.6699 40.16C52.7952 40.16 52.0859 39.8667 51.5419 39.28C51.0085 38.6933 50.7419 37.8987 50.7419 36.896V34.32C50.7419 33.3067 51.0085 32.5067 51.5419 31.92C52.0752 31.3333 52.7845 31.04 53.6699 31.04C54.3952 31.04 54.9765 31.2373 55.4139 31.632C55.8512 32.0267 56.0699 32.5547 56.0699 33.216L55.7819 32.88H56.1019L56.0699 30.88V28.32H57.5099V40H56.0699V38.32H55.7819L56.0699 37.984C56.0699 38.656 55.8512 39.1893 55.4139 39.584C54.9765 39.968 54.3952 40.16 53.6699 40.16ZM54.1499 38.912C54.7472 38.912 55.2165 38.7253 55.5579 38.352C55.8992 37.9787 56.0699 37.4613 56.0699 36.8V34.4C56.0699 33.7387 55.8992 33.2213 55.5579 32.848C55.2165 32.4747 54.7472 32.288 54.1499 32.288C53.5419 32.288 53.0619 32.4693 52.7099 32.832C52.3579 33.1947 52.1819 33.7173 52.1819 34.4V36.8C52.1819 37.4827 52.3579 38.0053 52.7099 38.368C53.0619 38.7307 53.5419 38.912 54.1499 38.912ZM69.2894 40V38.688H72.4094V32.512H69.6894V31.2H73.8494V38.688H76.8094V40H69.2894ZM72.9694 29.616C72.6174 29.616 72.34 29.5253 72.1374 29.344C71.9347 29.1627 71.8334 28.9173 71.8334 28.608C71.8334 28.288 71.9347 28.0373 72.1374 27.856C72.34 27.664 72.6174 27.568 72.9694 27.568C73.3214 27.568 73.5987 27.664 73.8014 27.856C74.004 28.0373 74.1054 28.288 74.1054 28.608C74.1054 28.9173 74.004 29.1627 73.8014 29.344C73.5987 29.5253 73.3214 29.616 72.9694 29.616ZM78.6751 40V31.2H80.1151V32.88H80.4191L80.1151 33.216C80.1151 32.5227 80.3231 31.9893 80.7391 31.616C81.1551 31.232 81.7311 31.04 82.4671 31.04C83.3525 31.04 84.0565 31.312 84.5791 31.856C85.1018 32.4 85.3631 33.1413 85.3631 34.08V40H83.9231V34.24C83.9231 33.6107 83.7525 33.1307 83.4111 32.8C83.0805 32.4587 82.6271 32.288 82.0511 32.288C81.4538 32.288 80.9791 32.4693 80.6271 32.832C80.2858 33.1947 80.1151 33.7173 80.1151 34.4V40H78.6751ZM96.9666 40V28.32H98.8546L100.071 32.096C100.188 32.4373 100.295 32.7787 100.391 33.12C100.487 33.4507 100.556 33.7067 100.599 33.888C100.652 33.7067 100.721 33.4507 100.807 33.12C100.892 32.7787 100.988 32.432 101.095 32.08L102.247 28.32H104.135V40H102.727V35.76C102.727 35.2907 102.743 34.7573 102.775 34.16C102.807 33.5627 102.849 32.9547 102.903 32.336C102.956 31.7067 103.009 31.1093 103.063 30.544C103.127 29.968 103.18 29.4667 103.223 29.04L101.335 34.88H99.8146L97.9106 29.04C97.964 29.456 98.0173 29.9413 98.0706 30.496C98.124 31.04 98.172 31.6213 98.2146 32.24C98.2573 32.848 98.2946 33.456 98.3266 34.064C98.3586 34.672 98.3746 35.2373 98.3746 35.76V40H96.9666ZM109.056 40.16C108.128 40.16 107.398 39.9253 106.864 39.456C106.331 38.976 106.064 38.3307 106.064 37.52C106.064 36.6987 106.331 36.0533 106.864 35.584C107.398 35.1147 108.118 34.88 109.024 34.88H111.744V34C111.744 33.456 111.579 33.04 111.248 32.752C110.928 32.4533 110.47 32.304 109.872 32.304C109.35 32.304 108.912 32.416 108.56 32.64C108.208 32.8533 108.006 33.1467 107.952 33.52H106.512C106.608 32.7627 106.966 32.16 107.584 31.712C108.203 31.264 108.976 31.04 109.904 31.04C110.918 31.04 111.718 31.3013 112.304 31.824C112.891 32.3467 113.184 33.056 113.184 33.952V40H111.776V38.32H111.536L111.776 38.08C111.776 38.72 111.526 39.2267 111.024 39.6C110.534 39.9733 109.878 40.16 109.056 40.16ZM109.408 39.024C110.091 39.024 110.651 38.8533 111.088 38.512C111.526 38.1707 111.744 37.7333 111.744 37.2V35.952H109.056C108.576 35.952 108.198 36.0853 107.92 36.352C107.643 36.6187 107.504 36.9813 107.504 37.44C107.504 37.9307 107.67 38.32 108 38.608C108.342 38.8853 108.811 39.024 109.408 39.024ZM118.586 40.16C117.711 40.16 117.002 39.8667 116.458 39.28C115.925 38.6933 115.658 37.8987 115.658 36.896V34.32C115.658 33.3067 115.925 32.5067 116.458 31.92C116.991 31.3333 117.701 31.04 118.586 31.04C119.311 31.04 119.893 31.2373 120.33 31.632C120.767 32.0267 120.986 32.5547 120.986 33.216L120.698 32.88H121.018L120.986 30.88V28.32H122.426V40H120.986V38.32H120.698L120.986 37.984C120.986 38.656 120.767 39.1893 120.33 39.584C119.893 39.968 119.311 40.16 118.586 40.16ZM119.066 38.912C119.663 38.912 120.133 38.7253 120.474 38.352C120.815 37.9787 120.986 37.4613 120.986 36.8V34.4C120.986 33.7387 120.815 33.2213 120.474 32.848C120.133 32.4747 119.663 32.288 119.066 32.288C118.458 32.288 117.978 32.4693 117.626 32.832C117.274 33.1947 117.098 33.7173 117.098 34.4V36.8C117.098 37.4827 117.274 38.0053 117.626 38.368C117.978 38.7307 118.458 38.912 119.066 38.912ZM125.348 40V31.2H126.756V32.88H127.092L126.628 33.92C126.628 32.9707 126.831 32.256 127.236 31.776C127.652 31.2853 128.265 31.04 129.076 31.04C130.004 31.04 130.74 31.3333 131.284 31.92C131.839 32.496 132.116 33.28 132.116 34.272V34.8H130.676V34.4C130.676 33.7067 130.505 33.1787 130.164 32.816C129.833 32.4427 129.359 32.256 128.74 32.256C128.132 32.256 127.652 32.4427 127.3 32.816C126.959 33.1893 126.788 33.7173 126.788 34.4V40H125.348ZM134.206 40V38.688H137.326V32.512H134.606V31.2H138.766V38.688H141.726V40H134.206ZM137.886 29.616C137.534 29.616 137.256 29.5253 137.054 29.344C136.851 29.1627 136.75 28.9173 136.75 28.608C136.75 28.288 136.851 28.0373 137.054 27.856C137.256 27.664 137.534 27.568 137.886 27.568C138.238 27.568 138.515 27.664 138.718 27.856C138.92 28.0373 139.022 28.288 139.022 28.608C139.022 28.9173 138.92 29.1627 138.718 29.344C138.515 29.5253 138.238 29.616 137.886 29.616ZM146.407 40.16C145.533 40.16 144.823 39.8667 144.279 39.28C143.746 38.6933 143.479 37.8987 143.479 36.896V34.32C143.479 33.3067 143.746 32.5067 144.279 31.92C144.813 31.3333 145.522 31.04 146.407 31.04C147.133 31.04 147.714 31.2373 148.151 31.632C148.589 32.0267 148.807 32.5547 148.807 33.216L148.519 32.88H148.839L148.807 30.88V28.32H150.247V40H148.807V38.32H148.519L148.807 37.984C148.807 38.656 148.589 39.1893 148.151 39.584C147.714 39.968 147.133 40.16 146.407 40.16ZM146.887 38.912C147.485 38.912 147.954 38.7253 148.295 38.352C148.637 37.9787 148.807 37.4613 148.807 36.8V34.4C148.807 33.7387 148.637 33.2213 148.295 32.848C147.954 32.4747 147.485 32.288 146.887 32.288C146.279 32.288 145.799 32.4693 145.447 32.832C145.095 33.1947 144.919 33.7173 144.919 34.4V36.8C144.919 37.4827 145.095 38.0053 145.447 38.368C145.799 38.7307 146.279 38.912 146.887 38.912Z" fill="white"/>
<defs>
<clipPath id="clip0_4778_41698">
<rect width="24" height="24" fill="white" transform="matrix(0 1 -1 0 182 0)"/>
</clipPath>
</defs>
</svg>
