<svg width="44" height="44" viewBox="0 0 44 44" fill="none" xmlns="http://www.w3.org/2000/svg">
<g clip-path="url(#clip0_8613_795)">
<rect width="44" height="44" rx="8" fill="#F95341"/>
<g filter="url(#filter0_f_8613_795)">
<path d="M39.0023 44.6393C39.0023 54.7795 48.9144 63 39.0023 63C29.0903 63 7.03444 61.6447 7.03444 51.5045C7.03444 41.3643 5.95606 28 15.8681 28C67.8876 29.8446 39.0023 34.499 39.0023 44.6393Z" fill="white"/>
</g>
<path d="M22 10.625C19.7502 10.625 17.551 11.2921 15.6804 12.542C13.8098 13.7919 12.3518 15.5685 11.4909 17.647C10.6299 19.7255 10.4047 22.0126 10.8436 24.2192C11.2825 26.4257 12.3658 28.4525 13.9567 30.0433C15.5475 31.6342 17.5743 32.7175 19.7809 33.1564C21.9874 33.5953 24.2745 33.3701 26.353 32.5091C28.4315 31.6482 30.2081 30.1902 31.458 28.3196C32.7079 26.449 33.375 24.2498 33.375 22C33.3718 18.9841 32.1724 16.0927 30.0398 13.9602C27.9073 11.8276 25.0159 10.6282 22 10.625ZM22 29C21.7404 29 21.4867 28.923 21.2708 28.7788C21.055 28.6346 20.8868 28.4296 20.7874 28.1898C20.6881 27.9499 20.6621 27.686 20.7127 27.4314C20.7634 27.1768 20.8884 26.943 21.0719 26.7594C21.2555 26.5759 21.4893 26.4509 21.7439 26.4002C21.9985 26.3496 22.2624 26.3756 22.5023 26.4749C22.7421 26.5742 22.9471 26.7425 23.0913 26.9583C23.2355 27.1742 23.3125 27.4279 23.3125 27.6875C23.3125 28.0356 23.1742 28.3694 22.9281 28.6156C22.6819 28.8617 22.3481 29 22 29ZM22.875 23.6712V23.75C22.875 23.9821 22.7828 24.2046 22.6187 24.3687C22.4546 24.5328 22.2321 24.625 22 24.625C21.7679 24.625 21.5454 24.5328 21.3813 24.3687C21.2172 24.2046 21.125 23.9821 21.125 23.75V22.875C21.125 22.6429 21.2172 22.4204 21.3813 22.2563C21.5454 22.0922 21.7679 22 22 22C23.447 22 24.625 21.0156 24.625 19.8125C24.625 18.6094 23.447 17.625 22 17.625C20.553 17.625 19.375 18.6094 19.375 19.8125V20.25C19.375 20.4821 19.2828 20.7046 19.1187 20.8687C18.9546 21.0328 18.7321 21.125 18.5 21.125C18.2679 21.125 18.0454 21.0328 17.8813 20.8687C17.7172 20.7046 17.625 20.4821 17.625 20.25V19.8125C17.625 17.6414 19.5872 15.875 22 15.875C24.4128 15.875 26.375 17.6414 26.375 19.8125C26.375 21.7134 24.87 23.3048 22.875 23.6712Z" fill="white"/>
</g>
<defs>
<filter id="filter0_f_8613_795" x="-43" y="-22" width="140" height="135" filterUnits="userSpaceOnUse" color-interpolation-filters="sRGB">
<feFlood flood-opacity="0" result="BackgroundImageFix"/>
<feBlend mode="normal" in="SourceGraphic" in2="BackgroundImageFix" result="shape"/>
<feGaussianBlur stdDeviation="25" result="effect1_foregroundBlur_8613_795"/>
</filter>
<clipPath id="clip0_8613_795">
<rect width="44" height="44" rx="8" fill="white"/>
</clipPath>
</defs>
</svg>
