<svg width="46" height="34" viewBox="0 0 46 34" fill="none" xmlns="http://www.w3.org/2000/svg">
<g opacity="0.1">
<path d="M20.4642 29.5805V10.8805C20.4614 8.17612 19.3914 5.58334 17.4891 3.67108C15.5867 1.75882 13.0074 0.683277 10.3171 0.680466C9.86857 0.680466 9.43841 0.85957 9.12125 1.17838C8.8041 1.49719 8.62592 1.9296 8.62592 2.38047C8.62592 2.83133 8.8041 3.26374 9.12125 3.58255C9.43841 3.90136 9.86857 4.08047 10.3171 4.08047C12.1112 4.08047 13.8318 4.79689 15.1005 6.07214C16.3691 7.34739 17.0818 9.07699 17.0818 10.8805V12.5805H4.39798C3.50092 12.5805 2.64061 12.9387 2.00629 13.5763C1.37198 14.2139 1.01563 15.0787 1.01562 15.9805V29.5805C1.01562 30.4822 1.37198 31.347 2.00629 31.9846C2.64061 32.6223 3.50092 32.9805 4.39798 32.9805H17.0818C17.9789 32.9805 18.8392 32.6223 19.4735 31.9846C20.1078 31.347 20.4642 30.4822 20.4642 29.5805ZM41.6039 32.9805H28.92C28.023 32.9805 27.1627 32.6223 26.5284 31.9846C25.894 31.347 25.5377 30.4822 25.5377 29.5805V15.9805C25.5377 15.0787 25.894 14.2139 26.5284 13.5763C27.1627 12.9387 28.023 12.5805 28.92 12.5805H41.6039V10.8805C41.6039 9.07699 40.8911 7.34739 39.6225 6.07214C38.3539 4.79689 36.6333 4.08047 34.8391 4.08047C34.3906 4.08047 33.9605 3.90136 33.6433 3.58255C33.3261 3.26374 33.148 2.83133 33.148 2.38047C33.148 1.9296 33.3261 1.49719 33.6433 1.17838C33.9605 0.85957 34.3906 0.680466 34.8391 0.680466C37.5295 0.683277 40.1088 1.75882 42.0111 3.67108C43.9135 5.58334 44.9834 8.17612 44.9862 10.8805V29.5805C44.9862 30.4822 44.6299 31.347 43.9955 31.9846C43.3612 32.6223 42.5009 32.9805 41.6039 32.9805Z" fill="#09110A"/>
</g>
</svg>
