<svg width="173" height="52" viewBox="0 0 173 52" fill="none" xmlns="http://www.w3.org/2000/svg">
<g clip-path="url(#clip0_4778_41692)">
<path d="M23.1067 8.00958L2.93471 0.0975173C1.81598 -0.341284 0.715076 0.777191 1.13475 1.92622L8.47793 22.0312C8.90853 23.2102 10.5116 23.2794 11.0374 22.1416L14.609 14.4143C14.7624 14.0824 15.0351 13.824 15.3702 13.6931L23.1052 10.6698C24.2975 10.2039 24.2985 8.47701 23.1067 8.00958Z" fill="#F95341"/>
</g>
<rect x="18" y="16" width="155" height="36" rx="4" fill="#F95341"/>
<path d="M31.8638 40V38.688H35.0318V29.52L31.8638 31.888V30.288L34.5038 28.32H36.4718V38.688H39.0638V40H31.8638ZM44.4975 40.16C43.7828 40.16 43.1588 40.0213 42.6255 39.744C42.1028 39.456 41.6975 39.056 41.4095 38.544C41.1215 38.0213 40.9775 37.4133 40.9775 36.72V31.6C40.9775 30.896 41.1215 30.288 41.4095 29.776C41.6975 29.264 42.1028 28.8693 42.6255 28.592C43.1588 28.304 43.7828 28.16 44.4975 28.16C45.2228 28.16 45.8468 28.304 46.3695 28.592C46.8922 28.8693 47.2975 29.264 47.5855 29.776C47.8735 30.288 48.0175 30.896 48.0175 31.6V36.72C48.0175 37.4133 47.8735 38.0213 47.5855 38.544C47.2975 39.056 46.8868 39.456 46.3535 39.744C45.8308 40.0213 45.2122 40.16 44.4975 40.16ZM44.4975 38.928C45.1375 38.928 45.6495 38.7253 46.0335 38.32C46.4282 37.904 46.6255 37.3707 46.6255 36.72V31.6C46.6255 30.9493 46.4282 30.4213 46.0335 30.016C45.6495 29.6 45.1375 29.392 44.4975 29.392C43.8575 29.392 43.3402 29.6 42.9455 30.016C42.5615 30.4213 42.3695 30.9493 42.3695 31.6V36.72C42.3695 37.3707 42.5615 37.904 42.9455 38.32C43.3402 38.7253 43.8575 38.928 44.4975 38.928ZM44.4975 35.104C44.2095 35.104 43.9748 35.0133 43.7935 34.832C43.6228 34.6507 43.5375 34.4107 43.5375 34.112C43.5375 33.824 43.6228 33.5947 43.7935 33.424C43.9748 33.2427 44.2095 33.152 44.4975 33.152C44.7855 33.152 45.0148 33.2427 45.1855 33.424C45.3668 33.5947 45.4575 33.824 45.4575 34.112C45.4575 34.4107 45.3668 34.6507 45.1855 34.832C45.0148 35.0133 44.7855 35.104 44.4975 35.104ZM53.0673 38.48V35.36H50.0113V34.08H53.0673V30.96H54.4753V34.08H57.5313V35.36H54.4753V38.48H53.0673ZM72.3188 40.16C71.6254 40.16 71.0174 40.0213 70.4948 39.744C69.9828 39.4667 69.5828 39.0773 69.2948 38.576C69.0174 38.064 68.8788 37.472 68.8788 36.8V34.4C68.8788 33.7173 69.0174 33.1253 69.2948 32.624C69.5828 32.1227 69.9828 31.7333 70.4948 31.456C71.0174 31.1787 71.6254 31.04 72.3188 31.04C73.0121 31.04 73.6148 31.1787 74.1268 31.456C74.6494 31.7333 75.0494 32.1227 75.3268 32.624C75.6148 33.1253 75.7588 33.7173 75.7588 34.4V35.952H70.2868V36.8C70.2868 37.4933 70.4628 38.0267 70.8148 38.4C71.1668 38.7627 71.6681 38.944 72.3188 38.944C72.8734 38.944 73.3214 38.848 73.6628 38.656C74.0041 38.4533 74.2121 38.1547 74.2868 37.76H75.7268C75.6308 38.496 75.2681 39.0827 74.6388 39.52C74.0201 39.9467 73.2468 40.16 72.3188 40.16ZM74.3508 34.992V34.4C74.3508 33.7067 74.1748 33.1733 73.8228 32.8C73.4814 32.4267 72.9801 32.24 72.3188 32.24C71.6681 32.24 71.1668 32.4267 70.8148 32.8C70.4628 33.1733 70.2868 33.7067 70.2868 34.4V34.864H74.4628L74.3508 34.992ZM77.5925 40L80.7125 35.472L77.7845 31.2H79.4805L81.2245 33.92C81.2992 34.0373 81.3685 34.1653 81.4325 34.304C81.5072 34.4427 81.5658 34.5547 81.6085 34.64C81.6405 34.5547 81.6885 34.4427 81.7525 34.304C81.8272 34.1653 81.9018 34.0373 81.9765 33.92L83.7365 31.2H85.4165L82.4885 35.488L85.5925 40H83.8965L82.0085 37.12C81.9338 37.0027 81.8592 36.8693 81.7845 36.72C81.7205 36.56 81.6618 36.432 81.6085 36.336C81.5658 36.432 81.5018 36.56 81.4165 36.72C81.3418 36.8693 81.2618 37.0027 81.1765 37.12L79.2725 40H77.5925ZM87.5383 42.88V31.2H88.9783V32.88H89.2663L88.9783 33.216C88.9783 32.544 89.1969 32.016 89.6343 31.632C90.0823 31.2373 90.6689 31.04 91.3943 31.04C92.2796 31.04 92.9836 31.3333 93.5063 31.92C94.0396 32.496 94.3063 33.2907 94.3063 34.304V36.88C94.3063 37.552 94.1836 38.1333 93.9383 38.624C93.7036 39.1147 93.3676 39.4933 92.9303 39.76C92.5036 40.0267 91.9916 40.16 91.3943 40.16C90.6796 40.16 90.0983 39.9627 89.6503 39.568C89.2023 39.1733 88.9783 38.6453 88.9783 37.984L89.2663 38.32H88.9463L88.9783 40.32V42.88H87.5383ZM90.9143 38.912C91.5223 38.912 91.9969 38.7307 92.3383 38.368C92.6903 38.0053 92.8663 37.4827 92.8663 36.8V34.4C92.8663 33.7173 92.6903 33.1947 92.3383 32.832C91.9969 32.4693 91.5223 32.288 90.9143 32.288C90.3276 32.288 89.8583 32.4747 89.5063 32.848C89.1543 33.2213 88.9783 33.7387 88.9783 34.4V36.8C88.9783 37.4613 89.1543 37.9787 89.5063 38.352C89.8583 38.7253 90.3276 38.912 90.9143 38.912ZM100.14 40.16C99.4467 40.16 98.8387 40.0213 98.316 39.744C97.804 39.4667 97.404 39.0773 97.116 38.576C96.8387 38.064 96.7 37.472 96.7 36.8V34.4C96.7 33.7173 96.8387 33.1253 97.116 32.624C97.404 32.1227 97.804 31.7333 98.316 31.456C98.8387 31.1787 99.4467 31.04 100.14 31.04C100.833 31.04 101.436 31.1787 101.948 31.456C102.471 31.7333 102.871 32.1227 103.148 32.624C103.436 33.1253 103.58 33.7173 103.58 34.4V35.952H98.108V36.8C98.108 37.4933 98.284 38.0267 98.636 38.4C98.988 38.7627 99.4893 38.944 100.14 38.944C100.695 38.944 101.143 38.848 101.484 38.656C101.825 38.4533 102.033 38.1547 102.108 37.76H103.548C103.452 38.496 103.089 39.0827 102.46 39.52C101.841 39.9467 101.068 40.16 100.14 40.16ZM102.172 34.992V34.4C102.172 33.7067 101.996 33.1733 101.644 32.8C101.303 32.4267 100.801 32.24 100.14 32.24C99.4893 32.24 98.988 32.4267 98.636 32.8C98.284 33.1733 98.108 33.7067 98.108 34.4V34.864H102.284L102.172 34.992ZM106.39 40V31.2H107.798V32.88H108.134L107.67 33.92C107.67 32.9707 107.872 32.256 108.278 31.776C108.694 31.2853 109.307 31.04 110.118 31.04C111.046 31.04 111.782 31.3333 112.326 31.92C112.88 32.496 113.158 33.28 113.158 34.272V34.8H111.718V34.4C111.718 33.7067 111.547 33.1787 111.206 32.816C110.875 32.4427 110.4 32.256 109.782 32.256C109.174 32.256 108.694 32.4427 108.342 32.816C108 33.1893 107.83 33.7173 107.83 34.4V40H106.39ZM115.248 40V38.688H118.368V32.512H115.648V31.2H119.808V38.688H122.768V40H115.248ZM118.928 29.616C118.576 29.616 118.298 29.5253 118.096 29.344C117.893 29.1627 117.792 28.9173 117.792 28.608C117.792 28.288 117.893 28.0373 118.096 27.856C118.298 27.664 118.576 27.568 118.928 27.568C119.28 27.568 119.557 27.664 119.76 27.856C119.962 28.0373 120.064 28.288 120.064 28.608C120.064 28.9173 119.962 29.1627 119.76 29.344C119.557 29.5253 119.28 29.616 118.928 29.616ZM127.961 40.16C127.268 40.16 126.66 40.0213 126.137 39.744C125.625 39.4667 125.225 39.0773 124.937 38.576C124.66 38.064 124.521 37.472 124.521 36.8V34.4C124.521 33.7173 124.66 33.1253 124.937 32.624C125.225 32.1227 125.625 31.7333 126.137 31.456C126.66 31.1787 127.268 31.04 127.961 31.04C128.655 31.04 129.257 31.1787 129.769 31.456C130.292 31.7333 130.692 32.1227 130.969 32.624C131.257 33.1253 131.401 33.7173 131.401 34.4V35.952H125.929V36.8C125.929 37.4933 126.105 38.0267 126.457 38.4C126.809 38.7627 127.311 38.944 127.961 38.944C128.516 38.944 128.964 38.848 129.305 38.656C129.647 38.4533 129.855 38.1547 129.929 37.76H131.369C131.273 38.496 130.911 39.0827 130.281 39.52C129.663 39.9467 128.889 40.16 127.961 40.16ZM129.993 34.992V34.4C129.993 33.7067 129.817 33.1733 129.465 32.8C129.124 32.4267 128.623 32.24 127.961 32.24C127.311 32.24 126.809 32.4267 126.457 32.8C126.105 33.1733 125.929 33.7067 125.929 34.4V34.864H130.105L129.993 34.992ZM133.907 40V31.2H135.347V32.88H135.651L135.347 33.216C135.347 32.5227 135.555 31.9893 135.971 31.616C136.387 31.232 136.963 31.04 137.699 31.04C138.584 31.04 139.288 31.312 139.811 31.856C140.334 32.4 140.595 33.1413 140.595 34.08V40H139.155V34.24C139.155 33.6107 138.984 33.1307 138.643 32.8C138.312 32.4587 137.859 32.288 137.283 32.288C136.686 32.288 136.211 32.4693 135.859 32.832C135.518 33.1947 135.347 33.7173 135.347 34.4V40H133.907ZM146.573 40.16C145.869 40.16 145.25 40.0267 144.717 39.76C144.194 39.4933 143.789 39.1093 143.501 38.608C143.213 38.096 143.069 37.4933 143.069 36.8V34.4C143.069 33.696 143.213 33.0933 143.501 32.592C143.789 32.0907 144.194 31.7067 144.717 31.44C145.25 31.1733 145.869 31.04 146.573 31.04C147.586 31.04 148.402 31.312 149.021 31.856C149.639 32.4 149.965 33.1413 149.997 34.08H148.557C148.525 33.5147 148.333 33.0827 147.981 32.784C147.639 32.4747 147.17 32.32 146.573 32.32C145.943 32.32 145.442 32.5013 145.069 32.864C144.695 33.216 144.509 33.7227 144.509 34.384V36.8C144.509 37.4613 144.695 37.9733 145.069 38.336C145.442 38.6987 145.943 38.88 146.573 38.88C147.17 38.88 147.639 38.7253 147.981 38.416C148.333 38.1067 148.525 37.6747 148.557 37.12H149.997C149.965 38.0587 149.639 38.8 149.021 39.344C148.402 39.888 147.586 40.16 146.573 40.16ZM155.782 40.16C155.089 40.16 154.481 40.0213 153.958 39.744C153.446 39.4667 153.046 39.0773 152.758 38.576C152.481 38.064 152.342 37.472 152.342 36.8V34.4C152.342 33.7173 152.481 33.1253 152.758 32.624C153.046 32.1227 153.446 31.7333 153.958 31.456C154.481 31.1787 155.089 31.04 155.782 31.04C156.476 31.04 157.078 31.1787 157.59 31.456C158.113 31.7333 158.513 32.1227 158.79 32.624C159.078 33.1253 159.222 33.7173 159.222 34.4V35.952H153.75V36.8C153.75 37.4933 153.926 38.0267 154.278 38.4C154.63 38.7627 155.132 38.944 155.782 38.944C156.337 38.944 156.785 38.848 157.126 38.656C157.468 38.4533 157.676 38.1547 157.75 37.76H159.19C159.094 38.496 158.732 39.0827 158.102 39.52C157.484 39.9467 156.71 40.16 155.782 40.16ZM157.814 34.992V34.4C157.814 33.7067 157.638 33.1733 157.286 32.8C156.945 32.4267 156.444 32.24 155.782 32.24C155.132 32.24 154.63 32.4267 154.278 32.8C153.926 33.1733 153.75 33.7067 153.75 34.4V34.864H157.926L157.814 34.992Z" fill="white"/>
<defs>
<clipPath id="clip0_4778_41692">
<rect width="24" height="24" fill="white" transform="matrix(0 1 1 0 0 0)"/>
</clipPath>
</defs>
</svg>
