<svg width="862" height="328" viewBox="0 0 862 328" fill="none" xmlns="http://www.w3.org/2000/svg">
<path opacity="0.1" d="M935.284 181.98L880.357 210.469M880.357 210.469L803.005 250.59M880.357 210.469L959.206 250.673M880.357 210.469L802.916 170.983M803.005 250.59L724.659 291.227M803.005 250.59L881.854 290.794M803.005 250.59L725.563 211.104M724.659 291.227L647.307 331.348M724.659 291.227L803.508 331.431M724.659 291.227L647.217 251.74M647.307 331.348L567.839 372.567M647.307 331.348L726.156 371.552M647.307 331.348L569.865 291.861M567.839 372.567L490.486 412.688M567.839 372.567L646.687 412.77M567.839 372.567L490.397 333.08M490.486 412.688L459.48 428.77M490.486 412.688L569.335 452.892M490.486 412.688L413.044 373.201M1021.29 218.472L959.206 250.673M959.206 250.673L881.854 290.794M959.206 250.673L1030.32 286.932M881.854 290.794L803.508 331.431M881.854 290.794L1004.21 353.181M803.508 331.431L726.156 371.552M803.508 331.431L850.885 355.588M726.156 371.552L646.687 412.77M726.156 371.552L824.776 421.837M646.687 412.77L569.335 452.892M646.687 412.77L710.433 445.274M569.335 452.892L545.484 465.263M569.335 452.892L684.324 511.523M860.418 141.157L802.916 170.983M802.916 170.983L725.563 211.104M802.916 170.983L720.39 128.904M725.563 211.104L647.217 251.74M725.563 211.104L642.439 168.72M647.217 251.74L569.865 291.861M647.217 251.74L563.486 209.047M569.865 291.861L490.397 333.08M569.865 291.861L485.535 248.863M490.397 333.08L413.044 373.201M490.397 333.08L405.451 289.767M413.044 373.201L384.614 387.948M413.044 373.201L327.5 329.583M863.512 55.8012L803.155 86.6301M803.155 86.6301L720.39 128.904M803.155 86.6301L1078.46 227.003M803.155 86.6301L725.175 46.8695M720.39 128.904L642.439 168.72M720.39 128.904L642.411 89.1434M642.439 168.72L563.486 209.047M642.439 168.72L564.46 128.959M563.486 209.047L485.535 248.863M563.486 209.047L485.507 169.286M485.535 248.863L405.451 289.767M485.535 248.863L407.556 209.102M405.451 289.767L327.5 329.583M405.451 289.767L327.472 250.007M327.5 329.583L185.382 402.174M327.5 329.583L249.521 289.822M825.15 -4.19546L803.126 7.05381M803.126 7.05381L725.175 46.8695M803.126 7.05381L1104.56 160.753M803.126 7.05381L646.424 -72.8465M725.175 46.8695L642.411 89.1434M725.175 46.8695L646.453 6.72985M642.411 89.1434L564.46 128.959M642.411 89.1434L563.688 49.0038M564.46 128.959L485.507 169.286M564.46 128.959L485.737 88.8195M485.507 169.286L407.556 209.102M485.507 169.286L406.784 129.147M407.556 209.102L327.472 250.007M407.556 209.102L328.833 168.962M327.472 250.007L249.521 289.822M327.472 250.007L248.749 209.867M249.521 289.822L147.021 342.177M249.521 289.822L170.798 249.683M717.491 -29.5549L646.453 6.72985M646.453 6.72985L563.688 49.0038M646.453 6.72985L568.473 -33.0308M563.688 49.0038L485.737 88.8195M563.688 49.0038L485.709 9.24312M485.737 88.8195L406.784 129.147M485.737 88.8195L407.758 49.0588M406.784 129.147L328.833 168.962M406.784 129.147L328.805 89.386M328.833 168.962L248.749 209.867M328.833 168.962L250.854 129.202M248.749 209.867L170.798 249.683M248.749 209.867L170.77 170.106M170.798 249.683L39.3614 316.818M170.798 249.683L92.8187 209.922M679.13 -89.5515L646.424 -72.8465M646.424 -72.8465L568.473 -33.0308M646.424 -72.8465L426.191 -185.141M568.473 -33.0308L485.709 9.24312M568.473 -33.0308L400.082 -118.891M485.709 9.24312L407.758 49.0588M485.709 9.24312L351.944 -58.9621M407.758 49.0588L328.805 89.386M407.758 49.0588L325.834 7.28702M328.805 89.386L250.854 129.202M328.805 89.386L172.511 9.69384M250.854 129.202L170.77 170.106M250.854 129.202L146.402 75.943M170.77 170.106L92.8187 209.922M170.77 170.106L32.0591 99.3795M92.8187 209.922L1 256.821M92.8187 209.922L5.94973 165.629M1015.72 182.316L960.793 210.806M960.793 210.806L883.44 250.927M960.793 210.806L1039.64 251.01M960.793 210.806L883.351 171.319M883.44 250.927L805.094 291.564M883.44 250.927L962.289 291.131M883.44 250.927L805.998 211.44M805.094 291.564L727.742 331.685M805.094 291.564L883.943 331.767M805.094 291.564L727.652 252.077M727.742 331.685L648.274 372.903M727.742 331.685L806.591 371.889M727.742 331.685L650.3 292.198M648.274 372.903L570.922 413.024M648.274 372.903L727.122 413.107M648.274 372.903L570.832 333.417M570.922 413.024L539.915 429.107M570.922 413.024L649.77 453.228M570.922 413.024L493.48 373.538M1101.72 218.809L1039.64 251.01M1039.64 251.01L962.289 291.131M1039.64 251.01L1110.75 287.269M962.289 291.131L883.943 331.767M962.289 291.131L1084.64 353.518M883.943 331.767L806.591 371.889M883.943 331.767L931.32 355.925M806.591 371.889L727.122 413.107M806.591 371.889L905.211 422.174M727.122 413.107L649.77 453.228M727.122 413.107L790.868 445.61M649.77 453.228L625.919 465.6M649.77 453.228L764.759 511.859M940.853 141.494L883.351 171.319M883.351 171.319L805.998 211.44M883.351 171.319L800.825 129.241M805.998 211.44L727.652 252.077M805.998 211.44L722.874 169.056M727.652 252.077L650.3 292.198M727.652 252.077L643.921 209.384M650.3 292.198L570.832 333.417M650.3 292.198L565.97 249.199M570.832 333.417L493.48 373.538M570.832 333.417L485.886 290.104M493.48 373.538L465.049 388.284M493.48 373.538L407.935 329.92M943.947 56.1379L883.59 86.9668M883.59 86.9668L800.825 129.241M883.59 86.9668L1158.89 227.339M883.59 86.9668L805.61 47.2062M800.825 129.241L722.874 169.056M800.825 129.241L722.846 89.4801M722.874 169.056L643.921 209.384M722.874 169.056L644.895 129.296M643.921 209.384L565.97 249.199M643.921 209.384L565.942 169.623M565.97 249.199L485.886 290.104M565.97 249.199L487.991 209.439M485.886 290.104L407.935 329.92M485.886 290.104L407.907 250.343M407.935 329.92L265.817 402.51M407.935 329.92L329.956 290.159M905.585 -3.85876L883.561 7.39052M883.561 7.39052L805.61 47.2062M883.561 7.39052L1185 161.09M883.561 7.39052L726.86 -72.5098M805.61 47.2062L722.846 89.4801M805.61 47.2062L726.888 7.06655M722.846 89.4801L644.895 129.296M722.846 89.4801L644.123 49.3405M644.895 129.296L565.942 169.623M644.895 129.296L566.172 89.1562M565.942 169.623L487.991 209.439M565.942 169.623L487.219 129.483M487.991 209.439L407.907 250.343M487.991 209.439L409.268 169.299M407.907 250.343L329.956 290.159M407.907 250.343L329.185 210.204M329.956 290.159L227.456 342.514M329.956 290.159L251.233 250.019M797.926 -29.2182L726.888 7.06655M726.888 7.06655L644.123 49.3405M726.888 7.06655L648.908 -32.6941M644.123 49.3405L566.172 89.1562M644.123 49.3405L566.144 9.57983M566.172 89.1562L487.219 129.483M566.172 89.1562L488.193 49.3955M487.219 129.483L409.268 169.299M487.219 129.483L409.24 89.7227M409.268 169.299L329.185 210.204M409.268 169.299L331.289 129.538M329.185 210.204L251.233 250.019M329.185 210.204L251.205 170.443M251.233 250.019L119.796 317.154M251.233 250.019L173.254 210.259M759.565 -89.2148L726.86 -72.5098M726.86 -72.5098L648.908 -32.6941M726.86 -72.5098L506.626 -184.804M648.908 -32.6941L566.144 9.57983M648.908 -32.6941L480.517 -118.555M566.144 9.57983L488.193 49.3955M566.144 9.57983L432.379 -58.6254M488.193 49.3955L409.24 89.7227M488.193 49.3955L406.269 7.62373M409.24 89.7227L331.289 129.538M409.24 89.7227L252.946 10.0305M331.289 129.538L251.205 170.443M331.289 129.538L226.837 76.2797M251.205 170.443L173.254 210.259M251.205 170.443L112.494 99.7163M173.254 210.259L81.4351 257.158M173.254 210.259L86.3848 165.965" stroke="white"/>
<g opacity="0.5" filter="url(#filter0_f_8654_5971)">
<path d="M402.511 307L629 175.523L402.511 44L176 175.523L402.511 307Z" fill="white"/>
</g>
<mask id="mask0_8654_5971" style="mask-type:luminance" maskUnits="userSpaceOnUse" x="511" y="134" width="4" height="18">
<path d="M511.21 139.466L511.117 151.508C511.133 149.697 512.324 147.886 514.724 146.493L514.816 134.451C512.417 135.844 511.226 137.655 511.21 139.466Z" fill="white"/>
</mask>
<g mask="url(#mask0_8654_5971)">
<path d="M511.21 139.466L511.117 151.508C511.133 149.697 512.324 147.886 514.724 146.493L514.816 134.451C512.417 135.844 511.226 137.655 511.21 139.466Z" fill="#603DB8"/>
</g>
<path d="M248.093 159.356L248 166.461L359.877 231.3L359.97 224.195L248.093 159.356Z" fill="#603DB8"/>
<path d="M381.549 228.637C381.502 228.405 381.456 228.173 381.379 227.956C381.301 227.724 381.193 227.492 381.085 227.275C380.976 227.074 380.837 226.857 380.698 226.656C380.698 226.641 380.682 226.641 380.682 226.625C380.667 226.61 380.651 226.579 380.651 226.563C380.45 226.3 380.233 226.037 379.97 225.774C379.63 225.433 379.227 225.093 378.778 224.783C378.484 224.582 378.175 224.381 377.85 224.195C376.797 223.607 375.621 223.143 374.367 222.787C374.181 222.74 373.995 222.709 373.81 222.663C373.686 222.632 373.547 222.601 373.423 222.585C373.082 222.508 372.757 222.431 372.417 222.369C371.921 222.291 371.411 222.229 370.9 222.183C370.451 222.136 370.018 222.121 369.569 222.105C369.367 222.105 369.166 222.105 368.98 222.105C368.934 222.105 368.888 222.105 368.826 222.105C368.655 222.105 368.485 222.105 368.315 222.105C367.912 222.121 367.51 222.136 367.108 222.167C366.705 222.198 366.303 222.245 365.9 222.291C365.482 222.353 365.08 222.415 364.677 222.492C364.538 222.523 364.383 222.57 364.244 222.601C364.182 222.616 364.136 222.632 364.074 222.647C363.842 222.709 363.609 222.756 363.377 222.817C362.867 222.957 362.356 223.127 361.876 223.313C361.21 223.576 360.576 223.87 360.003 224.195L359.91 231.3C361.102 230.619 362.495 230.108 363.981 229.752C364.043 229.736 364.089 229.721 364.151 229.705C365.622 229.38 367.17 229.21 368.733 229.195C368.795 229.195 368.841 229.195 368.903 229.195C370.42 229.195 371.921 229.38 373.345 229.69C373.469 229.721 373.609 229.736 373.732 229.767C375.203 230.123 376.58 230.619 377.772 231.284C379.026 231.996 379.97 232.832 380.605 233.714C380.62 233.73 380.62 233.745 380.636 233.745C381.255 234.627 381.564 235.556 381.564 236.485L381.657 229.38C381.657 229.365 381.657 229.334 381.657 229.318C381.611 229.102 381.58 228.87 381.549 228.637Z" fill="#603DB8"/>
<path d="M403.167 248.698L403.074 255.802L557.904 166.059L557.997 158.954L403.167 248.698Z" fill="#603DB8"/>
<path d="M377.987 234.411L377.895 241.516L403.078 255.802L403.171 248.698L377.987 234.411Z" fill="#603DB8"/>
<path d="M248.094 159.356L359.971 224.195C364.831 221.394 372.865 221.394 377.818 224.195C382.817 227.028 382.848 231.609 377.988 234.411L403.171 248.698L558.001 158.954L532.818 144.668C527.958 147.469 519.971 147.5 514.971 144.668C510.018 141.866 509.941 137.253 514.817 134.452L402.924 70L248.094 159.356Z" fill="#9166FF"/>
<path d="M411.438 232.832L537.447 160.084L402.739 82.3203L268.031 160.084L394.04 232.832H411.438Z" fill="#7843FF"/>
<path d="M402.741 238.11L411.889 232.832H393.594L402.741 238.11Z" fill="#7843FF"/>
<path d="M403.127 161.662L365.561 183.301L364.602 202.03L402.771 224.071L462.626 189.616" stroke="white" stroke-opacity="0.2" stroke-width="0.3451" stroke-miterlimit="10"/>
<path d="M402 161.012L363.444 183.208L362.469 202.416L402.774 225.68L464.022 190.421" stroke="white" stroke-opacity="0.2" stroke-width="0.354" stroke-miterlimit="10"/>
<path d="M400.684 160.254L362.267 182.372L361.199 203.377L402.821 227.399L465.539 191.303" stroke="white" stroke-opacity="0.2" stroke-width="0.3871" stroke-miterlimit="10"/>
<path d="M399.646 159.65L360.13 182.388L359.031 203.934L402.804 229.21L467.101 192.201" stroke="white" stroke-opacity="0.2" stroke-width="0.3971" stroke-miterlimit="10"/>
<path d="M403.823 162.065L407.105 163.954L373.223 183.457L372.402 199.74L388.221 208.872" stroke="white" stroke-opacity="0.2" stroke-width="0.3871" stroke-miterlimit="10"/>
<path d="M395.914 170.393L399.35 172.389L378.052 184.648L377.324 198.826L391.487 206.999" stroke="white" stroke-opacity="0.2" stroke-width="0.3871" stroke-miterlimit="10"/>
<path d="M406.87 160.889L455.039 188.703L421.466 208.02L404.75 208.299L389.07 199.244" stroke="white" stroke-opacity="0.2" stroke-width="0.3871" stroke-miterlimit="10"/>
<path d="M405.218 161.26L452.211 188.409L421.455 206.116L405.574 206.364L391.164 198.036" stroke="white" stroke-opacity="0.2" stroke-width="0.3871" stroke-miterlimit="10"/>
<path d="M409.209 163.582L409.116 165.486L448.555 188.254L420.044 204.662L406.516 204.878L392.926 197.031" stroke="white" stroke-opacity="0.2" stroke-width="0.3871" stroke-miterlimit="10"/>
<path d="M404.784 165.283L444.733 188.346L419.194 203.05L408.096 203.236L395.141 195.745" stroke="white" stroke-opacity="0.2" stroke-width="0.3871" stroke-miterlimit="10"/>
<path d="M401.272 167.312L408.887 171.692L392.48 181.134L392.062 189.399L411.952 200.884" stroke="white" stroke-opacity="0.2" stroke-width="0.3871" stroke-miterlimit="10"/>
<path d="M402.369 166.678L412.074 172.296L396.317 181.351L395.945 188.564L414.612 199.353" stroke="white" stroke-opacity="0.2" stroke-width="0.3871" stroke-miterlimit="10"/>
<path d="M408.357 174.416L411.112 176.01L401.005 181.815L400.711 187.836L417.629 197.618" stroke="white" stroke-opacity="0.2" stroke-width="0.3871" stroke-miterlimit="10"/>
<path d="M407.523 178.069L429.518 190.762" stroke="white" stroke-opacity="0.2" stroke-width="0.3871" stroke-miterlimit="10"/>
<path d="M411.67 180.453L411.5 183.58L426.731 192.371" stroke="white" stroke-opacity="0.2" stroke-width="0.3871" stroke-miterlimit="10"/>
<path d="M397.014 158.134L359.432 179.772L326.959 180.283L288.773 158.257L343.071 126.991" stroke="white" stroke-opacity="0.2" stroke-width="0.3451" stroke-miterlimit="10"/>
<path d="M398.156 158.798L359.599 180.979L326.275 181.521L285.984 158.257L341.675 126.186" stroke="white" stroke-opacity="0.2" stroke-width="0.354" stroke-miterlimit="10"/>
<path d="M399.455 159.542L361.038 181.66L324.602 182.249L282.996 158.226L340.158 125.304" stroke="white" stroke-opacity="0.2" stroke-width="0.3871" stroke-miterlimit="10"/>
<path d="M400.509 160.146L360.993 182.899L323.628 183.487L279.855 158.226L338.596 124.406" stroke="white" stroke-opacity="0.2" stroke-width="0.3971" stroke-miterlimit="10"/>
<path d="M396.332 157.731L393.051 155.843L359.184 175.345L330.936 175.794L315.117 166.662" stroke="white" stroke-opacity="0.2" stroke-width="0.3871" stroke-miterlimit="10"/>
<path d="M381.859 162.282L378.423 160.301L357.109 172.56L332.53 172.962L318.367 164.774" stroke="white" stroke-opacity="0.2" stroke-width="0.3871" stroke-miterlimit="10"/>
<path d="M398.373 155.982L350.205 128.167L316.632 147.499L316.137 157.127L331.816 166.182" stroke="white" stroke-opacity="0.2" stroke-width="0.3871" stroke-miterlimit="10"/>
<path d="M397.712 156.942L350.72 129.793L319.949 147.5L319.484 156.663L333.91 164.991" stroke="white" stroke-opacity="0.2" stroke-width="0.3871" stroke-miterlimit="10"/>
<path d="M393.712 154.62L390.415 154.682L350.976 131.913L322.465 148.32L322.078 156.121L335.668 163.969" stroke="white" stroke-opacity="0.2" stroke-width="0.3871" stroke-miterlimit="10"/>
<path d="M390.728 157.174L350.794 134.111L325.255 148.816L324.93 155.208L337.885 162.7" stroke="white" stroke-opacity="0.2" stroke-width="0.3871" stroke-miterlimit="10"/>
<path d="M387.23 159.201L379.614 154.805L363.223 164.247L348.905 164.479L329.016 152.994" stroke="white" stroke-opacity="0.2" stroke-width="0.3871" stroke-miterlimit="10"/>
<path d="M388.315 158.567L378.61 152.964L362.853 162.035L350.347 162.236L331.68 151.463" stroke="white" stroke-opacity="0.2" stroke-width="0.3871" stroke-miterlimit="10"/>
<path d="M374.892 155.1L372.153 153.521L362.061 159.325L351.613 159.495L334.68 149.729" stroke="white" stroke-opacity="0.2" stroke-width="0.3871" stroke-miterlimit="10"/>
<path d="M368.581 155.579L346.586 142.871" stroke="white" stroke-opacity="0.2" stroke-width="0.3871" stroke-miterlimit="10"/>
<path d="M364.445 153.179L359.028 153.272L343.797 144.48" stroke="white" stroke-opacity="0.2" stroke-width="0.3871" stroke-miterlimit="10"/>
<path d="M408.469 158.598L446.05 136.975L478.524 136.448L516.709 158.489L462.411 189.74" stroke="white" stroke-opacity="0.2" stroke-width="0.3451" stroke-miterlimit="10"/>
<path d="M407.32 157.948L445.877 135.752L479.202 135.21L519.492 158.489L463.801 190.545" stroke="white" stroke-opacity="0.2" stroke-width="0.354" stroke-miterlimit="10"/>
<path d="M406.02 157.188L444.437 135.07L480.857 134.481L522.479 158.519L465.317 191.426" stroke="white" stroke-opacity="0.2" stroke-width="0.3871" stroke-miterlimit="10"/>
<path d="M404.969 156.585L444.47 133.848L481.85 133.244L525.622 158.505L466.882 192.325" stroke="white" stroke-opacity="0.2" stroke-width="0.3971" stroke-miterlimit="10"/>
<path d="M409.148 158.999L412.43 160.887L446.296 141.384L474.544 140.936L490.363 150.068" stroke="white" stroke-opacity="0.2" stroke-width="0.3871" stroke-miterlimit="10"/>
<path d="M423.621 154.45L427.057 156.431L448.371 144.172L472.951 143.785L487.113 151.958" stroke="white" stroke-opacity="0.2" stroke-width="0.3871" stroke-miterlimit="10"/>
<path d="M407.105 160.749L455.274 188.564L488.847 169.247L489.342 159.604L473.662 150.549" stroke="white" stroke-opacity="0.2" stroke-width="0.3871" stroke-miterlimit="10"/>
<path d="M407.773 159.805L454.766 186.938L485.537 169.231L486.001 160.068L471.575 151.756" stroke="white" stroke-opacity="0.2" stroke-width="0.3871" stroke-miterlimit="10"/>
<path d="M411.766 162.111L415.063 162.049L454.501 184.817L483.012 168.41L483.399 160.609L469.809 152.762" stroke="white" stroke-opacity="0.2" stroke-width="0.3871" stroke-miterlimit="10"/>
<path d="M414.75 159.557L454.684 182.62L480.223 167.915L480.548 161.523L467.593 154.047" stroke="white" stroke-opacity="0.2" stroke-width="0.3871" stroke-miterlimit="10"/>
<path d="M418.25 157.53L425.85 161.926L442.257 152.484L456.574 152.252L476.464 163.737" stroke="white" stroke-opacity="0.2" stroke-width="0.3871" stroke-miterlimit="10"/>
<path d="M417.164 158.164L426.869 163.768L442.626 154.697L455.132 154.496L473.799 165.269" stroke="white" stroke-opacity="0.2" stroke-width="0.3871" stroke-miterlimit="10"/>
<path d="M430.586 161.631L433.326 163.21L443.417 157.406L453.865 157.235L470.799 167.002" stroke="white" stroke-opacity="0.2" stroke-width="0.3871" stroke-miterlimit="10"/>
<path d="M436.902 161.151L458.897 173.859" stroke="white" stroke-opacity="0.2" stroke-width="0.3871" stroke-miterlimit="10"/>
<path d="M441.035 163.551L446.453 163.458L461.683 172.25" stroke="white" stroke-opacity="0.2" stroke-width="0.3871" stroke-miterlimit="10"/>
<path d="M402.352 155.069L439.918 133.43L440.878 114.701L402.708 92.6758L348.41 123.927L343.07 126.991" stroke="white" stroke-opacity="0.2" stroke-width="0.3451" stroke-miterlimit="10"/>
<path d="M403.477 155.718L442.033 133.538L443.009 114.329L402.703 91.0498L347.012 123.121L341.672 126.186" stroke="white" stroke-opacity="0.2" stroke-width="0.354" stroke-miterlimit="10"/>
<path d="M404.794 156.477L443.211 134.374L444.279 113.37L402.658 89.332L345.481 122.239L340.156 125.304" stroke="white" stroke-opacity="0.2" stroke-width="0.3871" stroke-miterlimit="10"/>
<path d="M405.832 157.081L445.348 134.343L446.431 112.798L402.674 87.5215L343.934 121.342L338.594 124.406" stroke="white" stroke-opacity="0.2" stroke-width="0.3971" stroke-miterlimit="10"/>
<path d="M401.656 154.666L398.375 152.778L432.257 133.275L433.077 117.007L417.259 107.859" stroke="white" stroke-opacity="0.2" stroke-width="0.3871" stroke-miterlimit="10"/>
<path d="M409.565 146.338L406.129 144.341L427.427 132.082L428.155 117.92L413.992 109.747" stroke="white" stroke-opacity="0.2" stroke-width="0.3871" stroke-miterlimit="10"/>
<path d="M398.606 155.842L350.438 128.027L384.01 108.71L400.727 108.447L416.406 117.502" stroke="white" stroke-opacity="0.2" stroke-width="0.3871" stroke-miterlimit="10"/>
<path d="M400.266 155.471L353.273 128.338L384.029 110.63L399.91 110.367L414.32 118.695" stroke="white" stroke-opacity="0.2" stroke-width="0.3871" stroke-miterlimit="10"/>
<path d="M396.268 153.164L396.361 151.261L356.922 128.492L385.433 112.085L398.961 111.868L412.551 119.716" stroke="white" stroke-opacity="0.2" stroke-width="0.3871" stroke-miterlimit="10"/>
<path d="M400.7 151.447L360.75 128.384L386.289 113.68L397.387 113.51L410.343 120.986" stroke="white" stroke-opacity="0.2" stroke-width="0.3871" stroke-miterlimit="10"/>
<path d="M404.211 149.418L396.596 145.038L413.003 135.596L413.421 127.331L393.531 115.861" stroke="white" stroke-opacity="0.2" stroke-width="0.3871" stroke-miterlimit="10"/>
<path d="M403.111 150.054L393.406 144.451L409.163 135.38L409.534 128.167L390.867 117.395" stroke="white" stroke-opacity="0.2" stroke-width="0.3871" stroke-miterlimit="10"/>
<path d="M397.123 142.314L394.368 140.72L404.475 134.916L404.769 128.895L387.852 119.128" stroke="white" stroke-opacity="0.2" stroke-width="0.3871" stroke-miterlimit="10"/>
<path d="M397.94 138.661L375.961 125.969" stroke="white" stroke-opacity="0.2" stroke-width="0.3871" stroke-miterlimit="10"/>
<path d="M393.81 136.278L393.965 133.167L378.75 124.359" stroke="white" stroke-opacity="0.2" stroke-width="0.3871" stroke-miterlimit="10"/>
<path d="M274.514 163.675C275.149 163.303 275.149 162.375 274.514 162.003C273.864 161.632 273.044 161.632 272.394 162.003C271.759 162.375 271.759 163.303 272.394 163.675C273.044 164.062 273.849 164.062 274.514 163.675Z" fill="white"/>
<path d="M277.163 165.208C277.798 164.837 277.798 163.908 277.163 163.536C276.513 163.165 275.692 163.165 275.042 163.536C274.408 163.908 274.408 164.837 275.042 165.208C275.708 165.595 276.513 165.595 277.163 165.208Z" fill="white"/>
<path d="M279.823 166.739C280.458 166.368 280.458 165.439 279.823 165.068C279.173 164.696 278.353 164.696 277.703 165.068C277.068 165.439 277.068 166.368 277.703 166.739C278.368 167.126 279.173 167.126 279.823 166.739Z" fill="white"/>
<path d="M282.487 168.288C283.122 167.917 283.122 166.988 282.487 166.617C281.837 166.245 281.017 166.245 280.367 166.617C279.732 166.988 279.732 167.917 280.367 168.288C281.017 168.66 281.822 168.66 282.487 168.288Z" fill="white"/>
<path d="M285.132 169.82C285.766 169.449 285.766 168.52 285.132 168.149C284.482 167.777 283.661 167.777 283.011 168.149C282.377 168.52 282.377 169.449 283.011 169.82C283.677 170.192 284.482 170.192 285.132 169.82Z" fill="white"/>
<path d="M287.796 171.353C288.43 170.981 288.43 170.052 287.796 169.681C287.146 169.309 286.325 169.309 285.675 169.681C285.041 170.052 285.041 170.981 285.675 171.353C286.341 171.724 287.146 171.724 287.796 171.353Z" fill="white"/>
<path d="M290.46 172.885C291.094 172.513 291.094 171.585 290.46 171.213C289.81 170.842 288.989 170.842 288.339 171.213C287.705 171.585 287.705 172.513 288.339 172.885C288.989 173.256 289.794 173.256 290.46 172.885Z" fill="white"/>
<path d="M293.104 174.417C293.739 174.046 293.739 173.117 293.104 172.745C292.454 172.374 291.634 172.374 290.984 172.745C290.349 173.117 290.349 174.046 290.984 174.417C291.649 174.789 292.454 174.789 293.104 174.417Z" fill="white"/>
<path d="M295.768 175.95C296.403 175.579 296.403 174.65 295.768 174.279C295.118 173.907 294.298 173.907 293.648 174.279C293.013 174.65 293.013 175.579 293.648 175.95C294.313 176.337 295.118 176.322 295.768 175.95Z" fill="white"/>
<path d="M298.429 177.482C299.063 177.11 299.063 176.181 298.429 175.81C297.778 175.438 296.958 175.438 296.308 175.81C295.673 176.181 295.673 177.11 296.308 177.482C296.958 177.868 297.778 177.853 298.429 177.482Z" fill="white"/>
<path d="M301.089 179.015C301.723 178.643 301.723 177.715 301.089 177.343C300.439 176.972 299.618 176.972 298.968 177.343C298.334 177.715 298.334 178.643 298.968 179.015C299.618 179.402 300.423 179.402 301.089 179.015Z" fill="white"/>
<path d="M272.304 165.455C272.938 165.084 272.938 164.155 272.304 163.783C271.653 163.412 270.833 163.412 270.183 163.783C269.548 164.155 269.548 165.084 270.183 165.455C270.849 165.827 271.653 165.827 272.304 165.455Z" fill="white"/>
<path d="M274.968 166.987C275.602 166.616 275.602 165.687 274.968 165.316C274.318 164.944 273.497 164.944 272.847 165.316C272.212 165.687 272.212 166.616 272.847 166.987C273.497 167.359 274.302 167.359 274.968 166.987Z" fill="white"/>
<path d="M277.612 168.52C278.247 168.148 278.247 167.219 277.612 166.848C276.962 166.476 276.142 166.476 275.492 166.848C274.857 167.219 274.857 168.148 275.492 168.52C276.157 168.891 276.962 168.891 277.612 168.52Z" fill="white"/>
<path d="M280.276 170.053C280.911 169.681 280.911 168.753 280.276 168.381C279.626 168.01 278.806 168.01 278.156 168.381C277.521 168.753 277.521 169.681 278.156 170.053C278.821 170.44 279.626 170.424 280.276 170.053Z" fill="white"/>
<path d="M282.932 171.585C283.567 171.214 283.567 170.285 282.932 169.913C282.282 169.542 281.462 169.542 280.812 169.913C280.177 170.285 280.177 171.214 280.812 171.585C281.462 171.972 282.267 171.957 282.932 171.585Z" fill="white"/>
<path d="M285.585 173.117C286.219 172.746 286.219 171.817 285.585 171.446C284.935 171.074 284.114 171.074 283.464 171.446C282.83 171.817 282.83 172.746 283.464 173.117C284.13 173.504 284.935 173.504 285.585 173.117Z" fill="white"/>
<path d="M288.249 174.649C288.883 174.278 288.883 173.349 288.249 172.978C287.599 172.606 286.778 172.606 286.128 172.978C285.494 173.349 285.494 174.278 286.128 174.649C286.794 175.036 287.599 175.036 288.249 174.649Z" fill="white"/>
<path d="M290.909 176.183C291.544 175.811 291.544 174.883 290.909 174.511C290.259 174.14 289.439 174.14 288.788 174.511C288.154 174.883 288.154 175.811 288.788 176.183C289.439 176.57 290.259 176.57 290.909 176.183Z" fill="white"/>
<path d="M293.573 177.714C294.208 177.342 294.208 176.414 293.573 176.042C292.923 175.671 292.103 175.671 291.453 176.042C290.818 176.414 290.818 177.342 291.453 177.714C292.103 178.101 292.907 178.101 293.573 177.714Z" fill="white"/>
<path d="M296.214 179.247C296.848 178.876 296.848 177.947 296.214 177.575C295.564 177.204 294.743 177.204 294.093 177.575C293.459 177.947 293.459 178.876 294.093 179.247C294.759 179.634 295.564 179.634 296.214 179.247Z" fill="white"/>
<path d="M298.878 180.778C299.512 180.407 299.512 179.478 298.878 179.107C298.228 178.735 297.407 178.735 296.757 179.107C296.123 179.478 296.123 180.407 296.757 180.778C297.407 181.165 298.228 181.165 298.878 180.778Z" fill="white"/>
<path d="M511.862 178.844C512.497 179.216 512.497 180.144 511.862 180.516C511.212 180.887 510.392 180.887 509.742 180.516C509.107 180.144 509.107 179.216 509.742 178.844C510.392 178.473 511.197 178.473 511.862 178.844Z" fill="white"/>
<path d="M514.511 177.312C515.145 177.683 515.145 178.612 514.511 178.983C513.861 179.355 513.04 179.355 512.39 178.983C511.755 178.612 511.755 177.683 512.39 177.312C513.056 176.94 513.861 176.94 514.511 177.312Z" fill="white"/>
<path d="M517.171 175.78C517.805 176.151 517.805 177.08 517.171 177.451C516.521 177.823 515.7 177.823 515.05 177.451C514.416 177.08 514.416 176.151 515.05 175.78C515.716 175.408 516.521 175.408 517.171 175.78Z" fill="white"/>
<path d="M519.835 174.247C520.469 174.619 520.469 175.547 519.835 175.919C519.185 176.29 518.364 176.29 517.714 175.919C517.08 175.547 517.08 174.619 517.714 174.247C518.364 173.86 519.169 173.876 519.835 174.247Z" fill="white"/>
<path d="M522.479 172.715C523.114 173.087 523.114 174.015 522.479 174.387C521.829 174.758 521.009 174.758 520.359 174.387C519.724 174.015 519.724 173.087 520.359 172.715C521.024 172.328 521.829 172.344 522.479 172.715Z" fill="white"/>
<path d="M525.143 171.183C525.778 171.554 525.778 172.483 525.143 172.854C524.493 173.226 523.673 173.226 523.023 172.854C522.388 172.483 522.388 171.554 523.023 171.183C523.688 170.796 524.493 170.796 525.143 171.183Z" fill="white"/>
<path d="M527.807 169.65C528.442 170.021 528.442 170.95 527.807 171.321C527.157 171.693 526.337 171.693 525.687 171.321C525.052 170.95 525.052 170.021 525.687 169.65C526.337 169.263 527.142 169.263 527.807 169.65Z" fill="white"/>
<path d="M530.452 168.118C531.087 168.49 531.087 169.419 530.452 169.79C529.802 170.161 528.982 170.161 528.331 169.79C527.697 169.419 527.697 168.49 528.331 168.118C528.997 167.731 529.802 167.731 530.452 168.118Z" fill="white"/>
<path d="M533.116 166.585C533.751 166.957 533.751 167.885 533.116 168.257C532.466 168.628 531.646 168.628 530.995 168.257C530.361 167.885 530.361 166.957 530.995 166.585C531.661 166.198 532.466 166.198 533.116 166.585Z" fill="white"/>
<path d="M535.776 165.053C536.411 165.424 536.411 166.353 535.776 166.725C535.126 167.096 534.306 167.096 533.656 166.725C533.021 166.353 533.021 165.424 533.656 165.053C534.306 164.666 535.126 164.666 535.776 165.053Z" fill="white"/>
<path d="M538.436 163.521C539.071 163.892 539.071 164.821 538.436 165.192C537.786 165.564 536.966 165.564 536.316 165.192C535.681 164.821 535.681 163.892 536.316 163.521C536.966 163.134 537.771 163.134 538.436 163.521Z" fill="white"/>
<path d="M509.647 177.079C510.282 177.451 510.282 178.379 509.647 178.751C508.997 179.122 508.177 179.122 507.527 178.751C506.892 178.379 506.892 177.451 507.527 177.079C508.192 176.692 508.997 176.692 509.647 177.079Z" fill="white"/>
<path d="M512.311 175.547C512.946 175.919 512.946 176.847 512.311 177.219C511.661 177.59 510.841 177.59 510.191 177.219C509.556 176.847 509.556 175.919 510.191 175.547C510.841 175.16 511.646 175.16 512.311 175.547Z" fill="white"/>
<path d="M514.956 174.015C515.59 174.386 515.59 175.315 514.956 175.686C514.306 176.058 513.485 176.058 512.835 175.686C512.201 175.315 512.201 174.386 512.835 174.015C513.501 173.628 514.306 173.628 514.956 174.015Z" fill="white"/>
<path d="M517.62 172.483C518.255 172.854 518.255 173.783 517.62 174.154C516.97 174.526 516.149 174.526 515.499 174.154C514.865 173.783 514.865 172.854 515.499 172.483C516.165 172.096 516.97 172.096 517.62 172.483Z" fill="white"/>
<path d="M520.276 170.95C520.911 171.322 520.911 172.251 520.276 172.622C519.626 172.994 518.806 172.994 518.156 172.622C517.521 172.251 517.521 171.322 518.156 170.95C518.806 170.563 519.611 170.563 520.276 170.95Z" fill="white"/>
<path d="M522.929 169.417C523.563 169.789 523.563 170.717 522.929 171.089C522.278 171.46 521.458 171.46 520.808 171.089C520.173 170.717 520.173 169.789 520.808 169.417C521.474 169.03 522.278 169.03 522.929 169.417Z" fill="white"/>
<path d="M525.593 167.885C526.227 168.256 526.227 169.185 525.593 169.557C524.942 169.928 524.122 169.928 523.472 169.557C522.837 169.185 522.837 168.256 523.472 167.885C524.138 167.498 524.942 167.498 525.593 167.885Z" fill="white"/>
<path d="M528.253 166.353C528.887 166.724 528.887 167.653 528.253 168.024C527.603 168.396 526.782 168.396 526.132 168.024C525.498 167.653 525.498 166.724 526.132 166.353C526.782 165.966 527.603 165.966 528.253 166.353Z" fill="white"/>
<path d="M530.901 164.82C531.536 165.192 531.536 166.121 530.901 166.492C530.251 166.864 529.431 166.864 528.781 166.492C528.146 166.121 528.146 165.192 528.781 164.82C529.446 164.434 530.251 164.434 530.901 164.82Z" fill="white"/>
<path d="M533.557 163.273C534.192 163.644 534.192 164.573 533.557 164.944C532.907 165.316 532.087 165.316 531.437 164.944C530.802 164.573 530.802 163.644 531.437 163.273C532.102 162.901 532.907 162.901 533.557 163.273Z" fill="white"/>
<path d="M536.222 161.741C536.856 162.112 536.856 163.041 536.222 163.412C535.571 163.784 534.751 163.784 534.101 163.412C533.466 163.041 533.466 162.112 534.101 161.741C534.751 161.369 535.571 161.369 536.222 161.741Z" fill="white"/>
<defs>
<filter id="filter0_f_8654_5971" x="76" y="-56" width="653" height="463" filterUnits="userSpaceOnUse" color-interpolation-filters="sRGB">
<feFlood flood-opacity="0" result="BackgroundImageFix"/>
<feBlend mode="normal" in="SourceGraphic" in2="BackgroundImageFix" result="shape"/>
<feGaussianBlur stdDeviation="50" result="effect1_foregroundBlur_8654_5971"/>
</filter>
</defs>
</svg>
