<svg width="44" height="44" viewBox="0 0 44 44" fill="none" xmlns="http://www.w3.org/2000/svg">
<g clip-path="url(#clip0_8666_3599)">
<rect width="44" height="44" rx="8" fill="#7843FF"/>
<g filter="url(#filter0_f_8666_3599)">
<path d="M39.0023 44.6393C39.0023 54.7795 48.9144 63 39.0023 63C29.0903 63 7.03444 61.6447 7.03444 51.5045C7.03444 41.3643 5.95606 28 15.8681 28C67.8876 29.8446 39.0023 34.499 39.0023 44.6393Z" fill="white"/>
</g>
<path d="M19.1402 28.9059C18.6469 29.9843 17.0009 32.5 12.3754 32.5C12.1433 32.5 11.9208 32.4078 11.7567 32.2437C11.5926 32.0796 11.5004 31.857 11.5004 31.625C11.5004 26.9995 14.016 25.3534 15.0944 24.8601C15.199 24.8124 15.3119 24.7858 15.4268 24.7818C15.5417 24.7777 15.6562 24.7963 15.7638 24.8366C15.8715 24.8768 15.9702 24.9378 16.0543 25.0162C16.1383 25.0945 16.2061 25.1887 16.2538 25.2932C16.3015 25.3978 16.3281 25.5107 16.3322 25.6256C16.3362 25.7404 16.3176 25.855 16.2774 25.9626C16.2372 26.0703 16.1761 26.169 16.0978 26.253C16.0194 26.3371 15.9253 26.4049 15.8207 26.4526C15.1174 26.7731 13.5654 27.8045 13.2919 30.7084C16.1959 30.435 17.2294 28.8829 17.5477 28.1796C17.5954 28.0751 17.6632 27.9809 17.7473 27.9026C17.8314 27.8242 17.9301 27.7632 18.0377 27.723C18.1454 27.6828 18.2599 27.6641 18.3748 27.6682C18.4896 27.6722 18.6025 27.6988 18.7071 27.7465C18.8117 27.7942 18.9058 27.862 18.9842 27.9461C19.0625 28.0302 19.1236 28.1288 19.1638 28.2365C19.204 28.3442 19.2226 28.4587 19.2186 28.5735C19.2145 28.6884 19.1879 28.8013 19.1402 28.9059ZM32.484 13.1559C32.4581 12.7293 32.2769 12.3269 31.9746 12.0246C31.6724 11.7224 31.27 11.5412 30.8434 11.5153C29.4674 11.4332 25.951 11.559 23.034 14.4761L17.6254 19.889C17.5442 19.9704 17.4477 20.035 17.3415 20.0791C17.2353 20.1231 17.1215 20.1459 17.0066 20.146C16.7744 20.1462 16.5516 20.0542 16.3873 19.8901C16.2229 19.7261 16.1305 19.5035 16.1303 19.2713C16.1301 19.0391 16.2221 18.8163 16.3862 18.652L19.2912 15.7459C19.352 15.6847 19.3934 15.6069 19.4101 15.5223C19.4268 15.4377 19.4182 15.35 19.3852 15.2703C19.3522 15.1906 19.2964 15.1224 19.2248 15.0743C19.1532 15.0262 19.069 15.0003 18.9827 15H16.1324C15.9019 14.9987 15.6734 15.0434 15.4603 15.1312C15.2472 15.2191 15.0537 15.3485 14.891 15.5118L11.1394 19.2656C10.9094 19.4955 10.7479 19.785 10.6732 20.1016C10.5985 20.4181 10.6135 20.7492 10.7166 21.0578C10.8196 21.3663 11.0066 21.64 11.2565 21.8481C11.5064 22.0563 11.8094 22.1907 12.1315 22.2362L16.3391 22.8236L21.1746 27.659L21.7619 31.8689C21.8071 32.1909 21.9415 32.494 22.1498 32.7437C22.3582 32.9934 22.6322 33.1799 22.941 33.282C23.1209 33.3421 23.3092 33.3727 23.4988 33.3728C23.7284 33.3732 23.9558 33.3282 24.1679 33.2403C24.3801 33.1525 24.5727 33.0235 24.7348 32.8609L28.4885 29.1093C28.6514 28.9463 28.7804 28.7527 28.8683 28.5397C28.9561 28.3266 29.001 28.0984 29.0004 27.8679V25.0176C29.0002 24.9311 28.9745 24.8466 28.9263 24.7748C28.8782 24.7029 28.8098 24.647 28.7299 24.614C28.6499 24.581 28.562 24.5724 28.4772 24.5893C28.3924 24.6063 28.3145 24.648 28.2534 24.7092L25.3473 27.6142C25.2623 27.6993 25.1606 27.7659 25.0487 27.81C24.9368 27.854 24.817 27.8745 24.6969 27.8702C24.5767 27.8659 24.4587 27.8369 24.3502 27.7849C24.2417 27.733 24.1452 27.6592 24.0665 27.5682C23.923 27.3946 23.85 27.1733 23.8622 26.9484C23.8743 26.7235 23.9707 26.5113 24.1321 26.3542L29.521 20.9653C32.4402 18.0471 32.566 14.5307 32.484 13.1537V13.1559Z" fill="white"/>
</g>
<defs>
<filter id="filter0_f_8666_3599" x="-43" y="-22" width="140" height="135" filterUnits="userSpaceOnUse" color-interpolation-filters="sRGB">
<feFlood flood-opacity="0" result="BackgroundImageFix"/>
<feBlend mode="normal" in="SourceGraphic" in2="BackgroundImageFix" result="shape"/>
<feGaussianBlur stdDeviation="25" result="effect1_foregroundBlur_8666_3599"/>
</filter>
<clipPath id="clip0_8666_3599">
<rect width="44" height="44" rx="8" fill="white"/>
</clipPath>
</defs>
</svg>
