<svg width="184" height="50" viewBox="0 0 184 50" fill="none" xmlns="http://www.w3.org/2000/svg">
<g clip-path="url(#clip0_4778_41620)">
<path fill-rule="evenodd" clip-rule="evenodd" d="M64.1314 32.8643C65.8129 32.8643 67.0369 32.5836 67.8036 32.0201C68.5696 31.4571 68.9533 30.6611 68.9533 29.6318C68.9533 29.0199 68.8237 28.4933 68.5638 28.0523C68.3047 27.612 67.9332 27.2136 67.4515 26.8586C66.969 26.5034 66.3813 26.1737 65.6891 25.8668C64.9962 25.5605 64.2059 25.2606 63.3154 24.9665C62.4248 24.6489 61.5658 24.3 60.7369 23.9201C59.9086 23.5409 59.1792 23.0694 58.5485 22.5059C57.9179 21.9429 57.4111 21.2696 57.0281 20.4855C56.6444 19.7021 56.4526 18.7593 56.4526 17.6569C56.4526 15.3551 57.2565 13.5488 58.8642 12.238C60.4713 10.9287 62.6597 10.2729 65.4292 10.2729C67.0369 10.2729 68.4651 10.4509 69.7135 10.806C70.9619 11.1612 71.9454 11.5469 72.6627 11.963L71.216 15.7103C70.375 15.2452 69.4544 14.8901 68.453 14.6448C67.4515 14.4002 66.4185 14.2768 65.3555 14.2768C64.0941 14.2768 63.1113 14.5349 62.4063 15.0481C61.7018 15.5628 61.349 16.2852 61.349 17.216C61.349 17.7795 61.4663 18.2624 61.7018 18.6671C61.9366 19.0712 62.2702 19.4327 62.7033 19.7504C63.1357 20.0693 63.6424 20.3628 64.2237 20.6322C64.8042 20.9022 65.4421 21.1589 66.1342 21.4035C67.3456 21.8444 68.4278 22.2917 69.3799 22.7447C70.3321 23.1977 71.1358 23.7365 71.7909 24.3611C72.4459 24.9855 72.947 25.7201 73.2934 26.5643C73.6391 27.41 73.8124 28.4322 73.8124 29.6318C73.8124 31.9343 72.9899 33.7157 71.3464 34.9769C69.7014 36.2387 67.296 36.8682 64.1314 36.8682C63.0677 36.8682 62.097 36.8009 61.2195 36.6662C60.3418 36.5322 59.5622 36.3663 58.8822 36.1707C58.2022 35.975 57.6152 35.7737 57.1205 35.5653C56.6259 35.3568 56.23 35.1669 55.9336 34.9953L57.3059 31.2119C57.9738 31.5791 58.8764 31.9463 60.0139 32.3142C61.1506 32.6807 62.5237 32.8643 64.1314 32.8643Z" fill="white"/>
<path fill-rule="evenodd" clip-rule="evenodd" d="M89.6523 24.8196C89.6523 24.2078 89.5651 23.625 89.3926 23.0742C89.2193 22.5242 88.9666 22.0463 88.6324 21.6423C88.2987 21.2375 87.8907 20.9199 87.4082 20.6867C86.9258 20.4549 86.3509 20.3379 85.6838 20.3379C84.9909 20.3379 84.3852 20.4662 83.8663 20.7236C83.3465 20.9808 82.9071 21.3183 82.5492 21.7337C82.1905 22.1505 81.9121 22.6277 81.7144 23.1665C81.5162 23.7059 81.3802 24.2567 81.3064 24.8196H89.6523ZM76.6328 26.8031C76.6328 25.113 76.8861 23.6322 77.3929 22.3583C77.8998 21.0851 78.5734 20.0252 79.4144 19.181C80.2548 18.3359 81.2192 17.6993 82.3078 17.2711C83.396 16.8422 84.5083 16.6274 85.6465 16.6274C88.3174 16.6274 90.3997 17.4491 91.8965 19.0887C93.3926 20.7299 94.1407 23.1792 94.1407 26.4359C94.1407 26.6811 94.1343 26.957 94.122 27.2625C94.1091 27.5687 94.0906 27.8445 94.067 28.0883H81.2692C81.3923 29.6316 81.9427 30.8261 82.9199 31.6704C83.8964 32.5148 85.313 32.9379 87.167 32.9379C88.255 32.9379 89.2501 32.8401 90.1534 32.6438C91.0555 32.448 91.767 32.2397 92.286 32.0192L92.8794 35.6559C92.6324 35.7792 92.2917 35.9075 91.8593 36.0416C91.4269 36.1769 90.9324 36.2988 90.3761 36.4095C89.8192 36.5193 89.2193 36.6114 88.5766 36.6845C87.9336 36.7583 87.2787 36.795 86.6108 36.795C84.9042 36.795 83.4203 36.5435 82.1597 36.0416C80.8984 35.5403 79.8597 34.8428 79.0437 33.9482C78.2276 33.0541 77.6213 32.0015 77.2262 30.7886C76.8303 29.5763 76.6328 28.2485 76.6328 26.8031Z" fill="white"/>
<path fill-rule="evenodd" clip-rule="evenodd" d="M98.8887 17.7308C99.7541 17.4862 100.879 17.253 102.264 17.0332C103.649 16.812 105.182 16.7021 106.864 16.7021C108.446 16.7021 109.769 16.9169 110.833 17.3451C111.895 17.774 112.743 18.3738 113.374 19.1451C114.004 19.9162 114.45 20.8471 114.709 21.9373C114.969 23.0269 115.099 24.2208 115.099 25.5181V36.3183H110.611V26.2164C110.611 25.1884 110.542 24.3123 110.406 23.5899C110.27 22.8675 110.047 22.2798 109.739 21.826C109.429 21.3738 109.009 21.0435 108.477 20.835C107.945 20.6274 107.296 20.5224 106.53 20.5224C105.96 20.5224 105.367 20.5593 104.75 20.6329C104.131 20.706 103.674 20.7676 103.377 20.8167V36.3183H98.8887V17.7308Z" fill="white"/>
<path fill-rule="evenodd" clip-rule="evenodd" d="M124.111 26.6568C124.111 28.6168 124.581 30.1531 125.521 31.2667C126.46 32.3812 127.758 32.9383 129.415 32.9383C130.133 32.9383 130.744 32.9079 131.252 32.8462C131.758 32.7859 132.173 32.718 132.494 32.6442V21.6243C132.098 21.3549 131.573 21.1039 130.917 20.8714C130.262 20.6389 129.564 20.5227 128.822 20.5227C127.19 20.5227 125.996 21.0735 125.242 22.1751C124.488 23.2767 124.111 24.7711 124.111 26.6568ZM136.982 35.7301C136.092 36.0001 134.973 36.244 133.625 36.4653C132.278 36.685 130.862 36.7956 129.378 36.7956C127.845 36.7956 126.472 36.5623 125.261 36.0973C124.049 35.6322 123.016 34.9651 122.163 34.0953C121.311 33.2269 120.655 32.1727 120.197 30.9364C119.74 29.7001 119.512 28.3099 119.512 26.7667C119.512 25.2489 119.703 23.8708 120.087 22.6345C120.469 21.3981 121.032 20.3383 121.774 19.4572C122.516 18.5752 123.419 17.8962 124.482 17.4184C125.545 16.9406 126.769 16.7017 128.154 16.7017C129.094 16.7017 129.922 16.8115 130.639 17.0327C131.357 17.2525 131.975 17.4978 132.494 17.7672V8.54643L136.982 7.81201V35.7301Z" fill="white"/>
<path fill-rule="evenodd" clip-rule="evenodd" d="M142.732 36.3174H147.22V17.1054H142.732V36.3174ZM147.703 11.4853C147.703 12.3182 147.43 12.9797 146.887 13.4695C146.343 13.9593 145.7 14.2039 144.957 14.2039C144.191 14.2039 143.535 13.9593 142.992 13.4695C142.448 12.9797 142.176 12.3182 142.176 11.4853C142.176 10.6289 142.448 9.95546 142.992 9.4649C143.535 8.97575 144.191 8.73047 144.957 8.73047C145.7 8.73047 146.343 8.97575 146.887 9.4649C147.43 9.95546 147.703 10.6289 147.703 11.4853Z" fill="white"/>
<path fill-rule="evenodd" clip-rule="evenodd" d="M152.711 12.0357L157.2 11.3013V17.1051H164.098V20.8155H157.2V28.6396C157.2 30.183 157.446 31.2846 157.942 31.9459C158.435 32.6075 159.277 32.9377 160.464 32.9377C161.28 32.9377 162.002 32.8519 162.634 32.6803C163.264 32.5095 163.765 32.35 164.136 32.2026L164.879 35.7294C164.359 35.9499 163.678 36.1767 162.838 36.4092C161.997 36.6417 161.007 36.7581 159.871 36.7581C158.485 36.7581 157.328 36.5745 156.402 36.2071C155.475 35.8399 154.739 35.3069 154.194 34.6094C153.65 33.9111 153.267 33.066 153.044 32.075C152.823 31.0826 152.711 29.9504 152.711 28.6766V12.0357Z" fill="white"/>
<path fill-rule="evenodd" clip-rule="evenodd" d="M184.276 17.1064C182.276 24.4045 179.955 31.0165 177.314 36.9423C176.819 38.0446 176.312 38.9875 175.792 39.7716C175.272 40.5549 174.691 41.2042 174.047 41.7181C173.403 42.2322 172.685 42.6057 171.894 42.8389C171.101 43.0714 170.186 43.1877 169.146 43.1877C168.452 43.1877 167.765 43.1148 167.084 42.9673C166.403 42.8199 165.89 42.661 165.543 42.4902L166.359 38.9265C167.254 39.2697 168.136 39.4411 169.005 39.4411C170.172 39.4411 171.086 39.1654 171.744 38.6146C172.403 38.0631 172.98 37.2117 173.476 36.0612C172.061 33.3673 170.701 30.4288 169.396 27.2452C168.093 24.0622 166.932 20.6821 165.914 17.1064H170.7C170.946 18.135 171.252 19.2495 171.612 20.4496C171.972 21.649 172.362 22.8676 172.785 24.1041C173.207 25.3411 173.653 26.5717 174.125 27.796C174.596 29.0209 175.07 30.1594 175.54 31.2123C176.328 29.0331 177.066 26.7127 177.756 24.2508C178.444 21.7894 179.073 19.4082 179.639 17.1064H184.276Z" fill="white"/>
<path fill-rule="evenodd" clip-rule="evenodd" d="M31.8211 34.8162C31.7403 34.8813 31.6572 34.9437 31.5713 35.0012C31.5598 35.0082 31.5484 35.0168 31.5369 35.0253L30.5935 35.727L29.5247 36.5204L23.9913 40.6313C23.8982 40.7001 23.8096 40.7717 23.7229 40.8476C22.871 41.5961 22.332 42.6893 22.332 43.9086C22.332 46.1685 24.1825 47.9997 26.4624 47.9997C27.368 47.9997 28.2076 47.709 28.8884 47.2184L28.9922 47.1419L30.5935 45.9524L40.5414 38.5628L41.6252 37.7574C42.0369 37.4001 42.4106 37.0002 42.7392 36.5672C42.9474 36.2949 43.1392 36.0107 43.3111 35.7143C44.0111 34.5128 44.4113 33.1184 44.4113 31.6332C44.4113 30.1508 44.0132 28.76 43.3146 27.5612C43.1421 27.2628 42.9503 26.9763 42.7427 26.7048C42.4133 26.271 42.0404 25.8719 41.6303 25.514L40.5286 24.6959L28.9363 16.0854L28.9341 16.0869C38.5693 30.1608 31.8211 34.8162 31.8211 34.8162Z" fill="white"/>
<mask id="mask0_4778_41620" style="mask-type:luminance" maskUnits="userSpaceOnUse" x="22" y="15" width="13" height="20">
<path fill-rule="evenodd" clip-rule="evenodd" d="M22.332 19.3642C22.332 20.7069 22.9842 21.8971 23.9906 22.6423L29.5205 26.7489L31.4882 28.2121C31.6335 28.3042 31.7725 28.4064 31.9028 28.5198C32.794 29.2677 33.3565 30.3849 33.3565 31.6333C33.3565 32.905 32.7717 34.0401 31.8533 34.7901C31.8433 34.8 31.8318 34.8085 31.8205 34.8163C31.8205 34.8163 38.5687 30.1609 28.9341 16.087C28.2447 15.5773 27.3894 15.2739 26.4624 15.2739C24.1825 15.2739 22.332 17.1043 22.332 19.3642Z" fill="white"/>
</mask>
<g mask="url(#mask0_4778_41620)">
<path fill-rule="evenodd" clip-rule="evenodd" d="M22.332 19.3642C22.332 20.7069 22.9842 21.8971 23.9906 22.6423L29.5205 26.7489L31.4882 28.2121C31.6335 28.3042 31.7725 28.4064 31.9028 28.5198C32.794 29.2677 33.3565 30.3849 33.3565 31.6333C33.3565 32.905 32.7717 34.0401 31.8533 34.7901C31.8433 34.8 31.8318 34.8085 31.8205 34.8163C31.8205 34.8163 38.5687 30.1609 28.9341 16.087C28.2447 15.5773 27.3894 15.2739 26.4624 15.2739C24.1825 15.2739 22.332 17.1043 22.332 19.3642Z" fill="white"/>
</g>
<path fill-rule="evenodd" clip-rule="evenodd" d="M12.8655 16.1842C12.9464 16.1183 13.0295 16.0559 13.1154 15.9992L13.1497 15.9744L14.0932 15.2725L15.1619 14.4793L20.6954 10.3684C20.7877 10.2996 20.8773 10.228 20.9637 10.1521C21.8157 9.40353 22.3546 8.31041 22.3546 7.09108C22.3546 4.8311 20.5036 3 18.2235 3C17.3181 3 16.479 3.29065 15.7984 3.78121L15.6946 3.85777L14.0932 5.04732L4.1445 12.4369L3.06072 13.2423C2.64982 13.5995 2.27616 13.9994 1.94758 14.4332C1.73928 14.7047 1.54743 14.989 1.37563 15.2853C0.674829 16.4869 0.275391 17.8813 0.275391 19.3665C0.275391 20.8488 0.673396 22.2396 1.37205 23.4391C1.54385 23.7369 1.7357 24.0233 1.94401 24.2948C2.27257 24.7287 2.64625 25.1277 3.05571 25.4858L4.1581 26.3039L15.7504 34.9142L15.7518 34.9128C6.11662 20.8389 12.8655 16.1842 12.8655 16.1842Z" fill="white"/>
<mask id="mask1_4778_41620" style="mask-type:luminance" maskUnits="userSpaceOnUse" x="10" y="16" width="13" height="20">
<path fill-rule="evenodd" clip-rule="evenodd" d="M15.7504 34.9128C16.4391 35.4225 17.2951 35.7267 18.2222 35.7267C20.5021 35.7267 22.3533 33.8955 22.3533 31.6356C22.3533 30.2928 21.7004 29.1026 20.6947 28.3583L15.1641 24.2502L13.1963 22.7885C13.051 22.6962 12.9121 22.5935 12.7811 22.4801C11.8906 21.7322 11.3273 20.615 11.3273 19.3665C11.3273 18.0948 11.9121 16.9598 12.8305 16.2098L12.8362 16.2041C12.3752 16.5508 6.48103 21.3735 15.7504 34.9128Z" fill="white"/>
</mask>
<g mask="url(#mask1_4778_41620)">
<path fill-rule="evenodd" clip-rule="evenodd" d="M15.7504 34.9128C16.4391 35.4225 17.2951 35.7267 18.2222 35.7267C20.5021 35.7267 22.3533 33.8955 22.3533 31.6356C22.3533 30.2928 21.7004 29.1026 20.6947 28.3583L15.1641 24.2502L13.1963 22.7885C13.051 22.6962 12.9121 22.5935 12.7811 22.4801C11.8906 21.7322 11.3273 20.615 11.3273 19.3665C11.3273 18.0948 11.9121 16.9598 12.8305 16.2098L12.8362 16.2041C12.3752 16.5508 6.48103 21.3735 15.7504 34.9128Z" fill="white"/>
</g>
</g>
<defs>
<clipPath id="clip0_4778_41620">
<rect width="184" height="50" fill="white"/>
</clipPath>
</defs>
</svg>
