<svg width="27" height="20" viewBox="0 0 27 20" fill="none" xmlns="http://www.w3.org/2000/svg">
<g clip-path="url(#clip0_8608_4552)">
<rect width="27" height="20" rx="4" fill="white"/>
<path fill-rule="evenodd" clip-rule="evenodd" d="M-0.000976562 0V20.25H26.999V0H-0.000976562Z" fill="#FFB400"/>
<mask id="mask0_8608_4552" style="mask-type:luminance" maskUnits="userSpaceOnUse" x="-1" y="0" width="28" height="21">
<path fill-rule="evenodd" clip-rule="evenodd" d="M-0.000976562 0V20.25H26.999V0H-0.000976562Z" fill="white"/>
</mask>
<g mask="url(#mask0_8608_4552)">
<path fill-rule="evenodd" clip-rule="evenodd" d="M-0.000976562 0V5.0625H26.999V0H-0.000976562Z" fill="#C51918"/>
<path fill-rule="evenodd" clip-rule="evenodd" d="M-0.000976562 15.1875V20.25H26.999V15.1875H-0.000976562Z" fill="#C51918"/>
<rect x="4.22559" y="8.66701" width="0.945" height="4.914" fill="#F1F9FF"/>
<path fill-rule="evenodd" clip-rule="evenodd" d="M5.54866 7.8165H3.84766V8.289H4.1311V8.667H5.2651V8.289H5.54866V7.8165Z" fill="#C88A02"/>
<path fill-rule="evenodd" clip-rule="evenodd" d="M5.26516 13.8645H5.54866V14.337H3.84766V13.8645H4.13116V13.4865H5.26516V13.8645Z" fill="#C88A02"/>
<path fill-rule="evenodd" clip-rule="evenodd" d="M4.69763 7.91101C4.90328 7.91101 4.92418 7.83357 5.04551 7.71791C5.13972 7.62811 5.35913 7.51672 5.35913 7.39126C5.35913 7.10421 5.06297 6.87151 4.69763 6.87151C4.3323 6.87151 4.03613 7.10421 4.03613 7.39126C4.03613 7.53104 4.18723 7.6245 4.30148 7.71791C4.42184 7.81633 4.5102 7.91101 4.69763 7.91101Z" fill="#AD1619"/>
<path fill-rule="evenodd" clip-rule="evenodd" d="M3.84668 14.337H5.54768V15.093C5.54768 15.093 5.33505 14.9985 5.12243 14.9985C4.9098 14.9985 4.69718 15.093 4.69718 15.093C4.69718 15.093 4.48455 14.9985 4.27193 14.9985C4.0593 14.9985 3.84668 15.093 3.84668 15.093V14.337Z" fill="#005BBF"/>
<mask id="mask1_8608_4552" style="mask-type:luminance" maskUnits="userSpaceOnUse" x="3" y="14" width="3" height="2">
<path fill-rule="evenodd" clip-rule="evenodd" d="M3.84668 14.337H5.54768V15.093C5.54768 15.093 5.33505 14.9985 5.12243 14.9985C4.9098 14.9985 4.69718 15.093 4.69718 15.093C4.69718 15.093 4.48455 14.9985 4.27193 14.9985C4.0593 14.9985 3.84668 15.093 3.84668 15.093V14.337Z" fill="white"/>
</mask>
<g mask="url(#mask1_8608_4552)">
<path d="M3.83303 14.9444L3.7959 14.8539C3.94911 14.7857 4.10286 14.7515 4.25684 14.7515C4.35633 14.7515 4.40828 14.7654 4.4966 14.8047C4.57417 14.8392 4.61438 14.85 4.69922 14.85C4.78406 14.85 4.82427 14.8392 4.90185 14.8047C4.99017 14.7654 5.04212 14.7515 5.1416 14.7515C5.29559 14.7515 5.44934 14.7857 5.60255 14.8539L5.56542 14.9444C5.42371 14.8814 5.28254 14.85 5.1416 14.85C5.05676 14.85 5.01655 14.8607 4.93898 14.8952C4.85066 14.9345 4.79871 14.9484 4.69922 14.9484C4.59974 14.9484 4.54779 14.9345 4.45947 14.8952C4.38189 14.8607 4.34168 14.85 4.25684 14.85C4.11591 14.85 3.97474 14.8814 3.83303 14.9444Z" fill="white"/>
<path d="M3.83303 14.661L3.7959 14.5704C3.94911 14.5022 4.10286 14.468 4.25684 14.468C4.35633 14.468 4.40828 14.4819 4.4966 14.5212C4.57417 14.5557 4.61438 14.5665 4.69922 14.5665C4.78406 14.5665 4.82427 14.5557 4.90185 14.5212C4.99017 14.4819 5.04212 14.468 5.1416 14.468C5.29559 14.468 5.44934 14.5022 5.60255 14.5704L5.56542 14.661C5.42371 14.5979 5.28254 14.5665 5.1416 14.5665C5.05676 14.5665 5.01655 14.5772 4.93898 14.6117C4.85066 14.651 4.79871 14.6649 4.69922 14.6649C4.59974 14.6649 4.54779 14.651 4.45947 14.6117C4.38189 14.5772 4.34168 14.5665 4.25684 14.5665C4.11591 14.5665 3.97474 14.5979 3.83303 14.661Z" fill="white"/>
</g>
<rect x="13.4863" y="8.66701" width="0.945" height="4.914" fill="#F1F9FF"/>
<path fill-rule="evenodd" clip-rule="evenodd" d="M14.8084 7.8165H13.1074V8.289H13.3909V8.667H14.5249V8.289H14.8084V7.8165Z" fill="#C88A02"/>
<path fill-rule="evenodd" clip-rule="evenodd" d="M14.5249 13.8645H14.8084V14.337H13.1074V13.8645H13.3909V13.4865H14.5249V13.8645Z" fill="#C88A02"/>
<path fill-rule="evenodd" clip-rule="evenodd" d="M13.9584 7.91101C14.164 7.91101 14.1849 7.83357 14.3063 7.71791C14.4005 7.62811 14.6199 7.51672 14.6199 7.39126C14.6199 7.10421 14.3237 6.87151 13.9584 6.87151C13.593 6.87151 13.2969 7.10421 13.2969 7.39126C13.2969 7.53104 13.448 7.6245 13.5622 7.71791C13.6826 7.81633 13.7709 7.91101 13.9584 7.91101Z" fill="#AD1619"/>
<path fill-rule="evenodd" clip-rule="evenodd" d="M13.1074 14.337H14.8084V15.093C14.8084 15.093 14.5958 14.9985 14.3832 14.9985C14.1705 14.9985 13.9579 15.093 13.9579 15.093C13.9579 15.093 13.7453 14.9985 13.5327 14.9985C13.32 14.9985 13.1074 15.093 13.1074 15.093V14.337Z" fill="#005BBF"/>
<mask id="mask2_8608_4552" style="mask-type:luminance" maskUnits="userSpaceOnUse" x="13" y="14" width="2" height="2">
<path fill-rule="evenodd" clip-rule="evenodd" d="M13.1074 14.337H14.8084V15.093C14.8084 15.093 14.5958 14.9985 14.3832 14.9985C14.1705 14.9985 13.9579 15.093 13.9579 15.093C13.9579 15.093 13.7453 14.9985 13.5327 14.9985C13.32 14.9985 13.1074 15.093 13.1074 15.093V14.337Z" fill="white"/>
</mask>
<g mask="url(#mask2_8608_4552)">
<path d="M13.0938 14.9444L13.0566 14.8539C13.2098 14.7857 13.3636 14.7515 13.5176 14.7515C13.6171 14.7515 13.669 14.7654 13.7573 14.8047C13.8349 14.8392 13.8751 14.85 13.96 14.85C14.0448 14.85 14.085 14.8392 14.1626 14.8047C14.2509 14.7654 14.3029 14.7515 14.4023 14.7515C14.5563 14.7515 14.7101 14.7857 14.8633 14.8539L14.8262 14.9444C14.6844 14.8814 14.5433 14.85 14.4023 14.85C14.3175 14.85 14.2773 14.8607 14.1997 14.8952C14.1114 14.9345 14.0595 14.9484 13.96 14.9484C13.8605 14.9484 13.8085 14.9345 13.7202 14.8952C13.6426 14.8607 13.6024 14.85 13.5176 14.85C13.3766 14.85 13.2355 14.8814 13.0938 14.9444Z" fill="white"/>
<path d="M13.0938 14.661L13.0566 14.5704C13.2098 14.5022 13.3636 14.468 13.5176 14.468C13.6171 14.468 13.669 14.4819 13.7573 14.5212C13.8349 14.5557 13.8751 14.5665 13.96 14.5665C14.0448 14.5665 14.085 14.5557 14.1626 14.5212C14.2509 14.4819 14.3029 14.468 14.4023 14.468C14.5563 14.468 14.7101 14.5022 14.8633 14.5704L14.8262 14.661C14.6844 14.5979 14.5433 14.5665 14.4023 14.5665C14.3175 14.5665 14.2773 14.5772 14.1997 14.6117C14.1114 14.651 14.0595 14.6649 13.96 14.6649C13.8605 14.6649 13.8085 14.651 13.7202 14.6117C13.6426 14.5772 13.6024 14.5665 13.5176 14.5665C13.3766 14.5665 13.2355 14.5979 13.0938 14.661Z" fill="white"/>
</g>
<path fill-rule="evenodd" clip-rule="evenodd" d="M4.2065 13.2299C4.37687 13.0234 4.47215 12.8355 4.47215 12.6359C4.47215 12.51 4.4347 12.4013 4.36909 12.3126L4.38017 12.3076C4.37915 12.308 4.56708 12.2261 4.63251 12.1947C4.75414 12.1364 4.86129 12.0747 4.96577 11.9987C5.03247 11.9502 5.12184 11.8973 5.25807 11.8242C5.28156 11.8116 5.34516 11.7778 5.38587 11.7562L5.38608 11.7561L5.42066 11.7377C5.48687 11.7024 5.53617 11.6753 5.58198 11.6488C5.72472 11.566 5.81904 11.4975 5.89119 11.4061C6.06206 11.1894 6.02658 10.8956 5.78713 10.7326C5.66982 10.6527 5.51151 10.6069 5.27945 10.5708L5.23136 10.5634L5.23135 10.5634L5.23118 10.5634C5.15183 10.5511 4.99981 10.5276 4.94756 10.5194C4.83651 10.502 4.73743 10.4857 4.64908 10.4702C5.23006 10.3736 6.05966 10.4091 6.42458 10.5975L6.77141 9.92576C6.02778 9.54182 4.33342 9.58102 3.70049 10.0169C3.23627 10.3366 3.29856 10.8199 3.78157 11.028C3.9834 11.1149 4.2465 11.1726 4.73339 11.2509C4.65179 11.2982 4.58415 11.3414 4.52112 11.3873C4.4572 11.4337 4.38872 11.4732 4.30565 11.5131C4.26592 11.5321 4.14826 11.5838 4.09435 11.6074L4.06725 11.6194C3.67382 11.7983 3.48288 12.0457 3.53994 12.4925L3.57082 12.7343L3.62622 12.7513L4.2065 13.2299ZM3.72117 12.605L3.71997 12.6085L3.72089 12.606L3.72117 12.605ZM14.0933 12.6359C14.0933 12.8355 14.1886 13.0234 14.3589 13.2299L14.9392 12.7513L14.9946 12.7343L15.0255 12.4925C15.0826 12.0457 14.8916 11.7983 14.4982 11.6194L14.4711 11.6075L14.4711 11.6074C14.4171 11.5838 14.2995 11.5321 14.2598 11.5131C14.1767 11.4732 14.1082 11.4337 14.0443 11.3873C13.9813 11.3414 13.9136 11.2982 13.832 11.2509C14.3189 11.1726 14.582 11.1149 14.7839 11.028C15.2669 10.8199 15.3292 10.3366 14.8649 10.0169C14.232 9.58103 12.5377 9.54182 11.794 9.92577L12.1408 10.5975C12.5058 10.4091 13.3354 10.3736 13.9163 10.4703C13.828 10.4857 13.7289 10.502 13.6179 10.5194C13.5655 10.5276 13.4132 10.5512 13.3339 10.5634L13.286 10.5708C13.0539 10.6069 12.8956 10.6527 12.7783 10.7326C12.5388 10.8956 12.5034 11.1894 12.6742 11.4061C12.7464 11.4975 12.8407 11.566 12.9834 11.6488C13.0293 11.6753 13.0786 11.7024 13.1448 11.7377L13.1795 11.7562L13.1798 11.7564C13.2206 11.778 13.2839 11.8116 13.3074 11.8242C13.4436 11.8973 13.533 11.9502 13.5997 11.9987C13.7041 12.0747 13.8113 12.1364 13.9329 12.1947C13.9983 12.2261 14.1863 12.308 14.1853 12.3076L14.1963 12.3126C14.1307 12.4013 14.0933 12.51 14.0933 12.6359Z" fill="#AD1619"/>
<path d="M4.99792 10.4625L5.27685 10.5202V10.936C4.97977 11.173 4.22559 11.5725 4.22559 11.5725V10.4625H4.99792Z" fill="#F1F9FF"/>
<path d="M13.7658 10.4625L13.4868 10.5202V10.936C13.7839 11.173 14.5381 11.5725 14.5381 11.5725V10.4625H13.7658Z" fill="#F1F9FF"/>
<path fill-rule="evenodd" clip-rule="evenodd" d="M12.4682 6.08003V5.94167C11.9821 5.59283 11.4731 5.4184 10.9411 5.4184C10.4313 5.19279 9.91528 5.10517 9.39304 5.15554C9.39318 5.15397 9.39325 5.15316 9.39325 5.15316C8.60774 5.0763 7.8161 5.41841 7.8161 5.41841C7.01816 5.41841 6.28906 5.94167 6.28906 5.94167V6.08003L7.24219 7.03729C7.24219 7.03729 7.51042 7.9585 9.38885 7.74218V7.74445C9.38885 7.74445 10.6328 7.7105 10.7202 7.68143C10.7549 7.66989 10.7909 7.65939 10.8277 7.64866C11.0713 7.57752 11.3495 7.49631 11.515 7.03729L12.4682 6.08003ZM9.38885 5.20396C9.36038 5.53975 9.20876 7.43602 9.38885 7.73479V5.20396Z" fill="#AD1619"/>
<path fill-rule="evenodd" clip-rule="evenodd" d="M7.01544 6.8762L7.01594 6.87393L6.34473 6.24244L6.40948 6.17361L7.03936 6.76622L7.0556 6.69152C7.15854 6.7139 7.23377 6.72213 7.27763 6.71747V6.58905L7.4171 6.66454C7.48571 6.70166 7.58396 6.71165 7.71336 6.69059C7.8084 6.67512 7.87253 6.56475 7.8935 6.32954L7.93584 5.85471L8.07784 6.30978C8.1421 6.5157 8.24012 6.60648 8.37968 6.60648C8.51598 6.60648 8.57077 6.55651 8.57682 6.43056L8.59397 6.07333L8.75552 6.3924C8.81372 6.50735 8.89398 6.5595 9.00811 6.5595C9.17133 6.5595 9.28036 6.42343 9.28036 6.20992H9.2829H9.46936H9.4719C9.4719 6.42343 9.58093 6.5595 9.74415 6.5595C9.85828 6.5595 9.93854 6.50735 9.99674 6.3924L10.1583 6.07333L10.1754 6.43056C10.1815 6.55651 10.2363 6.60648 10.3726 6.60648C10.5121 6.60648 10.6102 6.5157 10.6744 6.30978L10.8164 5.85471L10.8588 6.32954C10.8797 6.56475 10.9439 6.67512 11.0389 6.69059C11.1683 6.71165 11.2666 6.70166 11.3352 6.66454L11.4746 6.58905V6.71747C11.5185 6.72213 11.5937 6.7139 11.6967 6.69152L11.7266 6.82928L12.4235 6.17361L12.4883 6.24244L11.6215 7.05793C11.495 7.29083 11.4313 7.44455 11.4313 7.50841C11.4313 7.60583 11.1779 7.66365 10.6832 7.72304C10.2955 7.7696 9.8378 7.80084 9.46357 7.80548V7.80608L9.4165 7.80592L9.36943 7.80608V7.80548C8.99521 7.80084 8.53753 7.7696 8.14977 7.72304C7.65511 7.66365 7.40166 7.60583 7.40166 7.50841C7.40166 7.49638 7.3994 7.48115 7.39488 7.46281C7.34483 7.3992 7.30967 7.29492 7.28631 7.20095C7.26447 7.15724 7.23953 7.10953 7.21151 7.05793L7.01923 6.87702L7.01544 6.8762ZM11.6607 6.89132C11.5056 6.91882 11.3937 6.91611 11.3343 6.86777C11.2416 6.89476 11.1328 6.89735 11.0085 6.87714C10.8759 6.85555 10.7835 6.7673 10.7279 6.62091C10.6553 6.71345 10.5634 6.77055 10.4533 6.78896C11.0579 6.87472 11.4814 6.99523 11.4814 6.99523C11.4814 6.99523 11.4706 7.0872 11.4445 7.19432C11.4718 7.1381 11.5043 7.07545 11.5421 7.00611L11.5512 6.9943L11.6607 6.89132ZM10.1684 6.75308C10.1158 6.72694 10.0737 6.68902 10.0433 6.64013C9.99818 6.67997 9.94687 6.70911 9.88986 6.72707C9.98506 6.73436 10.0781 6.74316 10.1684 6.75308ZM9.55644 6.70867C9.48295 6.67472 9.42182 6.62039 9.37613 6.55077C9.33078 6.61986 9.27024 6.6739 9.19749 6.7079C9.24029 6.70663 9.28335 6.70573 9.3266 6.70525V6.70482L9.36459 6.70492L9.40259 6.70482V6.70525C9.45418 6.70583 9.5055 6.70699 9.55644 6.70867ZM7.27488 6.9878L7.1867 6.90484C7.29292 6.91547 7.37152 6.90557 7.41795 6.86777C7.51071 6.89476 7.6195 6.89735 7.74371 6.87714C7.87638 6.85555 7.96877 6.7673 8.02436 6.62091C8.09475 6.71059 8.18319 6.76698 8.28874 6.78714C7.76723 6.86037 7.37806 6.96007 7.27488 6.9878ZM8.85801 6.72566C8.76659 6.73245 8.67708 6.74065 8.59003 6.74991C8.63981 6.72392 8.67976 6.68708 8.70895 6.64013C8.75291 6.67895 8.80276 6.7076 8.85801 6.72566ZM11.1819 7.51026C11.2489 7.54162 11.3024 7.50958 11.3446 7.44884C11.3407 7.46609 11.3383 7.48163 11.3373 7.49548C11.3318 7.49911 11.3233 7.50347 11.3121 7.50816C11.281 7.52125 11.2335 7.53519 11.1716 7.5493C11.0501 7.57703 10.877 7.6046 10.672 7.62922C10.2714 7.67731 9.79509 7.70895 9.4165 7.71142C9.03791 7.70895 8.56159 7.67731 8.16103 7.62922C7.95598 7.6046 7.78295 7.57703 7.66139 7.5493C7.60952 7.53746 7.56771 7.52575 7.53721 7.51456C7.54055 7.51328 7.54392 7.51185 7.54733 7.51026C7.75374 7.41368 9.11848 7.32304 9.36459 7.30738C9.61071 7.32304 10.9754 7.41368 11.1819 7.51026ZM11.4418 7.49295L11.4406 7.49435L11.4413 7.4934L11.4418 7.49295Z" fill="#C88A02"/>
<path fill-rule="evenodd" clip-rule="evenodd" d="M9.37725 4.51158C9.53382 4.51158 9.66075 4.38465 9.66075 4.22808C9.66075 4.07151 9.53382 3.94458 9.37725 3.94458C9.22068 3.94458 9.09375 4.07151 9.09375 4.22808C9.09375 4.38465 9.22068 4.51158 9.37725 4.51158Z" fill="#005BBF"/>
<path fill-rule="evenodd" clip-rule="evenodd" d="M9.19071 5.90354C9.19675 5.93462 9.20618 5.96356 9.2181 5.98935C9.18154 5.97542 9.13815 5.96735 9.09163 5.96735C8.96115 5.96735 8.85538 6.03082 8.85538 6.1091C8.85538 6.18739 8.96115 6.25085 9.09163 6.25085C9.22211 6.25085 9.32788 6.18739 9.32788 6.1091L9.32778 6.10484L9.32844 6.10506L9.32834 6.1091C9.32834 6.18739 9.43411 6.25085 9.56459 6.25085C9.69507 6.25085 9.80084 6.18739 9.80084 6.1091C9.80084 6.03082 9.69507 5.96735 9.56459 5.96735C9.53148 5.96735 9.49996 5.97144 9.47136 5.97882C9.47824 5.94002 9.47796 5.89552 9.469 5.84945C9.4441 5.72137 9.36162 5.62965 9.28478 5.64458C9.20793 5.65952 9.16581 5.77546 9.19071 5.90354ZM7.80087 6.08385C7.78895 6.05806 7.77952 6.02912 7.77347 5.99804C7.74858 5.86996 7.79069 5.75402 7.86754 5.73908C7.94439 5.72415 8.02687 5.81587 8.05176 5.94395C8.06072 5.99002 8.06101 6.03452 8.05412 6.07332C8.08272 6.06594 8.11424 6.06185 8.14736 6.06185C8.27783 6.06185 8.38361 6.12532 8.38361 6.2036C8.38361 6.28189 8.27783 6.34535 8.14736 6.34535C8.01688 6.34535 7.91111 6.28189 7.91111 6.2036L7.9112 6.19956L7.91054 6.19934L7.91064 6.2036C7.91064 6.28189 7.80487 6.34535 7.67439 6.34535C7.54392 6.34535 7.43814 6.28189 7.43814 6.2036C7.43814 6.12532 7.54392 6.06185 7.67439 6.06185C7.72092 6.06185 7.7643 6.06992 7.80087 6.08385ZM10.7603 6.17032C10.7494 6.24784 10.6359 6.29597 10.5067 6.27781C10.3775 6.25965 10.2815 6.18208 10.2924 6.10456C10.3033 6.02703 10.4169 5.97891 10.5461 5.99707C10.5929 6.00364 10.6353 6.01801 10.6699 6.03734C10.6615 6.00992 10.6561 5.97965 10.6545 5.9477C10.6476 5.8174 10.7055 5.70845 10.7836 5.70435C10.8618 5.70026 10.9307 5.80256 10.9376 5.93286C10.94 5.97961 10.9341 6.02361 10.922 6.06101C10.9508 6.0579 10.982 6.05831 11.0141 6.06283C11.1433 6.08099 11.2393 6.15855 11.2284 6.23608C11.2175 6.3136 11.1039 6.36173 10.9747 6.34357C10.8455 6.32541 10.7496 6.24784 10.7605 6.17032L10.7612 6.16564L10.7609 6.16546L10.7603 6.17032ZM11.6615 6.54516C11.7767 6.60641 11.8999 6.60004 11.9367 6.53091L11.9384 6.52748C11.9497 6.53927 11.963 6.54786 11.9781 6.55248C12.053 6.57537 12.1446 6.49278 12.1827 6.368C12.2209 6.24323 12.1911 6.12352 12.1162 6.10063C12.0414 6.07774 11.9498 6.16034 11.9116 6.28511C11.9024 6.31519 11.8972 6.34497 11.8956 6.37317C11.8699 6.34388 11.8355 6.31657 11.7946 6.29484C11.6794 6.23359 11.5562 6.23996 11.5195 6.30909C11.4827 6.37821 11.5463 6.4839 11.6615 6.54516ZM7.02481 6.57411C6.90961 6.63537 6.78642 6.62899 6.74967 6.55987C6.74886 6.55835 6.7481 6.55682 6.74739 6.55527C6.7359 6.56766 6.72223 6.57666 6.7066 6.58144C6.63173 6.60433 6.54012 6.52173 6.50197 6.39696C6.46382 6.27218 6.49359 6.15247 6.56845 6.12959C6.64332 6.1067 6.73493 6.18929 6.77308 6.31407C6.78247 6.34478 6.78774 6.37518 6.78925 6.4039C6.81511 6.37394 6.85003 6.34596 6.89172 6.3238C7.00692 6.26254 7.13011 6.26892 7.16686 6.33804C7.20362 6.40716 7.14002 6.51286 7.02481 6.57411Z" fill="#C88A02"/>
<path fill-rule="evenodd" clip-rule="evenodd" d="M9.26984 3.43962H9.46671V3.56399H9.5958V3.76086H9.46671V4.15461H9.5958V4.35149H9.13965V4.15461H9.26984V3.76086H9.13965V3.56399H9.26984V3.43962Z" fill="#C88A02"/>
<rect x="9.23535" y="4.50899" width="0.378" height="1.2285" fill="#C88A02"/>
<path d="M7.71197 4.71472L7.71032 4.80921C6.87239 4.79458 6.39175 4.91686 6.26974 5.16058C6.1436 5.41254 6.16705 5.71884 6.3438 6.08269L6.2588 6.12398C6.07022 5.73577 6.04446 5.39946 6.18523 5.11827C6.33013 4.82883 6.83859 4.69947 7.71197 4.71472Z" fill="white"/>
<path d="M7.87499 5.55269L7.82654 5.63383C7.64406 5.52487 7.55273 5.33893 7.55273 5.08268C7.55273 4.7144 7.74245 4.49844 8.16209 4.35065C8.42991 4.25633 8.79577 4.295 9.26069 4.46356L9.22848 4.5524C8.78217 4.39059 8.43682 4.35408 8.19348 4.43978C7.80857 4.57534 7.64723 4.759 7.64723 5.08268C7.64723 5.30755 7.72309 5.46199 7.87499 5.55269Z" fill="white"/>
<path d="M6.46254 5.93778L6.28422 6.00041C6.0992 5.47361 6.15204 5.11585 6.46819 4.96153C6.74677 4.82554 7.15276 4.7702 7.6882 4.7919L7.68055 4.98074C7.1736 4.9602 6.79644 5.01161 6.5511 5.13137C6.34332 5.23279 6.30532 5.49013 6.46254 5.93778Z" fill="#C88A02"/>
<path d="M8.54659 4.58889C8.11447 4.58889 7.93702 4.69413 7.83564 5.00487C7.77103 5.2029 7.83369 5.37192 8.03686 5.52969L7.92094 5.67896C7.65791 5.47471 7.56517 5.22455 7.65596 4.94625C7.78516 4.55024 8.03867 4.39989 8.54659 4.39989C8.87949 4.39989 9.13882 4.48735 9.31939 4.66535L9.34755 4.69311V5.60433H9.15855V4.77389C9.01753 4.65139 8.81496 4.58889 8.54659 4.58889Z" fill="#C88A02"/>
<path d="M11.0107 4.80923L11.0123 4.90372C11.8503 4.88909 12.3309 5.01137 12.4529 5.25509C12.5791 5.50706 12.5556 5.81335 12.3789 6.1772L12.4639 6.21849C12.6524 5.83029 12.6782 5.49398 12.5374 5.21279C12.3925 4.92334 11.8841 4.79399 11.0107 4.80923Z" fill="white"/>
<path d="M10.7139 5.57234L10.7623 5.65348C10.9448 5.54452 11.0361 5.35858 11.0361 5.10234C11.0361 4.73406 10.8464 4.51809 10.4268 4.3703C10.159 4.27598 9.7931 4.31465 9.32818 4.48322L9.36039 4.57206C9.8067 4.41024 10.152 4.37374 10.3954 4.45944C10.7803 4.59499 10.9416 4.77866 10.9416 5.10234C10.9416 5.32721 10.8658 5.48165 10.7139 5.57234Z" fill="white"/>
<path d="M12.3187 6.03227L12.497 6.0949C12.682 5.56811 12.6292 5.21035 12.3131 5.05602C12.0345 4.92004 11.6285 4.8647 11.093 4.88639L11.1007 5.07524C11.6077 5.0547 11.9848 5.10611 12.2302 5.22587C12.4379 5.32729 12.4759 5.58462 12.3187 6.03227Z" fill="#C88A02"/>
<path d="M10.2239 4.60349C10.656 4.60349 10.8335 4.70873 10.9349 5.01948C10.9995 5.21751 10.9368 5.38652 10.7337 5.54429L10.8496 5.69357C11.1126 5.48931 11.2053 5.23915 11.1145 4.96086C10.9854 4.56484 10.7318 4.41449 10.2239 4.41449C9.89102 4.41449 9.63169 4.50195 9.45112 4.67995L9.42296 4.70771V5.61893H9.61196V4.78849C9.75298 4.666 9.95555 4.60349 10.2239 4.60349Z" fill="#C88A02"/>
<path opacity="0.3" fill-rule="evenodd" clip-rule="evenodd" d="M6.30371 7.8165H12.4462V13.3353C12.4462 13.3353 11.9899 15.1875 9.37496 15.1875C6.75999 15.1875 6.30371 13.2865 6.30371 13.2865V7.8165Z" fill="#E1E5E8"/>
<mask id="mask3_8608_4552" style="mask-type:luminance" maskUnits="userSpaceOnUse" x="6" y="7" width="7" height="9">
<path fill-rule="evenodd" clip-rule="evenodd" d="M6.30371 7.8165H12.4462V13.3353C12.4462 13.3353 11.9899 15.1875 9.37496 15.1875C6.75999 15.1875 6.30371 13.2865 6.30371 13.2865V7.8165Z" fill="white"/>
</mask>
<g mask="url(#mask3_8608_4552)">
<rect x="6.30371" y="11.2185" width="3.1185" height="3.6855" fill="#FFC034"/>
<rect x="6.68262" y="11.4075" width="0.378" height="3.4965" fill="#AD1619"/>
<rect x="8.00586" y="11.4075" width="0.378" height="3.4965" fill="#AD1619"/>
<rect x="7.34375" y="11.4075" width="0.378" height="3.4965" fill="#AD1619"/>
<rect x="8.66699" y="11.4075" width="0.378" height="3.4965" fill="#AD1619"/>
<rect x="6.30371" y="7.722" width="3.1185" height="3.591" fill="#AD1619"/>
<rect x="9.32812" y="11.124" width="3.1185" height="3.591" fill="#AD1619"/>
<rect x="9.32812" y="7.8165" width="3.3075" height="3.4965" fill="#F1F9FF"/>
<path fill-rule="evenodd" clip-rule="evenodd" d="M7.62665 8.09999H7.91015V8.88399H8.09961V8.492H8.38311V8.88399H8.66682V9.37399H8.38327V10.256H8.66682V10.746H6.96582V10.256H7.24927V9.37399H6.96582V8.88399H7.15533V8.492H7.43883V8.88399H7.62665V8.09999Z" fill="#C88A02"/>
<path d="M10.9512 8.26456L11.1447 8.05739L11.551 8.43693L11.3575 8.6441L10.9512 8.26456Z" fill="#C88A02"/>
<path fill-rule="evenodd" clip-rule="evenodd" d="M12.1154 13.6182V11.5492H9.75293V13.6009L9.75668 13.6168C9.87627 14.1264 10.2835 14.3842 10.9342 14.3842C11.5842 14.3842 11.9914 14.1331 12.1115 13.6345L12.1154 13.6182ZM10.9341 14.1007C10.4121 14.1007 10.127 13.9249 10.0364 13.5674V11.8327H11.8319V13.5839C11.7415 13.9297 11.4564 14.1007 10.9341 14.1007Z" fill="#FFC034"/>
<path fill-rule="evenodd" clip-rule="evenodd" d="M11.0327 11.7222H10.8358V12.6595L10.0603 11.8161L9.92118 11.944L10.623 12.7073H9.9871V12.9908H10.4756H10.6382L9.9209 13.771L10.06 13.899L10.8358 13.0552V14.1513H11.0327V13.1528L11.7187 13.899L11.8578 13.771L11.1405 12.9908H11.9411V12.7073H11.1557L11.8575 11.944L11.7184 11.8161L11.0327 12.5619V11.7222Z" fill="#FFC034"/>
<path fill-rule="evenodd" clip-rule="evenodd" d="M11.3762 14.7173C11.3762 14.7173 9.37468 14.8746 9.37468 13.5837C9.37468 13.5837 9.35559 14.7173 7.26562 14.7173V15.7364H11.3762V14.7173Z" fill="#F1F9FF"/>
<path fill-rule="evenodd" clip-rule="evenodd" d="M9.37574 11.9745C9.76717 11.9745 10.0845 11.636 10.0845 11.2185C10.0845 10.801 9.76717 10.4625 9.37574 10.4625C8.98431 10.4625 8.66699 10.801 8.66699 11.2185C8.66699 11.636 8.98431 11.9745 9.37574 11.9745Z" fill="#005BBF" stroke="#AD1619" stroke-width="0.984375"/>
</g>
</g>
</g>
<defs>
<clipPath id="clip0_8608_4552">
<rect width="27" height="20" rx="4" fill="white"/>
</clipPath>
</defs>
</svg>
