<svg width="40" height="40" viewBox="0 0 40 40" fill="none" xmlns="http://www.w3.org/2000/svg">
<path d="M20.5006 4C17.435 3.99987 14.4382 4.90883 11.8891 6.61191C9.34008 8.315 7.35331 10.7357 6.18006 13.568C5.0068 16.4002 4.69976 19.5168 5.29776 22.5235C5.89576 25.5303 7.37194 28.2921 9.53963 30.4599C11.7073 32.6277 14.4691 34.104 17.4759 34.7021C20.4826 35.3002 23.5992 34.9933 26.4314 33.8202C29.2637 32.647 31.6845 30.6604 33.3877 28.1114C35.0909 25.5624 36 22.5656 36 19.5C35.9881 15.3929 34.3513 11.4575 31.4472 8.55324C28.5431 5.64902 24.6077 4.01209 20.5006 4V4ZM27.6288 26.3972C27.566 26.5077 27.4811 26.604 27.3793 26.6801C27.2775 26.7563 27.1611 26.8106 27.0374 26.8397C26.9137 26.8688 26.7853 26.872 26.6602 26.8492C26.5352 26.8264 26.4162 26.778 26.3108 26.7071C22.6684 24.4598 18.0961 23.9939 12.6704 25.2331C12.5484 25.2636 12.4216 25.2697 12.2972 25.2511C12.1728 25.2326 12.0533 25.1897 11.9455 25.125C11.8376 25.0602 11.7436 24.9749 11.6688 24.8738C11.5939 24.7727 11.5397 24.6579 11.5093 24.5359C11.4788 24.4138 11.4727 24.287 11.4912 24.1626C11.5098 24.0382 11.5526 23.9187 11.6174 23.8109C11.7481 23.5931 11.96 23.4362 12.2065 23.3747C18.0961 22.0566 23.2113 22.5995 27.2412 25.0797C27.3573 25.1364 27.4603 25.2166 27.5438 25.3153C27.6272 25.4139 27.6892 25.5289 27.7258 25.6528C27.7624 25.7766 27.7729 25.9068 27.7565 26.0349C27.7402 26.1631 27.6973 26.2864 27.6307 26.3972H27.6288ZM29.4885 22.133C29.4083 22.2669 29.3021 22.3834 29.1762 22.4757C29.0502 22.568 28.9071 22.6341 28.7552 22.6702C28.6033 22.7063 28.4458 22.7117 28.2918 22.686C28.1378 22.6603 27.9905 22.604 27.8586 22.5206C23.6752 19.9633 17.3197 19.1881 12.4375 20.7385C12.1392 20.8314 11.8163 20.8019 11.5398 20.6567C11.2632 20.5114 11.0557 20.2622 10.9629 19.964C10.87 19.6657 10.8995 19.3428 11.0447 19.0662C11.19 18.7897 11.4392 18.5822 11.7374 18.4893C17.3954 16.7862 24.3702 17.6397 29.176 20.5832C29.3006 20.6625 29.4079 20.7661 29.4914 20.8879C29.5749 21.0096 29.6329 21.1471 29.6619 21.2918C29.691 21.4366 29.6904 21.5858 29.6603 21.7303C29.6301 21.8749 29.5711 22.0118 29.4866 22.133H29.4885ZM29.6438 17.793C24.6834 14.8482 16.3905 14.5383 11.6636 16.011C11.4854 16.067 11.2979 16.0873 11.1118 16.0708C10.9257 16.0542 10.7447 16.0012 10.5791 15.9148C10.4135 15.8283 10.2665 15.7101 10.1466 15.5668C10.0267 15.4236 9.93623 15.2581 9.88027 15.0799C9.82432 14.9016 9.80401 14.7141 9.82052 14.5281C9.83703 14.342 9.89003 14.161 9.97649 13.9954C10.1511 13.6609 10.4514 13.4096 10.8114 13.2966C16.3135 11.6692 25.3809 11.9791 31.114 15.3898C31.4484 15.5895 31.6919 15.9115 31.7929 16.2877C31.8939 16.6638 31.8444 17.0645 31.655 17.4048C31.4158 17.6907 31.0855 17.8855 30.7196 17.9566C30.3537 18.0276 29.9745 17.9705 29.6457 17.795L29.6438 17.793Z" fill="#1ED760"/>
</svg>
