<svg width="66" height="18" viewBox="0 0 66 18" fill="none" xmlns="http://www.w3.org/2000/svg">
<path d="M8.88818 0C7.13023 0 5.41179 0.527835 3.95014 1.51675C2.48853 2.50571 1.34932 3.91133 0.676553 5.55584C0.00384201 7.20039 -0.172169 9.01 0.170805 10.7558C0.513727 12.5017 1.36023 14.1053 2.60327 15.364C3.84631 16.6226 5.43005 17.4798 7.15417 17.8271C8.8783 18.1743 10.6654 17.9961 12.2895 17.3149C13.9136 16.6337 15.3017 15.4802 16.2784 14.0001C17.255 12.5201 17.7763 10.78 17.7763 9.00002C17.7763 6.61304 16.8399 4.32387 15.173 2.63606C13.5061 0.948191 11.2455 0 8.88818 0ZM12.9669 12.9793C12.9291 13.0429 12.8791 13.0982 12.82 13.1421C12.7609 13.186 12.6937 13.2175 12.6224 13.2349C12.5512 13.2523 12.4772 13.2551 12.4048 13.2433C12.3324 13.2315 12.2631 13.2052 12.2008 13.166C10.1153 11.8731 7.49074 11.5858 4.39797 12.2969C4.3276 12.3139 4.25464 12.3166 4.18323 12.3048C4.11188 12.293 4.04347 12.2669 3.98214 12.2282C3.92077 12.1895 3.86761 12.1388 3.82573 12.079C3.78384 12.0193 3.75417 11.9517 3.73829 11.8803C3.72138 11.8086 3.71869 11.7343 3.73022 11.6615C3.74181 11.5887 3.7674 11.519 3.80562 11.4562C3.84383 11.3935 3.89393 11.3391 3.95293 11.296C4.01198 11.2529 4.07884 11.222 4.14967 11.2051C7.53329 10.4222 10.4416 10.7598 12.7825 12.2107C12.9074 12.288 12.9969 12.4123 13.0315 12.5564C13.0661 12.7005 13.0428 12.8525 12.9669 12.9793ZM14.0522 10.5299C13.9531 10.6843 13.7992 10.7943 13.6223 10.837C13.4454 10.8798 13.259 10.8521 13.1017 10.7598C10.4046 9.23631 7.22057 8.85916 4.249 9.71107C4.15655 9.7633 4.05371 9.79388 3.94807 9.80059C3.84238 9.80729 3.73659 9.78997 3.63839 9.74988C3.5402 9.7098 3.45215 9.64801 3.38063 9.56894C3.30912 9.48993 3.25597 9.39565 3.2251 9.29314C3.19423 9.19057 3.18642 9.08235 3.20224 8.97635C3.21806 8.87035 3.2571 8.76932 3.31652 8.68059C3.37593 8.59186 3.45421 8.51776 3.54558 8.46363C3.637 8.40954 3.73917 8.3768 3.84466 8.36792C5.50327 7.88445 7.24057 7.74148 8.95451 7.94752C10.6685 8.15349 12.3245 8.70425 13.8252 9.56746C13.9777 9.66781 14.0862 9.82367 14.1285 10.0028C14.1707 10.1819 14.1434 10.3706 14.0522 10.5299ZM14.1444 7.98005C11.307 6.25616 6.56151 6.09814 3.8234 6.93854C3.6127 7.00334 3.38518 6.98068 3.19097 6.87558C2.99676 6.77053 2.85172 6.59165 2.78776 6.37827C2.7238 6.16495 2.74613 5.93457 2.84991 5.73789C2.95364 5.54126 3.13032 5.39438 3.34103 5.32963C6.48348 4.36713 11.6972 4.55388 14.9957 6.52911C15.1652 6.65201 15.2829 6.83502 15.3253 7.04179C15.3677 7.24851 15.3316 7.46383 15.2243 7.64494C15.117 7.82599 14.9463 7.9595 14.7463 8.01892C14.5462 8.07839 14.3313 8.05938 14.1444 7.96568V7.98005Z" fill="#1ED760"/>
<path d="M27.0507 7.57437C25.348 7.15777 25.0429 6.85614 25.0429 6.26714C25.0429 5.67815 25.575 5.30464 26.3697 5.30464C27.2214 5.33696 28.0394 5.65253 28.696 6.2025C28.7095 6.20942 28.724 6.21301 28.739 6.21301C28.7534 6.21301 28.7684 6.20942 28.7814 6.2025C28.8093 6.19706 28.8346 6.18179 28.8522 6.1594L29.6893 4.96705C29.7059 4.94555 29.7152 4.91898 29.7152 4.89163C29.7152 4.86427 29.7059 4.8377 29.6893 4.81621C28.7664 4.05123 27.6045 3.64382 26.4121 3.66695C24.575 3.66695 23.2911 4.78748 23.2911 6.38207C23.2911 8.09872 24.3976 8.70926 26.3129 9.17615C27.9442 9.55684 28.2209 9.89443 28.2209 10.4475C28.2209 11.0005 27.6604 11.4674 26.802 11.4674C25.7875 11.4603 24.8154 11.0533 24.0926 10.3326C24.0651 10.3232 24.0352 10.3232 24.0072 10.3326C23.9783 10.3397 23.9514 10.3546 23.9292 10.3757L22.9788 11.489C22.9591 11.5103 22.9478 11.5386 22.9478 11.568C22.9478 11.5974 22.9591 11.6257 22.9788 11.647C24.0114 12.5836 25.3521 13.0959 26.7384 13.0836C28.7172 13.0836 30.0017 11.9846 30.0017 10.2895C29.9732 8.87447 29.1216 8.08435 27.0507 7.57437Z" fill="white"/>
<path d="M34.4561 5.87115C34.0461 5.86856 33.6412 5.96114 33.2725 6.14167C32.9033 6.32219 32.5802 6.58595 32.3278 6.91266V6.12255C32.3263 6.09334 32.3134 6.06593 32.2922 6.04591C32.271 6.02589 32.243 6.01475 32.2146 6.0148H30.6753C30.6463 6.01475 30.6184 6.02589 30.5972 6.04591C30.576 6.06593 30.5636 6.09334 30.5615 6.12255V14.8855C30.5615 14.916 30.5734 14.9453 30.5946 14.9668C30.6163 14.9884 30.6448 15.0005 30.6753 15.0005H32.2001C32.2301 15.0005 32.2591 14.9884 32.2803 14.9668C32.3015 14.9453 32.3139 14.916 32.3139 14.8855V12.1345C32.5745 12.4475 32.9008 12.6981 33.2689 12.8683C33.6366 13.0384 34.0373 13.1239 34.4416 13.1185C36.0378 13.1185 37.6552 11.876 37.6552 9.49125C37.6552 7.1066 36.0518 5.87115 34.4561 5.87115ZM35.8744 9.46252C35.9013 9.71941 35.875 9.97905 35.7974 10.2251C35.7198 10.4711 35.5926 10.6981 35.4241 10.8919C35.255 11.0856 35.0487 11.2418 34.8175 11.3506C34.5859 11.4594 34.3351 11.5185 34.0802 11.524C33.8242 11.516 33.573 11.4556 33.3408 11.3465C33.1086 11.2374 32.9008 11.0819 32.7301 10.8892C32.559 10.6966 32.4282 10.4708 32.3454 10.2256C32.2632 9.98043 32.2306 9.72084 32.2498 9.46252C32.2317 9.20478 32.2648 8.94599 32.348 8.70161C32.4307 8.45729 32.5616 8.23241 32.7327 8.04053C32.9033 7.8487 33.1112 7.6938 33.3423 7.5851C33.574 7.47646 33.8248 7.41631 34.0802 7.40828C34.3382 7.41277 34.5926 7.47166 34.8269 7.58119C35.0611 7.69073 35.2705 7.84849 35.4411 8.04444C35.6123 8.24043 35.741 8.47028 35.8191 8.71941C35.8972 8.96849 35.9236 9.23135 35.8956 9.49125L35.8744 9.46252Z" fill="white"/>
<path d="M41.812 5.87155C41.1031 5.88439 40.4139 6.10949 39.8311 6.51843C39.2484 6.92743 38.7985 7.50196 38.5379 8.16959C38.2773 8.83718 38.2179 9.56803 38.3668 10.2698C38.5162 10.9716 38.8673 11.613 39.3756 12.1131C39.8844 12.6132 40.5281 12.9495 41.2251 13.0797C41.9222 13.2098 42.6419 13.128 43.2934 12.8446C43.9444 12.5611 44.4987 12.0886 44.885 11.4868C45.2718 10.885 45.4734 10.1808 45.4651 9.46293C45.4584 8.98411 45.3591 8.5112 45.172 8.07141C44.9843 7.63162 44.7133 7.23355 44.3741 6.89997C44.0349 6.56634 43.6337 6.30379 43.1942 6.12734C42.7546 5.95088 42.2846 5.86395 41.812 5.87155ZM41.812 11.5675C41.5499 11.564 41.2913 11.5069 41.0514 11.3996C40.812 11.2923 40.5959 11.1371 40.417 10.9431C40.2381 10.7492 40.1 10.5207 40.0105 10.2713C39.9211 10.0218 39.8823 9.75663 39.8968 9.49166C39.8802 9.23033 39.917 8.96837 40.0038 8.72188C40.0912 8.47545 40.2277 8.24966 40.4045 8.05857C40.5814 7.86744 40.7949 7.71501 41.0318 7.61065C41.2691 7.50629 41.525 7.4522 41.7836 7.45178C42.0463 7.45342 42.3063 7.50882 42.5473 7.61477C42.7888 7.72066 43.0065 7.87488 43.1874 8.06808C43.3679 8.26133 43.5085 8.4896 43.6001 8.73915C43.6916 8.9887 43.7324 9.25447 43.72 9.52039C43.7366 9.78389 43.6993 10.048 43.6109 10.2963C43.5225 10.5446 43.3844 10.7718 43.2055 10.9638C43.0261 11.1559 42.8105 11.3085 42.5706 11.4123C42.3306 11.5162 42.0726 11.569 41.812 11.5675Z" fill="white"/>
<path d="M49.8562 6.01523H48.1752V4.27704C48.1752 4.24778 48.1644 4.21957 48.1442 4.19818C48.1246 4.17684 48.0977 4.16396 48.0687 4.16211H46.5434C46.5134 4.16211 46.4844 4.1742 46.4632 4.19575C46.442 4.2173 46.4301 4.24656 46.4301 4.27704V6.01523H45.6783C45.6643 6.01523 45.6504 6.01803 45.6374 6.02347C45.6245 6.02886 45.6126 6.03684 45.6028 6.04682C45.593 6.0568 45.5852 6.06868 45.58 6.08178C45.5744 6.09483 45.5718 6.10887 45.5718 6.12298V7.45181C45.5718 7.48106 45.5826 7.50927 45.6023 7.53066C45.6224 7.552 45.6493 7.56488 45.6783 7.56673H46.3877V11.0001C46.3877 12.3864 47.0966 13.0903 48.4162 13.0903C48.9126 13.1045 49.4033 12.9802 49.835 12.7312C49.8521 12.7228 49.8671 12.7095 49.8769 12.693C49.8873 12.6764 49.8919 12.6572 49.8919 12.6378V11.3736C49.8919 11.354 49.8878 11.3347 49.879 11.3172C49.8702 11.2997 49.8578 11.2845 49.8423 11.273C49.8252 11.2622 49.8056 11.2564 49.7854 11.2564C49.7652 11.2564 49.7456 11.2622 49.7285 11.273C49.4514 11.4151 49.1453 11.4889 48.8345 11.4885C48.3454 11.4885 48.1256 11.2658 48.1256 10.7702V7.56673H49.8066C49.8366 7.56673 49.8655 7.55464 49.8867 7.53309C49.9079 7.51154 49.9198 7.48228 49.9198 7.45181V6.12298C49.9209 6.10069 49.9152 6.07866 49.9038 6.05949C49.8924 6.04037 49.8759 6.025 49.8562 6.01523Z" fill="white"/>
<path d="M55.7076 6.02316V5.80767C55.7076 5.17563 55.9418 4.8955 56.4739 4.8955C56.7697 4.89893 57.0628 4.95486 57.3395 5.06071C57.355 5.06784 57.3721 5.07153 57.3891 5.07153C57.4062 5.07153 57.4232 5.06784 57.4388 5.06071C57.4522 5.04956 57.4636 5.0353 57.4708 5.01909C57.4781 5.00287 57.4817 4.98518 57.4812 4.96733V3.65287C57.4822 3.62767 57.4755 3.6028 57.4615 3.58204C57.447 3.56129 57.4269 3.54581 57.4031 3.53794C56.9889 3.42761 56.5613 3.37923 56.1337 3.39428C54.7148 3.39428 54.0054 4.19876 54.0054 5.71435V6.0447H53.296C53.2681 6.0447 53.2406 6.05606 53.221 6.07629C53.2008 6.09652 53.1895 6.12387 53.1895 6.15245V7.48846C53.1895 7.51772 53.2003 7.54592 53.2205 7.56731C53.2401 7.58865 53.267 7.60154 53.296 7.60338H54.0054V12.9043C54.0054 12.9329 54.0168 12.9603 54.0364 12.9804C54.0566 13.0007 54.0835 13.012 54.1119 13.012H55.6083C55.6373 13.0121 55.6652 13.0009 55.6864 12.9809C55.7076 12.9609 55.72 12.9335 55.7221 12.9043V7.56747H57.1409L59.3255 12.8612C59.0774 13.4214 58.8292 13.5292 58.4957 13.5292C58.2014 13.5211 57.9139 13.4397 57.6585 13.2922C57.644 13.2851 57.6285 13.2815 57.6125 13.2815C57.5965 13.2815 57.581 13.2851 57.5665 13.2922C57.552 13.2963 57.5391 13.3036 57.5282 13.3135C57.5168 13.3235 57.508 13.3358 57.5024 13.3496L57.0272 14.4916C57.0168 14.5176 57.0163 14.5466 57.0251 14.573C57.0344 14.5994 57.0525 14.6216 57.0768 14.6353C57.5727 14.9232 58.1368 15.0697 58.7082 15.0591C59.8292 15.0591 60.4533 14.5276 61.0066 13.0982L63.6524 6.174C63.6612 6.15741 63.6659 6.13893 63.6659 6.12012C63.6659 6.10138 63.6612 6.08289 63.6524 6.06625C63.6415 6.05231 63.6276 6.04117 63.6116 6.03372C63.5955 6.02622 63.578 6.02263 63.5604 6.02316H61.929C61.9063 6.02463 61.8845 6.03203 61.8659 6.04465C61.8473 6.05722 61.8323 6.0746 61.8225 6.09498L60.1978 10.7997L58.446 6.09498C58.4372 6.07359 58.4227 6.05527 58.4036 6.04249C58.3845 6.02965 58.3622 6.02294 58.3395 6.02316H55.7076Z" fill="white"/>
<path d="M52.3173 6.01562H50.7925C50.7299 6.01562 50.6787 6.06707 50.6787 6.13055V12.868C50.6787 12.9314 50.7299 12.9829 50.7925 12.9829H52.3173C52.3804 12.9829 52.4311 12.9314 52.4311 12.868V6.13055C52.4311 6.06707 52.3804 6.01562 52.3173 6.01562Z" fill="white"/>
<path d="M51.5586 2.94143C51.3409 2.94 51.1274 3.00412 50.9459 3.12554C50.7639 3.24702 50.6222 3.42041 50.5379 3.6237C50.4536 3.82703 50.4309 4.05108 50.4723 4.26751C50.5141 4.48395 50.6181 4.68301 50.7716 4.83945C50.9252 4.99583 51.1212 5.10257 51.3342 5.14614C51.5478 5.18966 51.7691 5.16806 51.9707 5.08403C52.1719 4.99995 52.3441 4.85725 52.4651 4.67403C52.5866 4.49081 52.6512 4.27528 52.6512 4.05477C52.6517 3.9089 52.6243 3.76429 52.57 3.62924C52.5152 3.49419 52.4351 3.37145 52.3337 3.26793C52.2319 3.16447 52.1114 3.08234 51.9785 3.0263C51.8451 2.97027 51.7029 2.94143 51.5586 2.94143Z" fill="white"/>
<path d="M64.9224 8.17735C64.7813 8.1783 64.6417 8.15089 64.5114 8.09676C64.3811 8.04257 64.2627 7.96271 64.1629 7.86184C64.0631 7.76091 63.9845 7.64096 63.9307 7.50898C63.8774 7.37694 63.8506 7.23545 63.8516 7.09279C63.8516 6.80321 63.9648 6.52551 64.167 6.32074C64.3692 6.11603 64.6437 6.001 64.9297 6.001C65.0703 6.00005 65.2099 6.02746 65.3408 6.0816C65.4711 6.13578 65.5895 6.21564 65.6893 6.31652C65.7885 6.41745 65.8677 6.53739 65.9209 6.66943C65.9747 6.80141 66.0016 6.94291 66.0005 7.08561C66.0005 7.37514 65.8873 7.65285 65.6851 7.85761C65.4824 8.06232 65.2084 8.17735 64.9224 8.17735ZM64.9224 6.10874C64.7296 6.10732 64.5409 6.16399 64.38 6.27157C64.2192 6.37916 64.0936 6.53274 64.0191 6.71284C63.9447 6.89294 63.9245 7.09142 63.9617 7.28298C63.999 7.47449 64.092 7.65052 64.228 7.78858C64.3645 7.92664 64.5383 8.02049 64.7275 8.0582C64.9168 8.09597 65.1127 8.07584 65.2906 8.00048C65.4685 7.92511 65.62 7.79788 65.7265 7.63499C65.8325 7.47206 65.8883 7.28082 65.8873 7.08561C65.8883 6.95764 65.864 6.83078 65.8165 6.71231C65.7684 6.59385 65.6981 6.48611 65.6091 6.39526C65.5202 6.30448 65.4142 6.23238 65.2978 6.18321C65.181 6.13404 65.0558 6.10874 64.9297 6.10874H64.9224ZM65.1634 7.20048L65.4618 7.63146H65.2063L64.9364 7.23645H64.7027V7.63146H64.4824V6.48944H64.9866C65.2487 6.48944 65.4261 6.62591 65.4261 6.84858C65.4276 6.92748 65.4033 7.00475 65.3573 7.06834C65.3113 7.13198 65.2456 7.17841 65.1706 7.20048H65.1634ZM64.9793 6.68337H64.7027V7.04251H64.9793C65.121 7.04251 65.2063 6.97787 65.2063 6.86294C65.2063 6.74802 65.1282 6.68337 64.9866 6.68337H64.9793Z" fill="white"/>
</svg>
