<svg width="96" height="16" viewBox="0 0 96 16" fill="none" xmlns="http://www.w3.org/2000/svg">
<g clip-path="url(#clip0_8623_3633)">
<path d="M15.9583 6.13797C15.8536 5.81398 15.5662 5.58387 15.2262 5.55323L10.6082 5.13391L8.78208 0.859754C8.64744 0.546514 8.34079 0.34375 8.00008 0.34375C7.65937 0.34375 7.35273 0.546514 7.21808 0.860487L5.39198 5.13391L0.773211 5.55323C0.433847 5.58461 0.147219 5.81398 0.0418692 6.13797C-0.0634802 6.46195 0.0338123 6.8173 0.290533 7.04131L3.78122 10.1027L2.7519 14.6368C2.67658 14.9702 2.80598 15.3148 3.0826 15.5148C3.23128 15.6222 3.40524 15.6769 3.58066 15.6769C3.7319 15.6769 3.88193 15.6361 4.01658 15.5556L8.00008 13.1748L11.9821 15.5556C12.2735 15.7309 12.6408 15.7149 12.9168 15.5148C13.1936 15.3142 13.3228 14.9695 13.2475 14.6368L12.2182 10.1027L15.7089 7.04192C15.9656 6.8173 16.0636 6.46256 15.9583 6.13797Z" fill="#7843FF"/>
</g>
<g clip-path="url(#clip1_8623_3633)">
<path d="M35.9583 6.13797C35.8536 5.81398 35.5662 5.58387 35.2262 5.55323L30.6082 5.13391L28.7821 0.859754C28.6474 0.546514 28.3408 0.34375 28.0001 0.34375C27.6594 0.34375 27.3527 0.546514 27.2181 0.860487L25.392 5.13391L20.7732 5.55323C20.4338 5.58461 20.1472 5.81398 20.0419 6.13797C19.9365 6.46195 20.0338 6.8173 20.2905 7.04131L23.7812 10.1027L22.7519 14.6368C22.6766 14.9702 22.806 15.3148 23.0826 15.5148C23.2313 15.6222 23.4052 15.6769 23.5807 15.6769C23.7319 15.6769 23.8819 15.6361 24.0166 15.5556L28.0001 13.1748L31.9821 15.5556C32.2735 15.7309 32.6408 15.7149 32.9168 15.5148C33.1936 15.3142 33.3228 14.9695 33.2475 14.6368L32.2182 10.1027L35.7089 7.04192C35.9656 6.8173 36.0636 6.46256 35.9583 6.13797Z" fill="#7843FF"/>
</g>
<g clip-path="url(#clip2_8623_3633)">
<path d="M55.9583 6.13797C55.8536 5.81398 55.5662 5.58387 55.2262 5.55323L50.6082 5.13391L48.7821 0.859754C48.6474 0.546514 48.3408 0.34375 48.0001 0.34375C47.6594 0.34375 47.3527 0.546514 47.2181 0.860487L45.392 5.13391L40.7732 5.55323C40.4338 5.58461 40.1472 5.81398 40.0419 6.13797C39.9365 6.46195 40.0338 6.8173 40.2905 7.04131L43.7812 10.1027L42.7519 14.6368C42.6766 14.9702 42.806 15.3148 43.0826 15.5148C43.2313 15.6222 43.4052 15.6769 43.5807 15.6769C43.7319 15.6769 43.8819 15.6361 44.0166 15.5556L48.0001 13.1748L51.9821 15.5556C52.2735 15.7309 52.6408 15.7149 52.9168 15.5148C53.1936 15.3142 53.3228 14.9695 53.2475 14.6368L52.2182 10.1027L55.7089 7.04192C55.9656 6.8173 56.0636 6.46256 55.9583 6.13797Z" fill="#7843FF"/>
</g>
<g clip-path="url(#clip3_8623_3633)">
<path d="M75.9583 6.13797C75.8536 5.81398 75.5662 5.58387 75.2262 5.55323L70.6082 5.13391L68.7821 0.859754C68.6474 0.546514 68.3408 0.34375 68.0001 0.34375C67.6594 0.34375 67.3527 0.546514 67.2181 0.860487L65.392 5.13391L60.7732 5.55323C60.4338 5.58461 60.1472 5.81398 60.0419 6.13797C59.9365 6.46195 60.0338 6.8173 60.2905 7.04131L63.7812 10.1027L62.7519 14.6368C62.6766 14.9702 62.806 15.3148 63.0826 15.5148C63.2313 15.6222 63.4052 15.6769 63.5807 15.6769C63.7319 15.6769 63.8819 15.6361 64.0166 15.5556L68.0001 13.1748L71.9821 15.5556C72.2735 15.7309 72.6408 15.7149 72.9168 15.5148C73.1936 15.3142 73.3228 14.9695 73.2475 14.6368L72.2182 10.1027L75.7089 7.04192C75.9656 6.8173 76.0636 6.46256 75.9583 6.13797Z" fill="#7843FF"/>
</g>
<g clip-path="url(#clip4_8623_3633)">
<path d="M95.9583 6.13797C95.8536 5.81398 95.5662 5.58387 95.2262 5.55323L90.6082 5.13391L88.7821 0.859754C88.6474 0.546514 88.3408 0.34375 88.0001 0.34375C87.6594 0.34375 87.3527 0.546514 87.2181 0.860487L85.392 5.13391L80.7732 5.55323C80.4338 5.58461 80.1472 5.81398 80.0419 6.13797C79.9365 6.46195 80.0338 6.8173 80.2905 7.04131L83.7812 10.1027L82.7519 14.6368C82.6766 14.9702 82.806 15.3148 83.0826 15.5148C83.2313 15.6222 83.4052 15.6769 83.5807 15.6769C83.7319 15.6769 83.8819 15.6361 84.0166 15.5556L88.0001 13.1748L91.9821 15.5556C92.2735 15.7309 92.6408 15.7149 92.9168 15.5148C93.1936 15.3142 93.3228 14.9695 93.2475 14.6368L92.2182 10.1027L95.7089 7.04192C95.9656 6.8173 96.0636 6.46256 95.9583 6.13797Z" fill="#7843FF"/>
</g>
<defs>
<clipPath id="clip0_8623_3633">
<rect width="16" height="16" fill="white"/>
</clipPath>
<clipPath id="clip1_8623_3633">
<rect width="16" height="16" fill="white" transform="translate(20)"/>
</clipPath>
<clipPath id="clip2_8623_3633">
<rect width="16" height="16" fill="white" transform="translate(40)"/>
</clipPath>
<clipPath id="clip3_8623_3633">
<rect width="16" height="16" fill="white" transform="translate(60)"/>
</clipPath>
<clipPath id="clip4_8623_3633">
<rect width="16" height="16" fill="white" transform="translate(80)"/>
</clipPath>
</defs>
</svg>
