<svg width="44" height="44" viewBox="0 0 44 44" fill="none" xmlns="http://www.w3.org/2000/svg">
<g clip-path="url(#clip0_4778_37808)">
<rect y="0.00244141" width="44" height="44" rx="8" fill="#7843FF"/>
<g filter="url(#filter0_f_4778_37808)">
<path d="M39.0023 44.6417C39.0023 54.782 48.9144 63.0024 39.0023 63.0024C29.0903 63.0024 7.03444 61.6472 7.03444 51.5069C7.03444 41.3667 5.95606 28.0024 15.8681 28.0024C67.8876 29.847 39.0023 34.5015 39.0023 44.6417Z" fill="white"/>
</g>
<path d="M30.75 11.5024H13.25C12.7859 11.5024 12.3408 11.6868 12.0126 12.015C11.6844 12.3432 11.5 12.7883 11.5 13.2524V30.7524C11.5 31.2166 11.6844 31.6617 12.0126 31.9899C12.3408 32.3181 12.7859 32.5024 13.25 32.5024H30.75C31.2141 32.5024 31.6592 32.3181 31.9874 31.9899C32.3156 31.6617 32.5 31.2166 32.5 30.7524V13.2524C32.5 12.7883 32.3156 12.3432 31.9874 12.015C31.6592 11.6868 31.2141 11.5024 30.75 11.5024ZM14.2169 16.269C14.1654 16.1662 14.1347 16.0542 14.1265 15.9395C14.1183 15.8248 14.1328 15.7096 14.1691 15.6005C14.2055 15.4914 14.263 15.3905 14.3384 15.3037C14.4138 15.2168 14.5055 15.1457 14.6084 15.0943L16.3584 14.2193C16.4919 14.1525 16.6402 14.121 16.7893 14.1277C16.9384 14.1344 17.0832 14.1791 17.2102 14.2576C17.3371 14.3361 17.4418 14.4457 17.5144 14.5761C17.587 14.7064 17.6251 14.8532 17.625 15.0024V20.2524C17.625 20.4845 17.5328 20.7071 17.3687 20.8712C17.2046 21.0353 16.9821 21.1274 16.75 21.1274C16.5179 21.1274 16.2954 21.0353 16.1313 20.8712C15.9672 20.7071 15.875 20.4845 15.875 20.2524V16.4178L15.3916 16.6606C15.2887 16.7121 15.1768 16.7428 15.0621 16.751C14.9473 16.7592 14.8321 16.7447 14.723 16.7083C14.614 16.6719 14.5131 16.6144 14.4262 16.539C14.3394 16.4637 14.2682 16.3719 14.2169 16.269ZM18.0625 27.6899C18.2946 27.6899 18.5171 27.7821 18.6812 27.9462C18.8453 28.1103 18.9375 28.3329 18.9375 28.5649C18.9375 28.797 18.8453 29.0196 18.6812 29.1837C18.5171 29.3478 18.2946 29.4399 18.0625 29.4399H15.4375C15.275 29.4399 15.1157 29.3947 14.9775 29.3093C14.8393 29.2238 14.7275 29.1016 14.6549 28.9563C14.5822 28.8109 14.5514 28.6482 14.566 28.4864C14.5806 28.3245 14.64 28.1699 14.7375 28.0399L17.1077 24.8801C17.1603 24.8064 17.1882 24.718 17.1875 24.6274C17.1873 24.5243 17.1507 24.4246 17.0842 24.3458C17.0177 24.2671 16.9254 24.2144 16.8238 24.197C16.7222 24.1796 16.6177 24.1986 16.5287 24.2508C16.4398 24.3029 16.3721 24.3848 16.3377 24.482C16.2602 24.7008 16.099 24.88 15.8895 24.98C15.6799 25.08 15.4393 25.0926 15.2204 25.0152C15.0015 24.9377 14.8224 24.7765 14.7224 24.567C14.6224 24.3574 14.6097 24.1168 14.6872 23.8979C14.7934 23.6032 14.9616 23.3347 15.1805 23.1107C15.3995 22.8866 15.664 22.7122 15.9561 22.5992C16.2483 22.4862 16.5613 22.4373 16.874 22.4557C17.1868 22.4742 17.4919 22.5596 17.7687 22.7061C18.0456 22.8527 18.2877 23.057 18.4788 23.3053C18.6698 23.5535 18.8053 23.8399 18.8761 24.1451C18.9469 24.4503 18.9513 24.7671 18.8891 25.0741C18.8268 25.3811 18.6994 25.6711 18.5153 25.9246L17.1875 27.6899H18.0625ZM29 28.1274H21.125C20.8929 28.1274 20.6704 28.0353 20.5063 27.8712C20.3422 27.7071 20.25 27.4845 20.25 27.2524C20.25 27.0204 20.3422 26.7978 20.5063 26.6337C20.6704 26.4696 20.8929 26.3774 21.125 26.3774H29C29.2321 26.3774 29.4546 26.4696 29.6187 26.6337C29.7828 26.7978 29.875 27.0204 29.875 27.2524C29.875 27.4845 29.7828 27.7071 29.6187 27.8712C29.4546 28.0353 29.2321 28.1274 29 28.1274ZM29 22.8774H21.125C20.8929 22.8774 20.6704 22.7853 20.5063 22.6212C20.3422 22.4571 20.25 22.2345 20.25 22.0024C20.25 21.7704 20.3422 21.5478 20.5063 21.3837C20.6704 21.2196 20.8929 21.1274 21.125 21.1274H29C29.2321 21.1274 29.4546 21.2196 29.6187 21.3837C29.7828 21.5478 29.875 21.7704 29.875 22.0024C29.875 22.2345 29.7828 22.4571 29.6187 22.6212C29.4546 22.7853 29.2321 22.8774 29 22.8774ZM29 17.6274H21.125C20.8929 17.6274 20.6704 17.5353 20.5063 17.3712C20.3422 17.2071 20.25 16.9845 20.25 16.7524C20.25 16.5204 20.3422 16.2978 20.5063 16.1337C20.6704 15.9696 20.8929 15.8774 21.125 15.8774H29C29.2321 15.8774 29.4546 15.9696 29.6187 16.1337C29.7828 16.2978 29.875 16.5204 29.875 16.7524C29.875 16.9845 29.7828 17.2071 29.6187 17.3712C29.4546 17.5353 29.2321 17.6274 29 17.6274Z" fill="white"/>
</g>
<defs>
<filter id="filter0_f_4778_37808" x="-43" y="-21.9976" width="140" height="135" filterUnits="userSpaceOnUse" color-interpolation-filters="sRGB">
<feFlood flood-opacity="0" result="BackgroundImageFix"/>
<feBlend mode="normal" in="SourceGraphic" in2="BackgroundImageFix" result="shape"/>
<feGaussianBlur stdDeviation="25" result="effect1_foregroundBlur_4778_37808"/>
</filter>
<clipPath id="clip0_4778_37808">
<rect y="0.00244141" width="44" height="44" rx="8" fill="white"/>
</clipPath>
</defs>
</svg>
