<svg width="1214" height="770" viewBox="0 0 1214 770" fill="none" xmlns="http://www.w3.org/2000/svg">
<g filter="url(#filter0_bd_4778_41627)">
<rect x="4" width="96" height="96" rx="16" fill="white"/>
</g>
<g filter="url(#filter1_bd_4778_41627)">
<rect x="337" width="96" height="96" rx="16" fill="white"/>
</g>
<g filter="url(#filter2_bd_4778_41627)">
<rect x="448" width="96" height="96" rx="16" fill="white"/>
</g>
<g filter="url(#filter3_bd_4778_41627)">
<rect x="559" width="96" height="96" rx="16" fill="white"/>
</g>
<g filter="url(#filter4_bd_4778_41627)">
<rect x="781" width="96" height="96" rx="16" fill="white"/>
</g>
<g filter="url(#filter5_bd_4778_41627)">
<rect x="1003" width="96" height="96" rx="16" fill="white"/>
</g>
<g filter="url(#filter6_bd_4778_41627)">
<rect x="1114" width="96" height="96" rx="16" fill="white"/>
</g>
<g filter="url(#filter7_bd_4778_41627)">
<rect x="4" y="111" width="96" height="96" rx="16" fill="white"/>
</g>
<g filter="url(#filter8_bd_4778_41627)">
<rect x="115" y="111" width="96" height="96" rx="16" fill="white"/>
</g>
<rect x="226" y="111" width="96" height="96" rx="16" fill="#7843FF"/>
<path d="M290.638 158.076V160.055H292.641V158.076H290.638Z" fill="white"/>
<path fill-rule="evenodd" clip-rule="evenodd" d="M299.311 147.477C299.311 146.541 299.11 145.697 298.694 144.992C298.294 144.286 297.693 143.703 296.892 143.243C293.565 141.333 290.234 139.423 286.903 137.513C283.572 135.604 280.241 133.694 276.914 131.784C275.112 130.756 273.386 130.787 271.6 131.83C270.218 132.638 265.949 135.084 261.619 137.564C257.643 139.842 253.617 142.149 251.729 143.243C250.096 144.179 249.311 145.621 249.311 147.492V170.563C249.311 171.483 249.511 172.296 249.896 173.002C250.296 173.723 250.913 174.336 251.729 174.812C253.265 175.699 256.202 177.38 259.376 179.197L259.378 179.198C264.383 182.064 269.978 185.267 271.6 186.225C273.386 187.268 275.127 187.314 276.914 186.271C281.04 183.893 285.172 181.527 289.302 179.162L289.306 179.16C291.836 177.711 294.365 176.263 296.892 174.812C297.724 174.336 298.325 173.738 298.725 173.002C299.11 172.296 299.311 171.483 299.311 170.563V147.477ZM281.504 163.046C280.087 165.547 277.391 167.25 274.295 167.25C271.214 167.25 268.534 165.577 267.117 163.092C266.424 161.881 266.023 160.5 266.023 159.012C266.023 154.456 269.72 150.775 274.295 150.775C277.345 150.775 280.01 152.431 281.442 154.886L288.667 150.744C285.786 145.805 280.426 142.476 274.28 142.476C265.099 142.476 257.675 149.885 257.675 159.012C257.675 162.003 258.476 164.826 259.877 167.25C262.742 172.204 268.134 175.548 274.295 175.548C280.472 175.548 285.863 172.189 288.728 167.204L281.504 163.046ZM290.638 155.1H288.99V156.435H287.666V158.076H288.99V160.055H287.666V161.696H288.99V163.031H290.638V161.696H292.641V163.031H294.289V161.696H295.629V160.055H294.289V158.076H295.629V156.435H294.289V155.1H292.641V156.435H290.638V155.1Z" fill="white"/>
<g filter="url(#filter9_bd_4778_41627)">
<rect x="337" y="111" width="96" height="96" rx="16" fill="white"/>
</g>
<g filter="url(#filter10_bd_4778_41627)">
<rect x="448" y="111" width="96" height="96" rx="16" fill="white"/>
</g>
<g filter="url(#filter11_bd_4778_41627)">
<rect x="559" y="111" width="96" height="96" rx="16" fill="white"/>
</g>
<rect x="670" y="111" width="96" height="96" rx="16" fill="#0AC655"/>
<path fill-rule="evenodd" clip-rule="evenodd" d="M735.784 174.578C738.18 175.926 741.25 175.126 742.628 172.78C744.019 170.435 743.202 167.443 740.791 166.081C740.368 165.843 739.924 165.672 739.471 165.564V152.5C739.929 152.393 740.378 152.22 740.806 151.98C743.202 150.617 744.019 147.626 742.642 145.28C741.25 142.935 738.195 142.134 735.799 143.483C735.368 143.728 734.988 144.025 734.663 144.363L723.111 137.833C723.245 137.389 723.317 136.919 723.317 136.432C723.317 133.721 721.079 131.53 718.311 131.53C715.542 131.53 713.304 133.721 713.304 136.432C713.304 136.916 713.375 137.384 713.508 137.826L701.953 144.357C701.629 144.022 701.251 143.726 700.822 143.483C698.426 142.134 695.356 142.935 693.979 145.28C692.602 147.626 693.42 150.631 695.815 151.98C696.243 152.22 696.692 152.393 697.15 152.5V165.564C696.698 165.671 696.253 165.842 695.83 166.081C693.434 167.443 692.616 170.435 693.993 172.78C695.371 175.126 698.426 175.926 700.837 174.578C701.261 174.337 701.636 174.045 701.957 173.714L713.506 180.242C713.374 180.681 713.304 181.147 713.304 181.629C713.304 184.339 715.542 186.53 718.311 186.53C721.079 186.53 723.317 184.325 723.317 181.629C723.317 181.089 723.229 180.569 723.065 180.084L734.546 173.594C734.893 173.975 735.307 174.31 735.784 174.578ZM733.425 171.502C733.452 171.61 733.483 171.718 733.518 171.824L722.013 178.326C721.098 177.343 719.779 176.727 718.311 176.727C716.893 176.727 715.614 177.302 714.704 178.226L703.143 171.692C703.161 171.629 703.179 171.566 703.195 171.502H733.425ZM734.829 166.778C734.491 167.094 734.193 167.462 733.948 167.879C733.705 168.293 733.53 168.728 733.42 169.171H703.201C703.091 168.728 702.917 168.293 702.673 167.879C702.427 167.464 702.13 167.099 701.793 166.784L716.916 141.142C717.359 141.267 717.826 141.334 718.311 141.334C718.796 141.334 719.266 141.266 719.709 141.14L734.829 166.778ZM737.09 165.569C737.025 165.584 736.96 165.601 736.896 165.619L721.773 139.976C721.818 139.933 721.863 139.889 721.907 139.845L733.486 146.39C733.128 147.621 733.26 148.985 733.962 150.182C734.667 151.382 735.816 152.178 737.09 152.488V165.569ZM714.709 139.839C714.755 139.887 714.803 139.933 714.852 139.979L699.729 165.622C699.663 165.603 699.597 165.586 699.531 165.57V152.488C700.806 152.178 701.954 151.382 702.659 150.182C703.363 148.983 703.493 147.615 703.132 146.383L714.709 139.839Z" fill="white"/>
<g filter="url(#filter12_bd_4778_41627)">
<rect x="781" y="111" width="96" height="96" rx="16" fill="white"/>
</g>
<g filter="url(#filter13_bd_4778_41627)">
<rect x="892" y="111" width="96" height="96" rx="16" fill="white"/>
</g>
<rect x="1003" y="111" width="96" height="96" rx="16" fill="#7843FF"/>
<path fill-rule="evenodd" clip-rule="evenodd" d="M1057.03 130.458C1057.03 130.458 1062.97 136.397 1051.4 145.531C1044.22 151.196 1046.88 154.979 1049.43 158.609L1049.43 158.609C1050.18 159.674 1050.91 160.726 1051.39 161.808C1045.98 156.922 1042 152.621 1044.67 148.618C1045.97 146.663 1048.04 145.043 1050.13 143.404C1054.33 140.117 1058.63 136.754 1057.03 130.458ZM1053.97 157.782C1056.72 160.955 1053.24 163.811 1053.24 163.811C1053.24 163.811 1060.24 160.198 1057.03 155.673C1056.9 155.492 1056.77 155.315 1056.65 155.141C1053.86 151.264 1052.26 149.047 1064.19 142.13C1064.19 142.13 1044.62 147.015 1053.97 157.782ZM1043.81 174.651C1043.81 174.651 1041.63 175.921 1045.37 176.351C1049.89 176.867 1052.21 176.793 1057.2 175.849C1057.2 175.849 1058.51 176.671 1060.34 177.384C1049.16 182.178 1035.02 177.106 1043.81 174.651ZM1042.44 168.395C1042.44 168.395 1039.99 170.208 1043.74 170.594C1048.57 171.093 1052.39 171.134 1059 169.861C1059 169.861 1059.92 170.788 1061.36 171.295C1047.83 175.25 1032.76 171.607 1042.44 168.395ZM1066.98 181.64C1070.38 180.61 1068.76 179.278 1068.76 179.278C1074.68 181.947 1055.91 187.312 1033.1 183.613C1024.74 182.257 1037.13 177.523 1039.4 179.12C1039.4 179.12 1038.68 179.07 1037.42 179.342C1036.22 179.6 1032.4 180.831 1034.44 181.718C1040.11 184.187 1060.53 183.596 1066.98 181.64ZM1041.18 165.275C1034.48 164.379 1044.86 161.912 1044.86 161.912C1044.86 161.912 1040.83 161.64 1035.87 164.038C1030 166.875 1050.38 168.166 1060.92 165.392C1062.02 164.643 1063.54 163.994 1063.54 163.994C1063.54 163.994 1059.22 164.765 1054.92 165.128C1049.66 165.568 1044.02 165.654 1041.18 165.275ZM1065.8 162.123C1069.26 161.401 1074.21 166.755 1063.49 172.326C1063.44 172.459 1063.28 172.607 1063.28 172.607C1077.6 168.843 1072.33 159.339 1065.49 161.745C1064.89 161.959 1064.57 162.452 1064.57 162.452C1064.57 162.452 1064.95 162.299 1065.8 162.123ZM1072.38 182.188C1072.01 187.057 1056.21 188.081 1045.91 187.423C1039.22 186.994 1037.86 185.923 1037.84 185.901L1037.84 185.901C1044.26 186.96 1055.09 187.153 1063.88 185.5C1071.66 184.034 1072.38 182.188 1072.38 182.188Z" fill="white"/>
<g filter="url(#filter14_bd_4778_41627)">
<rect x="1114" y="111" width="96" height="96" rx="16" fill="white"/>
</g>
<g filter="url(#filter15_bd_4778_41627)">
<rect x="115" y="222" width="96" height="96" rx="16" fill="white"/>
</g>
<rect x="226" y="222" width="96" height="96" rx="16" fill="#0AC655"/>
<path d="M276.565 242.628C275.2 241.829 273.421 241.833 272.055 242.628C270.371 243.594 268.687 244.561 267.003 245.527C261.844 248.488 256.686 251.449 251.526 254.408C250.195 255.137 249.296 256.624 249.311 258.168V281.896C249.301 283.47 250.246 284.971 251.612 285.69C252.353 286.1 253.087 286.526 253.82 286.952C255.031 287.655 256.242 288.359 257.488 288.991C259.8 290.172 262.692 290.433 265.032 289.201C266.931 288.18 267.775 285.909 267.773 283.822C267.782 278.876 267.781 273.93 267.779 268.984C267.778 266.099 267.777 263.214 267.779 260.33C267.824 259.982 267.573 259.61 267.208 259.618C266.333 259.604 265.458 259.61 264.583 259.616C264.253 259.583 263.93 259.868 263.955 260.214C263.949 264.289 263.95 268.365 263.951 272.441C263.952 276.147 263.953 279.853 263.948 283.559C263.967 284.635 263.268 285.67 262.27 286.033C261.14 286.463 259.88 286.13 258.855 285.568C258.238 285.215 257.622 284.861 257.005 284.508C255.8 283.817 254.595 283.127 253.391 282.433C253.271 282.375 253.17 282.28 253.104 282.163C253.038 282.045 253.009 281.909 253.02 281.774C253.02 279.164 253.021 276.555 253.021 273.945C253.021 268.726 253.021 263.508 253.02 258.29C252.987 257.974 253.174 257.69 253.453 257.561C257.248 255.389 261.041 253.214 264.835 251.038C267.859 249.304 270.884 247.57 273.909 245.837C274.027 245.755 274.167 245.711 274.311 245.711C274.454 245.711 274.594 245.756 274.712 245.838C277.724 247.563 280.736 249.289 283.747 251.014C287.555 253.196 291.362 255.378 295.171 257.558C295.45 257.686 295.629 257.975 295.601 258.29C295.6 261.137 295.6 263.984 295.601 266.832C295.601 271.812 295.601 276.793 295.598 281.773C295.619 282.05 295.481 282.318 295.232 282.44C291.719 284.459 288.203 286.474 284.688 288.488C281.483 290.325 278.278 292.161 275.075 294.001C275.033 294.025 274.991 294.05 274.948 294.076C274.656 294.25 274.325 294.448 273.998 294.256C272.989 293.675 271.988 293.082 270.986 292.489C270.24 292.047 269.493 291.605 268.743 291.168C268.552 291.044 268.309 290.991 268.11 291.129C268.063 291.155 268.015 291.182 267.967 291.208C267.228 291.614 266.485 292.022 265.68 292.282C265.578 292.324 265.469 292.358 265.36 292.392C265.063 292.485 264.761 292.58 264.57 292.842C264.804 293.169 265.149 293.363 265.491 293.556C265.581 293.607 265.671 293.658 265.758 293.711C266.694 294.262 267.63 294.811 268.566 295.361C269.684 296.017 270.801 296.673 271.918 297.331C273.269 298.208 275.084 298.27 276.479 297.46C279.722 295.601 282.965 293.741 286.208 291.881C289.808 289.817 293.408 287.752 297.008 285.689C298.371 284.966 299.32 283.471 299.31 281.896V258.168C299.324 256.656 298.46 255.195 297.168 254.455C293.147 252.144 289.125 249.836 285.102 247.528C282.257 245.895 279.411 244.262 276.565 242.628Z" fill="white"/>
<path d="M286.891 260.443C284.205 258.948 281.01 258.869 278.025 259.064C275.869 259.286 273.601 259.904 272.03 261.512C270.418 263.128 270.068 265.738 270.833 267.847C271.381 269.338 272.762 270.308 274.19 270.82C276.029 271.495 277.96 271.704 279.892 271.913C281.655 272.104 283.418 272.294 285.111 272.839C285.803 273.077 286.609 273.442 286.821 274.225C287.017 275.152 286.802 276.23 286.078 276.874C284.777 277.945 283.013 278.021 281.401 278.091C281.312 278.095 281.225 278.098 281.137 278.102C280.967 278.1 280.795 278.098 280.622 278.096C278.738 278.074 276.735 278.052 275.112 276.987C274.193 276.353 273.797 275.229 273.636 274.159C273.619 273.825 273.36 273.519 273.012 273.544C272.14 273.534 271.268 273.536 270.396 273.543C270.091 273.517 269.775 273.742 269.758 274.065C269.689 275.977 270.392 277.958 271.833 279.229C273.518 280.741 275.789 281.324 277.972 281.576C280.293 281.806 282.665 281.793 284.95 281.275C286.668 280.868 288.391 280.119 289.574 278.743C291.032 277.07 291.319 274.58 290.665 272.497C290.165 270.942 288.736 269.945 287.275 269.432C285.288 268.724 283.212 268.444 281.135 268.165C279.523 267.948 277.91 267.73 276.338 267.313C276.311 267.304 276.284 267.296 276.257 267.287C275.649 267.093 274.938 266.867 274.672 266.224C274.377 265.288 274.628 264.126 275.455 263.551C276.532 262.791 277.899 262.679 279.171 262.61C279.216 262.61 279.262 262.609 279.307 262.609C281.009 262.592 282.806 262.574 284.361 263.365C285.402 263.907 286.005 265.02 286.254 266.143C286.3 266.473 286.513 266.818 286.88 266.803C287.473 266.816 288.066 266.813 288.658 266.811C288.932 266.81 289.205 266.809 289.479 266.809C289.776 266.831 290.102 266.656 290.16 266.34C290.123 263.991 288.97 261.588 286.891 260.443Z" fill="white"/>
<rect x="892" y="222" width="96" height="96" rx="16" fill="#F95341"/>
<path fill-rule="evenodd" clip-rule="evenodd" d="M928.23 250.564C928.23 250.564 927.437 245.03 940.13 245.03C953.396 245.03 952.371 251.702 952.371 251.702V262.725C952.371 269.392 945.621 269.283 945.621 269.283H933.607C926.403 269.283 926.631 276.409 926.631 276.409V282.383H922.4C922.4 282.383 915.311 282.84 915.311 269.965C915.311 257.091 923.433 258.017 923.433 258.017H940.357V256.296H928.244L928.23 250.564ZM934.286 249.052C934.021 248.942 933.738 248.885 933.451 248.885C933.165 248.885 932.882 248.942 932.617 249.052C932.353 249.162 932.112 249.323 931.91 249.526C931.708 249.73 931.547 249.971 931.438 250.237C931.328 250.503 931.272 250.788 931.272 251.076C931.272 251.364 931.328 251.649 931.438 251.914C931.547 252.18 931.708 252.422 931.91 252.625C932.112 252.829 932.353 252.99 932.617 253.1C932.882 253.21 933.165 253.267 933.451 253.266C933.738 253.267 934.021 253.21 934.286 253.1C934.55 252.99 934.79 252.829 934.993 252.625C935.195 252.422 935.356 252.18 935.465 251.914C935.575 251.649 935.631 251.364 935.631 251.076C935.631 250.788 935.575 250.503 935.465 250.237C935.356 249.971 935.195 249.73 934.993 249.526C934.79 249.323 934.55 249.162 934.286 249.052Z" fill="white"/>
<path fill-rule="evenodd" clip-rule="evenodd" d="M952.391 289.497C952.391 289.497 953.184 295.03 940.491 295.03C927.226 295.03 928.25 288.359 928.25 288.359V277.335C928.25 270.668 935 270.778 935 270.778H947.014C954.218 270.778 953.99 263.651 953.99 263.651V257.677H958.221C958.221 257.677 965.311 257.22 965.311 270.095C965.311 282.969 957.188 282.043 957.188 282.043H940.264V283.765H952.377L952.391 289.497ZM946.336 291.009C946.6 291.119 946.884 291.176 947.17 291.176C947.456 291.176 947.74 291.119 948.004 291.009C948.269 290.899 948.509 290.738 948.711 290.534C948.914 290.331 949.074 290.089 949.184 289.823C949.293 289.558 949.349 289.273 949.349 288.985C949.349 288.697 949.293 288.412 949.184 288.146C949.074 287.88 948.914 287.639 948.711 287.435C948.509 287.232 948.269 287.071 948.004 286.961C947.74 286.851 947.456 286.794 947.17 286.794C946.884 286.794 946.6 286.851 946.336 286.961C946.071 287.071 945.831 287.232 945.628 287.435C945.426 287.639 945.265 287.881 945.156 288.146C945.047 288.412 944.99 288.697 944.991 288.985C944.99 289.273 945.047 289.558 945.156 289.824C945.266 290.09 945.426 290.331 945.628 290.535C945.831 290.738 946.071 290.899 946.336 291.009Z" fill="white"/>
<g filter="url(#filter16_bd_4778_41627)">
<rect x="1003" y="222" width="96" height="96" rx="16" fill="white"/>
</g>
<g filter="url(#filter17_bd_4778_41627)">
<rect x="4" y="333" width="96" height="96" rx="16" fill="white"/>
</g>
<rect x="115" y="333" width="96" height="96" rx="16" fill="#F95341"/>
<path d="M176.563 386.256C176.32 386.334 176.071 386.41 175.817 386.484C175.255 384.743 174.497 382.891 173.569 380.978C174.454 379.11 175.184 377.282 175.73 375.552C176.184 375.681 176.625 375.817 177.05 375.96C181.159 377.344 183.665 379.392 183.665 380.969C183.665 382.649 180.958 384.83 176.563 386.256Z" fill="white"/>
<path d="M174.739 389.793C175.184 391.99 175.247 393.976 174.953 395.529C174.688 396.924 174.157 397.854 173.499 398.227C172.1 399.02 169.107 397.989 165.88 395.271C165.51 394.959 165.137 394.627 164.763 394.275C166.014 392.935 167.265 391.378 168.485 389.649C170.632 389.462 172.66 389.157 174.499 388.741C174.589 389.099 174.67 389.45 174.739 389.793Z" fill="white"/>
<path d="M156.296 398.09C154.929 398.563 153.84 398.576 153.182 398.205C151.781 397.414 151.199 394.362 151.993 390.267C152.088 389.784 152.196 389.302 152.318 388.824C154.136 389.218 156.15 389.501 158.302 389.672C159.53 391.364 160.817 392.92 162.113 394.282C161.838 394.543 161.556 394.797 161.267 395.044C159.544 396.518 157.818 397.564 156.296 398.09Z" fill="white"/>
<path d="M149.891 386.245C147.726 385.521 145.938 384.58 144.712 383.552C143.611 382.629 143.055 381.713 143.055 380.969C143.055 379.386 145.465 377.368 149.486 375.996C149.991 375.824 150.5 375.667 151.014 375.525C151.57 377.294 152.299 379.144 153.179 381.014C152.287 382.912 151.548 384.791 150.987 386.581C150.619 386.478 150.254 386.366 149.891 386.245Z" fill="white"/>
<path d="M152.038 371.94C151.204 367.766 151.758 364.617 153.153 363.827C154.638 362.985 157.923 364.185 161.385 367.194C161.607 367.387 161.829 367.588 162.051 367.796C160.762 369.152 159.487 370.696 158.269 372.378C156.181 372.567 154.181 372.872 152.344 373.279C152.23 372.836 152.129 372.389 152.038 371.94Z" fill="white"/>
<path d="M171.192 376.57C170.758 375.836 170.308 375.111 169.842 374.396C171.259 374.571 172.616 374.804 173.891 375.089C173.508 376.289 173.031 377.544 172.47 378.831C172.059 378.069 171.633 377.315 171.192 376.57Z" fill="white"/>
<path d="M163.381 369.123C164.256 370.051 165.132 371.087 165.994 372.211C164.246 372.13 162.495 372.129 160.746 372.21C161.609 371.096 162.493 370.062 163.381 369.123Z" fill="white"/>
<path d="M155.52 376.582C155.085 377.322 154.667 378.071 154.267 378.83C153.714 377.548 153.242 376.287 152.856 375.069C154.123 374.792 155.474 374.565 156.881 374.393C156.41 375.112 155.956 375.842 155.52 376.582Z" fill="white"/>
<path d="M156.922 387.677C155.468 387.519 154.096 387.303 152.83 387.033C153.222 385.794 153.705 384.506 154.269 383.197C154.671 383.956 155.09 384.706 155.528 385.445C155.974 386.2 156.439 386.944 156.922 387.677Z" fill="white"/>
<path d="M163.434 392.946C162.535 391.996 161.638 390.946 160.762 389.816C161.612 389.849 162.479 389.865 163.36 389.865C164.265 389.865 165.16 389.846 166.041 389.807C165.176 390.957 164.303 392.009 163.434 392.946Z" fill="white"/>
<path d="M172.488 383.13C173.081 384.454 173.582 385.735 173.979 386.953C172.691 387.241 171.301 387.472 169.837 387.644C170.306 386.916 170.761 386.179 171.2 385.433C171.647 384.674 172.076 383.907 172.488 383.13Z" fill="white"/>
<path fill-rule="evenodd" clip-rule="evenodd" d="M169.557 384.505C168.884 385.649 168.174 386.771 167.426 387.869C166.109 387.961 164.747 388.009 163.36 388.009C161.978 388.009 160.634 387.967 159.34 387.885C158.573 386.789 157.849 385.665 157.17 384.515C156.493 383.372 155.861 382.204 155.275 381.013C155.86 379.823 156.49 378.654 157.164 377.51C157.838 376.365 158.556 375.246 159.317 374.155C160.638 374.057 161.992 374.006 163.36 374.006C164.735 374.006 166.091 374.058 167.411 374.156C168.164 375.246 168.878 376.361 169.551 377.5C170.227 378.642 170.866 379.805 171.465 380.987C170.872 382.182 170.235 383.355 169.557 384.505ZM167.325 380.969C167.325 378.826 165.55 377.088 163.36 377.088C161.17 377.088 159.395 378.826 159.395 380.969C159.395 383.112 161.17 384.85 163.36 384.85C165.55 384.85 167.325 383.112 167.325 380.969Z" fill="white"/>
<path d="M173.47 363.772C174.957 364.611 175.535 367.996 174.601 372.435C174.54 372.724 174.473 373.012 174.401 373.299C172.559 372.883 170.559 372.573 168.464 372.381C167.244 370.68 165.98 369.134 164.711 367.795C165.043 367.482 165.384 367.176 165.732 366.879C169.01 364.086 172.074 362.984 173.47 363.772Z" fill="white"/>
<path fill-rule="evenodd" clip-rule="evenodd" d="M147.811 390.042C141.998 388.097 138.311 384.647 138.311 380.951C138.311 377.356 142.194 374.162 147.811 372.245C146.646 366.419 147.557 361.725 150.749 359.916C154.06 358.041 158.624 359.303 163.384 363.44C167.959 359.543 172.568 357.971 175.764 359.774C179.078 361.645 180.166 366.143 178.882 372.286C184.617 374.218 188.311 377.341 188.311 380.951C188.311 384.696 184.924 387.638 178.869 389.597C180.062 395.496 179.068 400.418 175.8 402.27C172.62 404.072 168.064 402.577 163.555 398.779C158.93 402.737 154.056 404.015 150.785 402.169C147.603 400.372 146.65 395.762 147.811 390.042ZM176.238 373.763C176.718 373.899 177.195 374.046 177.667 374.204C182.463 375.82 185.562 378.352 185.562 380.969C185.562 383.698 182.25 386.367 177.16 388.018C176.891 388.105 176.615 388.189 176.334 388.27C176.434 388.665 176.524 389.053 176.6 389.432C177.605 394.401 176.831 398.484 174.45 399.834C172.144 401.14 168.416 399.857 164.642 396.678C164.232 396.332 163.832 395.975 163.442 395.606C163.133 395.899 162.823 396.179 162.516 396.442C158.619 399.776 154.618 401.159 152.234 399.813C149.926 398.51 149.201 394.709 150.13 389.921C150.231 389.401 150.347 388.883 150.478 388.37C150.075 388.257 149.675 388.134 149.278 388.002C144.381 386.364 141.158 383.662 141.158 380.969C141.158 378.361 144.16 375.847 148.861 374.242C149.387 374.063 149.936 373.895 150.505 373.737C150.383 373.26 150.274 372.78 150.177 372.297C149.203 367.425 149.888 363.531 152.202 362.22C154.616 360.853 158.635 362.321 162.645 365.806C162.894 366.023 163.14 366.245 163.381 366.471C163.741 366.131 164.109 365.8 164.486 365.478C168.313 362.219 172.101 360.856 174.417 362.163C176.833 363.527 177.541 367.668 176.459 372.809C176.391 373.129 176.318 373.447 176.238 373.763Z" fill="white"/>
<rect x="1003" y="333" width="96" height="96" rx="16" fill="#0AC655"/>
<path d="M1038.81 377.438L1037.95 382.57H1040.01C1041.55 382.399 1042.92 381.886 1043.09 378.978C1043.09 377.951 1042.24 377.438 1041.04 377.438H1038.81Z" fill="white"/>
<path d="M1061.76 377.438L1060.9 382.57H1062.95C1064.5 382.399 1065.87 381.886 1066.04 378.978C1066.04 377.951 1065.18 377.438 1063.98 377.438H1061.76Z" fill="white"/>
<path fill-rule="evenodd" clip-rule="evenodd" d="M1076.31 381.03C1076.31 388.21 1065.12 394.03 1051.31 394.03C1037.5 394.03 1026.31 388.21 1026.31 381.03C1026.31 373.851 1037.5 368.03 1051.31 368.03C1065.12 368.03 1076.31 373.851 1076.31 381.03ZM1036.07 374.872L1033.33 388.728H1036.58L1037.27 385.136H1040.35C1043.26 385.307 1046.52 382.912 1046.52 378.807C1046.52 376.412 1045.15 375.043 1042.41 374.872H1036.07ZM1048.62 371.28L1045.88 385.136H1049.13L1050.67 377.438H1053.24C1054.44 377.438 1054.44 377.951 1054.27 378.807L1053.07 385.136H1056.5L1057.69 378.122C1058.04 376.412 1057.01 375.043 1054.27 374.872H1051.19L1051.87 371.28H1048.62ZM1059.02 374.872L1056.28 388.728H1059.53L1060.21 385.136H1063.3C1066.21 385.307 1069.46 382.912 1069.46 378.807C1069.46 376.412 1068.09 375.043 1065.35 374.872H1059.02Z" fill="white"/>
<g filter="url(#filter18_bd_4778_41627)">
<rect x="1114" y="333" width="96" height="96" rx="16" fill="white"/>
</g>
<g filter="url(#filter19_bd_4778_41627)">
<rect x="115" y="444" width="96" height="96" rx="16" fill="white"/>
</g>
<g filter="url(#filter20_bd_4778_41627)">
<rect x="1003" y="444" width="96" height="96" rx="16" fill="white"/>
</g>
<g filter="url(#filter21_bd_4778_41627)">
<rect x="1114" y="444" width="96" height="96" rx="16" fill="white"/>
</g>
<g filter="url(#filter22_bd_4778_41627)">
<rect x="4" y="555" width="96" height="96" rx="16" fill="white"/>
</g>
<rect x="115" y="555" width="96" height="96" rx="16" fill="#0AC655"/>
<path d="M187.969 602.417L185.87 601.118C185.852 600.914 185.832 600.71 185.81 600.506L187.614 598.824C187.704 598.74 187.771 598.634 187.809 598.517C187.847 598.4 187.854 598.275 187.83 598.154C187.806 598.034 187.752 597.921 187.672 597.827C187.593 597.733 187.49 597.662 187.375 597.619L185.069 596.756C185.011 596.557 184.951 596.359 184.888 596.161L186.327 594.163C186.399 594.063 186.444 593.947 186.458 593.824C186.473 593.702 186.455 593.578 186.408 593.464C186.361 593.351 186.286 593.251 186.189 593.174C186.093 593.098 185.978 593.047 185.856 593.028L183.425 592.632C183.33 592.448 183.232 592.266 183.133 592.086L184.154 589.843C184.206 589.731 184.228 589.608 184.218 589.485C184.208 589.363 184.167 589.244 184.098 589.142C184.03 589.04 183.937 588.956 183.827 588.9C183.717 588.844 183.595 588.817 183.472 588.821L181.004 588.907C180.877 588.748 180.747 588.59 180.614 588.435L181.182 586.031C181.21 585.911 181.207 585.786 181.173 585.667C181.14 585.549 181.076 585.441 180.989 585.354C180.902 585.267 180.794 585.203 180.676 585.17C180.557 585.136 180.432 585.133 180.312 585.161L177.909 585.728C177.753 585.595 177.595 585.466 177.435 585.338L177.522 582.87C177.526 582.747 177.499 582.625 177.443 582.515C177.387 582.406 177.304 582.312 177.201 582.244C177.099 582.176 176.981 582.135 176.858 582.125C176.735 582.115 176.612 582.136 176.5 582.188L174.258 583.21C174.077 583.11 173.895 583.012 173.712 582.917L173.315 580.485C173.296 580.363 173.245 580.249 173.169 580.153C173.092 580.056 172.992 579.981 172.879 579.934C172.765 579.887 172.641 579.869 172.519 579.884C172.397 579.898 172.28 579.943 172.18 580.015L170.181 581.453C169.984 581.391 169.787 581.33 169.587 581.273L168.725 578.967C168.682 578.851 168.61 578.749 168.516 578.669C168.422 578.589 168.309 578.534 168.188 578.511C168.068 578.487 167.943 578.494 167.826 578.532C167.709 578.57 167.604 578.637 167.52 578.727L165.837 580.532C165.634 580.509 165.43 580.489 165.226 580.472L163.926 578.372C163.862 578.268 163.771 578.181 163.664 578.122C163.556 578.062 163.435 578.03 163.312 578.03C163.189 578.03 163.068 578.062 162.961 578.122C162.853 578.181 162.763 578.268 162.698 578.372L161.399 580.472C161.194 580.489 160.99 580.509 160.787 580.532L159.104 578.727C159.02 578.636 158.914 578.569 158.797 578.531C158.68 578.493 158.555 578.486 158.434 578.51C158.313 578.534 158.201 578.589 158.107 578.669C158.013 578.749 157.942 578.851 157.899 578.967L157.037 581.273C156.837 581.33 156.639 581.391 156.442 581.453L154.443 580.015C154.343 579.943 154.227 579.897 154.104 579.883C153.982 579.869 153.858 579.886 153.744 579.934C153.631 579.981 153.531 580.056 153.454 580.153C153.378 580.249 153.328 580.363 153.308 580.485L152.911 582.917C152.728 583.012 152.546 583.11 152.365 583.21L150.123 582.187C150.011 582.136 149.888 582.115 149.765 582.124C149.642 582.134 149.524 582.176 149.422 582.244C149.319 582.312 149.236 582.406 149.18 582.515C149.124 582.625 149.097 582.747 149.101 582.87L149.187 585.338C149.027 585.466 148.869 585.596 148.713 585.728L146.31 585.161C146.19 585.133 146.065 585.136 145.947 585.17C145.828 585.204 145.72 585.267 145.633 585.354C145.546 585.441 145.482 585.549 145.449 585.667C145.415 585.786 145.412 585.911 145.44 586.031L146.007 588.435C145.875 588.59 145.745 588.748 145.618 588.907L143.15 588.821C143.027 588.818 142.905 588.845 142.796 588.901C142.686 588.957 142.593 589.04 142.524 589.142C142.456 589.244 142.414 589.362 142.404 589.485C142.394 589.608 142.416 589.731 142.467 589.843L143.489 592.086C143.39 592.266 143.292 592.448 143.196 592.632L140.765 593.028C140.644 593.047 140.529 593.098 140.433 593.174C140.336 593.251 140.261 593.351 140.214 593.464C140.167 593.578 140.149 593.702 140.164 593.824C140.178 593.947 140.223 594.063 140.295 594.163L141.733 596.161C141.671 596.358 141.61 596.556 141.553 596.756L139.246 597.619C139.131 597.662 139.029 597.734 138.949 597.828C138.87 597.921 138.816 598.034 138.792 598.155C138.768 598.275 138.775 598.4 138.813 598.517C138.85 598.634 138.917 598.74 139.007 598.824L140.811 600.506C140.789 600.709 140.769 600.914 140.752 601.118L138.652 602.417C138.548 602.482 138.461 602.572 138.402 602.68C138.342 602.787 138.31 602.908 138.311 603.031C138.311 603.282 138.44 603.514 138.653 603.645L140.752 604.945C140.769 605.149 140.789 605.353 140.811 605.556L139.007 607.239C138.917 607.323 138.85 607.428 138.812 607.546C138.774 607.663 138.767 607.788 138.791 607.908C138.815 608.029 138.869 608.142 138.949 608.235C139.029 608.329 139.131 608.401 139.246 608.444L141.553 609.306C141.61 609.506 141.671 609.704 141.733 609.901L140.295 611.9C140.223 611.999 140.178 612.116 140.163 612.238C140.149 612.361 140.166 612.485 140.213 612.598C140.261 612.712 140.336 612.812 140.433 612.888C140.529 612.965 140.644 613.015 140.766 613.035L143.197 613.43C143.292 613.615 143.389 613.796 143.49 613.977L142.467 616.219C142.416 616.331 142.394 616.454 142.404 616.577C142.414 616.7 142.455 616.818 142.524 616.92C142.592 617.023 142.686 617.106 142.795 617.162C142.905 617.218 143.027 617.245 143.15 617.241L145.617 617.155C145.745 617.315 145.875 617.472 146.007 617.628L145.44 620.033C145.412 620.152 145.415 620.277 145.449 620.395C145.482 620.514 145.546 620.621 145.633 620.708C145.72 620.795 145.828 620.859 145.946 620.893C146.065 620.926 146.19 620.929 146.31 620.9L148.713 620.334C148.87 620.467 149.028 620.596 149.187 620.723L149.101 623.191C149.097 623.314 149.124 623.436 149.18 623.546C149.236 623.656 149.319 623.749 149.422 623.817C149.524 623.886 149.642 623.927 149.765 623.936C149.888 623.946 150.011 623.925 150.123 623.873L152.365 622.852C152.546 622.952 152.728 623.05 152.911 623.144L153.308 625.575C153.327 625.697 153.378 625.811 153.454 625.908C153.53 626.004 153.63 626.08 153.744 626.127C153.858 626.174 153.982 626.191 154.104 626.177C154.226 626.163 154.343 626.118 154.443 626.046L156.441 624.607C156.638 624.669 156.837 624.73 157.036 624.788L157.898 627.093C157.941 627.209 158.013 627.311 158.107 627.391C158.201 627.47 158.314 627.525 158.434 627.548C158.555 627.573 158.68 627.566 158.797 627.528C158.914 627.49 159.02 627.423 159.103 627.332L160.786 625.528C160.989 625.552 161.194 625.571 161.398 625.589L162.698 627.688C162.762 627.793 162.853 627.879 162.96 627.939C163.068 627.999 163.189 628.03 163.312 628.03C163.435 628.03 163.555 627.999 163.663 627.939C163.77 627.879 163.861 627.793 163.926 627.688L165.225 625.589C165.43 625.571 165.634 625.552 165.837 625.528L167.519 627.332C167.603 627.423 167.708 627.49 167.826 627.528C167.943 627.566 168.067 627.573 168.188 627.548C168.309 627.525 168.422 627.47 168.515 627.391C168.609 627.311 168.681 627.209 168.724 627.093L169.586 624.788C169.786 624.73 169.984 624.669 170.182 624.607L172.18 626.046C172.28 626.118 172.397 626.163 172.519 626.177C172.641 626.191 172.765 626.174 172.879 626.127C172.992 626.08 173.092 626.004 173.169 625.908C173.245 625.811 173.295 625.697 173.315 625.575L173.712 623.144C173.895 623.049 174.076 622.95 174.257 622.851L176.5 623.873C176.612 623.925 176.735 623.947 176.858 623.937C176.98 623.927 177.099 623.886 177.201 623.818C177.304 623.749 177.387 623.656 177.443 623.546C177.499 623.437 177.526 623.314 177.521 623.191L177.435 620.723C177.595 620.596 177.753 620.466 177.909 620.334L180.312 620.9C180.556 620.958 180.812 620.886 180.988 620.708C181.076 620.621 181.139 620.514 181.173 620.395C181.207 620.277 181.209 620.152 181.181 620.033L180.615 617.628C180.747 617.472 180.877 617.315 181.004 617.155L183.472 617.241C183.595 617.245 183.717 617.218 183.826 617.162C183.936 617.106 184.029 617.023 184.097 616.921C184.166 616.818 184.207 616.7 184.217 616.577C184.227 616.454 184.205 616.331 184.154 616.219L183.132 613.977C183.232 613.796 183.33 613.615 183.424 613.43L185.856 613.035C185.978 613.015 186.092 612.965 186.189 612.888C186.285 612.812 186.36 612.712 186.407 612.598C186.454 612.484 186.472 612.36 186.457 612.238C186.443 612.116 186.398 611.999 186.326 611.9L184.888 609.902C184.95 609.704 185.011 609.506 185.068 609.306L187.374 608.444C187.49 608.401 187.592 608.329 187.672 608.235C187.752 608.141 187.806 608.029 187.829 607.908C187.854 607.787 187.847 607.662 187.809 607.545C187.771 607.428 187.704 607.323 187.613 607.239L185.81 605.556C185.832 605.353 185.852 605.149 185.869 604.945L187.969 603.645C188.073 603.581 188.16 603.49 188.219 603.383C188.279 603.275 188.311 603.154 188.311 603.031C188.311 602.781 188.182 602.549 187.969 602.417ZM173.92 619.83C173.118 619.657 172.608 618.867 172.78 618.063C172.952 617.26 173.741 616.749 174.543 616.922C175.344 617.093 175.855 617.885 175.683 618.687C175.511 619.49 174.721 620.002 173.92 619.83ZM173.206 615.006C173.033 614.969 172.853 614.966 172.678 614.998C172.503 615.03 172.336 615.097 172.187 615.194C172.038 615.29 171.909 615.415 171.808 615.562C171.707 615.709 171.636 615.874 171.599 616.047L170.854 619.525C168.554 620.569 166 621.149 163.311 621.149C160.559 621.149 157.95 620.54 155.609 619.452L154.864 615.974C154.708 615.243 153.988 614.776 153.257 614.933L150.187 615.593C149.616 615.006 149.086 614.38 148.6 613.722H163.539C163.708 613.722 163.821 613.691 163.821 613.537V608.253C163.821 608.099 163.708 608.068 163.539 608.068H159.17V604.719H163.896C164.327 604.719 166.202 604.842 166.801 607.239C166.989 607.976 167.401 610.373 167.683 611.141C167.964 612.002 169.108 613.722 170.327 613.722H177.771C177.855 613.722 177.946 613.712 178.041 613.695C177.524 614.396 176.958 615.06 176.348 615.681L173.207 615.006H173.206ZM152.544 619.757C151.743 619.93 150.953 619.419 150.781 618.616C150.609 617.812 151.119 617.022 151.921 616.849C152.722 616.678 153.512 617.189 153.684 617.992C153.855 618.795 153.345 619.586 152.544 619.757H152.544ZM146.877 596.777C147.21 597.528 146.871 598.407 146.122 598.739C145.372 599.072 144.495 598.733 144.163 597.982C143.83 597.231 144.168 596.354 144.918 596.021C145.096 595.941 145.288 595.898 145.483 595.894C145.678 595.889 145.872 595.922 146.054 595.993C146.236 596.063 146.403 596.168 146.544 596.303C146.685 596.438 146.798 596.599 146.877 596.777V596.777ZM145.135 600.906L148.334 599.485C148.662 599.339 148.919 599.068 149.048 598.733C149.177 598.398 149.168 598.025 149.022 597.696L148.363 596.207H150.954V607.884H145.727C145.264 606.253 145.029 604.566 145.031 602.87C145.031 602.206 145.066 601.551 145.135 600.906V600.906ZM159.171 599.772V596.33H165.34C165.659 596.33 167.59 596.698 167.59 598.143C167.59 599.342 166.109 599.771 164.89 599.771H159.171V599.772ZM181.591 602.87C181.591 603.327 181.574 603.779 181.541 604.227H179.665C179.478 604.227 179.402 604.35 179.402 604.534V605.396C179.402 607.423 178.259 607.864 177.257 607.976C176.303 608.084 175.245 607.577 175.115 606.993C174.552 603.828 173.614 603.152 172.134 601.984C173.971 600.817 175.884 599.095 175.884 596.79C175.884 594.302 174.178 592.735 173.015 591.966C171.384 590.891 169.577 590.675 169.09 590.675H149.693C152.323 587.74 155.888 585.66 159.92 584.904L162.206 587.302C162.329 587.431 162.476 587.534 162.639 587.606C162.801 587.678 162.976 587.717 163.154 587.721C163.332 587.725 163.509 587.694 163.675 587.63C163.84 587.566 163.992 587.469 164.12 587.346L166.679 584.899C172.039 585.897 176.577 589.234 179.193 593.812L177.441 597.768C177.139 598.452 177.448 599.253 178.13 599.556L181.502 601.054C181.56 601.652 181.591 602.257 181.591 602.87ZM162.207 582.863C162.8 582.296 163.739 582.318 164.307 582.912C164.873 583.507 164.851 584.447 164.257 585.014C163.665 585.582 162.725 585.56 162.158 584.965C161.886 584.68 161.739 584.298 161.748 583.904C161.757 583.51 161.923 583.136 162.207 582.863ZM179.587 596.849C179.666 596.671 179.779 596.51 179.92 596.375C180.061 596.241 180.227 596.135 180.409 596.065C180.591 595.995 180.785 595.961 180.98 595.966C181.175 595.971 181.367 596.014 181.546 596.093C182.295 596.426 182.633 597.305 182.301 598.055C182.222 598.234 182.109 598.395 181.968 598.529C181.827 598.664 181.66 598.77 181.478 598.84C181.296 598.91 181.102 598.944 180.907 598.939C180.712 598.934 180.52 598.891 180.342 598.812C179.593 598.479 179.255 597.601 179.587 596.849Z" fill="white"/>
<g filter="url(#filter23_bd_4778_41627)">
<rect x="226" y="555" width="96" height="96" rx="16" fill="white"/>
</g>
<g filter="url(#filter24_bd_4778_41627)">
<rect x="337" y="555" width="96" height="96" rx="16" fill="white"/>
</g>
<rect x="448" y="555" width="96" height="96" rx="16" fill="#F95341"/>
<path d="M516.782 580.634C516.078 582.314 515.186 583.908 514.112 585.373C509.41 580.673 503.029 578.03 496.38 578.03C482.628 578.03 471.311 589.357 471.311 603.125C471.311 609.992 474.124 616.567 479.099 621.306L480.023 622.126C484.542 625.934 490.266 628.03 496.172 628.03C509.248 628.03 520.239 617.784 521.17 604.726C521.854 598.334 519.979 590.249 516.782 580.634ZM482.66 621.449C482.257 621.95 481.638 622.243 480.993 622.243C479.815 622.243 478.851 621.273 478.851 620.095C478.851 618.917 479.821 617.947 480.993 617.947C481.482 617.947 481.964 618.116 482.341 618.429C483.259 619.171 483.403 620.531 482.66 621.449ZM516.677 613.937C510.491 622.185 497.279 619.405 488.807 619.802C488.807 619.802 487.303 619.893 485.793 620.141C485.793 620.141 486.359 619.9 487.095 619.62C493.04 617.55 495.853 617.146 499.467 615.291C506.272 611.828 512.998 604.251 514.398 596.368C511.807 603.951 503.954 610.467 496.797 613.117C491.894 614.927 483.038 616.684 483.038 616.684L482.68 616.495C476.65 613.56 476.468 600.495 487.427 596.277C492.226 594.428 496.817 595.443 502 594.207C507.535 592.892 513.936 588.739 516.541 583.323C519.458 591.987 522.968 605.553 516.677 613.937Z" fill="white"/>
<g filter="url(#filter25_bd_4778_41627)">
<rect x="559" y="555" width="96" height="96" rx="16" fill="white"/>
</g>
<g filter="url(#filter26_bd_4778_41627)">
<rect x="670" y="555" width="96" height="96" rx="16" fill="white"/>
</g>
<g filter="url(#filter27_bd_4778_41627)">
<rect x="781" y="555" width="96" height="96" rx="16" fill="white"/>
</g>
<rect x="892" y="555" width="96" height="96" rx="16" fill="#7843FF"/>
<path fill-rule="evenodd" clip-rule="evenodd" d="M939.998 578.054L916.76 586.334L920.311 617.078L939.998 628.006L959.997 616.93L963.861 586.186L939.998 578.054ZM925.555 616.103L940.035 583.887L955.213 616.195L950.043 616.103L946.86 608.743H933.871L930.964 616.011L925.555 616.103ZM944.965 604.438L940.071 594.208L935.766 604.438H944.965Z" fill="white"/>
<g filter="url(#filter28_bd_4778_41627)">
<rect x="1003" y="555" width="96" height="96" rx="16" fill="white"/>
</g>
<rect x="1114" y="555" width="96" height="96" rx="16" fill="#F95341"/>
<path d="M1158.24 577.03H1152.78V584.038H1158.24V581.702H1155.07V579.366H1158.24V577.03Z" fill="white"/>
<path d="M1164.79 577.03H1159.33L1159.33 581.6H1162.51V582.007H1159.33V584.14H1164.79V579.468H1161.62V579.062H1164.79V577.03Z" fill="white"/>
<path d="M1171.34 577.03H1165.88V581.6H1169.06V582.007H1165.88V584.14H1171.34V579.468H1168.17V579.062H1171.34V577.03Z" fill="white"/>
<path fill-rule="evenodd" clip-rule="evenodd" d="M1162.29 629.03L1147.59 624.854L1144.31 587.25H1180.31L1177.03 624.848L1162.29 629.03ZM1152.23 608.883L1151.82 604.271L1168.24 604.271L1168.65 599.548L1151.42 599.548L1151.01 594.936L1173.58 594.936L1172.77 604.271L1172.66 605.509L1171.53 618.431L1162.31 621.046V621.047L1162.29 621.053L1153.06 618.431L1152.43 611.189H1156.95L1157.27 614.867L1162.29 616.254L1162.29 616.253L1167.32 614.864L1167.84 608.883L1152.23 608.883Z" fill="white"/>
<g filter="url(#filter29_bd_4778_41627)">
<rect x="226" y="666" width="96" height="96" rx="16" fill="white"/>
</g>
<g filter="url(#filter30_bd_4778_41627)">
<rect x="337" y="666" width="96" height="96" rx="16" fill="white"/>
</g>
<g filter="url(#filter31_bd_4778_41627)">
<rect x="448" y="666" width="96" height="96" rx="16" fill="white"/>
</g>
<g filter="url(#filter32_bd_4778_41627)">
<rect x="670" y="666" width="96" height="96" rx="16" fill="white"/>
</g>
<g filter="url(#filter33_bd_4778_41627)">
<rect x="781" y="666" width="96" height="96" rx="16" fill="white"/>
</g>
<g filter="url(#filter34_bd_4778_41627)">
<rect x="1114" y="666" width="96" height="96" rx="16" fill="white"/>
</g>
<defs>
<filter id="filter0_bd_4778_41627" x="0" y="-4" width="104" height="108" filterUnits="userSpaceOnUse" color-interpolation-filters="sRGB">
<feFlood flood-opacity="0" result="BackgroundImageFix"/>
<feGaussianBlur in="BackgroundImageFix" stdDeviation="2"/>
<feComposite in2="SourceAlpha" operator="in" result="effect1_backgroundBlur_4778_41627"/>
<feColorMatrix in="SourceAlpha" type="matrix" values="0 0 0 0 0 0 0 0 0 0 0 0 0 0 0 0 0 0 127 0" result="hardAlpha"/>
<feOffset dy="4"/>
<feGaussianBlur stdDeviation="2"/>
<feComposite in2="hardAlpha" operator="out"/>
<feColorMatrix type="matrix" values="0 0 0 0 0 0 0 0 0 0 0 0 0 0 0 0 0 0 0.05 0"/>
<feBlend mode="normal" in2="effect1_backgroundBlur_4778_41627" result="effect2_dropShadow_4778_41627"/>
<feBlend mode="normal" in="SourceGraphic" in2="effect2_dropShadow_4778_41627" result="shape"/>
</filter>
<filter id="filter1_bd_4778_41627" x="333" y="-4" width="104" height="108" filterUnits="userSpaceOnUse" color-interpolation-filters="sRGB">
<feFlood flood-opacity="0" result="BackgroundImageFix"/>
<feGaussianBlur in="BackgroundImageFix" stdDeviation="2"/>
<feComposite in2="SourceAlpha" operator="in" result="effect1_backgroundBlur_4778_41627"/>
<feColorMatrix in="SourceAlpha" type="matrix" values="0 0 0 0 0 0 0 0 0 0 0 0 0 0 0 0 0 0 127 0" result="hardAlpha"/>
<feOffset dy="4"/>
<feGaussianBlur stdDeviation="2"/>
<feComposite in2="hardAlpha" operator="out"/>
<feColorMatrix type="matrix" values="0 0 0 0 0 0 0 0 0 0 0 0 0 0 0 0 0 0 0.05 0"/>
<feBlend mode="normal" in2="effect1_backgroundBlur_4778_41627" result="effect2_dropShadow_4778_41627"/>
<feBlend mode="normal" in="SourceGraphic" in2="effect2_dropShadow_4778_41627" result="shape"/>
</filter>
<filter id="filter2_bd_4778_41627" x="444" y="-4" width="104" height="108" filterUnits="userSpaceOnUse" color-interpolation-filters="sRGB">
<feFlood flood-opacity="0" result="BackgroundImageFix"/>
<feGaussianBlur in="BackgroundImageFix" stdDeviation="2"/>
<feComposite in2="SourceAlpha" operator="in" result="effect1_backgroundBlur_4778_41627"/>
<feColorMatrix in="SourceAlpha" type="matrix" values="0 0 0 0 0 0 0 0 0 0 0 0 0 0 0 0 0 0 127 0" result="hardAlpha"/>
<feOffset dy="4"/>
<feGaussianBlur stdDeviation="2"/>
<feComposite in2="hardAlpha" operator="out"/>
<feColorMatrix type="matrix" values="0 0 0 0 0 0 0 0 0 0 0 0 0 0 0 0 0 0 0.05 0"/>
<feBlend mode="normal" in2="effect1_backgroundBlur_4778_41627" result="effect2_dropShadow_4778_41627"/>
<feBlend mode="normal" in="SourceGraphic" in2="effect2_dropShadow_4778_41627" result="shape"/>
</filter>
<filter id="filter3_bd_4778_41627" x="555" y="-4" width="104" height="108" filterUnits="userSpaceOnUse" color-interpolation-filters="sRGB">
<feFlood flood-opacity="0" result="BackgroundImageFix"/>
<feGaussianBlur in="BackgroundImageFix" stdDeviation="2"/>
<feComposite in2="SourceAlpha" operator="in" result="effect1_backgroundBlur_4778_41627"/>
<feColorMatrix in="SourceAlpha" type="matrix" values="0 0 0 0 0 0 0 0 0 0 0 0 0 0 0 0 0 0 127 0" result="hardAlpha"/>
<feOffset dy="4"/>
<feGaussianBlur stdDeviation="2"/>
<feComposite in2="hardAlpha" operator="out"/>
<feColorMatrix type="matrix" values="0 0 0 0 0 0 0 0 0 0 0 0 0 0 0 0 0 0 0.05 0"/>
<feBlend mode="normal" in2="effect1_backgroundBlur_4778_41627" result="effect2_dropShadow_4778_41627"/>
<feBlend mode="normal" in="SourceGraphic" in2="effect2_dropShadow_4778_41627" result="shape"/>
</filter>
<filter id="filter4_bd_4778_41627" x="777" y="-4" width="104" height="108" filterUnits="userSpaceOnUse" color-interpolation-filters="sRGB">
<feFlood flood-opacity="0" result="BackgroundImageFix"/>
<feGaussianBlur in="BackgroundImageFix" stdDeviation="2"/>
<feComposite in2="SourceAlpha" operator="in" result="effect1_backgroundBlur_4778_41627"/>
<feColorMatrix in="SourceAlpha" type="matrix" values="0 0 0 0 0 0 0 0 0 0 0 0 0 0 0 0 0 0 127 0" result="hardAlpha"/>
<feOffset dy="4"/>
<feGaussianBlur stdDeviation="2"/>
<feComposite in2="hardAlpha" operator="out"/>
<feColorMatrix type="matrix" values="0 0 0 0 0 0 0 0 0 0 0 0 0 0 0 0 0 0 0.05 0"/>
<feBlend mode="normal" in2="effect1_backgroundBlur_4778_41627" result="effect2_dropShadow_4778_41627"/>
<feBlend mode="normal" in="SourceGraphic" in2="effect2_dropShadow_4778_41627" result="shape"/>
</filter>
<filter id="filter5_bd_4778_41627" x="999" y="-4" width="104" height="108" filterUnits="userSpaceOnUse" color-interpolation-filters="sRGB">
<feFlood flood-opacity="0" result="BackgroundImageFix"/>
<feGaussianBlur in="BackgroundImageFix" stdDeviation="2"/>
<feComposite in2="SourceAlpha" operator="in" result="effect1_backgroundBlur_4778_41627"/>
<feColorMatrix in="SourceAlpha" type="matrix" values="0 0 0 0 0 0 0 0 0 0 0 0 0 0 0 0 0 0 127 0" result="hardAlpha"/>
<feOffset dy="4"/>
<feGaussianBlur stdDeviation="2"/>
<feComposite in2="hardAlpha" operator="out"/>
<feColorMatrix type="matrix" values="0 0 0 0 0 0 0 0 0 0 0 0 0 0 0 0 0 0 0.05 0"/>
<feBlend mode="normal" in2="effect1_backgroundBlur_4778_41627" result="effect2_dropShadow_4778_41627"/>
<feBlend mode="normal" in="SourceGraphic" in2="effect2_dropShadow_4778_41627" result="shape"/>
</filter>
<filter id="filter6_bd_4778_41627" x="1110" y="-4" width="104" height="108" filterUnits="userSpaceOnUse" color-interpolation-filters="sRGB">
<feFlood flood-opacity="0" result="BackgroundImageFix"/>
<feGaussianBlur in="BackgroundImageFix" stdDeviation="2"/>
<feComposite in2="SourceAlpha" operator="in" result="effect1_backgroundBlur_4778_41627"/>
<feColorMatrix in="SourceAlpha" type="matrix" values="0 0 0 0 0 0 0 0 0 0 0 0 0 0 0 0 0 0 127 0" result="hardAlpha"/>
<feOffset dy="4"/>
<feGaussianBlur stdDeviation="2"/>
<feComposite in2="hardAlpha" operator="out"/>
<feColorMatrix type="matrix" values="0 0 0 0 0 0 0 0 0 0 0 0 0 0 0 0 0 0 0.05 0"/>
<feBlend mode="normal" in2="effect1_backgroundBlur_4778_41627" result="effect2_dropShadow_4778_41627"/>
<feBlend mode="normal" in="SourceGraphic" in2="effect2_dropShadow_4778_41627" result="shape"/>
</filter>
<filter id="filter7_bd_4778_41627" x="0" y="107" width="104" height="108" filterUnits="userSpaceOnUse" color-interpolation-filters="sRGB">
<feFlood flood-opacity="0" result="BackgroundImageFix"/>
<feGaussianBlur in="BackgroundImageFix" stdDeviation="2"/>
<feComposite in2="SourceAlpha" operator="in" result="effect1_backgroundBlur_4778_41627"/>
<feColorMatrix in="SourceAlpha" type="matrix" values="0 0 0 0 0 0 0 0 0 0 0 0 0 0 0 0 0 0 127 0" result="hardAlpha"/>
<feOffset dy="4"/>
<feGaussianBlur stdDeviation="2"/>
<feComposite in2="hardAlpha" operator="out"/>
<feColorMatrix type="matrix" values="0 0 0 0 0 0 0 0 0 0 0 0 0 0 0 0 0 0 0.05 0"/>
<feBlend mode="normal" in2="effect1_backgroundBlur_4778_41627" result="effect2_dropShadow_4778_41627"/>
<feBlend mode="normal" in="SourceGraphic" in2="effect2_dropShadow_4778_41627" result="shape"/>
</filter>
<filter id="filter8_bd_4778_41627" x="111" y="107" width="104" height="108" filterUnits="userSpaceOnUse" color-interpolation-filters="sRGB">
<feFlood flood-opacity="0" result="BackgroundImageFix"/>
<feGaussianBlur in="BackgroundImageFix" stdDeviation="2"/>
<feComposite in2="SourceAlpha" operator="in" result="effect1_backgroundBlur_4778_41627"/>
<feColorMatrix in="SourceAlpha" type="matrix" values="0 0 0 0 0 0 0 0 0 0 0 0 0 0 0 0 0 0 127 0" result="hardAlpha"/>
<feOffset dy="4"/>
<feGaussianBlur stdDeviation="2"/>
<feComposite in2="hardAlpha" operator="out"/>
<feColorMatrix type="matrix" values="0 0 0 0 0 0 0 0 0 0 0 0 0 0 0 0 0 0 0.05 0"/>
<feBlend mode="normal" in2="effect1_backgroundBlur_4778_41627" result="effect2_dropShadow_4778_41627"/>
<feBlend mode="normal" in="SourceGraphic" in2="effect2_dropShadow_4778_41627" result="shape"/>
</filter>
<filter id="filter9_bd_4778_41627" x="333" y="107" width="104" height="108" filterUnits="userSpaceOnUse" color-interpolation-filters="sRGB">
<feFlood flood-opacity="0" result="BackgroundImageFix"/>
<feGaussianBlur in="BackgroundImageFix" stdDeviation="2"/>
<feComposite in2="SourceAlpha" operator="in" result="effect1_backgroundBlur_4778_41627"/>
<feColorMatrix in="SourceAlpha" type="matrix" values="0 0 0 0 0 0 0 0 0 0 0 0 0 0 0 0 0 0 127 0" result="hardAlpha"/>
<feOffset dy="4"/>
<feGaussianBlur stdDeviation="2"/>
<feComposite in2="hardAlpha" operator="out"/>
<feColorMatrix type="matrix" values="0 0 0 0 0 0 0 0 0 0 0 0 0 0 0 0 0 0 0.05 0"/>
<feBlend mode="normal" in2="effect1_backgroundBlur_4778_41627" result="effect2_dropShadow_4778_41627"/>
<feBlend mode="normal" in="SourceGraphic" in2="effect2_dropShadow_4778_41627" result="shape"/>
</filter>
<filter id="filter10_bd_4778_41627" x="444" y="107" width="104" height="108" filterUnits="userSpaceOnUse" color-interpolation-filters="sRGB">
<feFlood flood-opacity="0" result="BackgroundImageFix"/>
<feGaussianBlur in="BackgroundImageFix" stdDeviation="2"/>
<feComposite in2="SourceAlpha" operator="in" result="effect1_backgroundBlur_4778_41627"/>
<feColorMatrix in="SourceAlpha" type="matrix" values="0 0 0 0 0 0 0 0 0 0 0 0 0 0 0 0 0 0 127 0" result="hardAlpha"/>
<feOffset dy="4"/>
<feGaussianBlur stdDeviation="2"/>
<feComposite in2="hardAlpha" operator="out"/>
<feColorMatrix type="matrix" values="0 0 0 0 0 0 0 0 0 0 0 0 0 0 0 0 0 0 0.05 0"/>
<feBlend mode="normal" in2="effect1_backgroundBlur_4778_41627" result="effect2_dropShadow_4778_41627"/>
<feBlend mode="normal" in="SourceGraphic" in2="effect2_dropShadow_4778_41627" result="shape"/>
</filter>
<filter id="filter11_bd_4778_41627" x="555" y="107" width="104" height="108" filterUnits="userSpaceOnUse" color-interpolation-filters="sRGB">
<feFlood flood-opacity="0" result="BackgroundImageFix"/>
<feGaussianBlur in="BackgroundImageFix" stdDeviation="2"/>
<feComposite in2="SourceAlpha" operator="in" result="effect1_backgroundBlur_4778_41627"/>
<feColorMatrix in="SourceAlpha" type="matrix" values="0 0 0 0 0 0 0 0 0 0 0 0 0 0 0 0 0 0 127 0" result="hardAlpha"/>
<feOffset dy="4"/>
<feGaussianBlur stdDeviation="2"/>
<feComposite in2="hardAlpha" operator="out"/>
<feColorMatrix type="matrix" values="0 0 0 0 0 0 0 0 0 0 0 0 0 0 0 0 0 0 0.05 0"/>
<feBlend mode="normal" in2="effect1_backgroundBlur_4778_41627" result="effect2_dropShadow_4778_41627"/>
<feBlend mode="normal" in="SourceGraphic" in2="effect2_dropShadow_4778_41627" result="shape"/>
</filter>
<filter id="filter12_bd_4778_41627" x="777" y="107" width="104" height="108" filterUnits="userSpaceOnUse" color-interpolation-filters="sRGB">
<feFlood flood-opacity="0" result="BackgroundImageFix"/>
<feGaussianBlur in="BackgroundImageFix" stdDeviation="2"/>
<feComposite in2="SourceAlpha" operator="in" result="effect1_backgroundBlur_4778_41627"/>
<feColorMatrix in="SourceAlpha" type="matrix" values="0 0 0 0 0 0 0 0 0 0 0 0 0 0 0 0 0 0 127 0" result="hardAlpha"/>
<feOffset dy="4"/>
<feGaussianBlur stdDeviation="2"/>
<feComposite in2="hardAlpha" operator="out"/>
<feColorMatrix type="matrix" values="0 0 0 0 0 0 0 0 0 0 0 0 0 0 0 0 0 0 0.05 0"/>
<feBlend mode="normal" in2="effect1_backgroundBlur_4778_41627" result="effect2_dropShadow_4778_41627"/>
<feBlend mode="normal" in="SourceGraphic" in2="effect2_dropShadow_4778_41627" result="shape"/>
</filter>
<filter id="filter13_bd_4778_41627" x="888" y="107" width="104" height="108" filterUnits="userSpaceOnUse" color-interpolation-filters="sRGB">
<feFlood flood-opacity="0" result="BackgroundImageFix"/>
<feGaussianBlur in="BackgroundImageFix" stdDeviation="2"/>
<feComposite in2="SourceAlpha" operator="in" result="effect1_backgroundBlur_4778_41627"/>
<feColorMatrix in="SourceAlpha" type="matrix" values="0 0 0 0 0 0 0 0 0 0 0 0 0 0 0 0 0 0 127 0" result="hardAlpha"/>
<feOffset dy="4"/>
<feGaussianBlur stdDeviation="2"/>
<feComposite in2="hardAlpha" operator="out"/>
<feColorMatrix type="matrix" values="0 0 0 0 0 0 0 0 0 0 0 0 0 0 0 0 0 0 0.05 0"/>
<feBlend mode="normal" in2="effect1_backgroundBlur_4778_41627" result="effect2_dropShadow_4778_41627"/>
<feBlend mode="normal" in="SourceGraphic" in2="effect2_dropShadow_4778_41627" result="shape"/>
</filter>
<filter id="filter14_bd_4778_41627" x="1110" y="107" width="104" height="108" filterUnits="userSpaceOnUse" color-interpolation-filters="sRGB">
<feFlood flood-opacity="0" result="BackgroundImageFix"/>
<feGaussianBlur in="BackgroundImageFix" stdDeviation="2"/>
<feComposite in2="SourceAlpha" operator="in" result="effect1_backgroundBlur_4778_41627"/>
<feColorMatrix in="SourceAlpha" type="matrix" values="0 0 0 0 0 0 0 0 0 0 0 0 0 0 0 0 0 0 127 0" result="hardAlpha"/>
<feOffset dy="4"/>
<feGaussianBlur stdDeviation="2"/>
<feComposite in2="hardAlpha" operator="out"/>
<feColorMatrix type="matrix" values="0 0 0 0 0 0 0 0 0 0 0 0 0 0 0 0 0 0 0.05 0"/>
<feBlend mode="normal" in2="effect1_backgroundBlur_4778_41627" result="effect2_dropShadow_4778_41627"/>
<feBlend mode="normal" in="SourceGraphic" in2="effect2_dropShadow_4778_41627" result="shape"/>
</filter>
<filter id="filter15_bd_4778_41627" x="111" y="218" width="104" height="108" filterUnits="userSpaceOnUse" color-interpolation-filters="sRGB">
<feFlood flood-opacity="0" result="BackgroundImageFix"/>
<feGaussianBlur in="BackgroundImageFix" stdDeviation="2"/>
<feComposite in2="SourceAlpha" operator="in" result="effect1_backgroundBlur_4778_41627"/>
<feColorMatrix in="SourceAlpha" type="matrix" values="0 0 0 0 0 0 0 0 0 0 0 0 0 0 0 0 0 0 127 0" result="hardAlpha"/>
<feOffset dy="4"/>
<feGaussianBlur stdDeviation="2"/>
<feComposite in2="hardAlpha" operator="out"/>
<feColorMatrix type="matrix" values="0 0 0 0 0 0 0 0 0 0 0 0 0 0 0 0 0 0 0.05 0"/>
<feBlend mode="normal" in2="effect1_backgroundBlur_4778_41627" result="effect2_dropShadow_4778_41627"/>
<feBlend mode="normal" in="SourceGraphic" in2="effect2_dropShadow_4778_41627" result="shape"/>
</filter>
<filter id="filter16_bd_4778_41627" x="999" y="218" width="104" height="108" filterUnits="userSpaceOnUse" color-interpolation-filters="sRGB">
<feFlood flood-opacity="0" result="BackgroundImageFix"/>
<feGaussianBlur in="BackgroundImageFix" stdDeviation="2"/>
<feComposite in2="SourceAlpha" operator="in" result="effect1_backgroundBlur_4778_41627"/>
<feColorMatrix in="SourceAlpha" type="matrix" values="0 0 0 0 0 0 0 0 0 0 0 0 0 0 0 0 0 0 127 0" result="hardAlpha"/>
<feOffset dy="4"/>
<feGaussianBlur stdDeviation="2"/>
<feComposite in2="hardAlpha" operator="out"/>
<feColorMatrix type="matrix" values="0 0 0 0 0 0 0 0 0 0 0 0 0 0 0 0 0 0 0.05 0"/>
<feBlend mode="normal" in2="effect1_backgroundBlur_4778_41627" result="effect2_dropShadow_4778_41627"/>
<feBlend mode="normal" in="SourceGraphic" in2="effect2_dropShadow_4778_41627" result="shape"/>
</filter>
<filter id="filter17_bd_4778_41627" x="0" y="329" width="104" height="108" filterUnits="userSpaceOnUse" color-interpolation-filters="sRGB">
<feFlood flood-opacity="0" result="BackgroundImageFix"/>
<feGaussianBlur in="BackgroundImageFix" stdDeviation="2"/>
<feComposite in2="SourceAlpha" operator="in" result="effect1_backgroundBlur_4778_41627"/>
<feColorMatrix in="SourceAlpha" type="matrix" values="0 0 0 0 0 0 0 0 0 0 0 0 0 0 0 0 0 0 127 0" result="hardAlpha"/>
<feOffset dy="4"/>
<feGaussianBlur stdDeviation="2"/>
<feComposite in2="hardAlpha" operator="out"/>
<feColorMatrix type="matrix" values="0 0 0 0 0 0 0 0 0 0 0 0 0 0 0 0 0 0 0.05 0"/>
<feBlend mode="normal" in2="effect1_backgroundBlur_4778_41627" result="effect2_dropShadow_4778_41627"/>
<feBlend mode="normal" in="SourceGraphic" in2="effect2_dropShadow_4778_41627" result="shape"/>
</filter>
<filter id="filter18_bd_4778_41627" x="1110" y="329" width="104" height="108" filterUnits="userSpaceOnUse" color-interpolation-filters="sRGB">
<feFlood flood-opacity="0" result="BackgroundImageFix"/>
<feGaussianBlur in="BackgroundImageFix" stdDeviation="2"/>
<feComposite in2="SourceAlpha" operator="in" result="effect1_backgroundBlur_4778_41627"/>
<feColorMatrix in="SourceAlpha" type="matrix" values="0 0 0 0 0 0 0 0 0 0 0 0 0 0 0 0 0 0 127 0" result="hardAlpha"/>
<feOffset dy="4"/>
<feGaussianBlur stdDeviation="2"/>
<feComposite in2="hardAlpha" operator="out"/>
<feColorMatrix type="matrix" values="0 0 0 0 0 0 0 0 0 0 0 0 0 0 0 0 0 0 0.05 0"/>
<feBlend mode="normal" in2="effect1_backgroundBlur_4778_41627" result="effect2_dropShadow_4778_41627"/>
<feBlend mode="normal" in="SourceGraphic" in2="effect2_dropShadow_4778_41627" result="shape"/>
</filter>
<filter id="filter19_bd_4778_41627" x="111" y="440" width="104" height="108" filterUnits="userSpaceOnUse" color-interpolation-filters="sRGB">
<feFlood flood-opacity="0" result="BackgroundImageFix"/>
<feGaussianBlur in="BackgroundImageFix" stdDeviation="2"/>
<feComposite in2="SourceAlpha" operator="in" result="effect1_backgroundBlur_4778_41627"/>
<feColorMatrix in="SourceAlpha" type="matrix" values="0 0 0 0 0 0 0 0 0 0 0 0 0 0 0 0 0 0 127 0" result="hardAlpha"/>
<feOffset dy="4"/>
<feGaussianBlur stdDeviation="2"/>
<feComposite in2="hardAlpha" operator="out"/>
<feColorMatrix type="matrix" values="0 0 0 0 0 0 0 0 0 0 0 0 0 0 0 0 0 0 0.05 0"/>
<feBlend mode="normal" in2="effect1_backgroundBlur_4778_41627" result="effect2_dropShadow_4778_41627"/>
<feBlend mode="normal" in="SourceGraphic" in2="effect2_dropShadow_4778_41627" result="shape"/>
</filter>
<filter id="filter20_bd_4778_41627" x="999" y="440" width="104" height="108" filterUnits="userSpaceOnUse" color-interpolation-filters="sRGB">
<feFlood flood-opacity="0" result="BackgroundImageFix"/>
<feGaussianBlur in="BackgroundImageFix" stdDeviation="2"/>
<feComposite in2="SourceAlpha" operator="in" result="effect1_backgroundBlur_4778_41627"/>
<feColorMatrix in="SourceAlpha" type="matrix" values="0 0 0 0 0 0 0 0 0 0 0 0 0 0 0 0 0 0 127 0" result="hardAlpha"/>
<feOffset dy="4"/>
<feGaussianBlur stdDeviation="2"/>
<feComposite in2="hardAlpha" operator="out"/>
<feColorMatrix type="matrix" values="0 0 0 0 0 0 0 0 0 0 0 0 0 0 0 0 0 0 0.05 0"/>
<feBlend mode="normal" in2="effect1_backgroundBlur_4778_41627" result="effect2_dropShadow_4778_41627"/>
<feBlend mode="normal" in="SourceGraphic" in2="effect2_dropShadow_4778_41627" result="shape"/>
</filter>
<filter id="filter21_bd_4778_41627" x="1110" y="440" width="104" height="108" filterUnits="userSpaceOnUse" color-interpolation-filters="sRGB">
<feFlood flood-opacity="0" result="BackgroundImageFix"/>
<feGaussianBlur in="BackgroundImageFix" stdDeviation="2"/>
<feComposite in2="SourceAlpha" operator="in" result="effect1_backgroundBlur_4778_41627"/>
<feColorMatrix in="SourceAlpha" type="matrix" values="0 0 0 0 0 0 0 0 0 0 0 0 0 0 0 0 0 0 127 0" result="hardAlpha"/>
<feOffset dy="4"/>
<feGaussianBlur stdDeviation="2"/>
<feComposite in2="hardAlpha" operator="out"/>
<feColorMatrix type="matrix" values="0 0 0 0 0 0 0 0 0 0 0 0 0 0 0 0 0 0 0.05 0"/>
<feBlend mode="normal" in2="effect1_backgroundBlur_4778_41627" result="effect2_dropShadow_4778_41627"/>
<feBlend mode="normal" in="SourceGraphic" in2="effect2_dropShadow_4778_41627" result="shape"/>
</filter>
<filter id="filter22_bd_4778_41627" x="0" y="551" width="104" height="108" filterUnits="userSpaceOnUse" color-interpolation-filters="sRGB">
<feFlood flood-opacity="0" result="BackgroundImageFix"/>
<feGaussianBlur in="BackgroundImageFix" stdDeviation="2"/>
<feComposite in2="SourceAlpha" operator="in" result="effect1_backgroundBlur_4778_41627"/>
<feColorMatrix in="SourceAlpha" type="matrix" values="0 0 0 0 0 0 0 0 0 0 0 0 0 0 0 0 0 0 127 0" result="hardAlpha"/>
<feOffset dy="4"/>
<feGaussianBlur stdDeviation="2"/>
<feComposite in2="hardAlpha" operator="out"/>
<feColorMatrix type="matrix" values="0 0 0 0 0 0 0 0 0 0 0 0 0 0 0 0 0 0 0.05 0"/>
<feBlend mode="normal" in2="effect1_backgroundBlur_4778_41627" result="effect2_dropShadow_4778_41627"/>
<feBlend mode="normal" in="SourceGraphic" in2="effect2_dropShadow_4778_41627" result="shape"/>
</filter>
<filter id="filter23_bd_4778_41627" x="222" y="551" width="104" height="108" filterUnits="userSpaceOnUse" color-interpolation-filters="sRGB">
<feFlood flood-opacity="0" result="BackgroundImageFix"/>
<feGaussianBlur in="BackgroundImageFix" stdDeviation="2"/>
<feComposite in2="SourceAlpha" operator="in" result="effect1_backgroundBlur_4778_41627"/>
<feColorMatrix in="SourceAlpha" type="matrix" values="0 0 0 0 0 0 0 0 0 0 0 0 0 0 0 0 0 0 127 0" result="hardAlpha"/>
<feOffset dy="4"/>
<feGaussianBlur stdDeviation="2"/>
<feComposite in2="hardAlpha" operator="out"/>
<feColorMatrix type="matrix" values="0 0 0 0 0 0 0 0 0 0 0 0 0 0 0 0 0 0 0.05 0"/>
<feBlend mode="normal" in2="effect1_backgroundBlur_4778_41627" result="effect2_dropShadow_4778_41627"/>
<feBlend mode="normal" in="SourceGraphic" in2="effect2_dropShadow_4778_41627" result="shape"/>
</filter>
<filter id="filter24_bd_4778_41627" x="333" y="551" width="104" height="108" filterUnits="userSpaceOnUse" color-interpolation-filters="sRGB">
<feFlood flood-opacity="0" result="BackgroundImageFix"/>
<feGaussianBlur in="BackgroundImageFix" stdDeviation="2"/>
<feComposite in2="SourceAlpha" operator="in" result="effect1_backgroundBlur_4778_41627"/>
<feColorMatrix in="SourceAlpha" type="matrix" values="0 0 0 0 0 0 0 0 0 0 0 0 0 0 0 0 0 0 127 0" result="hardAlpha"/>
<feOffset dy="4"/>
<feGaussianBlur stdDeviation="2"/>
<feComposite in2="hardAlpha" operator="out"/>
<feColorMatrix type="matrix" values="0 0 0 0 0 0 0 0 0 0 0 0 0 0 0 0 0 0 0.05 0"/>
<feBlend mode="normal" in2="effect1_backgroundBlur_4778_41627" result="effect2_dropShadow_4778_41627"/>
<feBlend mode="normal" in="SourceGraphic" in2="effect2_dropShadow_4778_41627" result="shape"/>
</filter>
<filter id="filter25_bd_4778_41627" x="555" y="551" width="104" height="108" filterUnits="userSpaceOnUse" color-interpolation-filters="sRGB">
<feFlood flood-opacity="0" result="BackgroundImageFix"/>
<feGaussianBlur in="BackgroundImageFix" stdDeviation="2"/>
<feComposite in2="SourceAlpha" operator="in" result="effect1_backgroundBlur_4778_41627"/>
<feColorMatrix in="SourceAlpha" type="matrix" values="0 0 0 0 0 0 0 0 0 0 0 0 0 0 0 0 0 0 127 0" result="hardAlpha"/>
<feOffset dy="4"/>
<feGaussianBlur stdDeviation="2"/>
<feComposite in2="hardAlpha" operator="out"/>
<feColorMatrix type="matrix" values="0 0 0 0 0 0 0 0 0 0 0 0 0 0 0 0 0 0 0.05 0"/>
<feBlend mode="normal" in2="effect1_backgroundBlur_4778_41627" result="effect2_dropShadow_4778_41627"/>
<feBlend mode="normal" in="SourceGraphic" in2="effect2_dropShadow_4778_41627" result="shape"/>
</filter>
<filter id="filter26_bd_4778_41627" x="666" y="551" width="104" height="108" filterUnits="userSpaceOnUse" color-interpolation-filters="sRGB">
<feFlood flood-opacity="0" result="BackgroundImageFix"/>
<feGaussianBlur in="BackgroundImageFix" stdDeviation="2"/>
<feComposite in2="SourceAlpha" operator="in" result="effect1_backgroundBlur_4778_41627"/>
<feColorMatrix in="SourceAlpha" type="matrix" values="0 0 0 0 0 0 0 0 0 0 0 0 0 0 0 0 0 0 127 0" result="hardAlpha"/>
<feOffset dy="4"/>
<feGaussianBlur stdDeviation="2"/>
<feComposite in2="hardAlpha" operator="out"/>
<feColorMatrix type="matrix" values="0 0 0 0 0 0 0 0 0 0 0 0 0 0 0 0 0 0 0.05 0"/>
<feBlend mode="normal" in2="effect1_backgroundBlur_4778_41627" result="effect2_dropShadow_4778_41627"/>
<feBlend mode="normal" in="SourceGraphic" in2="effect2_dropShadow_4778_41627" result="shape"/>
</filter>
<filter id="filter27_bd_4778_41627" x="777" y="551" width="104" height="108" filterUnits="userSpaceOnUse" color-interpolation-filters="sRGB">
<feFlood flood-opacity="0" result="BackgroundImageFix"/>
<feGaussianBlur in="BackgroundImageFix" stdDeviation="2"/>
<feComposite in2="SourceAlpha" operator="in" result="effect1_backgroundBlur_4778_41627"/>
<feColorMatrix in="SourceAlpha" type="matrix" values="0 0 0 0 0 0 0 0 0 0 0 0 0 0 0 0 0 0 127 0" result="hardAlpha"/>
<feOffset dy="4"/>
<feGaussianBlur stdDeviation="2"/>
<feComposite in2="hardAlpha" operator="out"/>
<feColorMatrix type="matrix" values="0 0 0 0 0 0 0 0 0 0 0 0 0 0 0 0 0 0 0.05 0"/>
<feBlend mode="normal" in2="effect1_backgroundBlur_4778_41627" result="effect2_dropShadow_4778_41627"/>
<feBlend mode="normal" in="SourceGraphic" in2="effect2_dropShadow_4778_41627" result="shape"/>
</filter>
<filter id="filter28_bd_4778_41627" x="999" y="551" width="104" height="108" filterUnits="userSpaceOnUse" color-interpolation-filters="sRGB">
<feFlood flood-opacity="0" result="BackgroundImageFix"/>
<feGaussianBlur in="BackgroundImageFix" stdDeviation="2"/>
<feComposite in2="SourceAlpha" operator="in" result="effect1_backgroundBlur_4778_41627"/>
<feColorMatrix in="SourceAlpha" type="matrix" values="0 0 0 0 0 0 0 0 0 0 0 0 0 0 0 0 0 0 127 0" result="hardAlpha"/>
<feOffset dy="4"/>
<feGaussianBlur stdDeviation="2"/>
<feComposite in2="hardAlpha" operator="out"/>
<feColorMatrix type="matrix" values="0 0 0 0 0 0 0 0 0 0 0 0 0 0 0 0 0 0 0.05 0"/>
<feBlend mode="normal" in2="effect1_backgroundBlur_4778_41627" result="effect2_dropShadow_4778_41627"/>
<feBlend mode="normal" in="SourceGraphic" in2="effect2_dropShadow_4778_41627" result="shape"/>
</filter>
<filter id="filter29_bd_4778_41627" x="222" y="662" width="104" height="108" filterUnits="userSpaceOnUse" color-interpolation-filters="sRGB">
<feFlood flood-opacity="0" result="BackgroundImageFix"/>
<feGaussianBlur in="BackgroundImageFix" stdDeviation="2"/>
<feComposite in2="SourceAlpha" operator="in" result="effect1_backgroundBlur_4778_41627"/>
<feColorMatrix in="SourceAlpha" type="matrix" values="0 0 0 0 0 0 0 0 0 0 0 0 0 0 0 0 0 0 127 0" result="hardAlpha"/>
<feOffset dy="4"/>
<feGaussianBlur stdDeviation="2"/>
<feComposite in2="hardAlpha" operator="out"/>
<feColorMatrix type="matrix" values="0 0 0 0 0 0 0 0 0 0 0 0 0 0 0 0 0 0 0.05 0"/>
<feBlend mode="normal" in2="effect1_backgroundBlur_4778_41627" result="effect2_dropShadow_4778_41627"/>
<feBlend mode="normal" in="SourceGraphic" in2="effect2_dropShadow_4778_41627" result="shape"/>
</filter>
<filter id="filter30_bd_4778_41627" x="333" y="662" width="104" height="108" filterUnits="userSpaceOnUse" color-interpolation-filters="sRGB">
<feFlood flood-opacity="0" result="BackgroundImageFix"/>
<feGaussianBlur in="BackgroundImageFix" stdDeviation="2"/>
<feComposite in2="SourceAlpha" operator="in" result="effect1_backgroundBlur_4778_41627"/>
<feColorMatrix in="SourceAlpha" type="matrix" values="0 0 0 0 0 0 0 0 0 0 0 0 0 0 0 0 0 0 127 0" result="hardAlpha"/>
<feOffset dy="4"/>
<feGaussianBlur stdDeviation="2"/>
<feComposite in2="hardAlpha" operator="out"/>
<feColorMatrix type="matrix" values="0 0 0 0 0 0 0 0 0 0 0 0 0 0 0 0 0 0 0.05 0"/>
<feBlend mode="normal" in2="effect1_backgroundBlur_4778_41627" result="effect2_dropShadow_4778_41627"/>
<feBlend mode="normal" in="SourceGraphic" in2="effect2_dropShadow_4778_41627" result="shape"/>
</filter>
<filter id="filter31_bd_4778_41627" x="444" y="662" width="104" height="108" filterUnits="userSpaceOnUse" color-interpolation-filters="sRGB">
<feFlood flood-opacity="0" result="BackgroundImageFix"/>
<feGaussianBlur in="BackgroundImageFix" stdDeviation="2"/>
<feComposite in2="SourceAlpha" operator="in" result="effect1_backgroundBlur_4778_41627"/>
<feColorMatrix in="SourceAlpha" type="matrix" values="0 0 0 0 0 0 0 0 0 0 0 0 0 0 0 0 0 0 127 0" result="hardAlpha"/>
<feOffset dy="4"/>
<feGaussianBlur stdDeviation="2"/>
<feComposite in2="hardAlpha" operator="out"/>
<feColorMatrix type="matrix" values="0 0 0 0 0 0 0 0 0 0 0 0 0 0 0 0 0 0 0.05 0"/>
<feBlend mode="normal" in2="effect1_backgroundBlur_4778_41627" result="effect2_dropShadow_4778_41627"/>
<feBlend mode="normal" in="SourceGraphic" in2="effect2_dropShadow_4778_41627" result="shape"/>
</filter>
<filter id="filter32_bd_4778_41627" x="666" y="662" width="104" height="108" filterUnits="userSpaceOnUse" color-interpolation-filters="sRGB">
<feFlood flood-opacity="0" result="BackgroundImageFix"/>
<feGaussianBlur in="BackgroundImageFix" stdDeviation="2"/>
<feComposite in2="SourceAlpha" operator="in" result="effect1_backgroundBlur_4778_41627"/>
<feColorMatrix in="SourceAlpha" type="matrix" values="0 0 0 0 0 0 0 0 0 0 0 0 0 0 0 0 0 0 127 0" result="hardAlpha"/>
<feOffset dy="4"/>
<feGaussianBlur stdDeviation="2"/>
<feComposite in2="hardAlpha" operator="out"/>
<feColorMatrix type="matrix" values="0 0 0 0 0 0 0 0 0 0 0 0 0 0 0 0 0 0 0.05 0"/>
<feBlend mode="normal" in2="effect1_backgroundBlur_4778_41627" result="effect2_dropShadow_4778_41627"/>
<feBlend mode="normal" in="SourceGraphic" in2="effect2_dropShadow_4778_41627" result="shape"/>
</filter>
<filter id="filter33_bd_4778_41627" x="777" y="662" width="104" height="108" filterUnits="userSpaceOnUse" color-interpolation-filters="sRGB">
<feFlood flood-opacity="0" result="BackgroundImageFix"/>
<feGaussianBlur in="BackgroundImageFix" stdDeviation="2"/>
<feComposite in2="SourceAlpha" operator="in" result="effect1_backgroundBlur_4778_41627"/>
<feColorMatrix in="SourceAlpha" type="matrix" values="0 0 0 0 0 0 0 0 0 0 0 0 0 0 0 0 0 0 127 0" result="hardAlpha"/>
<feOffset dy="4"/>
<feGaussianBlur stdDeviation="2"/>
<feComposite in2="hardAlpha" operator="out"/>
<feColorMatrix type="matrix" values="0 0 0 0 0 0 0 0 0 0 0 0 0 0 0 0 0 0 0.05 0"/>
<feBlend mode="normal" in2="effect1_backgroundBlur_4778_41627" result="effect2_dropShadow_4778_41627"/>
<feBlend mode="normal" in="SourceGraphic" in2="effect2_dropShadow_4778_41627" result="shape"/>
</filter>
<filter id="filter34_bd_4778_41627" x="1110" y="662" width="104" height="108" filterUnits="userSpaceOnUse" color-interpolation-filters="sRGB">
<feFlood flood-opacity="0" result="BackgroundImageFix"/>
<feGaussianBlur in="BackgroundImageFix" stdDeviation="2"/>
<feComposite in2="SourceAlpha" operator="in" result="effect1_backgroundBlur_4778_41627"/>
<feColorMatrix in="SourceAlpha" type="matrix" values="0 0 0 0 0 0 0 0 0 0 0 0 0 0 0 0 0 0 127 0" result="hardAlpha"/>
<feOffset dy="4"/>
<feGaussianBlur stdDeviation="2"/>
<feComposite in2="hardAlpha" operator="out"/>
<feColorMatrix type="matrix" values="0 0 0 0 0 0 0 0 0 0 0 0 0 0 0 0 0 0 0.05 0"/>
<feBlend mode="normal" in2="effect1_backgroundBlur_4778_41627" result="effect2_dropShadow_4778_41627"/>
<feBlend mode="normal" in="SourceGraphic" in2="effect2_dropShadow_4778_41627" result="shape"/>
</filter>
</defs>
</svg>
