<svg width="44" height="44" viewBox="0 0 44 44" fill="none" xmlns="http://www.w3.org/2000/svg">
<g clip-path="url(#clip0_8623_3616)">
<rect width="44" height="44" rx="8" fill="#7843FF"/>
<g filter="url(#filter0_f_8623_3616)">
<path d="M39.0023 44.6393C39.0023 54.7795 48.9144 63 39.0023 63C29.0903 63 7.03444 61.6447 7.03444 51.5045C7.03444 41.3643 5.95606 28 15.8681 28C67.8876 29.8446 39.0023 34.499 39.0023 44.6393Z" fill="white"/>
</g>
<path d="M30.75 11.5H13.25C12.7859 11.5 12.3408 11.6844 12.0126 12.0126C11.6844 12.3408 11.5 12.7859 11.5 13.25V30.75C11.5 31.2141 11.6844 31.6592 12.0126 31.9874C12.3408 32.3156 12.7859 32.5 13.25 32.5H30.75C31.2141 32.5 31.6592 32.3156 31.9874 31.9874C32.3156 31.6592 32.5 31.2141 32.5 30.75V13.25C32.5 12.7859 32.3156 12.3408 31.9874 12.0126C31.6592 11.6844 31.2141 11.5 30.75 11.5ZM15 15.875H29C29.2321 15.875 29.4546 15.9672 29.6187 16.1313C29.7828 16.2954 29.875 16.5179 29.875 16.75C29.875 16.9821 29.7828 17.2046 29.6187 17.3687C29.4546 17.5328 29.2321 17.625 29 17.625H15C14.7679 17.625 14.5454 17.5328 14.3813 17.3687C14.2172 17.2046 14.125 16.9821 14.125 16.75C14.125 16.5179 14.2172 16.2954 14.3813 16.1313C14.5454 15.9672 14.7679 15.875 15 15.875ZM15 21.125H18.5C18.7321 21.125 18.9546 21.2172 19.1187 21.3813C19.2828 21.5454 19.375 21.7679 19.375 22C19.375 22.2321 19.2828 22.4546 19.1187 22.6187C18.9546 22.7828 18.7321 22.875 18.5 22.875H15C14.7679 22.875 14.5454 22.7828 14.3813 22.6187C14.2172 22.4546 14.125 22.2321 14.125 22C14.125 21.7679 14.2172 21.5454 14.3813 21.3813C14.5454 21.2172 14.7679 21.125 15 21.125ZM19.375 28.125H15C14.7679 28.125 14.5454 28.0328 14.3813 27.8687C14.2172 27.7046 14.125 27.4821 14.125 27.25C14.125 27.0179 14.2172 26.7954 14.3813 26.6313C14.5454 26.4672 14.7679 26.375 15 26.375H19.375C19.6071 26.375 19.8296 26.4672 19.9937 26.6313C20.1578 26.7954 20.25 27.0179 20.25 27.25C20.25 27.4821 20.1578 27.7046 19.9937 27.8687C19.8296 28.0328 19.6071 28.125 19.375 28.125ZM29.7164 23.6723L27.763 25.2812L28.358 27.6875C28.3787 27.7711 28.3743 27.859 28.3454 27.9402C28.3164 28.0213 28.2641 28.0921 28.195 28.1436C28.1193 28.1994 28.0277 28.2297 27.9336 28.23C27.8567 28.2295 27.7812 28.2088 27.7148 28.1698L25.5 26.8716L23.2884 28.1742C23.2142 28.2179 23.1287 28.2386 23.0427 28.2339C22.9568 28.2292 22.8741 28.1992 22.805 28.1477C22.736 28.0962 22.6837 28.0255 22.6547 27.9444C22.6257 27.8633 22.6213 27.7755 22.642 27.6919L23.237 25.2856L21.2836 23.6723C21.2164 23.6168 21.1674 23.5424 21.1428 23.4588C21.1182 23.3752 21.1191 23.2862 21.1454 23.2031C21.1717 23.12 21.2223 23.0467 21.2905 22.9925C21.3588 22.9384 21.4417 22.9058 21.5286 22.8991L24.1077 22.7L25.0986 20.4031C25.1325 20.3249 25.1886 20.2582 25.2599 20.2114C25.3312 20.1646 25.4147 20.1396 25.5 20.1396C25.5853 20.1396 25.6688 20.1646 25.7401 20.2114C25.8114 20.2582 25.8675 20.3249 25.9014 20.4031L26.8923 22.7L29.4714 22.8991C29.5583 22.9058 29.6412 22.9384 29.7095 22.9925C29.7777 23.0467 29.8283 23.12 29.8546 23.2031C29.8809 23.2862 29.8818 23.3752 29.8572 23.4588C29.8326 23.5424 29.7836 23.6168 29.7164 23.6723Z" fill="white"/>
</g>
<defs>
<filter id="filter0_f_8623_3616" x="-43" y="-22" width="140" height="135" filterUnits="userSpaceOnUse" color-interpolation-filters="sRGB">
<feFlood flood-opacity="0" result="BackgroundImageFix"/>
<feBlend mode="normal" in="SourceGraphic" in2="BackgroundImageFix" result="shape"/>
<feGaussianBlur stdDeviation="25" result="effect1_foregroundBlur_8623_3616"/>
</filter>
<clipPath id="clip0_8623_3616">
<rect width="44" height="44" rx="8" fill="white"/>
</clipPath>
</defs>
</svg>
