<svg width="24" height="24" viewBox="0 0 24 24" fill="none" xmlns="http://www.w3.org/2000/svg">
<path fill-rule="evenodd" clip-rule="evenodd" d="M12.196 22.14C17.6884 22.14 22.141 17.6875 22.141 12.195C22.141 6.70253 17.6884 2.25 12.196 2.25C6.7035 2.25 2.25098 6.70253 2.25098 12.195C2.25098 17.6875 6.7035 22.14 12.196 22.14ZM16.4336 11.417L17.8869 10.0155C17.9414 9.96304 17.9785 9.89619 17.9935 9.82341C18.0085 9.75063 18.0008 9.67519 17.9714 9.60663C17.9419 9.53808 17.892 9.47949 17.828 9.43829C17.764 9.39709 17.6888 9.37513 17.6118 9.37518H16.1327C15.9259 9.0359 15.6316 8.75399 15.2784 8.55686C14.9252 8.35973 14.5251 8.25409 14.117 8.25021C13.8128 8.24613 13.5108 8.30086 13.2289 8.41115C12.947 8.52144 12.6908 8.68507 12.4755 8.89238C12.2538 9.10193 12.0779 9.35212 11.958 9.62824C11.8381 9.90436 11.7768 10.2008 11.7775 10.5002V10.7856C9.82061 10.2878 8.21998 8.7527 8.20297 8.73629C8.1508 8.68554 8.08468 8.65022 8.01239 8.63449C7.9401 8.61876 7.86466 8.62327 7.79494 8.64751C7.72523 8.67174 7.66414 8.71468 7.61888 8.77127C7.57363 8.82785 7.54608 8.89573 7.53948 8.96691C7.33145 11.207 8.00611 12.706 8.60884 13.569C8.90343 13.9956 9.26181 14.3778 9.67236 14.7033C8.93287 15.5242 7.76899 15.9558 7.75388 15.9614C7.69901 15.9812 7.64945 16.0128 7.60899 16.0536C7.56853 16.0945 7.53816 16.1437 7.52017 16.1974C7.50217 16.2512 7.49701 16.3082 7.50507 16.3642C7.51313 16.4201 7.5342 16.4736 7.5667 16.5206C7.60316 16.5731 7.74898 16.7574 8.10527 16.9294C8.54711 17.1422 9.12893 17.25 9.8347 17.25C13.2698 17.25 16.14 14.6991 16.4336 11.417Z" fill="#7843FF"/>
</svg>
