<svg width="32" height="32" viewBox="0 0 32 32" fill="none" xmlns="http://www.w3.org/2000/svg">
<path fill-rule="evenodd" clip-rule="evenodd" d="M16.261 29.52C23.5843 29.52 29.521 23.5833 29.521 16.26C29.521 8.9367 23.5843 3 16.261 3C8.93768 3 3.00098 8.9367 3.00098 16.26C3.00098 23.5833 8.93768 29.52 16.261 29.52ZM21.9111 15.2227L23.8489 13.354C23.9215 13.2841 23.971 13.1949 23.991 13.0979C24.011 13.0008 24.0008 12.9003 23.9615 12.8088C23.9222 12.7174 23.8557 12.6393 23.7704 12.5844C23.685 12.5295 23.5847 12.5002 23.4821 12.5002H21.51C21.2342 12.0479 20.8418 11.672 20.3708 11.4092C19.8999 11.1463 19.3664 11.0055 18.8223 11.0003C18.4167 10.9948 18.0141 11.0678 17.6382 11.2149C17.2623 11.3619 16.9207 11.5801 16.6337 11.8565C16.3381 12.1359 16.1035 12.4695 15.9437 12.8377C15.7839 13.2058 15.702 13.6011 15.703 14.0002V14.3808C13.0938 13.7171 10.9596 11.6703 10.937 11.6484C10.8674 11.5807 10.7792 11.5336 10.6829 11.5127C10.5865 11.4917 10.4859 11.4977 10.3929 11.53C10.3 11.5623 10.2185 11.6196 10.1582 11.695C10.0978 11.7705 10.0611 11.861 10.0523 11.9559C9.77494 14.9427 10.6745 16.9414 11.4781 18.092C11.8709 18.6608 12.3488 19.1705 12.8961 19.6045C11.9102 20.6989 10.3583 21.2744 10.3382 21.2819C10.265 21.3083 10.1989 21.3504 10.145 21.4049C10.091 21.4593 10.0506 21.5249 10.0266 21.5966C10.0026 21.6683 9.99569 21.7443 10.0064 21.8189C10.0172 21.8935 10.0453 21.9648 10.0886 22.0275C10.1372 22.0975 10.3316 22.3431 10.8067 22.5725C11.3958 22.8563 12.1716 23 13.1126 23C17.6927 23 21.5197 19.5988 21.9111 15.2227Z" fill="white"/>
</svg>
