<svg width="45" height="44" viewBox="0 0 45 44" fill="none" xmlns="http://www.w3.org/2000/svg">
<g clip-path="url(#clip0_8661_5902)">
<rect x="0.666504" width="44" height="44" rx="8" fill="#7843FF"/>
<g filter="url(#filter0_f_8661_5902)">
<path d="M39.6688 44.6393C39.6688 54.7795 49.5809 63 39.6688 63C29.7568 63 7.70094 61.6447 7.70094 51.5045C7.70094 41.3643 6.62257 28 16.5346 28C68.5541 29.8446 39.6688 34.499 39.6688 44.6393Z" fill="white"/>
</g>
<path d="M32.2915 15H14.7915C14.5594 15 14.3369 14.9078 14.1728 14.7437C14.0087 14.5796 13.9165 14.3571 13.9165 14.125C13.9165 13.8929 14.0087 13.6704 14.1728 13.5063C14.3369 13.3422 14.5594 13.25 14.7915 13.25H29.6665C29.8986 13.25 30.1211 13.1578 30.2852 12.9937C30.4493 12.8296 30.5415 12.6071 30.5415 12.375C30.5415 12.1429 30.4493 11.9204 30.2852 11.7563C30.1211 11.5922 29.8986 11.5 29.6665 11.5H14.7915C14.0953 11.5 13.4276 11.7766 12.9353 12.2688C12.4431 12.7611 12.1665 13.4288 12.1665 14.125V28.125C12.1665 28.8212 12.4431 29.4889 12.9353 29.9812C13.4276 30.4734 14.0953 30.75 14.7915 30.75H32.2915C32.7556 30.75 33.2008 30.5656 33.5289 30.2374C33.8571 29.9092 34.0415 29.4641 34.0415 29V16.75C34.0415 16.2859 33.8571 15.8408 33.5289 15.5126C33.2008 15.1844 32.7556 15 32.2915 15ZM28.354 23.75C28.0944 23.75 27.8407 23.673 27.6248 23.5288C27.409 23.3846 27.2408 23.1796 27.1414 22.9398C27.0421 22.6999 27.0161 22.436 27.0667 22.1814C27.1174 21.9268 27.2424 21.693 27.4259 21.5094C27.6095 21.3259 27.8433 21.2009 28.0979 21.1502C28.3525 21.0996 28.6164 21.1256 28.8563 21.2249C29.0961 21.3242 29.3011 21.4925 29.4453 21.7083C29.5895 21.9242 29.6665 22.1779 29.6665 22.4375C29.6665 22.7856 29.5282 23.1194 29.2821 23.3656C29.0359 23.6117 28.7021 23.75 28.354 23.75Z" fill="white"/>
</g>
<defs>
<filter id="filter0_f_8661_5902" x="-42.3335" y="-22" width="140" height="135" filterUnits="userSpaceOnUse" color-interpolation-filters="sRGB">
<feFlood flood-opacity="0" result="BackgroundImageFix"/>
<feBlend mode="normal" in="SourceGraphic" in2="BackgroundImageFix" result="shape"/>
<feGaussianBlur stdDeviation="25" result="effect1_foregroundBlur_8661_5902"/>
</filter>
<clipPath id="clip0_8661_5902">
<rect x="0.666504" width="44" height="44" rx="8" fill="white"/>
</clipPath>
</defs>
</svg>
