<svg width="40" height="40" viewBox="0 0 40 40" fill="none" xmlns="http://www.w3.org/2000/svg">
<path d="M35.3309 12.4982C34.9622 11.1205 33.8794 10.0379 32.5017 9.66908C30.0073 9 19.9999 9 19.9999 9C19.9999 9 9.99275 9 7.49818 9.66908C6.12052 10.0379 5.03787 11.1205 4.66908 12.4982C4 14.9927 4 20.2005 4 20.2005C4 20.2005 4 25.4083 4.66908 27.9029C5.03787 29.2806 6.12052 30.3632 7.49818 30.7319C9.99275 31.401 19.9999 31.401 19.9999 31.401C19.9999 31.401 30.0073 31.401 32.5017 30.7319C33.8794 30.3632 34.9622 29.2806 35.3309 27.9029C36 25.4083 36 20.2005 36 20.2005C36 20.2005 35.9973 14.9927 35.3309 12.4982Z" fill="#FF0000"/>
<path d="M16.7974 25.0003L25.1108 20.2009L16.7974 15.4014V25.0003Z" fill="white"/>
</svg>
